<svg preserveAspectRatio="none" width="100%" height="100%" overflow="visible" style="display: block;" viewBox="0 0 292 34" fill="none" xmlns="http://www.w3.org/2000/svg">
<g id="Frame 74">
<g id="Mam">
<path d="M0 33.2V0H15.75L20.8 16.1L21.85 21.55H22.85L24 16.05L29.4 0H44.05V33.2H34.35V16.1L35.05 5.25H33.75L30.8 14.7L24.15 33.2H17.95L11.7 14.85L8.9 5.2H7.5L8.5 16.05V33.2H0Z" fill="var(--fill-0, #212020)"/>
<path d="M72.9434 33.2L70.5434 26.5H57.4934L55.1934 33.2H46.1934L58.3434 0H71.7434L83.5434 33.2H72.9434ZM61.0434 19.85H66.7434L70.0434 21.1L68.1434 18.7L65.1934 5.9L64.4934 1.95H63.8934L63.2434 5.95L59.8934 18.7L57.9934 21.15L61.0434 19.85Z" fill="var(--fill-0, #212020)"/>
<path d="M85.8477 33.2V0H101.598L106.648 16.1L107.698 21.55H108.698L109.848 16.05L115.248 0H129.898V33.2H120.198V16.1L120.898 5.25H119.598L116.648 14.7L109.998 33.2H103.798L97.5477 14.85L94.7477 5.2H93.3477L94.3477 16.05V33.2H85.8477Z" fill="var(--fill-0, #212020)"/>
</g>
</g>
</svg>
