<svg preserveAspectRatio="none" width="100%" height="100%" overflow="visible" style="display: block;" viewBox="0 0 49.9998 46.6156" fill="none" xmlns="http://www.w3.org/2000/svg">
<g id="Group">
<path id="Vector" d="M49.1263 41.4993L31.9759 24.3491L41.5413 14.7837C42.4326 13.8925 43.5584 13.2106 44.7967 12.8115C45.8001 12.489 46.6884 11.9458 47.4371 11.1969C48.7129 9.92125 49.3998 8.22509 49.3716 6.42104C49.3431 4.61666 48.6015 2.94122 47.2832 1.70312C47.1212 1.55111 46.8924 1.49325 46.6782 1.54983C46.4637 1.60629 46.2933 1.76915 46.2272 1.98106L45.1023 5.59013C44.775 6.63907 43.6553 7.22607 42.6057 6.89864C41.7686 6.63735 41.2062 5.87322 41.2062 4.99722C41.2062 4.79701 41.2368 4.59712 41.2972 4.40335L42.4104 0.836042C42.4769 0.622948 42.4284 0.390638 42.2822 0.222095C42.1359 0.0535523 41.9129 -0.0274986 41.6925 0.00835705C40.4685 0.206958 39.3333 0.740928 38.4095 1.55272C36.7856 2.98072 35.9589 5.11413 36.198 7.25978C36.4609 9.61637 35.6217 11.9574 33.8954 13.6829L27.6025 19.9756L26.5812 18.9543L24.9963 15.3074C24.9641 15.2334 24.9182 15.1659 24.8609 15.1087L16.8597 7.10723C16.7388 6.98646 16.575 6.91861 16.4042 6.91861C16.2334 6.91861 16.0696 6.98646 15.9488 7.10723L9.95178 13.104L7.17919 10.3314L13.2902 4.22042C13.5418 3.9689 13.5418 3.56107 13.2902 3.30954L10.5243 0.543615C10.2932 0.312378 9.92494 0.291015 9.66847 0.494555L1.18787 7.22457C0.493947 7.75778 0.0634652 8.56453 0.00646122 9.43774C-0.0505428 10.311 0.271728 11.1668 0.890506 11.7856L2.85237 13.7474C2.97808 13.8731 3.14297 13.936 3.30775 13.936C3.47254 13.936 3.63743 13.8731 3.76314 13.7474L4.21864 13.2919L6.99122 16.0645L6.53572 16.52C6.28409 16.7715 6.28409 17.1793 6.53562 17.4309L9.95145 20.8468C10.203 21.0983 10.6109 21.0984 10.8623 20.8468L11.8492 19.8599L13.9748 21.9855L12.988 22.9723C12.7364 23.2238 12.7364 23.6316 12.9879 23.8831L13.5704 24.4656C14.5276 25.4228 15.9536 25.6905 17.1774 25.1881L18.5997 26.6105C18.7206 26.7313 18.8843 26.7991 19.0552 26.7991C19.2261 26.7991 19.3899 26.7313 19.5107 26.6105L21.0289 25.0924C21.2804 24.8408 21.2804 24.433 21.0289 24.1815L20.2591 23.4115L21.6909 22.5663L23.3513 24.2266L15.7525 31.8254C14.8613 32.7165 13.7355 33.3984 12.497 33.7975C11.5084 34.1157 10.5955 34.6743 9.85656 35.4131C8.58068 36.6891 7.89384 38.3854 7.92228 40.1897C7.95095 41.9938 8.69264 43.6687 10.0108 44.906C10.1726 45.0579 10.4014 45.1157 10.6155 45.0593C10.83 45.0028 11.0005 44.84 11.0665 44.6283L12.1925 41.0201C12.3511 40.512 12.698 40.0961 13.1692 39.849C13.6406 39.6017 14.1798 39.553 14.688 39.7116C15.5252 39.9729 16.0876 40.737 16.0876 41.613C16.0876 41.8132 16.057 42.0131 15.9965 42.2071L14.8843 45.7744C14.8178 45.9876 14.8666 46.2199 15.013 46.3885C15.1363 46.5306 15.3144 46.6102 15.4992 46.6102C15.5337 46.6102 15.5685 46.6074 15.6031 46.6017C16.8268 46.4016 17.9614 45.8674 18.8841 45.0565C20.5094 43.6285 21.3361 41.4953 21.0959 39.3504C20.8331 36.9951 21.6725 34.6535 23.3985 32.9263L27.7247 28.6001L44.827 45.7025C45.4339 46.3093 46.2248 46.6156 47.0113 46.6156C47.7355 46.6156 48.4561 46.3559 49.0261 45.8319C49.6362 45.271 49.9817 44.5059 49.9991 43.6776C50.0167 42.8532 49.7066 42.0798 49.1263 41.4993ZM34.8059 14.5938C36.8107 12.59 37.7847 9.86478 37.4781 7.11689C37.2856 5.38906 37.9517 3.67057 39.26 2.52029C39.7249 2.1116 40.2572 1.79062 40.8323 1.56851L40.0673 4.01989C39.9681 4.33819 39.9178 4.66701 39.9178 4.99722C39.9178 6.44004 40.8437 7.69831 42.2219 8.12836C43.9498 8.66738 45.7932 7.70078 46.332 5.97359L47.1151 3.46123C47.7282 4.32767 48.0663 5.35557 48.0834 6.44132C48.1062 7.89369 47.5532 9.2591 46.5261 10.2861C45.9235 10.8888 45.209 11.3258 44.402 11.5853C42.9695 12.0468 41.6654 12.8378 40.6304 13.8728L31.065 23.4383L28.5133 20.8865L34.8059 14.5938ZM1.8015 10.8746C1.44487 10.518 1.25915 10.0248 1.292 9.52158C1.32485 9.01831 1.57294 8.55337 1.98077 8.2399L10.0195 1.86061L11.9238 3.76504L3.30786 12.381L1.8015 10.8746ZM5.12963 12.381L6.26831 11.2423L9.04089 14.0149L7.90221 15.1536L5.12963 12.381ZM12.7603 18.949L13.3677 18.3417L15.4932 20.4672L14.8859 21.0745L12.7603 18.949ZM16.4041 19.5563L14.2786 17.4309L15.4173 16.2922L17.5428 18.4176L16.4041 19.5563ZM19.6627 24.6369L19.0556 25.2442L18.3501 24.5386L19.1137 24.0879L19.6627 24.6369ZM22.4877 32.0154C20.4832 34.0212 19.5094 36.7466 19.8158 39.4934C20.0094 41.2204 19.3433 42.9382 18.034 44.0886C17.5695 44.4969 17.0377 44.8179 16.4627 45.0403L17.2266 42.5901C17.3258 42.2718 17.376 41.943 17.376 41.6128C17.376 40.17 16.4501 38.9117 15.0719 38.4816C13.3446 37.9429 11.5017 38.9094 10.963 40.6362L10.179 43.1483C9.56585 42.2824 9.22779 41.2548 9.21062 40.1692C9.18754 38.7166 9.74061 37.3511 10.7677 36.3239C11.371 35.7205 12.0856 35.2832 12.8919 35.0236C14.3244 34.5621 15.6286 33.7711 16.6635 32.7361L24.2623 25.1373L26.8141 27.6891L22.4877 32.0154ZM48.1545 44.8835C47.4869 45.4972 46.4031 45.4561 45.7382 44.7914L22.2491 21.3022C22.125 21.1781 21.9601 21.1136 21.7935 21.1136C21.6812 21.1136 21.568 21.1429 21.4661 21.203L16.9523 23.8678C16.1538 24.3395 15.1377 24.2107 14.4815 23.5548L14.3545 23.4278L18.909 18.8731C19.1607 18.6216 19.1607 18.2138 18.909 17.9622L15.8727 14.9258C15.6213 14.6743 15.2132 14.6743 14.9619 14.9258L10.4072 19.4803L7.90221 16.9754L16.4041 8.4735L23.8634 15.933L25.4483 19.5798C25.4805 19.654 25.5264 19.7214 25.5836 19.7786L48.2153 42.4103C48.5451 42.7401 48.7212 43.1805 48.7114 43.6505C48.7015 44.1246 48.5036 44.5625 48.1545 44.8835Z" fill="var(--fill-0, black)"/>
<path id="Vector_2" d="M47.0354 44.4436C47.5097 44.4436 47.8942 44.0591 47.8942 43.5848C47.8942 43.1105 47.5097 42.726 47.0354 42.726C46.5611 42.726 46.1766 43.1105 46.1766 43.5848C46.1766 44.0591 46.5611 44.4436 47.0354 44.4436Z" fill="var(--fill-0, black)"/>
</g>
</svg>
