<svg preserveAspectRatio="none" width="100%" height="100%" overflow="visible" style="display: block;" viewBox="0 0 20 20" fill="none" xmlns="http://www.w3.org/2000/svg">
<g id="water-svgrepo-com 1">
<path id="Vector" d="M10 15C9.63308 15 9.2765 14.8789 8.98542 14.6556C8.69433 14.4323 8.48508 14.1191 8.39008 13.7647" stroke="var(--stroke-0, #212020)" stroke-width="1.5" stroke-linecap="round"/>
<path id="Vector_2" d="M8.68692 3.8989C9.21275 3.00505 9.47558 2.55813 9.85192 2.49018C9.94983 2.4725 10.0502 2.4725 10.1481 2.49018C10.5244 2.55813 10.7872 3.00505 11.3131 3.8989L12.7033 6.26235C13.675 7.91411 14.4331 9.6825 14.9596 11.5251C15.8151 14.5193 13.5667 17.5 10.4527 17.5H9.54733C6.43324 17.5 4.18494 14.5193 5.04045 11.5251C5.56692 9.6825 6.32503 7.91411 7.29666 6.26235L8.68692 3.8989Z" fill="var(--fill-0, #212020)"/>
</g>
</svg>
