<svg preserveAspectRatio="none" width="100%" height="100%" overflow="visible" style="display: block;" viewBox="0 0 40 40" fill="none" xmlns="http://www.w3.org/2000/svg">
<g id="instagram-unauth-icon">
<path id="Vector" d="M29.3187 16.135C29.2731 15.1369 29.115 14.4556 28.8831 13.8594C28.6438 13.2431 28.3231 12.72 27.8019 12.1987C27.2806 11.6775 26.7581 11.3569 26.1413 11.1175C25.545 10.8856 24.8631 10.7275 23.8656 10.6819C22.8656 10.6356 22.5462 10.625 20 10.625C17.4538 10.625 17.1344 10.6356 16.135 10.6813C15.1369 10.7269 14.4556 10.885 13.8594 11.1169C13.2431 11.3563 12.72 11.6769 12.1987 12.1981C11.6775 12.7194 11.3569 13.2419 11.1175 13.8587C10.8856 14.455 10.7275 15.1369 10.6819 16.1344C10.6356 17.1344 10.625 17.4538 10.625 20C10.625 22.5462 10.6356 22.8656 10.6813 23.865C10.7269 24.8631 10.885 25.5444 11.1169 26.1406C11.3563 26.7569 11.6769 27.28 12.1981 27.8012C12.7194 28.3225 13.2419 28.6431 13.8587 28.8825C14.455 29.1144 15.1369 29.2725 16.1344 29.3181C17.1344 29.3644 17.4538 29.375 20 29.375C22.5462 29.375 22.8656 29.3644 23.865 29.3187C24.8631 29.2731 25.5444 29.115 26.1406 28.8831C26.7569 28.6438 27.28 28.3231 27.8012 27.8019C28.3225 27.2806 28.6431 26.7581 28.8825 26.1413C29.1144 25.545 29.2725 24.8631 29.3181 23.8656C29.3644 22.8656 29.375 22.5462 29.375 20C29.375 17.4538 29.3644 17.1344 29.3187 16.135ZM27.6312 23.7881C27.5894 24.7019 27.4369 25.1988 27.3088 25.5288C27.1388 25.9663 26.9356 26.2787 26.6075 26.6069C26.2794 26.935 25.9669 27.1381 25.5294 27.3081C25.1988 27.4363 24.7025 27.5894 23.7888 27.6306C22.8006 27.6756 22.5037 27.685 20.0006 27.685C17.4975 27.685 17.2006 27.6756 16.2125 27.6306C15.2988 27.5887 14.8019 27.4363 14.4719 27.3081C14.0344 27.1381 13.7219 26.935 13.3938 26.6069C13.0656 26.2787 12.8625 25.9663 12.6925 25.5288C12.5644 25.1981 12.4112 24.7019 12.37 23.7881C12.325 22.7994 12.3156 22.5031 12.3156 20C12.3156 17.4969 12.325 17.2 12.37 16.2119C12.4119 15.2981 12.5644 14.8012 12.6925 14.4712C12.8625 14.0337 13.0656 13.7213 13.3938 13.3931C13.7219 13.065 14.0344 12.8619 14.4719 12.6919C14.8025 12.5637 15.2988 12.4106 16.2125 12.3694C17.2013 12.3244 17.4975 12.315 20.0006 12.315C22.5037 12.315 22.8006 12.3244 23.7888 12.3694C24.7025 12.4113 25.1994 12.5637 25.5294 12.6919C25.9669 12.8619 26.2794 13.065 26.6075 13.3931C26.9356 13.7213 27.1388 14.0337 27.3088 14.4712C27.4369 14.8019 27.59 15.2981 27.6312 16.2119C27.6762 17.2006 27.6856 17.4969 27.6856 20C27.6856 22.5031 27.6762 22.8 27.6312 23.7881ZM20 15.1856C17.3412 15.1856 15.1856 17.3412 15.1856 20C15.1856 22.6588 17.3412 24.8144 20 24.8144C22.6588 24.8144 24.8144 22.6588 24.8144 20C24.8144 17.3412 22.6588 15.1856 20 15.1856ZM20 23.125C18.2744 23.125 16.875 21.7256 16.875 20C16.875 18.2744 18.2744 16.875 20 16.875C21.7256 16.875 23.125 18.2744 23.125 20C23.125 21.7256 21.7256 23.125 20 23.125ZM25.0044 13.8706C24.3831 13.8706 23.8794 14.3744 23.8794 14.9956C23.8794 15.6169 24.3831 16.1206 25.0044 16.1206C25.6256 16.1206 26.1294 15.6169 26.1294 14.9956C26.1294 14.3744 25.6256 13.8706 25.0044 13.8706Z" fill="var(--fill-0, white)"/>
</g>
</svg>
