<svg width="82" height="83" viewBox="0 0 82 83" fill="none" xmlns="http://www.w3.org/2000/svg">
<g clip-path="url(#clip0_111_17)">
<path d="M78.9864 12.7897H65.4154C64.6162 12.7897 63.8498 13.1043 63.2846 13.6645C62.7195 14.2245 62.402 14.984 62.402 15.7761V50.9507C61.9346 51.2593 61.5004 51.6147 61.1064 52.0112C60.0208 53.1711 59.0347 54.4187 58.1584 55.7411C57.81 56.2775 57.5352 56.7529 57.2892 57.1754C56.8871 58.0985 56.2217 58.8851 55.3746 59.4386C54.6357 59.8102 53.8361 60.0482 53.013 60.1415C52.4407 60.2291 51.8607 60.2563 51.2828 60.2228V34.3894C51.2828 33.9852 51.1208 33.5977 50.8324 33.312C50.5442 33.0262 50.153 32.8656 49.7452 32.8656H1.5375C1.12973 32.8656 0.73866 33.0262 0.450323 33.312C0.161986 33.5977 0 33.9852 0 34.3894V64.8628C0 65.267 0.161986 65.6545 0.450323 65.9402C0.73866 66.226 1.12973 66.3866 1.5375 66.3866H4.2312C4.63896 66.3866 5.03004 66.547 5.31837 66.8328C5.60671 67.1185 5.7687 67.5061 5.7687 67.9102C5.7687 68.1101 5.8085 68.308 5.88581 68.4927C5.96313 68.6773 6.07645 68.845 6.21926 68.9862C6.36209 69.1274 6.53162 69.2392 6.71813 69.3153C6.90464 69.3914 7.10448 69.4304 7.3062 69.4299H16.4C16.6017 69.4304 16.8016 69.3914 16.9881 69.3153C17.1745 69.2392 17.3441 69.1274 17.4869 68.9862C17.6298 68.845 17.7431 68.6773 17.8204 68.4927C17.8977 68.308 17.9374 68.1101 17.9374 67.9102C17.9374 67.5061 18.0994 67.1185 18.3878 66.8328C18.6762 66.547 19.0672 66.3866 19.475 66.3866H31.775C32.1828 66.3866 32.5738 66.547 32.8622 66.8328C33.1505 67.1185 33.3124 67.5061 33.3124 67.9102C33.3124 68.1101 33.3523 68.308 33.4296 68.4927C33.5069 68.6773 33.6202 68.845 33.763 68.9862C33.9058 69.1274 34.0754 69.2392 34.2619 69.3153C34.4484 69.3914 34.6483 69.4304 34.85 69.4299H43.956C44.1577 69.4304 44.3576 69.3914 44.5441 69.3153C44.7307 69.2392 44.9002 69.1274 45.043 68.9862C45.1858 68.845 45.2991 68.6773 45.3765 68.4927C45.4538 68.308 45.4936 68.1101 45.4936 67.9102C45.4931 67.7103 45.5323 67.5122 45.6091 67.3274C45.6859 67.1426 45.7988 66.9746 45.9412 66.8331C46.0837 66.6915 46.2529 66.5792 46.4393 66.5026C46.6255 66.426 46.8253 66.3866 47.027 66.3866H49.7248C50.049 66.3846 50.3641 66.2799 50.6238 66.0876C50.8834 65.8953 51.0742 65.6255 51.168 65.3179C51.5761 65.3695 51.9866 65.4007 52.398 65.4113C52.9358 65.4056 53.4727 65.3649 54.0052 65.2895C54.9875 65.1728 55.9403 64.881 56.8178 64.4281C57.8767 63.7677 58.7153 62.8123 59.2286 61.6815C59.4609 61.2752 59.7342 60.8146 60.0486 60.3C60.7569 59.239 61.5363 58.2264 62.3814 57.2688V66.4435C62.3814 67.2354 62.699 67.9951 63.2641 68.5551C63.8292 69.1152 64.5958 69.4299 65.395 69.4299H78.966C79.3648 69.4325 79.7602 69.3567 80.1292 69.2068C80.4983 69.057 80.8337 68.836 81.1159 68.5566C81.3981 68.2773 81.6216 67.9453 81.7734 67.5797C81.9251 67.2142 82.0021 66.8224 82 66.4271V15.7761C82 14.984 81.6824 14.2245 81.1173 13.6645C80.5522 13.1043 79.7857 12.7897 78.9864 12.7897ZM27.5642 35.6082C27.5642 35.2042 27.7262 34.8166 28.0146 34.5308C28.303 34.2451 28.694 34.0846 29.1018 34.0846H48.462C48.8698 34.0846 49.2608 34.2451 49.5492 34.5308C49.8375 34.8166 49.9994 35.2042 49.9994 35.6082V61.2061C49.9994 61.6101 49.8375 61.9977 49.5492 62.2835C49.2608 62.5692 48.8698 62.7297 48.462 62.7297H29.11C28.7022 62.7297 28.3112 62.5692 28.0228 62.2835C27.7344 61.9977 27.5724 61.6101 27.5724 61.2061L27.5642 35.6082ZM14.4238 37.7415C15.7119 37.6822 16.9989 37.8825 18.2068 38.3302C19.4146 38.778 20.5183 39.4638 21.4511 40.3462C22.3839 41.2287 23.1263 42.2895 23.6336 43.4645C24.1409 44.6395 24.4025 45.9042 24.4025 47.1821C24.4025 48.4601 24.1409 49.7248 23.6336 50.8998C23.1263 52.0748 22.3839 53.1355 21.4511 54.0181C20.5183 54.9005 19.4146 55.5863 18.2068 56.034C16.9989 56.4818 15.7119 56.6821 14.4238 56.6228C13.1355 56.6821 11.8487 56.4818 10.6408 56.034C9.43295 55.5863 8.32927 54.9005 7.39651 54.0181C6.46374 53.1355 5.72127 52.0748 5.21399 50.8998C4.7067 49.7248 4.44517 48.4601 4.44517 47.1821C4.44517 45.9042 4.7067 44.6395 5.21399 43.4645C5.72127 42.2895 6.46374 41.2287 7.39651 40.3462C8.32927 39.4638 9.43295 38.778 10.6408 38.3302C11.8487 37.8825 13.1355 37.6822 14.4238 37.7415ZM50.02 65.1513H1.2833V63.9324H50.02V65.1513ZM61.91 55.8427C60.8229 57.0024 59.8355 58.2501 58.958 59.5727C58.6573 60.0441 58.3674 60.5224 58.0888 61.0069C57.6867 61.93 57.0212 62.7167 56.174 63.2701C55.4353 63.6416 54.6355 63.8797 53.8124 63.973C52.9762 64.0901 52.1273 64.0901 51.291 63.973V61.5352C51.4016 61.5352 51.5082 61.5595 51.619 61.5595C52.1568 61.5538 52.6937 61.5131 53.2262 61.4377C54.2085 61.321 55.1613 61.0291 56.0388 60.5763C57.0978 59.917 57.9354 58.9612 58.4454 57.8295C58.6805 57.4232 58.9538 56.9628 59.2654 56.4481C60.1023 55.2 61.0372 54.0193 62.0616 52.9173C62.1682 52.817 62.279 52.7181 62.3938 52.6206V55.3876C62.2298 55.542 62.0534 55.6842 61.91 55.8427ZM80.9299 30.245C80.9299 30.94 80.6513 31.6066 80.1553 32.0981C79.6594 32.5896 78.9868 32.8656 78.2854 32.8656H66.1944C65.4931 32.8656 64.8205 32.5896 64.3245 32.0981C63.8286 31.6066 63.55 30.94 63.55 30.245V16.4302C63.55 15.7352 63.8286 15.0686 64.3245 14.5771C64.8205 14.0857 65.4931 13.8096 66.1944 13.8096H78.2772C78.9786 13.8096 79.6512 14.0857 80.1471 14.5771C80.6431 15.0686 80.9216 15.7352 80.9216 16.4302L80.9299 30.245ZM8.1221 46.6519C9.1037 47.1077 10.1418 47.4328 11.2094 47.6189C11.2589 47.9506 11.3599 48.2726 11.5086 48.5737C10.6583 49.2884 9.90325 50.1077 9.26189 51.0116C9.09015 51.2835 8.97619 51.5871 8.92699 51.9041C8.87779 52.221 8.89438 52.5446 8.97574 52.8549C9.05711 53.1653 9.20155 53.456 9.40021 53.7092C9.59887 53.9623 9.84757 54.1726 10.1311 54.3272C10.7198 54.6383 11.4067 54.7136 12.05 54.5375C12.6931 54.3613 13.2434 53.9472 13.5874 53.3805C14.1087 52.3661 14.4932 51.2883 14.7312 50.1747C15.0278 50.1354 15.3175 50.056 15.5922 49.939C16.3365 50.7831 17.1947 51.5214 18.1424 52.1331C18.7312 52.4443 19.4181 52.5195 20.0614 52.3433C20.7045 52.1673 21.2548 51.7531 21.5988 51.1864C21.7713 50.9146 21.8861 50.6109 21.936 50.2936C21.9858 49.9765 21.9698 49.6525 21.8888 49.3416C21.8077 49.0307 21.6635 48.7397 21.4649 48.486C21.2662 48.2324 21.0175 48.0217 20.7336 47.8667C19.7358 47.4024 18.6795 47.073 17.593 46.8876C17.5831 46.5531 17.5138 46.223 17.388 45.9124C18.2241 45.1951 18.9652 44.376 19.5938 43.4745C19.7665 43.2029 19.8812 42.8991 19.9311 42.5818C19.981 42.2646 19.9649 41.9406 19.8838 41.6298C19.8029 41.319 19.6586 41.0278 19.46 40.7742C19.2614 40.5206 19.0125 40.3098 18.7288 40.155C18.14 39.8437 17.4531 39.7684 16.81 39.9446C16.1668 40.1208 15.6164 40.535 15.2724 41.1017C14.7944 42.0146 14.4349 42.984 14.2024 43.9865C13.8006 44.0208 13.4087 44.1282 13.0462 44.3034C12.3536 43.5584 11.5699 42.9019 10.7132 42.3491C10.1243 42.0388 9.43776 41.9641 8.79487 42.1402C8.15198 42.3163 7.60162 42.7298 7.257 43.2958C7.07829 43.5687 6.95857 43.8755 6.90539 44.1966C6.8522 44.5177 6.8667 44.8463 6.94797 45.1615C7.02924 45.4768 7.17552 45.7721 7.3776 46.0286C7.57968 46.285 7.83316 46.4973 8.1221 46.6519ZM12.8166 46.2455C13.0678 45.8348 13.4681 45.5347 13.9355 45.4071C14.4028 45.2794 14.9017 45.3337 15.3298 45.5589C15.5358 45.6719 15.7164 45.8252 15.8606 46.0095C16.0048 46.194 16.1097 46.4055 16.1687 46.6312C16.2278 46.8571 16.2398 47.0924 16.2042 47.3229C16.1686 47.5536 16.0858 47.7745 15.9612 47.9724C15.7122 48.3855 15.3119 48.6875 14.8436 48.8154C14.3755 48.9433 13.8756 48.8873 13.448 48.6591C13.2432 48.5461 13.0637 48.3931 12.9202 48.2093C12.7767 48.0256 12.6723 47.815 12.6133 47.5902C12.5543 47.3653 12.5418 47.131 12.5768 46.9013C12.6117 46.6716 12.6933 46.4513 12.8166 46.2538V46.2455ZM31.6396 60.2797H45.2844C45.8554 60.2797 46.4028 60.0549 46.8066 59.6549C47.2102 59.2548 47.437 58.7123 47.437 58.1464V55.7086C47.437 55.4287 47.3813 55.1515 47.273 54.8929C47.1648 54.6343 47.0062 54.3995 46.8062 54.2017C46.6064 54.004 46.369 53.8472 46.1079 53.7404C45.8467 53.6337 45.567 53.579 45.2844 53.5795H31.6396C31.3572 53.579 31.0774 53.6337 30.8162 53.7404C30.5551 53.8472 30.3179 54.004 30.1179 54.2017C29.918 54.3995 29.7593 54.6343 29.6511 54.8929C29.5429 55.1515 29.4872 55.4287 29.4872 55.7086V58.1464C29.4872 58.7123 29.7139 59.2548 30.1176 59.6549C30.5214 60.0549 31.0688 60.2797 31.6396 60.2797ZM32.9188 54.7944H43.9888C44.5598 54.7944 45.1072 55.0191 45.511 55.4192C45.9146 55.8192 46.1414 56.3619 46.1414 56.9276C46.1414 57.4933 45.9146 58.0359 45.511 58.4359C45.1072 58.8359 44.5598 59.0607 43.9888 59.0607H32.9188C32.348 59.0607 31.8006 58.8359 31.3968 58.4359C30.9931 58.0359 30.7664 57.4933 30.7664 56.9276C30.7664 56.3619 30.9931 55.8192 31.3968 55.4192C31.8006 55.0191 32.348 54.7944 32.9188 54.7944ZM42.3078 50.5322H47.437V51.7511H42.3078V50.5322ZM29.4872 50.5322H40.385V51.7511H29.4872V50.5322ZM29.4872 47.4848H47.437V48.7038H29.4872V47.4848ZM29.4872 44.4415H47.437V45.6605H29.4872V44.4415ZM29.4872 41.3941H47.437V42.6131H29.4872V41.3941ZM29.4872 38.351H47.437V39.5698H29.4872V38.351Z" fill="#212020"/>
</g>
<defs>
<clipPath id="clip0_111_17">
<rect width="82" height="82.2196" fill="white"/>
</clipPath>
</defs>
</svg>
