<svg width="82" height="83" viewBox="0 0 82 83" fill="none" xmlns="http://www.w3.org/2000/svg">
<g clip-path="url(#clip0_111_105)">
<path d="M5.61046 44.3553H2.30165C1.94194 44.3553 1.72621 44.4276 1.6543 44.4276L4.2437 56.1114C4.31561 56.1114 4.38752 56.1114 4.6034 56.1114H4.96311H6.1859C4.81929 54.4526 3.88414 52.7216 3.88414 50.1974C3.81223 48.0337 4.45958 46.0142 5.61046 44.3553Z" fill="black"/>
<path d="M19.5648 56.1113L22.0822 44.4274C22.0102 44.4274 21.8664 44.3552 21.4349 44.3552H18.1261C19.2051 45.9419 19.8524 47.9613 19.8524 50.1973C19.8524 52.7215 18.9174 54.5247 17.6226 56.1113H19.3489C19.4928 56.1113 19.4928 56.1113 19.5648 56.1113Z" fill="black"/>
<path d="M16.0403 56.1113C17.6228 54.3802 18.7016 52.7215 18.7016 50.1973C18.7016 47.8892 17.9104 45.8698 16.6156 44.3552C16.184 43.8503 15.6087 43.3456 15.105 43.057C14.0979 42.4801 13.091 42.1194 11.94 42.1194C10.7891 42.1194 9.71016 42.4801 8.77517 43.057C8.27164 43.4177 7.76811 43.8505 7.26458 44.3552C5.96988 45.8698 5.17871 47.8892 5.17871 50.1973C5.17871 52.7215 6.18562 54.3082 7.84002 56.1113H16.0403Z" fill="black"/>
<path d="M72.074 57.9864C71.0668 58.275 69.9161 58.4192 68.7652 58.4192C67.7583 58.4192 66.751 58.275 65.7441 58.0585L63.2266 77.748C63.2266 78.0364 63.5142 78.2528 63.8739 78.2528H74.0161C74.3758 78.2528 74.5917 77.9644 74.5917 77.6759L72.074 57.9864C72.074 58.0587 72.074 58.0587 72.074 57.9864Z" fill="black"/>
<path d="M81.2809 46.9518H79.8424H76.1019V44.3553H76.8212C77.1809 44.3553 77.3968 44.0669 77.3968 43.7784V43.7063C77.3968 43.3456 77.1091 43.1293 76.8212 43.1293H75.8143H75.5986H75.2389H75.0228H74.0159C73.6562 43.1293 73.4406 43.4177 73.4406 43.7063V43.7784C73.4406 44.139 73.7283 44.3553 74.0159 44.3553H74.7352V46.9518H71.2827L70.5634 43.4177C70.4195 42.6965 70.2758 41.831 69.4845 41.831V39.7394C69.4845 39.3787 69.1968 39.0903 68.8371 39.0903C68.4774 39.0903 68.1895 39.3788 68.1895 39.7394V41.831C67.3984 41.831 67.0389 42.48 66.8229 43.4177L66.1036 46.9518H61.7877V44.3553H62.507C62.8667 44.3553 63.0826 44.0669 63.0826 43.7784V43.7063C63.0826 43.3456 62.7946 43.1293 62.507 43.1293H61.3561H60.9964H59.8458C59.4861 43.1293 59.2702 43.4177 59.2702 43.7063V43.7784C59.2702 44.139 59.5579 44.3553 59.8458 44.3553H60.4932V46.9518H57.688H56.6091C56.2494 46.9518 55.9614 47.2402 55.9614 47.6009C55.9614 47.9616 56.2494 48.25 56.6091 48.25H57.1125H57.7598H58.4075C58.6232 52.0004 61.3564 55.246 65.1688 56.544C66.2477 56.9047 67.5423 57.121 68.8373 57.121C70.2039 57.121 71.4984 56.8326 72.6495 56.4719C76.3899 55.1738 79.0512 52.0003 79.1952 48.2498H79.8425H80.4899H81.3531C81.7128 48.2498 82.0005 47.9614 82.0005 47.6008C82.0005 47.2401 81.6406 46.9518 81.2809 46.9518Z" fill="black"/>
<path d="M11.9406 67.5067C10.43 67.5067 8.99145 67.2181 7.69675 66.7855L6.11426 77.6039C6.11426 77.8202 6.47396 78.3251 6.6897 78.3251H16.76C17.0477 78.3251 17.3354 77.8923 17.3354 77.5317L15.7527 66.9297C14.602 67.2904 13.3072 67.5067 11.9406 67.5067Z" fill="black"/>
<path d="M23.0895 58.7076H23.6649H24.0246C24.3843 58.7076 24.672 58.4192 24.672 58.0585C24.672 57.6979 24.3842 57.4095 24.0246 57.4095H23.8087H23.1614H22.514H19.2771H18.9174H16.5438H16.1841H14.6738H8.84747H7.33689H7.121H4.89131H4.5316C4.5316 57.4095 4.45969 57.4095 4.38763 57.4095H1.22279H0.575439C0.215733 57.4095 0.0719111 57.6258 0 57.9143C0 57.9864 0 57.9864 0 58.0585C0 58.2027 0.0719111 58.275 0.143973 58.4192C0.143973 58.6357 0.359706 58.7799 0.57559 58.7799H0.719412H1.43867C2.01411 61.4483 3.95616 63.6843 6.61763 64.9824C6.83336 65.1267 7.04924 65.1988 7.26498 65.3431C7.48086 65.4152 7.62468 65.4873 7.84042 65.5594C9.0632 65.9922 10.4298 66.2806 11.8685 66.2806C13.1632 66.2806 14.4579 66.0643 15.6089 65.7038C15.8247 65.6315 15.9686 65.5594 16.1844 65.4873C16.4722 65.4151 16.616 65.2709 16.8317 65.1988C19.637 63.9007 21.723 61.5927 22.2983 58.7799C22.2983 58.7076 23.0895 58.7076 23.0895 58.7076Z" fill="black"/>
<path d="M38.6982 13.2705L43.2298 17.8143C43.8051 17.2373 45.0281 15.3622 45.2438 14.7131L41.7913 11.2512C41.2876 11.3954 39.2737 12.6936 38.6982 13.2705Z" fill="black"/>
<path d="M38.7704 15.9391C38.8423 15.9391 38.9863 15.9391 39.0582 15.7949L39.4898 15.3621C39.5617 15.2899 39.5617 15.2899 39.5617 15.2178C39.6336 15.0736 39.6336 14.9292 39.4898 14.8571C39.346 14.7129 39.202 14.7129 39.1301 14.785C39.0582 14.785 39.0582 14.785 38.9863 14.8571L38.5546 15.2899C38.4108 15.4342 38.4108 15.6505 38.5546 15.7227C38.6266 15.9391 38.6985 15.9391 38.7704 15.9391Z" fill="black"/>
<path d="M37.3319 17.3815C37.4038 17.3815 37.5478 17.3815 37.6197 17.2373L38.0513 16.8045C38.1951 16.6602 38.1951 16.4438 38.0513 16.3717C37.9075 16.2275 37.6916 16.2275 37.6197 16.3717L37.1881 16.8045C37.0441 16.9487 37.0441 17.1652 37.1881 17.2373C37.1881 17.3815 37.26 17.3815 37.3319 17.3815Z" fill="black"/>
<path d="M36.6123 17.7422C36.4685 17.598 36.2526 17.598 36.1807 17.7422L35.6772 18.247C35.5334 18.3912 35.5334 18.6077 35.6772 18.6798C35.7493 18.7519 35.8212 18.824 35.965 18.824C36.109 18.824 36.1809 18.824 36.2528 18.6798L36.6844 18.247C36.7562 18.1748 36.7562 17.8864 36.6123 17.7422Z" fill="black"/>
<path d="M39.4897 16.8045C39.5616 16.8766 39.6335 16.9487 39.7775 16.9487C39.9213 16.9487 39.9932 16.9487 40.0653 16.8045L40.4969 16.3717C40.4969 16.3717 40.4969 16.2996 40.5688 16.2275C40.6407 16.0833 40.6407 15.939 40.4969 15.8669C40.3529 15.7227 40.2091 15.7227 40.1372 15.7948C40.0653 15.7948 40.0653 15.7948 39.9932 15.8669L39.4897 16.2996C39.3459 16.444 39.3459 16.7324 39.4897 16.8045Z" fill="black"/>
<path d="M38.5543 17.3094L38.0507 17.7422C37.9069 17.8865 37.9069 18.1028 38.0507 18.1749C38.1226 18.2472 38.1946 18.3193 38.3385 18.3193C38.4824 18.3193 38.5543 18.3193 38.6263 18.1749L39.0579 17.7422C39.2018 17.598 39.2018 17.3815 39.0579 17.3094C38.914 17.1652 38.6262 17.1652 38.5543 17.3094Z" fill="black"/>
<path d="M37.5474 18.7518C37.4034 18.6076 37.1877 18.6076 37.1158 18.7518L36.6123 19.1845C36.4684 19.3289 36.4684 19.5452 36.6123 19.6173C36.6842 19.6896 36.7561 19.7617 36.9001 19.7617C37.0439 19.7617 37.1158 19.7617 37.1879 19.6173L37.6195 19.1845C37.6912 19.0403 37.6912 18.824 37.5474 18.7518Z" fill="black"/>
<path d="M41.0721 16.8045C41.0002 16.8045 41.0002 16.8045 40.9283 16.8766L40.4967 17.3094C40.3527 17.4536 40.3527 17.6701 40.4967 17.7422C40.5686 17.8143 40.6405 17.8865 40.7844 17.8865C40.9283 17.8865 41.0002 17.8865 41.0721 17.7422L41.5039 17.3094C41.5756 17.2373 41.5756 17.2373 41.5756 17.1652C41.6477 17.0208 41.6477 16.8766 41.5039 16.8045C41.3599 16.7324 41.2159 16.7324 41.0721 16.8045Z" fill="black"/>
<path d="M39.4898 18.2471L39.0582 18.7519C38.9142 18.8961 38.9142 19.1126 39.0582 19.1847C39.1301 19.2568 39.202 19.3291 39.346 19.3291C39.4898 19.3291 39.5617 19.3291 39.6336 19.1847L40.0652 18.7519C40.2091 18.6077 40.2091 18.3913 40.0652 18.3192C39.8493 18.1748 39.6336 18.1748 39.4898 18.2471Z" fill="black"/>
<path d="M38.0508 19.6894L37.6192 20.1943C37.4752 20.3385 37.4752 20.555 37.6192 20.6271C37.6911 20.6992 37.763 20.7714 37.907 20.7714C38.0508 20.7714 38.1227 20.7714 38.1946 20.6271L38.6263 20.1943C38.7701 20.0501 38.7701 19.8336 38.6263 19.7615C38.4105 19.5452 38.1946 19.5452 38.0508 19.6894Z" fill="black"/>
<path d="M59.1265 12.405V13.0541V30.652C59.1265 32.4551 60.565 33.8976 62.3634 33.8976H74.7351H75.3824C77.1807 33.8976 78.6193 32.4552 78.6193 30.652V12.405C78.6193 10.6019 77.1808 9.15942 75.3824 9.15942H62.4351C60.565 9.15957 59.1265 10.6019 59.1265 12.405ZM75.4543 10.4577C76.5333 10.4577 77.3965 11.3231 77.3965 12.405V13.0541V30.652C77.3965 31.7339 76.5333 32.5993 75.4543 32.5993H62.435C61.356 32.5993 60.4931 31.7339 60.4931 30.652V12.405C60.4931 11.3231 61.356 10.4577 62.435 10.4577H74.807H75.4543Z" fill="black"/>
<path d="M26.6143 70.4637V80.9214H50.0634H51.358H52.6528H53.9474V1.29816H26.6143V70.4637ZM27.9091 2.59632H52.6531V70.4637H51.3583V9.80865C51.3583 9.44798 51.0706 9.15957 50.7109 9.15957H47.5461C47.3301 9.15957 47.1864 9.23182 47.1145 9.37603L45.1005 11.2512C44.4529 10.8184 43.5899 11.0349 43.0863 11.2512L45.4601 13.6312C45.6037 13.2705 45.6758 12.91 45.7477 12.6214L47.9057 10.6019H50.2073V70.6079H27.9091V2.59632Z" fill="black"/>
<path d="M32.1527 35.2679H31.5054C30.2826 35.2679 29.2036 36.2776 29.2036 37.5758V43.4177C29.2036 44.6438 30.2107 45.7256 31.5054 45.7256H32.1527C33.3755 45.7256 34.4545 44.716 34.4545 43.4177V37.5037C34.4545 36.2776 33.3755 35.2679 32.1527 35.2679ZM33.1598 43.4177C33.1598 43.9226 32.7282 44.4275 32.1529 44.4275H31.5055C31.002 44.4275 30.4985 43.9947 30.4985 43.4177V37.5037C30.4985 36.9988 30.9301 36.4939 31.5055 36.4939H32.1529C32.6564 36.4939 33.1598 36.9267 33.1598 37.5037V43.4177Z" fill="black"/>
<path d="M22.7295 27.4066H0.575195V31.3013H22.7295V27.4066Z" fill="black"/>
<path d="M22.7295 10.4577H0.575195V14.3524H22.7295V10.4577Z" fill="black"/>
<path d="M9.78233 9.15957L11.0051 1.29816H5.82617L6.54543 9.15957H9.78233Z" fill="black"/>
<path d="M16.1841 26.1083V20.9155H5.82617V26.1083H16.1841ZM8.41572 23.512H13.5947V24.8102H8.41572V23.512Z" fill="black"/>
<path d="M17.4788 18.247H4.45947V19.5452H17.4788V18.247Z" fill="black"/>
</g>
<defs>
<clipPath id="clip0_111_105">
<rect width="82" height="82.2196" fill="white"/>
</clipPath>
</defs>
</svg>
