<svg width="82" height="83" viewBox="0 0 82 83" fill="none" xmlns="http://www.w3.org/2000/svg">
<g clip-path="url(#clip0_111_160)">
<path d="M53.7515 79.5559H50.7782L48.0486 9.76691H48.0841C48.8178 9.76691 49.4124 9.17077 49.4124 8.43506V1.33185C49.4124 0.596136 48.8178 0 48.0841 0H33.9156C33.1819 0 32.5873 0.596136 32.5873 1.33185V8.43506C32.5873 9.17077 33.1819 9.76691 33.9156 9.76691H33.951L31.2215 79.5559H28.2482C27.5145 79.5559 26.9199 80.152 26.9199 80.8878C26.9199 81.6235 27.5145 82.2196 28.2482 82.2196H53.7515C54.4852 82.2196 55.0798 81.6235 55.0798 80.8878C55.0798 80.152 54.4852 79.5559 53.7515 79.5559ZM36.1652 21.132H45.8345L45.9526 24.1509H36.0472L36.1652 21.132ZM45.7303 18.4683H36.2693L36.3875 15.4495H45.6122L45.7303 18.4683ZM35.9429 26.8146H46.0567L47.8972 73.8733H34.1023L35.9429 26.8146ZM35.2439 2.6637H46.7558V7.10321H46.6672H35.3324H35.2439V2.6637ZM45.3899 9.76691L45.5081 12.7858H36.4916L36.6097 9.76691H45.3899ZM33.8802 79.5559L33.9983 76.537H48.0015L48.1197 79.5559H33.8802Z" fill="black"/>
</g>
<defs>
<clipPath id="clip0_111_160">
<rect width="82" height="82.2196" fill="white"/>
</clipPath>
</defs>
</svg>
