<svg preserveAspectRatio="none" width="100%" height="100%" overflow="visible" style="display: block;" viewBox="0 0 25 25" fill="none" xmlns="http://www.w3.org/2000/svg">
<g id="instagram-unauth-icon">
<path id="Vector" d="M18.3242 10.0844C18.2957 9.46055 18.1969 9.03477 18.052 8.66211C17.9023 8.27695 17.702 7.95 17.3762 7.62422C17.0504 7.29844 16.7238 7.09805 16.3383 6.94844C15.9656 6.80352 15.5395 6.70469 14.916 6.67617C14.291 6.64727 14.0914 6.64062 12.5 6.64062C10.9086 6.64062 10.709 6.64727 10.0844 6.67578C9.46055 6.7043 9.03477 6.80313 8.66211 6.94805C8.27695 7.09766 7.95 7.29805 7.62422 7.62383C7.29844 7.94961 7.09805 8.27617 6.94844 8.66172C6.80352 9.03437 6.70469 9.46055 6.67617 10.084C6.64727 10.709 6.64062 10.9086 6.64062 12.5C6.64062 14.0914 6.64727 14.291 6.67578 14.9156C6.7043 15.5395 6.80313 15.9652 6.94805 16.3379C7.09766 16.723 7.29805 17.05 7.62383 17.3758C7.94961 17.7016 8.27617 17.902 8.66172 18.0516C9.03437 18.1965 9.46055 18.2953 10.084 18.3238C10.709 18.3527 10.9086 18.3594 12.5 18.3594C14.0914 18.3594 14.291 18.3527 14.9156 18.3242C15.5395 18.2957 15.9652 18.1969 16.3379 18.052C16.723 17.9023 17.05 17.702 17.3758 17.3762C17.7016 17.0504 17.902 16.7238 18.0516 16.3383C18.1965 15.9656 18.2953 15.5395 18.3238 14.916C18.3527 14.291 18.3594 14.0914 18.3594 12.5C18.3594 10.9086 18.3527 10.709 18.3242 10.0844ZM17.2695 14.8676C17.2434 15.4387 17.148 15.7492 17.068 15.9555C16.9617 16.2289 16.8348 16.4242 16.6297 16.6293C16.4246 16.8344 16.2293 16.9613 15.9559 17.0676C15.7492 17.1477 15.4391 17.2434 14.868 17.2691C14.2504 17.2973 14.0648 17.3031 12.5004 17.3031C10.9359 17.3031 10.7504 17.2973 10.1328 17.2691C9.56172 17.243 9.25117 17.1477 9.04492 17.0676C8.77148 16.9613 8.57617 16.8344 8.37109 16.6293C8.16602 16.4242 8.03906 16.2289 7.93281 15.9555C7.85273 15.7488 7.75703 15.4387 7.73125 14.8676C7.70312 14.2496 7.69727 14.0645 7.69727 12.5C7.69727 10.9355 7.70312 10.75 7.73125 10.1324C7.75742 9.56133 7.85273 9.25078 7.93281 9.04453C8.03906 8.77109 8.16602 8.57578 8.37109 8.3707C8.57617 8.16563 8.77148 8.03867 9.04492 7.93242C9.25156 7.85234 9.56172 7.75664 10.1328 7.73086C10.7508 7.70273 10.9359 7.69688 12.5004 7.69688C14.0648 7.69688 14.2504 7.70273 14.868 7.73086C15.4391 7.75703 15.7496 7.85234 15.9559 7.93242C16.2293 8.03867 16.4246 8.16563 16.6297 8.3707C16.8348 8.57578 16.9617 8.77109 17.068 9.04453C17.148 9.25117 17.2437 9.56133 17.2695 10.1324C17.2977 10.7504 17.3035 10.9355 17.3035 12.5C17.3035 14.0645 17.2977 14.25 17.2695 14.8676ZM12.5 9.49102C10.8383 9.49102 9.49102 10.8383 9.49102 12.5C9.49102 14.1617 10.8383 15.509 12.5 15.509C14.1617 15.509 15.509 14.1617 15.509 12.5C15.509 10.8383 14.1617 9.49102 12.5 9.49102ZM12.5 14.4531C11.4215 14.4531 10.5469 13.5785 10.5469 12.5C10.5469 11.4215 11.4215 10.5469 12.5 10.5469C13.5785 10.5469 14.4531 11.4215 14.4531 12.5C14.4531 13.5785 13.5785 14.4531 12.5 14.4531ZM15.6277 8.66914C15.2395 8.66914 14.9246 8.98398 14.9246 9.37227C14.9246 9.76055 15.2395 10.0754 15.6277 10.0754C16.016 10.0754 16.3309 9.76055 16.3309 9.37227C16.3309 8.98398 16.016 8.66914 15.6277 8.66914Z" fill="var(--fill-0, #212020)"/>
</g>
</svg>
