<svg width="82" height="84" viewBox="0 0 82 84" fill="none" xmlns="http://www.w3.org/2000/svg">
<path d="M79.7954 69.8845L78.7158 9.43981C78.5454 7.99529 77.938 6.63722 76.9748 5.54723C76.0116 4.45722 74.7384 3.68727 73.3258 3.34034C73.3258 3.34034 15.0659 1.03764 14.4584 1.0007C13.2047 1.02972 11.9652 1.27122 10.7924 1.71491C10.6857 1.76006 9.00673 2.46195 9.0642 2.72875L71.8069 5.22436C73.2098 5.53775 74.4653 6.31693 75.3688 7.43496C76.2722 8.55299 76.7704 9.94397 76.7822 11.3813L77.1928 76.5627C77.5047 76.6448 78.1862 75.4832 78.7773 74.3175C79.473 72.9449 79.8224 71.423 79.7954 69.8845ZM68.104 6.19716L9.36798 4.17768C8.37475 4.14351 7.38498 4.31194 6.45897 4.6727C5.53298 5.03347 4.69015 5.579 3.98187 6.27606C3.2736 6.97311 2.7147 7.80708 2.33927 8.72713C1.96383 9.6472 1.77972 10.6341 1.79813 11.6276L2.96399 70.4674C2.99891 72.268 3.6966 73.9925 4.92357 75.3109C6.15054 76.6294 7.82063 77.4492 9.61428 77.6135L67.8044 82.97C68.8239 83.0636 69.8518 82.9424 70.8216 82.6142C71.7915 82.286 72.6818 81.7581 73.4349 81.0646C74.1881 80.3712 74.7875 79.5274 75.1943 78.5879C75.6011 77.6484 75.8065 76.6342 75.7971 75.6105L75.169 13.4377C75.153 11.5526 74.4089 9.7466 73.0924 8.39723C71.7757 7.04786 69.9884 6.25957 68.104 6.19716ZM59.6557 53.7575C60.5916 39.539 43.4035 38.5703 43.7279 52.604L14.9304 50.523L14.5199 21.9507C19.6308 28.9656 28.4158 23.7526 26.9584 15.3587L60.801 17.0662L61.31 53.8765L59.6557 53.7575Z" stroke="black" stroke-width="2"/>
<path d="M41.2862 29.4452C39.6111 29.4698 39.1464 30.5822 39.4888 32.5114C39.5692 32.7557 39.5695 33.0195 39.4896 33.264C39.4096 33.5084 39.2536 33.7204 39.0447 33.8687C38.8358 34.0169 38.585 34.0935 38.3295 34.0871C38.074 34.0807 37.8274 33.9916 37.6261 33.8331C37.4586 33.7286 37.3166 33.5878 37.2102 33.421C37.1037 33.2541 37.0357 33.0654 37.0111 32.8687C36.9865 32.6719 37.0059 32.4721 37.0679 32.2838C37.1299 32.0957 37.2329 31.9238 37.3693 31.7808C38.5717 30.4591 38.7999 27.1753 34.7607 24.5197C37.0229 29.8844 33.1712 29.7449 31.4348 32.7823C31.0665 33.6575 30.8868 34.6013 30.9077 35.5517C30.9285 36.5019 31.1496 37.4369 31.5561 38.2949C31.9625 39.1527 32.5452 39.9139 33.2657 40.528C33.986 41.1423 34.8276 41.5954 35.7349 41.8576C35.1466 41.4561 34.6493 40.9339 34.2756 40.3252C33.9021 39.7164 33.6605 39.035 33.567 38.3255C33.4734 37.6162 33.53 36.8948 33.7329 36.209C33.9358 35.5231 34.2805 34.8883 34.7444 34.3462C34.3369 36.5586 35.6208 38.1962 37.0391 37.8638C37.3647 37.8185 37.6961 37.8443 38.011 37.9392C38.3258 38.034 38.6167 38.1959 38.8641 38.4139C39.1114 38.6318 39.3094 38.9007 39.4446 39.2024C39.5798 39.5041 39.6491 39.8314 39.6477 40.1624C39.7381 40.5515 39.6844 40.9604 39.4969 41.3126C39.3093 41.6646 39.0006 41.9359 38.6288 42.0752C39.3302 42.0585 40.0201 41.8902 40.6513 41.5814C41.2824 41.2725 41.8402 40.8306 42.2868 40.2855C42.7334 39.7404 43.0583 39.1048 43.2393 38.4221C43.4204 37.7394 43.4536 37.0255 43.3364 36.3287C43.0226 32.889 40.1286 32.1378 41.2862 29.4452ZM23.6377 20.7311C23.6618 20.9198 23.6461 21.1116 23.5917 21.2938C23.5373 21.476 23.4454 21.6446 23.3219 21.7887C23.1985 21.9328 23.0463 22.0489 22.8753 22.1299C22.7043 22.2107 22.5182 22.2544 22.3293 22.258C22.1486 22.2566 21.9702 22.2173 21.8054 22.1427C21.6405 22.0681 21.4929 21.9599 21.3717 21.8248C21.2506 21.6897 21.1587 21.5308 21.1019 21.358C21.045 21.1853 21.0243 21.0025 21.0414 20.8214C21.022 20.6339 21.0418 20.4444 21.0994 20.265C21.157 20.0856 21.2512 19.9202 21.3759 19.7797C21.5006 19.639 21.6531 19.5261 21.8236 19.4483C21.9941 19.3704 22.1788 19.3292 22.3659 19.3273C22.5445 19.3239 22.7217 19.3588 22.8858 19.43C23.0499 19.501 23.197 19.6064 23.3175 19.7393C23.4378 19.8721 23.5286 20.0294 23.5838 20.2004C23.6391 20.3715 23.6574 20.5524 23.6377 20.7311ZM21.6976 17.3325H22.2927L19.574 22.258H18.9871L21.6976 17.3325ZM18.926 20.2591C18.7456 20.2571 18.5676 20.2174 18.4033 20.1425C18.2389 20.0677 18.0917 19.9593 17.9711 19.8244C17.8504 19.6894 17.7589 19.5306 17.7023 19.3582C17.6456 19.1857 17.6252 19.0033 17.642 18.8225C17.6234 18.6356 17.6435 18.4469 17.7011 18.2682C17.7588 18.0896 17.8526 17.925 17.9768 17.7849C18.1011 17.6448 18.2528 17.5322 18.4225 17.4544C18.5922 17.3764 18.7761 17.3349 18.9626 17.3325C19.142 17.3289 19.32 17.3641 19.4846 17.4355C19.6494 17.5071 19.7969 17.6134 19.9174 17.7471C20.0379 17.8809 20.1286 18.0391 20.1832 18.2112C20.2379 18.3832 20.2553 18.5651 20.2343 18.7445C20.2584 18.9342 20.2425 19.127 20.1874 19.31C20.1322 19.4931 20.0393 19.6623 19.9145 19.8065C19.7898 19.9508 19.6361 20.0668 19.4636 20.147C19.291 20.2271 19.1036 20.2694 18.9137 20.2714L18.926 20.2591ZM27.6075 64.8517C27.5993 65.0164 27.5583 65.1779 27.4871 65.3263C27.4157 65.4749 27.3155 65.6073 27.1923 65.7161C27.0691 65.8248 26.9256 65.9076 26.77 65.9593C26.6145 66.0111 26.4503 66.0309 26.287 66.0175L21.3104 65.689C20.9929 65.6527 20.7014 65.4947 20.4967 65.2478C20.2918 65.0009 20.1892 64.6841 20.2102 64.363C20.2312 64.0419 20.3741 63.7413 20.6093 63.5236C20.8445 63.3058 21.1539 63.1876 21.4734 63.1935L26.4501 63.5218C26.6138 63.5321 26.7737 63.5753 26.9203 63.6491C27.0671 63.7229 27.1975 63.8257 27.304 63.9514C27.4105 64.0769 27.4908 64.2228 27.5401 64.3803C27.5895 64.5378 27.6069 64.7038 27.5913 64.8682L27.6075 64.8517ZM39.02 70.2493C37.8304 70.1824 36.7136 69.6511 35.9068 68.7681C35.1001 67.8851 34.667 66.7202 34.6996 65.5208C34.6838 64.909 34.8042 64.3014 35.0517 63.7424C35.2993 63.1836 35.6677 62.6874 36.1302 62.2904C36.5475 61.9492 37.0354 61.7067 37.5582 61.5809C38.081 61.4553 38.6251 61.4494 39.1505 61.5639C40.1787 61.8198 41.0905 62.4187 41.7373 63.2633C42.3843 64.1078 42.728 65.148 42.7128 66.2145C42.7424 66.7273 42.6698 67.241 42.4991 67.7251C42.3284 68.2092 42.0631 68.6539 41.7188 69.0331C41.3746 69.4123 40.9584 69.7181 40.495 69.9327C40.0314 70.1472 39.5299 70.266 39.02 70.2821V70.2493ZM57.3126 67.3761C57.2912 67.6898 57.1537 67.9841 56.9273 68.2007C56.7009 68.4173 56.4021 68.5405 56.0899 68.5459H56.0043L54.6225 68.4556V69.8717C54.6236 70.0078 54.5978 70.1428 54.5466 70.2688C54.4953 70.3948 54.4197 70.5092 54.3241 70.6055C54.2285 70.7018 54.1148 70.7779 53.9897 70.8296C53.8646 70.8811 53.7306 70.9071 53.5954 70.906C53.3238 70.9021 53.0642 70.7934 52.8698 70.6023C52.7748 70.5064 52.6995 70.3923 52.6485 70.267C52.5974 70.1415 52.5715 70.0072 52.5724 69.8717V68.3284L51.0276 68.2257C50.709 68.2 50.4125 68.0518 50.1995 67.8118C49.9866 67.5718 49.8736 67.2584 49.8842 66.9367C49.8946 66.615 50.0277 66.3098 50.2558 66.0843C50.4839 65.8589 50.7895 65.7306 51.1091 65.726H51.1906L52.5724 65.8163V64.4084C52.6038 64.1586 52.7247 63.9289 52.9122 63.7625C53.0999 63.596 53.3413 63.5041 53.5913 63.5041C53.8414 63.5041 54.0828 63.596 54.2704 63.7625C54.458 63.9289 54.5788 64.1586 54.6102 64.4084V65.9517L56.155 66.0544C56.3183 66.0626 56.4781 66.1038 56.6253 66.1754C56.7725 66.247 56.9039 66.3475 57.0118 66.4711C57.1198 66.5947 57.202 66.7388 57.2536 66.895C57.3053 67.0511 57.3253 67.212 57.3126 67.3761ZM52.3767 48.7493C52.3768 48.4383 52.4424 48.1308 52.5691 47.8471C52.6958 47.5635 52.8809 47.3102 53.112 47.1038C53.3431 46.8974 53.615 46.7428 53.9098 46.65C54.2046 46.5573 54.5156 46.5285 54.8223 46.5657C55.1177 46.5316 55.4169 46.5607 55.7005 46.6508C55.9841 46.7409 56.2457 46.89 56.4682 47.0887C56.6909 47.2873 56.8695 47.5308 56.9924 47.8034C57.1154 48.0762 57.18 48.3718 57.1822 48.6713C57.1817 48.983 57.1162 49.291 56.9895 49.5753C56.863 49.8597 56.6782 50.1139 56.4475 50.3216C56.2167 50.5291 55.945 50.6855 55.6503 50.7802C55.3555 50.8749 55.0442 50.906 54.7367 50.8714C54.4407 50.9009 54.1418 50.8683 53.859 50.7756C53.5762 50.6827 53.3157 50.5318 53.0938 50.3323C52.872 50.1329 52.6937 49.8891 52.5703 49.6166C52.4468 49.3441 52.3809 49.0488 52.3767 48.7493ZM30.3914 10.3546C30.0787 10.3541 29.7778 10.4742 29.5504 10.6903C29.3229 10.9063 29.1863 11.2019 29.1686 11.5162L31.5367 11.5942C31.5524 11.4348 31.5342 11.2739 31.4834 11.1222C31.4326 10.9704 31.3503 10.8313 31.2418 10.7141C31.1335 10.5968 31.0017 10.5041 30.8551 10.4422C30.7084 10.3802 30.5504 10.3503 30.3914 10.3546ZM54.8018 49.952C55.3603 49.952 55.719 49.4553 55.719 48.7206C55.719 48.1048 55.454 47.4892 54.8018 47.4892C54.1497 47.4892 53.8603 48.1212 53.8603 48.7206C53.8603 49.4225 54.1905 49.952 54.8018 49.952ZM22.3496 21.6424C22.6635 21.6424 22.8184 21.3181 22.8184 20.7844C22.8184 20.2509 22.692 19.9266 22.3496 19.9266C22.0073 19.9266 21.8728 20.3083 21.8728 20.7844C21.8728 21.2606 22.0318 21.6424 22.3496 21.6424ZM18.9423 17.9522C18.6162 17.9522 18.4612 18.3299 18.4612 18.806C18.4612 19.2821 18.6284 19.6639 18.9504 19.6639C19.2724 19.6639 19.415 19.3396 19.415 18.806C19.415 18.2725 19.2847 17.9522 18.9423 17.9522ZM38.8855 62.8938C38.7196 62.867 38.5522 62.8506 38.3842 62.8446C37.8645 62.8426 37.3602 63.0224 36.9577 63.3535C36.6471 63.6269 36.401 63.9667 36.2375 64.348C36.0739 64.7293 35.9969 65.1426 36.012 65.5577C35.9879 66.4047 36.2859 67.2289 36.8449 67.862C37.404 68.4952 38.182 68.8896 39.02 68.9646C39.3539 68.9458 39.6807 68.8604 39.9817 68.7136C40.2825 68.5666 40.5515 68.361 40.7729 68.1087C40.9943 67.8563 41.1637 67.5621 41.2715 67.2433C41.3792 66.9246 41.4229 66.5874 41.4004 66.2514C41.4105 65.4901 41.1689 64.747 40.7136 64.1391C40.2583 63.5313 39.6152 63.0931 38.8855 62.8938Z" fill="black"/>
</svg>
