<svg width="261" height="145" viewBox="0 0 261 145" fill="none" xmlns="http://www.w3.org/2000/svg">
<path d="M74.6396 126.841C74.6396 115.181 74.6396 103.841 74.6396 92.5406C74.6892 91.8322 74.7828 91.1275 74.9197 90.4307H183.16V126.841H74.6396Z" fill="#BFBFBF"/>
<path d="M224.43 22.4307V28.1906H33.4297V22.4307H224.43Z" fill="#2547A0"/>
<path d="M6.24392 102.343V65.3586H26.2205V59.4307H0V108.431H67V102.343H6.24392Z" fill="#2547A0"/>
<path d="M192.43 102.101C191.325 102.101 190.43 102.996 190.43 104.101V106.161C190.43 107.265 191.326 108.161 192.43 108.161H258.71C259.815 108.161 260.71 107.265 260.71 106.161V61.3209C260.71 60.2163 259.815 59.3209 258.71 59.3209H233.17C232.066 59.3209 231.17 60.2163 231.17 61.3209V63.0909C231.17 64.1954 232.066 65.0909 233.17 65.0909H252.48C253.585 65.0909 254.48 65.9863 254.48 67.0909V100.091C254.48 101.196 253.585 102.091 252.481 102.091L192.43 102.101Z" fill="#2547A0"/>
<path d="M43.1758 81.4307L43.8478 42.5507H51.1918L56.7118 69.4787L62.4718 42.5507H69.5758L70.2958 81.4307H65.0157L64.4398 54.4067L58.9198 81.4307H54.6478L49.0318 54.3107L48.5038 81.4307H43.1758ZM80.0374 81.4307V42.5507H96.3574V47.5427H87.1414V58.7267H94.3894V63.6707H87.1414V76.5347H96.4534V81.4307H80.0374ZM108.457 81.4307V47.7827H102.265V42.5507H121.657V47.7827H115.561V81.4307H108.457ZM139.472 81.9587C136.72 81.9587 134.528 81.4467 132.896 80.4227C131.264 79.3987 130.096 77.9267 129.392 76.0067C128.688 74.0867 128.336 71.8147 128.336 69.1907V54.6467C128.336 52.0227 128.688 49.7827 129.392 47.9267C130.096 46.0387 131.264 44.5987 132.896 43.6067C134.528 42.6147 136.72 42.1187 139.472 42.1187C142.288 42.1187 144.496 42.6147 146.096 43.6067C147.728 44.5987 148.896 46.0387 149.6 47.9267C150.336 49.7827 150.704 52.0227 150.704 54.6467V69.2387C150.704 71.8307 150.336 74.0867 149.6 76.0067C148.896 77.8947 147.728 79.3667 146.096 80.4227C144.496 81.4467 142.288 81.9587 139.472 81.9587ZM139.472 76.7267C140.656 76.7267 141.52 76.4707 142.064 75.9587C142.64 75.4467 143.024 74.7427 143.216 73.8467C143.408 72.9507 143.504 71.9747 143.504 70.9187V53.0147C143.504 51.9267 143.408 50.9507 143.216 50.0867C143.024 49.2227 142.64 48.5507 142.064 48.0707C141.52 47.5587 140.656 47.3027 139.472 47.3027C138.352 47.3027 137.504 47.5587 136.928 48.0707C136.352 48.5507 135.968 49.2227 135.776 50.0867C135.584 50.9507 135.488 51.9267 135.488 53.0147V70.9187C135.488 71.9747 135.568 72.9507 135.728 73.8467C135.92 74.7427 136.304 75.4467 136.88 75.9587C137.456 76.4707 138.32 76.7267 139.472 76.7267ZM159.959 81.4307V42.5507H167.063V76.5347H176.471V81.4307H159.959ZM184.162 81.4307V42.5507H191.266V76.5347H200.674V81.4307H184.162ZM208.558 81.4307V42.5507H215.566V81.4307H208.558Z" fill="#212020"/>
<path d="M119.016 102.159C119.016 102.287 118.92 102.991 118.824 103.343C118.792 103.439 118.664 103.663 118.568 103.919C118.472 103.919 118.376 103.855 118.28 103.759L118.024 104.047H118.056C118.056 104.015 118.056 103.983 118.088 103.951V103.919C118.088 103.887 118.088 103.887 118.056 103.855C117.8 103.951 117.672 104.079 117.512 104.239C117.512 104.111 117.512 104.015 117.48 103.919C117.256 103.823 116.936 103.471 116.712 103.215L116.648 102.991C116.68 102.863 116.648 102.607 116.744 102.447H116.68C116.616 102.447 116.584 102.415 116.584 102.351C116.584 102.191 116.552 101.903 116.648 101.679C116.68 101.647 116.744 101.711 116.776 101.615L116.872 101.455C116.84 101.359 116.904 101.519 116.904 101.295C116.904 100.719 116.52 99.2787 116.104 98.9587C115.816 98.7027 115.144 98.3187 114.984 98.3187C114.76 98.3187 115.016 98.3827 114.792 98.3827C114.568 98.3827 114.6 98.2227 114.472 98.1907C114.44 98.1587 114.344 98.1587 114.152 98.1587C113.832 98.1587 112.392 99.1827 112.296 99.3427C112.04 99.7587 111.752 100.335 111.656 100.815C111.56 101.007 111.528 101.199 111.528 101.423C111.528 101.647 111.528 102.415 111.656 102.895C111.656 103.055 111.912 103.311 111.944 103.567C112.072 104.047 111.976 104.751 112.36 105.263L113.096 107.567C113.096 107.663 113.224 107.791 113.32 107.951C113.832 109.423 114.088 110.447 114.856 112.335C115.272 113.103 115.688 115.535 115.688 116.719C115.688 116.847 115.592 117.743 115.432 118.255C115.4 118.383 115.528 118.543 115.432 118.703C115.336 119.119 114.92 119.695 114.408 120.047C114.312 120.143 114.12 120.399 113.896 120.559C113.864 120.559 113.736 120.559 113.64 120.591C113.16 120.847 112.392 121.007 111.912 121.007H111.208C110.984 121.007 109.768 120.463 109.544 120.463C109.32 120.463 109.608 120.559 109.384 120.559C109.256 120.559 108.936 120.207 108.84 120.047C108.584 119.791 107.752 119.471 107.272 118.927C106.856 118.447 106.024 117.391 105.896 116.751C105.736 116.495 105.608 116.079 105.352 115.695C105.352 115.599 105.544 115.503 105.448 115.407C105.416 115.343 105.352 115.279 105.256 115.183C105.384 114.927 105.224 114.383 105.224 114.095C105.224 113.935 105.032 113.903 105.032 113.679C105.032 113.455 105.128 113.487 105.128 113.359C105.224 113.359 105.192 113.487 105.352 113.583C105.352 113.295 105.224 112.975 105.352 112.559C105.384 112.559 105.448 112.655 105.544 112.815C105.672 112.463 105.544 112.079 105.416 111.727C105.544 111.727 105.384 111.567 105.608 111.567C105.832 111.567 105.672 111.631 105.8 111.631C105.8 111.407 105.928 111.247 105.928 110.991C105.928 111.215 105.8 111.407 105.896 111.663C105.928 111.791 105.992 111.727 106.024 111.759C106.152 111.855 105.992 112.399 106.344 112.431C106.376 112.655 106.44 112.879 106.536 113.135L106.696 112.975C106.696 113.839 107.144 115.247 107.496 115.599C107.72 115.823 107.976 116.559 108.2 116.559C108.36 116.559 108.232 116.495 108.232 116.399C108.488 117.007 110.568 117.743 111.496 117.743C111.656 117.743 111.784 117.711 111.88 117.679L112.04 117.807C112.136 117.711 112.52 117.615 112.68 117.519C112.936 117.359 113.288 117.007 113.416 116.623C113.512 116.367 113.48 116.079 113.48 115.823C113.48 115.599 113.416 115.695 113.416 115.663C113.448 115.407 113.512 115.055 113.416 114.799C112.904 113.103 111.944 110.351 111.016 108.399C111.016 108.239 109.192 102.959 109.192 101.423C109.192 101.391 109.192 101.135 109.224 100.719C109.256 100.303 109.32 99.9507 109.384 99.6627C109.48 99.1187 109.928 98.1907 110.344 97.4547C110.344 97.3587 110.248 97.3907 110.248 97.2627C110.504 97.1667 110.76 96.8147 110.92 96.8147C111.144 96.8147 110.856 96.9747 111.016 96.9747C111.24 96.9747 111.848 96.2387 112.136 96.2387C112.808 96.2067 113.928 96.1107 114.152 96.1107C114.28 96.1107 115.336 96.5587 115.752 96.6547C116.008 96.7827 116.488 97.1347 116.872 97.1667C118.312 97.3267 119.016 100.943 119.016 102.159ZM135.274 98.4787C135.274 98.7027 134.922 99.8867 134.762 100.623C134.634 101.103 134.442 101.679 134.154 102.351C134.026 102.735 133.834 104.079 133.578 104.943C133.482 105.327 133.194 105.903 133.034 106.415C133.002 106.639 132.874 107.023 132.714 107.279V107.919C133.098 107.855 133.482 107.855 133.866 107.919C133.738 108.335 133.93 108.815 134.474 108.719C134.346 108.815 134.186 108.815 134.09 108.911C134.154 109.071 134.346 109.167 134.634 109.167C134.218 109.295 133.642 109.647 133.418 109.647C133.258 109.647 133.322 109.583 133.226 109.583L133.13 109.775C133.162 109.871 133.066 109.999 133.162 109.999C132.906 109.967 132.682 110.287 132.586 110.383C132.49 110.479 132.234 110.479 132.138 110.703C131.786 111.503 131.658 112.335 131.562 113.135C131.37 114.607 130.698 118.511 130.314 121.295C129.962 121.391 129.738 121.487 129.61 121.647C129.61 121.551 129.642 121.455 129.546 121.359C129.482 121.391 129.482 121.487 129.514 121.647C129.514 121.551 129.61 121.519 129.386 121.519C129.162 121.519 129.386 121.647 129.162 121.647C128.938 121.647 128.458 121.263 128.362 121.007C128.394 120.847 128.234 120.815 128.234 120.591C128.234 120.431 128.394 120.239 128.394 120.079V118.959C128.394 118.415 128.362 117.647 128.394 117.103C128.426 116.847 128.586 116.463 128.586 116.079C128.586 115.951 128.618 115.823 128.458 115.695C128.746 115.023 128.586 114.127 128.682 113.455C128.778 112.943 128.938 112.015 128.938 111.855C128.938 111.727 129.066 111.023 128.682 111.055L123.018 112.047C122.986 112.079 122.986 112.111 122.986 112.175C122.986 112.207 122.986 112.207 123.018 112.207C122.922 112.367 122.826 112.591 122.794 112.943C122.314 114.703 121.706 117.039 121.578 118.991C121.578 119.087 121.45 119.215 121.45 119.375C121.45 119.503 121.546 119.631 121.77 119.727C121.77 119.855 121.61 120.143 121.61 120.239C121.642 120.399 121.834 120.591 121.834 120.751C121.834 120.975 121.674 121.295 121.578 121.583C121.354 121.455 120.938 121.295 120.714 121.295C120.49 121.295 120.746 121.359 120.522 121.359C120.106 121.359 119.274 119.663 119.274 119.439C119.274 118.895 119.178 117.967 119.178 117.743C119.178 117.615 119.402 115.887 119.498 115.119C119.594 114.383 119.882 113.583 120.042 112.815C119.53 112.559 118.922 112.271 118.314 111.887C118.25 111.791 118.186 111.567 118.122 111.279C118.058 110.959 117.93 110.799 117.77 110.767V110.511C117.898 110.415 118.058 110.159 118.314 110.031C118.986 109.775 119.85 109.615 120.714 109.359C121.002 108.335 121.258 107.471 121.514 106.191C122.026 103.919 122.634 101.007 123.114 98.7027C123.146 98.4467 123.114 98.0307 123.146 97.7427C123.114 97.7427 123.114 97.7427 123.114 97.7107C123.018 97.6787 123.05 97.6787 123.018 97.5827C123.146 97.4867 123.114 97.3267 123.338 97.3267C123.562 97.3267 123.338 97.3907 123.562 97.3907C123.786 97.3907 123.69 97.2947 123.69 97.1667C123.786 97.2947 124.042 97.1987 124.298 97.1987C124.426 97.1987 124.618 97.3907 124.778 97.3907C125.002 97.3907 124.81 97.3267 124.97 97.3267C125.642 97.3267 125.994 98.5427 126.058 98.6067C126.058 98.7667 125.962 100.719 125.706 101.423C125.674 101.455 125.706 101.551 125.802 101.679C125.354 102.895 123.946 108.399 123.946 108.623C123.946 108.847 123.882 108.687 123.978 108.815C124.906 108.591 126.058 108.463 127.082 108.335L129.45 108.015L129.514 107.983C129.514 107.983 129.546 107.951 129.578 107.919C129.802 107.023 129.994 105.999 130.154 105.135C130.442 103.567 130.954 100.303 132.202 98.2547C132.234 98.1267 132.394 97.9347 132.522 97.7747C132.618 97.5187 132.938 97.1347 132.906 96.8787C133.002 96.9747 133.162 97.0387 133.29 97.1667C133.578 97.0707 133.674 97.0067 133.802 96.7187C133.93 96.9427 134.122 96.9747 133.994 97.1347C134.122 97.2307 134.282 97.1987 134.506 97.1027C134.794 97.4867 135.274 98.2547 135.274 98.4787ZM133.77 108.783C133.706 108.687 133.61 108.655 133.482 108.655V108.975C133.578 108.975 133.77 108.879 133.77 108.783ZM153.307 102.895C153.307 103.535 151.483 103.951 151.163 104.047C149.115 104.975 148.507 105.359 147.835 105.839L140.891 109.551C140.667 109.679 140.155 109.935 140.155 110.287C140.155 110.703 142.235 111.887 142.427 112.015C143.163 112.495 144.091 113.199 145.115 113.935C145.371 114.159 145.947 114.383 146.235 114.607C147.291 115.343 148.315 116.207 149.339 117.231C150.363 118.255 151.291 119.471 151.515 120.527C151.355 120.527 151.259 120.687 151.035 120.687C150.907 120.687 150.747 120.527 150.523 120.527C150.299 120.527 149.819 120.559 149.659 120.431C148.891 119.759 148.347 118.895 147.451 118.159C145.403 116.015 142.299 114.063 139.451 112.367C139.355 112.463 139.227 112.815 139.131 113.039C139.067 113.039 139.003 113.071 138.971 113.135C138.491 115.055 137.627 117.359 137.627 119.887C137.627 120.047 137.595 120.271 137.691 120.495C137.819 120.591 138.107 120.815 138.107 121.039C138.107 121.263 137.979 121.615 137.819 121.871C137.563 121.743 137.115 121.807 136.699 121.647C136.443 121.519 135.931 120.975 135.675 120.591C135.675 120.559 135.579 120.367 135.579 120.207C135.099 119.887 135.099 118.511 135.099 117.871C135.099 115.311 136.667 111.215 136.667 110.671C136.667 110.543 136.443 110.383 136.315 110.287C136.315 110.191 136.539 109.551 136.059 109.551C136.187 109.327 135.995 108.975 135.995 108.687C136.411 108.431 137.371 108.335 137.595 107.727C138.139 106.447 138.459 105.295 138.587 104.303C138.747 103.279 139.003 102.095 139.419 100.719C139.579 100.175 139.707 99.2147 139.963 98.7987C140.059 98.6707 139.867 98.5747 139.867 98.4787C140.155 97.8707 140.251 96.7187 140.411 96.0467H140.859C140.987 96.0467 140.987 95.9827 140.891 95.8867C141.307 96.0147 141.435 95.7907 141.563 95.7907C141.787 95.7907 142.235 96.1107 142.587 96.1107C142.843 96.5907 143.163 97.4547 143.163 97.6787C143.163 97.8387 143.003 98.2547 143.003 98.5107C143.131 99.9187 142.843 100.879 142.491 101.999C142.267 102.767 142.139 103.375 142.043 103.791C141.947 104.207 141.787 104.815 141.531 105.615L141.755 105.807C141.883 105.583 142.139 105.359 142.555 105.167C143.195 104.751 144.155 104.271 145.051 103.855C146.299 103.247 147.195 102.767 147.803 102.415C148.411 102.063 148.955 101.775 149.467 101.551C149.691 101.455 150.203 100.975 150.587 100.975C150.747 100.975 151.131 101.199 151.355 101.199C151.579 101.199 151.515 101.039 151.739 101.039C151.899 101.039 153.019 101.903 153.115 102.255C153.147 102.351 153.307 102.735 153.307 102.895Z" fill="#212020"/>
<rect x="228" y="55.4307" width="4" height="14" fill="#2547A0"/>
<rect x="26" y="55.4307" width="4" height="14" fill="#2547A0"/>
<rect x="63" y="98.4307" width="4" height="14" fill="#2547A0"/>
<rect x="190" y="98.4307" width="4" height="14" fill="#2547A0"/>
<path fill-rule="evenodd" clip-rule="evenodd" d="M120.73 29.5703C121.109 29.5219 121.493 29.6192 121.802 29.8438C122.111 30.0683 122.322 30.4029 122.394 30.7783C122.465 31.1536 122.391 31.5421 122.186 31.8643C121.98 32.1864 121.66 32.4187 121.289 32.5127L121.28 32.5137C114.612 34.2103 108.627 37.917 104.138 43.1309C103.887 43.4246 103.579 43.6645 103.233 43.835C102.886 44.0053 102.509 44.1028 102.123 44.1221C101.738 44.1414 101.352 44.0813 100.99 43.9463C100.629 43.8112 100.297 43.6043 100.019 43.3369C99.7401 43.0696 99.5193 42.7475 99.3693 42.3916C99.2194 42.0358 99.1434 41.6527 99.1467 41.2666C99.15 40.8806 99.233 40.4996 99.3889 40.1465C99.5448 39.7933 99.7709 39.4754 100.054 39.2129L100.087 39.1836C105.818 33.9365 113.025 30.5804 120.73 29.5703ZM143.363 30.3438C152.834 29.933 162.234 32.1463 170.527 36.7393L170.541 36.748C171.198 37.1121 171.684 37.7225 171.891 38.4443C172.098 39.1661 172.01 39.9408 171.646 40.5977C171.282 41.2545 170.671 41.7401 169.949 41.9473C169.227 42.1544 168.452 42.0662 167.795 41.7021C167.713 41.6569 167.632 41.6056 167.557 41.5537C163.627 38.8548 159.329 36.782 154.817 35.3848C156.3 36.4089 157.665 37.6105 158.878 38.9707L158.937 39.0342C159.186 39.3129 159.378 39.6383 159.502 39.9912C159.626 40.3441 159.678 40.7184 159.657 41.0918C159.637 41.4653 159.543 41.8318 159.381 42.1689C159.219 42.5061 158.992 42.8082 158.713 43.0576C158.434 43.3069 158.109 43.4983 157.756 43.6221C157.403 43.7458 157.029 43.799 156.655 43.7783C156.282 43.7575 155.915 43.6631 155.578 43.501C155.241 43.3388 154.939 43.1118 154.69 42.833C154.555 42.6802 154.435 42.5138 154.333 42.3369C152.418 39.0137 149.516 36.3687 146.03 34.7686L146.009 34.7588C145.672 34.6032 145.404 34.3277 145.257 33.9863C145.186 33.8206 145.145 33.645 145.136 33.4678C144.545 33.4142 143.953 33.3712 143.36 33.3398H143.355C142.971 33.3193 142.609 33.1516 142.345 32.8721C142.081 32.5926 141.935 32.2224 141.936 31.8379C141.937 31.4533 142.086 31.0836 142.352 30.8057C142.618 30.5278 142.98 30.3628 143.364 30.3447L143.363 30.3438ZM158.31 28.0625C161.507 27.257 164.868 27.392 167.99 28.4502L168.055 28.4717C168.321 28.5614 168.567 28.7029 168.779 28.8877C168.99 29.0725 169.164 29.2971 169.288 29.5488C169.413 29.8005 169.487 30.0743 169.506 30.3545C169.525 30.6346 169.488 30.9156 169.399 31.1816C169.309 31.4477 169.167 31.6938 168.983 31.9053C168.798 32.1168 168.573 32.2903 168.321 32.415C168.07 32.5398 167.796 32.6139 167.516 32.6328C167.236 32.6517 166.954 32.6152 166.688 32.5254C166.532 32.472 166.383 32.4013 166.243 32.3154C163.957 30.9184 161.316 30.2132 158.638 30.2852H158.618C158.341 30.292 158.071 30.197 157.86 30.0176C157.648 29.8381 157.51 29.5863 157.472 29.3115C157.434 29.0369 157.498 28.7576 157.653 28.5273C157.807 28.297 158.041 28.1315 158.31 28.0625ZM132.254 0C134.261 9.02116e-05 136.186 0.797697 137.606 2.2168C138.41 3.02121 139.014 3.98884 139.387 5.04102L153.549 2.02734V19.6846H139.822V22.5361H124.685V19.6846H110.955V13.2451C104.876 10.1589 98.0985 8.63492 91.2404 8.84473C90.8591 8.85409 90.4797 8.78637 90.1252 8.64551C89.7706 8.50455 89.4478 8.2931 89.177 8.02441C88.906 7.75567 88.6919 7.43451 88.548 7.08105C88.4043 6.7278 88.3338 6.34908 88.34 5.96777C88.3463 5.5863 88.4298 5.20979 88.5852 4.86133C88.7406 4.51284 88.9647 4.1991 89.2443 3.93945C89.524 3.6798 89.853 3.4788 90.2121 3.34961C90.5712 3.22042 90.9532 3.16554 91.3342 3.1875L91.3576 3.18945C98.2956 3.67382 104.997 5.75397 110.955 9.23047V2.02734L125.119 5.04102C125.492 3.98868 126.097 3.02132 126.902 2.2168C128.321 0.797522 130.247 6.46412e-05 132.254 0ZM95.1652 15.873C97.4607 15.2535 99.8743 15.2141 102.189 15.7588C102.451 15.8215 102.683 15.9756 102.842 16.1934C103.001 16.4111 103.077 16.6785 103.057 16.9473C103.037 17.2161 102.922 17.4694 102.733 17.6611C102.543 17.8528 102.291 17.971 102.023 17.9941L101.989 17.9961C100.141 18.1483 98.3592 18.7631 96.8098 19.7832C96.5496 19.958 96.2541 20.0738 95.9445 20.123C95.635 20.1722 95.3184 20.1538 95.0168 20.0684C94.7154 19.983 94.4361 19.833 94.1984 19.6289C93.9606 19.4246 93.7698 19.1701 93.6398 18.8848C93.5101 18.5997 93.4436 18.2898 93.4455 17.9766C93.4475 17.663 93.518 17.353 93.6516 17.0693C93.7851 16.7859 93.9787 16.5351 94.2189 16.334C94.4594 16.1328 94.7414 15.9858 95.0441 15.9043L95.1652 15.873ZM80.0217 11.4141C85.7633 10.3857 91.645 10.4121 97.3771 11.4922C97.7472 11.5634 98.0768 11.7713 98.301 12.0742C98.5252 12.3774 98.6275 12.754 98.5871 13.1289C98.5466 13.5036 98.3667 13.8493 98.0832 14.0977C97.7996 14.346 97.4327 14.4791 97.0559 14.4697H97.0471C91.7385 14.3212 86.4468 15.1424 81.4328 16.8926C81.0805 17.0191 80.7062 17.0742 80.3322 17.0557C79.9582 17.0371 79.5913 16.9451 79.2531 16.7842C78.9149 16.6232 78.6118 16.3968 78.3615 16.1182C78.1112 15.8395 77.9191 15.5136 77.7951 15.1602C77.6712 14.8068 77.6175 14.4325 77.6389 14.0586C77.6603 13.6847 77.7556 13.3184 77.9191 12.9814C78.0827 12.6445 78.3115 12.3429 78.592 12.0947C78.8725 11.8465 79.1996 11.6565 79.5539 11.5352C79.6923 11.4866 79.8346 11.4487 79.9787 11.4219L80.0217 11.4141Z" fill="#2547A0"/>
</svg>
