<svg width="261" height="109" viewBox="0 0 261 109" fill="none" xmlns="http://www.w3.org/2000/svg">
<path d="M74.6396 91.41C74.6396 79.75 74.6396 68.41 74.6396 57.11C74.6892 56.4015 74.7828 55.6969 74.9197 55H183.16V91.41H74.6396Z" fill="#BFBFBF"/>
<path d="M6.24392 66.9124V29.9279H30V26.964V24H0V73H67V66.9124H6.24392Z" fill="#2547A0"/>
<path d="M190.43 66.6701V72.7301H260.71V23.8901H228V29.6601H254.48V66.6601L190.43 66.6701Z" fill="#2547A0"/>
<path d="M43.1289 46L43.8009 7.12H51.1449L56.6649 34.048L62.4249 7.12H69.5289L70.2489 46H64.9689L64.3929 18.976L58.8729 46H54.6009L48.9849 18.88L48.4569 46H43.1289ZM79.9905 46V7.12H96.3105V12.112H87.0945V23.296H94.3425V28.24H87.0945V41.104H96.4065V46H79.9905ZM108.41 46V12.352H102.218V7.12H121.61V12.352H115.514V46H108.41ZM139.519 46.528C136.767 46.528 134.575 46.016 132.943 44.992C131.311 43.968 130.143 42.496 129.439 40.576C128.735 38.656 128.383 36.384 128.383 33.76V19.216C128.383 16.592 128.735 14.352 129.439 12.496C130.143 10.608 131.311 9.168 132.943 8.176C134.575 7.184 136.767 6.688 139.519 6.688C142.335 6.688 144.543 7.184 146.143 8.176C147.775 9.168 148.943 10.608 149.647 12.496C150.383 14.352 150.751 16.592 150.751 19.216V33.808C150.751 36.4 150.383 38.656 149.647 40.576C148.943 42.464 147.775 43.936 146.143 44.992C144.543 46.016 142.335 46.528 139.519 46.528ZM139.519 41.296C140.703 41.296 141.567 41.04 142.111 40.528C142.687 40.016 143.071 39.312 143.263 38.416C143.455 37.52 143.551 36.544 143.551 35.488V17.584C143.551 16.496 143.455 15.52 143.263 14.656C143.071 13.792 142.687 13.12 142.111 12.64C141.567 12.128 140.703 11.872 139.519 11.872C138.399 11.872 137.551 12.128 136.975 12.64C136.399 13.12 136.015 13.792 135.823 14.656C135.631 15.52 135.535 16.496 135.535 17.584V35.488C135.535 36.544 135.615 37.52 135.775 38.416C135.967 39.312 136.351 40.016 136.927 40.528C137.503 41.04 138.367 41.296 139.519 41.296ZM160.006 46V7.12H167.11V41.104H176.518V46H160.006ZM184.209 46V7.12H191.313V41.104H200.721V46H184.209ZM208.604 46V7.12H215.612V46H208.604Z" fill="#212020"/>
<path d="M119.016 66.728C119.016 66.856 118.92 67.56 118.824 67.912C118.792 68.008 118.664 68.232 118.568 68.488C118.472 68.488 118.376 68.424 118.28 68.328L118.024 68.616H118.056C118.056 68.584 118.056 68.552 118.088 68.52V68.488C118.088 68.456 118.088 68.456 118.056 68.424C117.8 68.52 117.672 68.648 117.512 68.808C117.512 68.68 117.512 68.584 117.48 68.488C117.256 68.392 116.936 68.04 116.712 67.784L116.648 67.56C116.68 67.432 116.648 67.176 116.744 67.016H116.68C116.616 67.016 116.584 66.984 116.584 66.92C116.584 66.76 116.552 66.472 116.648 66.248C116.68 66.216 116.744 66.28 116.776 66.184L116.872 66.024C116.84 65.928 116.904 66.088 116.904 65.864C116.904 65.288 116.52 63.848 116.104 63.528C115.816 63.272 115.144 62.888 114.984 62.888C114.76 62.888 115.016 62.952 114.792 62.952C114.568 62.952 114.6 62.792 114.472 62.76C114.44 62.728 114.344 62.728 114.152 62.728C113.832 62.728 112.392 63.752 112.296 63.912C112.04 64.328 111.752 64.904 111.656 65.384C111.56 65.576 111.528 65.768 111.528 65.992C111.528 66.216 111.528 66.984 111.656 67.464C111.656 67.624 111.912 67.88 111.944 68.136C112.072 68.616 111.976 69.32 112.36 69.832L113.096 72.136C113.096 72.232 113.224 72.36 113.32 72.52C113.832 73.992 114.088 75.016 114.856 76.904C115.272 77.672 115.688 80.104 115.688 81.288C115.688 81.416 115.592 82.312 115.432 82.824C115.4 82.952 115.528 83.112 115.432 83.272C115.336 83.688 114.92 84.264 114.408 84.616C114.312 84.712 114.12 84.968 113.896 85.128C113.864 85.128 113.736 85.128 113.64 85.16C113.16 85.416 112.392 85.576 111.912 85.576H111.208C110.984 85.576 109.768 85.032 109.544 85.032C109.32 85.032 109.608 85.128 109.384 85.128C109.256 85.128 108.936 84.776 108.84 84.616C108.584 84.36 107.752 84.04 107.272 83.496C106.856 83.016 106.024 81.96 105.896 81.32C105.736 81.064 105.608 80.648 105.352 80.264C105.352 80.168 105.544 80.072 105.448 79.976C105.416 79.912 105.352 79.848 105.256 79.752C105.384 79.496 105.224 78.952 105.224 78.664C105.224 78.504 105.032 78.472 105.032 78.248C105.032 78.024 105.128 78.056 105.128 77.928C105.224 77.928 105.192 78.056 105.352 78.152C105.352 77.864 105.224 77.544 105.352 77.128C105.384 77.128 105.448 77.224 105.544 77.384C105.672 77.032 105.544 76.648 105.416 76.296C105.544 76.296 105.384 76.136 105.608 76.136C105.832 76.136 105.672 76.2 105.8 76.2C105.8 75.976 105.928 75.816 105.928 75.56C105.928 75.784 105.8 75.976 105.896 76.232C105.928 76.36 105.992 76.296 106.024 76.328C106.152 76.424 105.992 76.968 106.344 77C106.376 77.224 106.44 77.448 106.536 77.704L106.696 77.544C106.696 78.408 107.144 79.816 107.496 80.168C107.72 80.392 107.976 81.128 108.2 81.128C108.36 81.128 108.232 81.064 108.232 80.968C108.488 81.576 110.568 82.312 111.496 82.312C111.656 82.312 111.784 82.28 111.88 82.248L112.04 82.376C112.136 82.28 112.52 82.184 112.68 82.088C112.936 81.928 113.288 81.576 113.416 81.192C113.512 80.936 113.48 80.648 113.48 80.392C113.48 80.168 113.416 80.264 113.416 80.232C113.448 79.976 113.512 79.624 113.416 79.368C112.904 77.672 111.944 74.92 111.016 72.968C111.016 72.808 109.192 67.528 109.192 65.992C109.192 65.96 109.192 65.704 109.224 65.288C109.256 64.872 109.32 64.52 109.384 64.232C109.48 63.688 109.928 62.76 110.344 62.024C110.344 61.928 110.248 61.96 110.248 61.832C110.504 61.736 110.76 61.384 110.92 61.384C111.144 61.384 110.856 61.544 111.016 61.544C111.24 61.544 111.848 60.808 112.136 60.808C112.808 60.776 113.928 60.68 114.152 60.68C114.28 60.68 115.336 61.128 115.752 61.224C116.008 61.352 116.488 61.704 116.872 61.736C118.312 61.896 119.016 65.512 119.016 66.728ZM135.274 63.048C135.274 63.272 134.922 64.456 134.762 65.192C134.634 65.672 134.442 66.248 134.154 66.92C134.026 67.304 133.834 68.648 133.578 69.512C133.482 69.896 133.194 70.472 133.034 70.984C133.002 71.208 132.874 71.592 132.714 71.848V72.488C133.098 72.424 133.482 72.424 133.866 72.488C133.738 72.904 133.93 73.384 134.474 73.288C134.346 73.384 134.186 73.384 134.09 73.48C134.154 73.64 134.346 73.736 134.634 73.736C134.218 73.864 133.642 74.216 133.418 74.216C133.258 74.216 133.322 74.152 133.226 74.152L133.13 74.344C133.162 74.44 133.066 74.568 133.162 74.568C132.906 74.536 132.682 74.856 132.586 74.952C132.49 75.048 132.234 75.048 132.138 75.272C131.786 76.072 131.658 76.904 131.562 77.704C131.37 79.176 130.698 83.08 130.314 85.864C129.962 85.96 129.738 86.056 129.61 86.216C129.61 86.12 129.642 86.024 129.546 85.928C129.482 85.96 129.482 86.056 129.514 86.216C129.514 86.12 129.61 86.088 129.386 86.088C129.162 86.088 129.386 86.216 129.162 86.216C128.938 86.216 128.458 85.832 128.362 85.576C128.394 85.416 128.234 85.384 128.234 85.16C128.234 85 128.394 84.808 128.394 84.648V83.528C128.394 82.984 128.362 82.216 128.394 81.672C128.426 81.416 128.586 81.032 128.586 80.648C128.586 80.52 128.618 80.392 128.458 80.264C128.746 79.592 128.586 78.696 128.682 78.024C128.778 77.512 128.938 76.584 128.938 76.424C128.938 76.296 129.066 75.592 128.682 75.624L123.018 76.616C122.986 76.648 122.986 76.68 122.986 76.744C122.986 76.776 122.986 76.776 123.018 76.776C122.922 76.936 122.826 77.16 122.794 77.512C122.314 79.272 121.706 81.608 121.578 83.56C121.578 83.656 121.45 83.784 121.45 83.944C121.45 84.072 121.546 84.2 121.77 84.296C121.77 84.424 121.61 84.712 121.61 84.808C121.642 84.968 121.834 85.16 121.834 85.32C121.834 85.544 121.674 85.864 121.578 86.152C121.354 86.024 120.938 85.864 120.714 85.864C120.49 85.864 120.746 85.928 120.522 85.928C120.106 85.928 119.274 84.232 119.274 84.008C119.274 83.464 119.178 82.536 119.178 82.312C119.178 82.184 119.402 80.456 119.498 79.688C119.594 78.952 119.882 78.152 120.042 77.384C119.53 77.128 118.922 76.84 118.314 76.456C118.25 76.36 118.186 76.136 118.122 75.848C118.058 75.528 117.93 75.368 117.77 75.336V75.08C117.898 74.984 118.058 74.728 118.314 74.6C118.986 74.344 119.85 74.184 120.714 73.928C121.002 72.904 121.258 72.04 121.514 70.76C122.026 68.488 122.634 65.576 123.114 63.272C123.146 63.016 123.114 62.6 123.146 62.312C123.114 62.312 123.114 62.312 123.114 62.28C123.018 62.248 123.05 62.248 123.018 62.152C123.146 62.056 123.114 61.896 123.338 61.896C123.562 61.896 123.338 61.96 123.562 61.96C123.786 61.96 123.69 61.864 123.69 61.736C123.786 61.864 124.042 61.768 124.298 61.768C124.426 61.768 124.618 61.96 124.778 61.96C125.002 61.96 124.81 61.896 124.97 61.896C125.642 61.896 125.994 63.112 126.058 63.176C126.058 63.336 125.962 65.288 125.706 65.992C125.674 66.024 125.706 66.12 125.802 66.248C125.354 67.464 123.946 72.968 123.946 73.192C123.946 73.416 123.882 73.256 123.978 73.384C124.906 73.16 126.058 73.032 127.082 72.904L129.45 72.584L129.514 72.552C129.514 72.552 129.546 72.52 129.578 72.488C129.802 71.592 129.994 70.568 130.154 69.704C130.442 68.136 130.954 64.872 132.202 62.824C132.234 62.696 132.394 62.504 132.522 62.344C132.618 62.088 132.938 61.704 132.906 61.448C133.002 61.544 133.162 61.608 133.29 61.736C133.578 61.64 133.674 61.576 133.802 61.288C133.93 61.512 134.122 61.544 133.994 61.704C134.122 61.8 134.282 61.768 134.506 61.672C134.794 62.056 135.274 62.824 135.274 63.048ZM133.77 73.352C133.706 73.256 133.61 73.224 133.482 73.224V73.544C133.578 73.544 133.77 73.448 133.77 73.352ZM153.307 67.464C153.307 68.104 151.483 68.52 151.163 68.616C149.115 69.544 148.507 69.928 147.835 70.408L140.891 74.12C140.667 74.248 140.155 74.504 140.155 74.856C140.155 75.272 142.235 76.456 142.427 76.584C143.163 77.064 144.091 77.768 145.115 78.504C145.371 78.728 145.947 78.952 146.235 79.176C147.291 79.912 148.315 80.776 149.339 81.8C150.363 82.824 151.291 84.04 151.515 85.096C151.355 85.096 151.259 85.256 151.035 85.256C150.907 85.256 150.747 85.096 150.523 85.096C150.299 85.096 149.819 85.128 149.659 85C148.891 84.328 148.347 83.464 147.451 82.728C145.403 80.584 142.299 78.632 139.451 76.936C139.355 77.032 139.227 77.384 139.131 77.608C139.067 77.608 139.003 77.64 138.971 77.704C138.491 79.624 137.627 81.928 137.627 84.456C137.627 84.616 137.595 84.84 137.691 85.064C137.819 85.16 138.107 85.384 138.107 85.608C138.107 85.832 137.979 86.184 137.819 86.44C137.563 86.312 137.115 86.376 136.699 86.216C136.443 86.088 135.931 85.544 135.675 85.16C135.675 85.128 135.579 84.936 135.579 84.776C135.099 84.456 135.099 83.08 135.099 82.44C135.099 79.88 136.667 75.784 136.667 75.24C136.667 75.112 136.443 74.952 136.315 74.856C136.315 74.76 136.539 74.12 136.059 74.12C136.187 73.896 135.995 73.544 135.995 73.256C136.411 73 137.371 72.904 137.595 72.296C138.139 71.016 138.459 69.864 138.587 68.872C138.747 67.848 139.003 66.664 139.419 65.288C139.579 64.744 139.707 63.784 139.963 63.368C140.059 63.24 139.867 63.144 139.867 63.048C140.155 62.44 140.251 61.288 140.411 60.616H140.859C140.987 60.616 140.987 60.552 140.891 60.456C141.307 60.584 141.435 60.36 141.563 60.36C141.787 60.36 142.235 60.68 142.587 60.68C142.843 61.16 143.163 62.024 143.163 62.248C143.163 62.408 143.003 62.824 143.003 63.08C143.131 64.488 142.843 65.448 142.491 66.568C142.267 67.336 142.139 67.944 142.043 68.36C141.947 68.776 141.787 69.384 141.531 70.184L141.755 70.376C141.883 70.152 142.139 69.928 142.555 69.736C143.195 69.32 144.155 68.84 145.051 68.424C146.299 67.816 147.195 67.336 147.803 66.984C148.411 66.632 148.955 66.344 149.467 66.12C149.691 66.024 150.203 65.544 150.587 65.544C150.747 65.544 151.131 65.768 151.355 65.768C151.579 65.768 151.515 65.608 151.739 65.608C151.899 65.608 153.019 66.472 153.115 66.824C153.147 66.92 153.307 67.304 153.307 67.464Z" fill="#212020"/>
<rect x="224" y="20" width="4" height="14" fill="#2547A0"/>
<rect x="30" y="20" width="4" height="14" fill="#2547A0"/>
<rect x="63" y="63" width="4" height="14" fill="#2547A0"/>
<rect x="190" y="63" width="4" height="14" fill="#2547A0"/>
</svg>
