<svg width="261" height="92" viewBox="0 0 261 92" fill="none" xmlns="http://www.w3.org/2000/svg">
<path d="M74.6396 91.41C74.6396 79.75 74.6396 68.41 74.6396 57.11C74.6892 56.4015 74.7828 55.6969 74.9197 55H183.16V91.41H74.6396Z" fill="#BFBFBF"/>
<path d="M6.24392 66.9124V29.9279H30V26.964V24H0V73H67V66.9124H6.24392Z" fill="#2547A0"/>
<path d="M190.43 66.6701V72.7301H260.71V23.8901H228V29.6601H254.48V66.6601L190.43 66.6701Z" fill="#2547A0"/>
<path d="M43.1289 46L43.8009 7.12H51.1449L56.6649 34.048L62.4249 7.12H69.5289L70.2489 46H64.9689L64.3929 18.976L58.8729 46H54.6009L48.9849 18.88L48.4569 46H43.1289ZM79.9905 46V7.12H96.3105V12.112H87.0945V23.296H94.3425V28.24H87.0945V41.104H96.4065V46H79.9905ZM108.41 46V12.352H102.218V7.12H121.61V12.352H115.514V46H108.41ZM139.519 46.528C136.767 46.528 134.575 46.016 132.943 44.992C131.311 43.968 130.143 42.496 129.439 40.576C128.735 38.656 128.383 36.384 128.383 33.76V19.216C128.383 16.592 128.735 14.352 129.439 12.496C130.143 10.608 131.311 9.168 132.943 8.176C134.575 7.184 136.767 6.688 139.519 6.688C142.335 6.688 144.543 7.184 146.143 8.176C147.775 9.168 148.943 10.608 149.647 12.496C150.383 14.352 150.751 16.592 150.751 19.216V33.808C150.751 36.4 150.383 38.656 149.647 40.576C148.943 42.464 147.775 43.936 146.143 44.992C144.543 46.016 142.335 46.528 139.519 46.528ZM139.519 41.296C140.703 41.296 141.567 41.04 142.111 40.528C142.687 40.016 143.071 39.312 143.263 38.416C143.455 37.52 143.551 36.544 143.551 35.488V17.584C143.551 16.496 143.455 15.52 143.263 14.656C143.071 13.792 142.687 13.12 142.111 12.64C141.567 12.128 140.703 11.872 139.519 11.872C138.399 11.872 137.551 12.128 136.975 12.64C136.399 13.12 136.015 13.792 135.823 14.656C135.631 15.52 135.535 16.496 135.535 17.584V35.488C135.535 36.544 135.615 37.52 135.775 38.416C135.967 39.312 136.351 40.016 136.927 40.528C137.503 41.04 138.367 41.296 139.519 41.296ZM160.006 46V7.12H167.11V41.104H176.518V46H160.006ZM184.209 46V7.12H191.313V41.104H200.721V46H184.209ZM208.604 46V7.12H215.612V46H208.604Z" fill="#212020"/>
<path d="M119.016 65.728C119.016 65.856 118.92 66.56 118.824 66.912C118.792 67.008 118.664 67.232 118.568 67.488C118.472 67.488 118.376 67.424 118.28 67.328L118.024 67.616H118.056C118.056 67.584 118.056 67.552 118.088 67.52V67.488C118.088 67.456 118.088 67.456 118.056 67.424C117.8 67.52 117.672 67.648 117.512 67.808C117.512 67.68 117.512 67.584 117.48 67.488C117.256 67.392 116.936 67.04 116.712 66.784L116.648 66.56C116.68 66.432 116.648 66.176 116.744 66.016H116.68C116.616 66.016 116.584 65.984 116.584 65.92C116.584 65.76 116.552 65.472 116.648 65.248C116.68 65.216 116.744 65.28 116.776 65.184L116.872 65.024C116.84 64.928 116.904 65.088 116.904 64.864C116.904 64.288 116.52 62.848 116.104 62.528C115.816 62.272 115.144 61.888 114.984 61.888C114.76 61.888 115.016 61.952 114.792 61.952C114.568 61.952 114.6 61.792 114.472 61.76C114.44 61.728 114.344 61.728 114.152 61.728C113.832 61.728 112.392 62.752 112.296 62.912C112.04 63.328 111.752 63.904 111.656 64.384C111.56 64.576 111.528 64.768 111.528 64.992C111.528 65.216 111.528 65.984 111.656 66.464C111.656 66.624 111.912 66.88 111.944 67.136C112.072 67.616 111.976 68.32 112.36 68.832L113.096 71.136C113.096 71.232 113.224 71.36 113.32 71.52C113.832 72.992 114.088 74.016 114.856 75.904C115.272 76.672 115.688 79.104 115.688 80.288C115.688 80.416 115.592 81.312 115.432 81.824C115.4 81.952 115.528 82.112 115.432 82.272C115.336 82.688 114.92 83.264 114.408 83.616C114.312 83.712 114.12 83.968 113.896 84.128C113.864 84.128 113.736 84.128 113.64 84.16C113.16 84.416 112.392 84.576 111.912 84.576H111.208C110.984 84.576 109.768 84.032 109.544 84.032C109.32 84.032 109.608 84.128 109.384 84.128C109.256 84.128 108.936 83.776 108.84 83.616C108.584 83.36 107.752 83.04 107.272 82.496C106.856 82.016 106.024 80.96 105.896 80.32C105.736 80.064 105.608 79.648 105.352 79.264C105.352 79.168 105.544 79.072 105.448 78.976C105.416 78.912 105.352 78.848 105.256 78.752C105.384 78.496 105.224 77.952 105.224 77.664C105.224 77.504 105.032 77.472 105.032 77.248C105.032 77.024 105.128 77.056 105.128 76.928C105.224 76.928 105.192 77.056 105.352 77.152C105.352 76.864 105.224 76.544 105.352 76.128C105.384 76.128 105.448 76.224 105.544 76.384C105.672 76.032 105.544 75.648 105.416 75.296C105.544 75.296 105.384 75.136 105.608 75.136C105.832 75.136 105.672 75.2 105.8 75.2C105.8 74.976 105.928 74.816 105.928 74.56C105.928 74.784 105.8 74.976 105.896 75.232C105.928 75.36 105.992 75.296 106.024 75.328C106.152 75.424 105.992 75.968 106.344 76C106.376 76.224 106.44 76.448 106.536 76.704L106.696 76.544C106.696 77.408 107.144 78.816 107.496 79.168C107.72 79.392 107.976 80.128 108.2 80.128C108.36 80.128 108.232 80.064 108.232 79.968C108.488 80.576 110.568 81.312 111.496 81.312C111.656 81.312 111.784 81.28 111.88 81.248L112.04 81.376C112.136 81.28 112.52 81.184 112.68 81.088C112.936 80.928 113.288 80.576 113.416 80.192C113.512 79.936 113.48 79.648 113.48 79.392C113.48 79.168 113.416 79.264 113.416 79.232C113.448 78.976 113.512 78.624 113.416 78.368C112.904 76.672 111.944 73.92 111.016 71.968C111.016 71.808 109.192 66.528 109.192 64.992C109.192 64.96 109.192 64.704 109.224 64.288C109.256 63.872 109.32 63.52 109.384 63.232C109.48 62.688 109.928 61.76 110.344 61.024C110.344 60.928 110.248 60.96 110.248 60.832C110.504 60.736 110.76 60.384 110.92 60.384C111.144 60.384 110.856 60.544 111.016 60.544C111.24 60.544 111.848 59.808 112.136 59.808C112.808 59.776 113.928 59.68 114.152 59.68C114.28 59.68 115.336 60.128 115.752 60.224C116.008 60.352 116.488 60.704 116.872 60.736C118.312 60.896 119.016 64.512 119.016 65.728ZM135.274 62.048C135.274 62.272 134.922 63.456 134.762 64.192C134.634 64.672 134.442 65.248 134.154 65.92C134.026 66.304 133.834 67.648 133.578 68.512C133.482 68.896 133.194 69.472 133.034 69.984C133.002 70.208 132.874 70.592 132.714 70.848V71.488C133.098 71.424 133.482 71.424 133.866 71.488C133.738 71.904 133.93 72.384 134.474 72.288C134.346 72.384 134.186 72.384 134.09 72.48C134.154 72.64 134.346 72.736 134.634 72.736C134.218 72.864 133.642 73.216 133.418 73.216C133.258 73.216 133.322 73.152 133.226 73.152L133.13 73.344C133.162 73.44 133.066 73.568 133.162 73.568C132.906 73.536 132.682 73.856 132.586 73.952C132.49 74.048 132.234 74.048 132.138 74.272C131.786 75.072 131.658 75.904 131.562 76.704C131.37 78.176 130.698 82.08 130.314 84.864C129.962 84.96 129.738 85.056 129.61 85.216C129.61 85.12 129.642 85.024 129.546 84.928C129.482 84.96 129.482 85.056 129.514 85.216C129.514 85.12 129.61 85.088 129.386 85.088C129.162 85.088 129.386 85.216 129.162 85.216C128.938 85.216 128.458 84.832 128.362 84.576C128.394 84.416 128.234 84.384 128.234 84.16C128.234 84 128.394 83.808 128.394 83.648V82.528C128.394 81.984 128.362 81.216 128.394 80.672C128.426 80.416 128.586 80.032 128.586 79.648C128.586 79.52 128.618 79.392 128.458 79.264C128.746 78.592 128.586 77.696 128.682 77.024C128.778 76.512 128.938 75.584 128.938 75.424C128.938 75.296 129.066 74.592 128.682 74.624L123.018 75.616C122.986 75.648 122.986 75.68 122.986 75.744C122.986 75.776 122.986 75.776 123.018 75.776C122.922 75.936 122.826 76.16 122.794 76.512C122.314 78.272 121.706 80.608 121.578 82.56C121.578 82.656 121.45 82.784 121.45 82.944C121.45 83.072 121.546 83.2 121.77 83.296C121.77 83.424 121.61 83.712 121.61 83.808C121.642 83.968 121.834 84.16 121.834 84.32C121.834 84.544 121.674 84.864 121.578 85.152C121.354 85.024 120.938 84.864 120.714 84.864C120.49 84.864 120.746 84.928 120.522 84.928C120.106 84.928 119.274 83.232 119.274 83.008C119.274 82.464 119.178 81.536 119.178 81.312C119.178 81.184 119.402 79.456 119.498 78.688C119.594 77.952 119.882 77.152 120.042 76.384C119.53 76.128 118.922 75.84 118.314 75.456C118.25 75.36 118.186 75.136 118.122 74.848C118.058 74.528 117.93 74.368 117.77 74.336V74.08C117.898 73.984 118.058 73.728 118.314 73.6C118.986 73.344 119.85 73.184 120.714 72.928C121.002 71.904 121.258 71.04 121.514 69.76C122.026 67.488 122.634 64.576 123.114 62.272C123.146 62.016 123.114 61.6 123.146 61.312C123.114 61.312 123.114 61.312 123.114 61.28C123.018 61.248 123.05 61.248 123.018 61.152C123.146 61.056 123.114 60.896 123.338 60.896C123.562 60.896 123.338 60.96 123.562 60.96C123.786 60.96 123.69 60.864 123.69 60.736C123.786 60.864 124.042 60.768 124.298 60.768C124.426 60.768 124.618 60.96 124.778 60.96C125.002 60.96 124.81 60.896 124.97 60.896C125.642 60.896 125.994 62.112 126.058 62.176C126.058 62.336 125.962 64.288 125.706 64.992C125.674 65.024 125.706 65.12 125.802 65.248C125.354 66.464 123.946 71.968 123.946 72.192C123.946 72.416 123.882 72.256 123.978 72.384C124.906 72.16 126.058 72.032 127.082 71.904L129.45 71.584L129.514 71.552C129.514 71.552 129.546 71.52 129.578 71.488C129.802 70.592 129.994 69.568 130.154 68.704C130.442 67.136 130.954 63.872 132.202 61.824C132.234 61.696 132.394 61.504 132.522 61.344C132.618 61.088 132.938 60.704 132.906 60.448C133.002 60.544 133.162 60.608 133.29 60.736C133.578 60.64 133.674 60.576 133.802 60.288C133.93 60.512 134.122 60.544 133.994 60.704C134.122 60.8 134.282 60.768 134.506 60.672C134.794 61.056 135.274 61.824 135.274 62.048ZM133.77 72.352C133.706 72.256 133.61 72.224 133.482 72.224V72.544C133.578 72.544 133.77 72.448 133.77 72.352ZM153.307 66.464C153.307 67.104 151.483 67.52 151.163 67.616C149.115 68.544 148.507 68.928 147.835 69.408L140.891 73.12C140.667 73.248 140.155 73.504 140.155 73.856C140.155 74.272 142.235 75.456 142.427 75.584C143.163 76.064 144.091 76.768 145.115 77.504C145.371 77.728 145.947 77.952 146.235 78.176C147.291 78.912 148.315 79.776 149.339 80.8C150.363 81.824 151.291 83.04 151.515 84.096C151.355 84.096 151.259 84.256 151.035 84.256C150.907 84.256 150.747 84.096 150.523 84.096C150.299 84.096 149.819 84.128 149.659 84C148.891 83.328 148.347 82.464 147.451 81.728C145.403 79.584 142.299 77.632 139.451 75.936C139.355 76.032 139.227 76.384 139.131 76.608C139.067 76.608 139.003 76.64 138.971 76.704C138.491 78.624 137.627 80.928 137.627 83.456C137.627 83.616 137.595 83.84 137.691 84.064C137.819 84.16 138.107 84.384 138.107 84.608C138.107 84.832 137.979 85.184 137.819 85.44C137.563 85.312 137.115 85.376 136.699 85.216C136.443 85.088 135.931 84.544 135.675 84.16C135.675 84.128 135.579 83.936 135.579 83.776C135.099 83.456 135.099 82.08 135.099 81.44C135.099 78.88 136.667 74.784 136.667 74.24C136.667 74.112 136.443 73.952 136.315 73.856C136.315 73.76 136.539 73.12 136.059 73.12C136.187 72.896 135.995 72.544 135.995 72.256C136.411 72 137.371 71.904 137.595 71.296C138.139 70.016 138.459 68.864 138.587 67.872C138.747 66.848 139.003 65.664 139.419 64.288C139.579 63.744 139.707 62.784 139.963 62.368C140.059 62.24 139.867 62.144 139.867 62.048C140.155 61.44 140.251 60.288 140.411 59.616H140.859C140.987 59.616 140.987 59.552 140.891 59.456C141.307 59.584 141.435 59.36 141.563 59.36C141.787 59.36 142.235 59.68 142.587 59.68C142.843 60.16 143.163 61.024 143.163 61.248C143.163 61.408 143.003 61.824 143.003 62.08C143.131 63.488 142.843 64.448 142.491 65.568C142.267 66.336 142.139 66.944 142.043 67.36C141.947 67.776 141.787 68.384 141.531 69.184L141.755 69.376C141.883 69.152 142.139 68.928 142.555 68.736C143.195 68.32 144.155 67.84 145.051 67.424C146.299 66.816 147.195 66.336 147.803 65.984C148.411 65.632 148.955 65.344 149.467 65.12C149.691 65.024 150.203 64.544 150.587 64.544C150.747 64.544 151.131 64.768 151.355 64.768C151.579 64.768 151.515 64.608 151.739 64.608C151.899 64.608 153.019 65.472 153.115 65.824C153.147 65.92 153.307 66.304 153.307 66.464Z" fill="#212020"/>
<rect x="224" y="20" width="4" height="14" fill="#2547A0"/>
<rect x="30" y="20" width="4" height="14" fill="#2547A0"/>
<rect x="63" y="63" width="4" height="14" fill="#2547A0"/>
<rect x="190" y="63" width="4" height="14" fill="#2547A0"/>
</svg>
