<svg width="100" height="100" viewBox="0 0 100 100" fill="none" xmlns="http://www.w3.org/2000/svg">
<g clip-path="url(#clip0_630_138)">
<path fill-rule="evenodd" clip-rule="evenodd" d="M15 64.581C15 84.144 30.445 100 49.478 100C68.511 100 85 84.144 85 64.581C85 45.018 49.478 0 49.478 0C49.478 0 15 45.025 15 64.581Z" fill="#26499F"/>
<path d="M55.9249 59.5931V47.7031C55.7049 47.9101 55.5499 48.0501 55.4019 48.1971C52.6879 50.9084 49.9736 53.6197 47.2589 56.3311C47.1069 56.5447 46.906 56.7189 46.673 56.839C46.44 56.9592 46.1816 57.0219 45.9194 57.0219C45.6572 57.0219 45.3988 56.9592 45.1658 56.839C44.9328 56.7189 44.732 56.5447 44.5799 56.3311C41.9226 53.6797 39.269 51.0261 36.619 48.3701C36.406 48.1571 36.2109 47.9261 35.8829 47.5701V48.3771C35.8829 54.5771 35.8829 60.7771 35.8829 66.9771C35.8956 67.3206 35.8007 67.6594 35.6113 67.9463C35.422 68.2332 35.1478 68.4537 34.827 68.5771C34.5046 68.6979 34.1514 68.7095 33.8218 68.6099C33.4922 68.5103 33.2045 68.3052 33.0029 68.0261C32.7947 67.7228 32.6749 67.3675 32.6569 67.0001C32.6376 59.2667 32.6329 51.5311 32.6429 43.7931C32.6216 43.4596 32.707 43.1281 32.8868 42.8465C33.0666 42.5649 33.3315 42.348 33.6429 42.2271C33.9692 42.0868 34.3323 42.0571 34.677 42.1425C35.0217 42.2279 35.329 42.4237 35.5519 42.7001C38.7739 45.9294 41.9979 49.1564 45.2239 52.3811C45.4439 52.6011 45.653 52.8311 45.934 53.1281C47.281 51.7641 48.5969 50.4281 49.9229 49.0911C52.0149 46.9911 54.1229 44.9001 56.2059 42.7911C56.4292 42.4881 56.7467 42.2677 57.1086 42.1646C57.4706 42.0614 57.8565 42.0813 58.2059 42.2211C58.5507 42.3702 58.8372 42.628 59.0217 42.9552C59.2062 43.2823 59.2787 43.6609 59.228 44.0331C59.2213 48.9897 59.2213 53.9464 59.228 58.9031C59.228 59.1031 59.228 59.3101 59.228 59.6261C60.095 59.6261 60.917 59.5831 61.728 59.6341C62.7495 59.7331 63.7195 60.1293 64.5183 60.7736C65.3171 61.418 65.9095 62.2824 66.2224 63.2598C66.5353 64.2373 66.5548 65.285 66.2787 66.2734C66.0025 67.2619 65.4428 68.1477 64.6686 68.8215C63.8945 69.4953 62.9399 69.9274 61.9228 70.0645C60.9057 70.2016 59.8707 70.0376 58.9458 69.5929C58.0209 69.1481 57.2466 68.4421 56.7186 67.562C56.1906 66.6819 55.932 65.6665 55.9749 64.6411C55.9819 64.0661 55.9749 63.4911 55.9749 62.8851C55.7629 62.8731 55.6019 62.857 55.4419 62.857C52.2886 62.857 49.1363 62.857 45.9849 62.857C44.9411 62.8392 43.9279 63.2098 43.1419 63.8968C42.3559 64.5838 41.853 65.5383 41.731 66.5751C41.6247 67.6272 41.9141 68.6812 42.5427 69.5316C43.1712 70.3821 44.0939 70.9679 45.1309 71.1751C45.438 71.2244 45.7493 71.2421 46.0599 71.2281C49.9179 71.2281 53.7749 71.2151 57.6329 71.2411C59.6101 71.2367 61.5081 72.0179 62.9092 73.4129C64.3104 74.8079 65.1 76.7024 65.1044 78.6796C65.1088 80.6568 64.3276 82.5547 62.9326 83.9559C61.5376 85.357 59.6431 86.1467 57.6659 86.1511C51.8799 86.1591 46.0936 86.1591 40.3069 86.1511C40.0788 86.1771 39.8477 86.1546 39.6288 86.0851C39.41 86.0156 39.2083 85.9006 39.0369 85.7477C38.8656 85.5948 38.7285 85.4074 38.6346 85.1978C38.5408 84.9883 38.4922 84.7612 38.4922 84.5316C38.4922 84.3019 38.5408 84.0749 38.6346 83.8653C38.7285 83.6557 38.8656 83.4683 39.0369 83.3154C39.2083 83.1625 39.41 83.0475 39.6288 82.978C39.8477 82.9085 40.0788 82.8861 40.3069 82.9121C46.0719 82.9121 51.8369 82.9291 57.6069 82.9011C58.4121 82.9297 59.2069 82.7118 59.8849 82.2765C60.5629 81.8411 61.0919 81.2091 61.4009 80.4651C61.7658 79.7373 61.901 78.9159 61.7884 78.1096C61.6759 77.3033 61.3211 76.5502 60.7709 75.9501C60.3527 75.4596 59.8273 75.0717 59.2353 74.8165C58.6434 74.5612 58.0007 74.4455 57.3569 74.4781C53.5569 74.4781 49.7659 74.4851 45.9709 74.4781C44.4723 74.4898 43.0051 74.0482 41.7619 73.2111C40.5187 72.3741 39.5577 71.1808 39.0048 69.7878C38.452 68.3948 38.3332 66.8672 38.6641 65.4055C38.995 63.9437 39.7601 62.6162 40.8589 61.5971C42.217 60.2897 44.0361 59.571 45.921 59.5971C49.0943 59.5971 52.2673 59.5971 55.4399 59.5971L55.9249 59.5931ZM59.2009 62.8761C59.2388 63.4377 59.2325 64.0014 59.1819 64.5621C59.1451 64.8348 59.1674 65.1123 59.2475 65.3757C59.3276 65.639 59.4635 65.882 59.6459 66.0881C59.9169 66.444 60.2994 66.6989 60.7324 66.8118C61.1653 66.9248 61.6236 66.8893 62.0339 66.7111C62.4304 66.532 62.7607 66.233 62.9783 65.8563C63.1959 65.4795 63.2899 65.044 63.2469 64.6111C63.1956 64.1879 63.0097 63.7925 62.7165 63.483C62.4234 63.1735 62.0387 62.9663 61.6189 62.8921C60.8429 62.8251 60.0579 62.8761 59.2009 62.8761Z" fill="white"/>
</g>
<defs>
<clipPath id="clip0_630_138">
<rect width="100" height="100" fill="white"/>
</clipPath>
</defs>
</svg>
