<svg xmlns="http://www.w3.org/2000/svg" xmlns:xlink="http://www.w3.org/1999/xlink" viewBox="0 0 2114.093 1200"><defs><style>.cls-1{fill:#212020;}.cls-2,.cls-9{fill:#26499f;}.cls-3{fill:#010101;}.cls-4,.cls-5{font-size:24px;fill:#231f20;font-family:Matchbox-Lettre, Matchbox;}.cls-4,.cls-8{letter-spacing:0.1em;}.cls-5{letter-spacing:0.08em;}.cls-6{letter-spacing:0.06em;}.cls-7{letter-spacing:0.08em;}.cls-9{fill-rule:evenodd;}.cls-10{fill:#fff;}</style></defs><g id="Layer_1" data-name="Layer 1"><image width="1200" height="1200" transform="translate(914.093)" xlink:href="D:%5CCode%5CRelapseGFX%5CMetolli%5Cdesign%5Cinspo.jpg"/></g><g id="Layer_2" data-name="Layer 2"><path class="cls-1" d="M404.613,543.866a23.161,23.161,0,0,1,8.356-9.777,39.979,39.979,0,0,1,13.322-6.023,46.368,46.368,0,0,1,14.827-1.246,26.072,26.072,0,0,1,12.868,4.2,8.525,8.525,0,0,0-3.1,2.634,15.955,15.955,0,0,0-2.154,4.107,22.647,22.647,0,0,0-1.022,7.326q-.416,44.855-.832,89.708a19.966,19.966,0,0,0,.886,6.98,10.589,10.589,0,0,0,2.075,3.5,5.543,5.543,0,0,0,3.044,1.7c-6.182,6.469-11.728,8.384-16.645,5.094-5.059,6.514-10.5,8.569-16.342,5.558a18.822,18.822,0,0,0,3.071-3.863,21.177,21.177,0,0,0,2.1-5.068,29.5,29.5,0,0,0,.971-7.944q.146-18,.293-36.006.267-32.925.536-65.851a10.17,10.17,0,0,0-8.7,4.918c-2.041,3.178-3.085,8.312-3.136,15.328q-.192,26.691-.386,53.383a24.13,24.13,0,0,0,.891,7.646,12.516,12.516,0,0,0,2.071,3.917,4.334,4.334,0,0,0,2.952,1.692c-5.929,6.836-11.417,8.716-16.487,4.885-5.026,6.822-10.47,8.68-16.351,4.82a12.1,12.1,0,0,0,3.049-3.667,23.947,23.947,0,0,0,2.119-5.423,33.26,33.26,0,0,0,.989-8.645l.293-56.616c.036-7.052-.834-12.248-2.611-15.662s-4.769-5.078-8.967-4.9q-.219,57.673-.437,115.348a29.256,29.256,0,0,0,.866,8.291,11.91,11.91,0,0,0,2.023,4.051,4.82,4.82,0,0,0,3.011,1.807c-6.021,8.138-11.473,10.855-16.395,7.252-4.789,8.072-10.136,10.911-16.075,7.681a24.229,24.229,0,0,0,3-4.835,31.868,31.868,0,0,0,2.072-6.249,42.132,42.132,0,0,0,.943-9.645q.054-57.036.106-114.073a35.267,35.267,0,0,0-.944-9.239,19.2,19.2,0,0,0-2.11-5.139,11.7,11.7,0,0,0-3.067-3.3A19.833,19.833,0,0,1,367,526.763a35.931,35.931,0,0,1,14.565.521,43.056,43.056,0,0,1,13.705,5.872A24.929,24.929,0,0,1,404.613,543.866Z" transform="translate(-305.907)"/><path class="cls-1" d="M491.8,639.8c-3.972.857-5.957,1.3-9.924,2.241a10.071,10.071,0,0,1-4.324.243,12.228,12.228,0,0,1-3.886-1.729c-5.039,5.892-10.526,7.487-16.456,4.308a14.363,14.363,0,0,0,3.095-3.283,18.784,18.784,0,0,0,2.156-4.392,22.24,22.24,0,0,0,1.022-7.163l.84-86.541a20.561,20.561,0,0,0-.887-6.947,12.738,12.738,0,0,0-2.078-3.947,7.113,7.113,0,0,0-3.05-2.212c6.19-5.034,11.669-4.9,16.437-.15a12.186,12.186,0,0,1,8.25-3.417l17.848-.019a27.447,27.447,0,0,1,14.536,3.714c4.048,2.458,6.05,6.579,6,12.428a16.509,16.509,0,0,0,.906,6.267,13.033,13.033,0,0,0,2.092,3.52,5.243,5.243,0,0,0,3.063,1.782c-6.024,4.652-11.521,5-16.471.706-4.92,4.763-10.413,5.174-16.465.851a7.006,7.006,0,0,0,3.1-2.158,13.289,13.289,0,0,0,2.113-3.84,19.13,19.13,0,0,0,.974-6.554l.01-.989a8.267,8.267,0,0,0-2.146-5.935,7.035,7.035,0,0,0-5.5-2.309l-.249,0q-7.473.114-7.554,8.448l-.324,33.5a19.426,19.426,0,0,0-4.438,3.673,16.989,16.989,0,0,0-2.956,5.072c3.027-3.878,6.62-6.083,10.781-6.692s8.184-1.083,12.069-1.434a15.283,15.283,0,0,0,5.837-1.536,14,14,0,0,0,3.434-2.535,9.077,9.077,0,0,0,2.109-3.331,12.875,12.875,0,0,1,2.582,4.6,10.932,10.932,0,0,1,.411,5.58,10.743,10.743,0,0,1-2.291,4.943,7.6,7.6,0,0,1-5.352,2.512,9.814,9.814,0,0,1-4.076-.332,23.188,23.188,0,0,1-3.4-1.432,23.843,23.843,0,0,0-3.4-1.443,8.977,8.977,0,0,0-4.155-.323,10.222,10.222,0,0,0-5.053,2.544,7.177,7.177,0,0,0-2.257,5.586q-.165,17.03-.329,34.058c-.051,5.245,2.256,7.349,6.927,6.406l.5-.1.25-.05a9.453,9.453,0,0,0,5.571-3.385,9.619,9.619,0,0,0,2.265-6.2c.025-2.66.037-3.991.062-6.651a16.583,16.583,0,0,0-.86-6.064,9.3,9.3,0,0,0-2.05-3.387,8.462,8.462,0,0,0-3.062-1.9c5.986-5.294,11.485-5.9,16.51-2.23,5.211-4.935,10.715-5.455,16.531-1.851a9.524,9.524,0,0,0-3.108,2.566,14.777,14.777,0,0,0-2.159,3.79,16.954,16.954,0,0,0-1.01,6.107,49.245,49.245,0,0,1-.778,8.483,19.376,19.376,0,0,1-2.9,7.3,19.166,19.166,0,0,1-6.313,5.728,34.887,34.887,0,0,1-11.007,3.835C496.606,638.779,495,639.111,491.8,639.8Z" transform="translate(-305.907)"/><path class="cls-1" d="M578.547,556.522l-.15,57.9a14.713,14.713,0,0,0,.908,5.845,10.739,10.739,0,0,0,2.175,3.167,7.652,7.652,0,0,0,3.02,1.955c-6,4.226-11.636,4.528-16.881.775-5.053,4.393-10.6,4.863-16.618,1.3a10.72,10.72,0,0,0,3.115-2.372,12.527,12.527,0,0,0,2.156-3.474,15.42,15.42,0,0,0,.994-6.035q.183-37.122.367-74.244a7.111,7.111,0,0,0-2.092-5.482,7.027,7.027,0,0,0-4.558-2.1,6.507,6.507,0,0,0-4.579,1.676q-2.13,1.788-2.154,5.59l0,.253c0,.473,0,.71-.007,1.182a19,19,0,0,0,1.372,6.8,6.687,6.687,0,0,0,4.633,4.5,21.061,21.061,0,0,1-6.385,2.838,13.993,13.993,0,0,1-5.87.414c-2.913-.568-4.633-2.075-4.922-4.174a52.364,52.364,0,0,1-.4-7.427c.012-1.574.017-2.361.029-3.935a16.314,16.314,0,0,0-.91-6.147,11.021,11.021,0,0,0-2.092-3.5,7.216,7.216,0,0,0-3.058-1.96,16.647,16.647,0,0,1,9.073-3.239,12.877,12.877,0,0,1,8.613,3.161,12.77,12.77,0,0,1,8.238-3.042l5.146,0a19.5,19.5,0,0,1,10.284,2.808,21.279,21.279,0,0,1,10.636-2.815h5.147a12.965,12.965,0,0,1,8.215,2.948,12.9,12.9,0,0,1,8.6-3.072,16.845,16.845,0,0,1,9.01,3.073,6.517,6.517,0,0,0-2.989,1.883,10.962,10.962,0,0,0-2.157,3.356,15.7,15.7,0,0,0-.911,5.895c0,1.506,0,2.26,0,3.766a44.341,44.341,0,0,1-.5,7.123c-.332,2.02-2.048,3.527-4.914,4.175a14.53,14.53,0,0,1-5.915-.189,20.041,20.041,0,0,1-6.41-2.542,6.742,6.742,0,0,0,4.878-4.537,19.889,19.889,0,0,0,1.3-6.641c0-.459,0-.689,0-1.148v-.246q0-3.685-2.113-5.4a6.539,6.539,0,0,0-4.568-1.59,7.19,7.19,0,0,0-4.575,2.107,7.1,7.1,0,0,0-2.132,5.436l-.025,9.787Z" transform="translate(-305.907)"/><path class="cls-1" d="M612.94,547.168a19.356,19.356,0,0,1,6.083-14.5,20.387,20.387,0,0,1,14.721-5.912l15.773.006a19.751,19.751,0,0,1,14.736,6.144,22.269,22.269,0,0,1,6.344,15.259l.022,2.921.459,60.993a18.736,18.736,0,0,1-6.17,14.148c-3.992,3.6-8.929,5.028-14.8,4.445-6.377-.632-9.568-.9-15.951-1.329a22.688,22.688,0,0,1-14.925-6.7,19.7,19.7,0,0,1-6.194-14.456Zm29.579,75.978a6.611,6.611,0,0,0,5.4-1.808,7.082,7.082,0,0,0,2.107-5.345l-.423-74.557a7.864,7.864,0,0,0-2.151-5.6,7.162,7.162,0,0,0-5.37-2.253l-.748,0a7.157,7.157,0,0,0-5.431,2.168,7.537,7.537,0,0,0-2.1,5.492q.147,36.8.295,73.609a8.124,8.124,0,0,0,2.162,5.6,7.956,7.956,0,0,0,5.5,2.636Z" transform="translate(-305.907)"/><path class="cls-1" d="M683.512,541.835a17.317,17.317,0,0,0-1.009-6.315,11.616,11.616,0,0,0-2.147-3.6,7.374,7.374,0,0,0-3.089-2.02c6.11-4.361,11.611-4.444,16.523.1,4.942-4.3,10.473-4.395,16.605.116a6.131,6.131,0,0,0-2.969,2.076,13.37,13.37,0,0,0-2.082,3.7,18.171,18.171,0,0,0-.893,6.514q.382,40.55.764,81.1c.05,5.323,2.579,8.456,7.582,9.506l.249.053a6.178,6.178,0,0,0,5.56-1.171,6.773,6.773,0,0,0,2.191-5.542l-.07-7.2a21.074,21.074,0,0,0-1.024-6.906,15.311,15.311,0,0,0-2.159-4.185,11.577,11.577,0,0,0-3.1-2.816,10.758,10.758,0,0,1,7.291-2.184,15.776,15.776,0,0,1,7.078,2.122,12.961,12.961,0,0,1,4.815,4.639,19.254,19.254,0,0,1,2.174,6.007,33.421,33.421,0,0,1,.523,6.964q-.088,3.7-.055,7.18a22.2,22.2,0,0,0,1.024,7.16,21.443,21.443,0,0,0,2.154,4.388,11.57,11.57,0,0,0,3.1,3.28c-5.931,2.983-11.335,1.521-16.2-3.956a39.712,39.712,0,0,1-5.058,1.024,15.622,15.622,0,0,1-5.573-.385c-5.068-1.171-7.605-1.724-12.682-2.766a15.888,15.888,0,0,1-8.3-4.921c-5.03,3.463-10.584,2.41-16.645-2.774a7.452,7.452,0,0,0,3.079-1.7,9.3,9.3,0,0,0,2.1-3.121,15.072,15.072,0,0,0,.91-6.111Z" transform="translate(-305.907)"/><path class="cls-1" d="M750.369,544.1a22.531,22.531,0,0,0-1.023-7.24,13.835,13.835,0,0,0-2.154-4.133A7.382,7.382,0,0,0,744.1,530.4c6.095-4.941,11.6-5.091,16.517.172,4.935-4.948,10.472-5.107,16.6.192a6.2,6.2,0,0,0-2.969,2.414,16.369,16.369,0,0,0-2.079,4.306,24.348,24.348,0,0,0-.891,7.58q.39,47.238.781,94.476c.051,6.2,2.555,10.086,7.5,11.764l.247.084a5.122,5.122,0,0,0,5.5-.888c1.469-1.354,2.194-3.475,2.174-6.34l-.06-8.485a29.862,29.862,0,0,0-1.006-8.2,20.743,20.743,0,0,0-2.134-5.065,13.618,13.618,0,0,0-3.075-3.509,9.136,9.136,0,0,1,7.234-2.11,14.724,14.724,0,0,1,7.014,2.925,15.453,15.453,0,0,1,4.761,5.783,27.169,27.169,0,0,1,2.136,7.268,48.192,48.192,0,0,1,.5,8.312q-.1,4.392-.076,8.531a32.176,32.176,0,0,0,.99,8.589,30.291,30.291,0,0,0,2.113,5.388,14.582,14.582,0,0,0,3.044,4.15c-5.864,3.1-11.187.863-15.985-6.029a31.012,31.012,0,0,1-5,.758,13.381,13.381,0,0,1-5.5-.971c-5.006-1.853-7.513-2.748-12.533-4.472-2.971-1.021-5.709-3.222-8.214-6.544-4.972,3.484-10.466,1.619-16.485-4.943a6.174,6.174,0,0,0,3.045-1.608,9.335,9.335,0,0,0,2.077-3.346,18.869,18.869,0,0,0,.887-6.9Z" transform="translate(-305.907)"/><path class="cls-1" d="M817.519,547.673a32.213,32.213,0,0,0-.986-8.7,17.861,17.861,0,0,0-2.133-4.968,7.627,7.627,0,0,0-3.081-2.787c6.056-5.9,11.544-6.112,16.426.247,5.016-5.956,10.587-6.179,16.672.269a6.507,6.507,0,0,0-3.068,2.921,22.02,22.02,0,0,0-2.11,5.211,35.463,35.463,0,0,0-.945,9.179q.054,57.228.106,114.456a40.244,40.244,0,0,0,.944,9.58,37.227,37.227,0,0,0,2.072,6.049,16.672,16.672,0,0,0,3,4.7c-5.832,3.565-11.261.684-16.321-7.736-4.87,3.89-10.241,1.222-16.154-7.087a5.289,5.289,0,0,0,3.012-1.7,10.731,10.731,0,0,0,2.064-3.862,26.626,26.626,0,0,0,.907-8.218Z" transform="translate(-305.907)"/><path class="cls-1" d="M310.973,613.251l-4.835-.437v-5.607h30.514c.281,2.845,2.154,6.419-3.89,5.895,0,16.256-.047,32.2.051,48.135a31.35,31.35,0,0,0,1.108,7.368c3.259,12.923,11,22.375,23.108,27.75,17.292,7.678,34.841,14.778,52.217,22.27,10.83,4.67,21.458,9.815,32.331,14.378,15.051,6.316,30.31,12.138,45.369,18.435,32.21,13.471,64.348,27.113,96.518,40.68a40.724,40.724,0,0,0,32.949.029q49.128-20.8,98.261-41.592c22.117-9.371,44.2-18.824,66.332-28.152,19.613-8.265,39.3-16.361,58.914-24.619,18.185-7.657,27.444-21.4,27.548-41.165.075-14.306.015-28.614.015-43.149l-4.682-.806v-5.619H893.16v5.637l-4.145.7c0,15.288.422,30.6-.093,45.885-.886,26.264-13.258,45.605-37.126,56.756-14.683,6.859-29.944,12.476-44.88,18.806C789.988,742,773.164,749.419,756.239,756.6q-65.18,27.655-130.415,55.183c-17.459,7.368-34.863,7.118-52.341-.3q-87.9-37.294-175.891-74.381-22.842-9.652-45.7-19.272c-26.71-11.311-40.944-32.908-40.923-62C310.982,641.84,310.973,627.851,310.973,613.251Z" transform="translate(-305.907)"/><path class="cls-1" d="M889.02,586.632l4.2.638v5.912H862.912v-5.86l3.991-.634c.208-.421.472-.705.471-.989-.036-15.66.419-31.344-.291-46.975-.765-16.847-9.825-28.78-25.062-35.519-19.251-8.515-38.779-16.4-58.172-24.6q-36.471-15.414-72.919-30.883-47.259-19.973-94.536-39.9a40.545,40.545,0,0,0-32.512-.125c-17.646,7.349-35.214,14.888-52.844,22.278-30.547,12.8-61.154,25.467-91.665,38.355-26.656,11.258-53.217,22.742-79.818,34.13-17.162,7.347-26.434,20.339-26.949,39-.408,14.817-.082,29.654-.082,44.86,3.967.219,5.531,2.261,4.1,6.47H306.172c-.077-1.57-.163-3.308-.265-5.365l4.65-.7a12.314,12.314,0,0,0,.4-2.262c.025-14.166-.244-28.337.071-42.5.6-27.153,13.116-46.967,37.886-58.307,13.4-6.137,27.37-11.024,40.944-16.8,42.924-18.274,85.77-36.73,128.671-55.059q28.19-12.045,56.477-23.861c16.64-6.95,33.4-6.991,50.005.019,75.5,31.872,151.083,63.532,226.358,95.92,24.623,10.594,36.878,30.77,37.577,57.553C889.34,556.4,889.02,571.388,889.02,586.632Z" transform="translate(-305.907)"/><path class="cls-2" d="M451.662,699.606l.126.363q-4.478,1.54-8.916,3.177l-.134-.36a1.806,1.806,0,0,0,1.012-2.45q-1.1-2.99-2.212-5.976-4.219,1.536-8.4,3.154,1.168,2.964,2.327,5.931a1.821,1.821,0,0,0,2.385,1.176l.138.358q-4.416,1.686-8.789,3.467c-.048-.119-.1-.237-.145-.355a1.807,1.807,0,0,0,.928-2.483q-3.253-8.023-6.577-16.03a1.867,1.867,0,0,0-2.489-1.1l-.15-.355q4.586-1.869,9.215-3.639l.141.357a1.821,1.821,0,0,0-1.026,2.49q1.231,3.079,2.453,6.162,4.221-1.635,8.479-3.184-1.161-3.107-2.331-6.209a1.871,1.871,0,0,0-2.456-1.182l-.138-.359q4.654-1.717,9.351-3.336c.043.121.087.241.13.362a1.821,1.821,0,0,0-1.112,2.455q2.952,8.149,5.841,16.314A1.826,1.826,0,0,0,451.662,699.606Z" transform="translate(-305.907)"/><path class="cls-2" d="M472.148,686.672l1.221,6.145c0,.132.09.307.026.326q-8.856,2.552-17.584,5.462l-.123-.363a1.806,1.806,0,0,0,1.088-2.419q-2.748-8.212-5.555-16.413a1.872,1.872,0,0,0-2.422-1.256c-.041-.122-.084-.243-.126-.364q8.827-2.947,17.789-5.546c.066-.018.089.175.159.288q1.187,2.907,2.359,5.82l-.261.076c-1.767-1.056-4.174-.426-7.777.679q-1.525.468-3.047.947.6,1.844,1.2,3.686,2.439-.766,4.891-1.508c1.643-.5,2.565-1.169,2.378-1.781l.291-.086q.866,2.835,1.725,5.668l-.288.085c-.194-.643-1.331-.709-2.963-.217s-3.236.989-4.85,1.5q.66,2.041,1.317,4.085,1.482-.466,2.968-.923c4.145-1.268,6.445-1.991,7.329-3.814Z" transform="translate(-305.907)"/><path class="cls-2" d="M486.866,689.094c.032.124.065.247.1.371q-4.608,1.171-9.185,2.44l-.105-.37a1.806,1.806,0,0,0,1.215-2.359q-2.326-8.342-4.7-16.676a1.875,1.875,0,0,0-2.358-1.378c-.035-.123-.071-.246-.107-.369q4.8-1.332,9.64-2.563.048.186.1.372a1.827,1.827,0,0,0-1.321,2.356q2.265,8.363,4.481,16.736A1.831,1.831,0,0,0,486.866,689.094Z" transform="translate(-305.907)"/><path class="cls-2" d="M504.909,663.164q-3.479,9.207-6.59,18.452l1.556-.346c4.249-.933,6.609-1.47,7.642-3.216l.261-.053q.357,3.114.718,6.223c-.006.132.065.314,0,.327q-8.983,1.819-17.873,4l-.078-.311q2.88-9.293,6.119-18.558l-.832.186c-4.356.978-6.761,1.632-7.745,3.416l-.264.064q-.486-3.094-.971-6.19c0-.133-.079-.311-.012-.327q8.954-2.164,18-3.981C504.865,662.955,504.888,663.059,504.909,663.164Z" transform="translate(-305.907)"/><path class="cls-2" d="M523.7,659.461q4.947-.786,9.913-1.468c.02.126.037.253.056.38a1.837,1.837,0,0,0-1.593,2.194q.843,5.65,1.674,11.3c1,6.966-4.616,9.416-9.142,10.176-4.533.74-9.99.1-11.353-6.805q-1.092-5.61-2.2-11.216a1.875,1.875,0,0,0-2.242-1.563c-.025-.126-.05-.25-.076-.376q4.914-.944,9.851-1.784c.022.126.045.252.067.379a1.835,1.835,0,0,0-1.517,2.243q1.032,5.621,2.048,11.244c.4,2.206,2.369,3.384,5.152,2.927s3.8-2.126,3.443-4.341q-.907-5.64-1.827-11.28a1.872,1.872,0,0,0-2.19-1.634C523.742,659.714,523.721,659.588,523.7,659.461Z" transform="translate(-305.907)"/><path class="cls-2" d="M565.269,676.372c.009.127.019.255.029.383q-4.767.348-9.523.8c-.013-.128-.026-.254-.038-.382a1.818,1.818,0,0,0,1.642-1.92q-5.009-5.2-10.245-10.292.637,5.5,1.265,11a1.831,1.831,0,0,0,2.023,1.745c.015.127.028.254.042.381q-4.749.505-9.485,1.11c-.017-.127-.033-.253-.051-.38a1.815,1.815,0,0,0,1.552-2.163q-1.1-8.588-2.218-17.173a1.872,1.872,0,0,0-2.139-1.7c-.018-.127-.034-.253-.051-.38q4.03-.516,8.07-.962,5.352,5.254,10.467,10.624-.437-4.618-.88-9.239a1.869,1.869,0,0,0-2.08-1.769c-.012-.126-.025-.255-.038-.382q5-.472,10-.84c.01.128.019.255.029.383a1.846,1.846,0,0,0-1.737,2.089q.707,8.628,1.4,17.256A1.83,1.83,0,0,0,565.269,676.372Z" transform="translate(-305.907)"/><path class="cls-2" d="M590.591,673.779a1.306,1.306,0,0,0,1.148,1.421l.006.384q-2.209.035-4.418.089c-.2-.156-.4-.31-.607-.465a13.807,13.807,0,0,1-5.275,1.1c-6.558.243-12.406-3.433-12.944-10.9-.567-7.855,5.57-11.691,12.038-11.927a49.833,49.833,0,0,1,6.323.411,1.14,1.14,0,0,0,1.1-.539l.415-.009q.42,3.192.829,6.384l-.307.006a16.138,16.138,0,0,0-7.85-1.341c-3.055.111-6.439,1.756-6.168,6.646.194,3.488,2.421,6.434,6.672,6.272a15.422,15.422,0,0,0,3.318-.463q-.061-1.968-.123-3.934c-.03-.992-.889-1.48-2.545-1.486-.013-.384-.029-.767-.043-1.151q4.887-.173,9.778-.243c.006.384.011.768.017,1.151a1.606,1.606,0,0,0-1.489,1.593Z" transform="translate(-305.907)"/><path class="cls-2" d="M620.43,669.9c.2-4.079-12.8-2.783-12.667-10.312.085-4.96,5.183-6.275,10.282-6.064a50.1,50.1,0,0,1,5.957.888c.933.05,1.29-.123,1.482-.433l.415.023q.153,3.213.3,6.428l-.306-.018a17.67,17.67,0,0,0-7.748-1.951c-3.015-.122-3.684.345-3.717,1.3-.1,2.825,13.069,2.2,12.535,10.138-.292,4.411-3.572,6.719-9.287,6.475-4.141-.173-7.439-1.5-8.332-1.519a1.068,1.068,0,0,0-1.069.488l-.329-.007q.452-3.5.918-6.99l.3.007c1.3,1.978,5.265,2.953,7.891,3.064C619.615,671.523,620.385,670.8,620.43,669.9Z" transform="translate(-305.907)"/><path class="cls-2" d="M653.116,677.018a2.079,2.079,0,0,0,1.794,1.606l-.049.38q-4.428-.549-8.867-1.013c.013-.126.027-.254.041-.381.59.061,1.284-.219,1.153-1.134q-.391-1.891-.79-3.784-3.946-.409-7.9-.752-.763,1.78-1.515,3.564a.942.942,0,0,0,.911,1.33c-.011.128-.022.255-.034.382q-4.416-.38-8.84-.675c.009-.128.017-.255.026-.383a2.093,2.093,0,0,0,2.076-1.237q.422-1.013.849-2.024,3.513-8.153,7.256-16.248a.664.664,0,0,0-.5-1.038c.012-.128.023-.255.034-.383q5.38.452,10.748,1.026c-.014.127-.028.254-.043.381a.67.67,0,0,0-.694.925q2.054,8.648,3.9,17.311Q652.9,675.945,653.116,677.018Zm-12.788-9.254q2.547.23,5.094.486-.865-4-1.774-7.988Q641.964,664.008,640.328,667.764Z" transform="translate(-305.907)"/><path class="cls-2" d="M682.63,682.941l-.072.377q-4.686-.878-9.391-1.659c.022-.127.043-.253.065-.379a1.834,1.834,0,0,0,2.09-1.434q-3.461-6.3-7.149-12.553-.857,5.471-1.7,10.944a1.812,1.812,0,0,0,1.493,2.2c-.019.127-.039.254-.059.379q-4.717-.725-9.449-1.351l.051-.381a1.831,1.831,0,0,0,2.068-1.692q1.207-8.572,2.44-17.143a1.839,1.839,0,0,0-1.6-2.186c.018-.127.035-.253.053-.381q4.027.534,8.044,1.136,3.741,6.435,7.24,12.925.808-4.572,1.627-9.14a1.836,1.836,0,0,0-1.528-2.238c.022-.125.044-.252.066-.378q4.942.82,9.86,1.744c-.025.126-.049.251-.074.377a1.875,1.875,0,0,0-2.236,1.572q-1.641,8.5-3.25,17.011A1.81,1.81,0,0,0,682.63,682.941Z" transform="translate(-305.907)"/><path class="cls-2" d="M696.165,685.7c-.027.125-.056.25-.084.375q-4.65-1.02-9.325-1.944c.025-.125.051-.251.076-.377a1.833,1.833,0,0,0,2.17-1.558q1.76-8.478,3.554-16.952a1.831,1.831,0,0,0-1.453-2.282c.025-.125.051-.251.078-.376q4.908.969,9.79,2.042c-.029.125-.057.25-.086.375a1.876,1.876,0,0,0-2.283,1.5q-1.911,8.45-3.782,16.9A1.809,1.809,0,0,0,696.165,685.7Z" transform="translate(-305.907)"/><path class="cls-2" d="M723.835,669.887q-.11,3.074-.232,6.147c-.087-.024-.175-.047-.262-.072a4.038,4.038,0,0,0-2.384-1.313q-2.151-.581-4.31-1.139-1.986,7.361-3.937,14.726a1.37,1.37,0,0,0,1.076,1.7l-.1.37q-4.28-1.122-8.586-2.161c.031-.124.061-.249.092-.373a1.429,1.429,0,0,0,1.77-.986q1.852-7.392,3.741-14.777-2.166-.53-4.339-1.04a4.115,4.115,0,0,0-2.739.023l-.265-.061q1.407-2.748,2.838-5.492l.2.047a2.468,2.468,0,0,0,1.392.686q7.174,1.689,14.286,3.6a2.508,2.508,0,0,0,1.557.057Z" transform="translate(-305.907)"/><path class="cls-2" d="M743.724,697.471a2.056,2.056,0,0,0,1.411,1.934c-.041.121-.084.241-.126.363q-4.187-1.434-8.407-2.787l.119-.365a.947.947,0,0,0,1.355-.876q.012-1.931.018-3.862-3.749-1.2-7.523-2.336-1.113,1.587-2.215,3.181a.939.939,0,0,0,.611,1.486c-.038.122-.075.245-.113.367q-4.215-1.266-8.459-2.45l.105-.37a2.088,2.088,0,0,0,2.276-.79q.621-.9,1.247-1.809,5.115-7.263,10.472-14.422a.66.66,0,0,0-.262-1.115c.039-.122.076-.245.115-.367q5.135,1.531,10.226,3.178c-.04.121-.081.244-.123.365a.674.674,0,0,0-.87.763q.162,8.871.163,17.722Q743.733,696.376,743.724,697.471Zm-8.813-28a2.675,2.675,0,0,1,3.424-1.616,2.555,2.555,0,0,1,1.777,3.194,2.647,2.647,0,0,1-3.3,1.6A2.593,2.593,0,0,1,734.911,669.476Zm-1.688,16.352q2.428.74,4.849,1.506,0-4.083-.043-8.171Q735.6,682.486,733.223,685.828Zm7.914-14.456a2.672,2.672,0,0,1,3.443-1.569,2.553,2.553,0,0,1,1.731,3.217,2.646,2.646,0,0,1-3.325,1.555A2.591,2.591,0,0,1,741.137,671.372Z" transform="translate(-305.907)"/><path class="cls-2" d="M767.67,706.439c.137,1.056,1.439,2,2.071,2.262l-.164.313q-4.533-1.863-9.111-3.626c.052-.105.105-.21.157-.316.486.187,1,.043.894-.856q-.524-3.651-1.092-7.306-1.01-.379-2.019-.756-.987,2.605-1.968,5.213a1.807,1.807,0,0,0,1,2.457c-.046.12-.09.239-.136.359q-4.425-1.665-8.893-3.236l.129-.362a1.824,1.824,0,0,0,2.357-1.237q2.944-8.145,5.95-16.276a1.822,1.822,0,0,0-1.1-2.462c.043-.121.087-.241.132-.361q5.507,1.939,10.956,4.015c5.952,2.274,8.144,5.689,6.478,9.672a7.034,7.034,0,0,1-6.739,4.484Q767.148,702.433,767.67,706.439Zm-6.024-18.786q-.883,2.3-1.761,4.608,1.711.636,3.415,1.286c2.936,1.122,4.167.479,4.731-.92.6-1.484-.151-2.612-3.028-3.711Q763.327,688.278,761.646,687.653Z" transform="translate(-305.907)"/><path class="cls-3" d="M560,749.507h80L630.588,702.2H569.412Zm73.17-6.525H614.087L612.96,728.3h17.288Zm-6.816-34.258,2.921,14.682h-16.69l-1.126-14.682Zm-33.787,0h14.842l1.126,14.682H591.44Zm-1.5,19.576H608.91l1.126,14.682h-20.1Zm-17.417-19.576h14.869l-1.125,14.682H570.726ZM587.015,728.3l-1.126,14.682H566.832l2.921-14.682Z" transform="translate(-305.907)"/><polygon class="cls-3" points="257.231 759.403 330.954 759.403 334.093 751.79 254.093 751.79 257.231 759.403"/><polygon class="cls-3" points="298.153 762.492 290.033 762.492 289.597 771.114 281.404 776.04 281.404 782.199 306.782 782.199 306.782 776.04 298.589 771.114 298.153 762.492"/><text class="cls-4" transform="translate(152.103 500.836)">EST.</text><text class="cls-5" transform="translate(364.452 500.836)">2<tspan class="cls-6" x="15.888" y="0">0</tspan><tspan class="cls-7" x="33.192" y="0">2</tspan><tspan class="cls-8" x="49.08" y="0">6</tspan></text><path class="cls-9" d="M565,480.528c0,19.563,15.445,35.419,34.478,35.419S635,500.091,635,480.528s-35.522-64.581-35.522-64.581S565,460.972,565,480.528Z" transform="translate(-305.907)"/><path class="cls-10" d="M605.925,475.54V463.65c-.22.207-.375.347-.523.494q-4.071,4.067-8.143,8.134a1.644,1.644,0,0,1-2.679,0q-3.986-3.977-7.961-7.961c-.213-.213-.408-.444-.736-.8v.807q0,9.3,0,18.6a1.649,1.649,0,0,1-1.056,1.6,1.57,1.57,0,0,1-1.824-.551,1.984,1.984,0,0,1-.346-1.026q-.029-11.6-.014-23.207a1.572,1.572,0,0,1,1-1.566,1.627,1.627,0,0,1,1.909.473q4.833,4.844,9.672,9.681c.22.22.429.45.71.747,1.347-1.364,2.663-2.7,3.989-4.037,2.092-2.1,4.2-4.191,6.283-6.3a1.7,1.7,0,0,1,2-.57,1.721,1.721,0,0,1,1.022,1.812q-.01,7.435,0,14.87c0,.2,0,.407,0,.723.867,0,1.689-.043,2.5.008a5.251,5.251,0,1,1-5.753,5.007c.007-.575,0-1.15,0-1.756-.212-.012-.373-.028-.533-.028q-4.73,0-9.457,0a4.211,4.211,0,0,0-4.254,3.718,4.255,4.255,0,0,0,3.4,4.6,4.563,4.563,0,0,0,.929.053c3.858,0,7.715-.013,11.573.013a7.455,7.455,0,0,1,.033,14.91q-8.679.012-17.359,0a1.63,1.63,0,1,1,0-3.239c5.765,0,11.53.017,17.3-.011a3.956,3.956,0,0,0,3.794-2.436,4.017,4.017,0,0,0-.63-4.515,4.207,4.207,0,0,0-3.414-1.472c-3.8,0-7.591.007-11.386,0a7.432,7.432,0,0,1-5.112-12.881,7.156,7.156,0,0,1,5.062-2q4.76,0,9.519,0Zm3.276,3.283a10.726,10.726,0,0,1-.019,1.686,1.915,1.915,0,0,0,.464,1.526,2,2,0,0,0,2.388.623,2.079,2.079,0,0,0,1.213-2.1,1.989,1.989,0,0,0-1.628-1.719C610.843,478.772,610.057,478.823,609.2,478.823Z" transform="translate(-305.907)"/></g></svg>