<svg width="588" height="435" viewBox="0 0 588 435" fill="none" xmlns="http://www.w3.org/2000/svg">
<path d="M98.706 161.156C100.512 157.173 103.409 153.783 107.062 151.379C111.095 148.569 115.611 146.527 120.384 145.356C125.227 144.145 130.234 143.724 135.211 144.11C139.795 144.352 144.234 145.801 148.079 148.31C146.848 148.925 145.785 149.828 144.979 150.944C144.065 152.2 143.339 153.584 142.825 155.051C142.085 157.42 141.74 159.895 141.803 162.377C141.526 192.28 141.248 222.183 140.971 252.085C140.851 254.445 141.151 256.809 141.857 259.065C142.316 260.355 143.021 261.543 143.932 262.565C144.737 263.444 145.805 264.04 146.976 264.265C140.794 270.734 135.248 272.649 130.331 269.359C125.272 275.873 119.831 277.928 113.989 274.917C115.178 273.769 116.21 272.47 117.06 271.054C117.977 269.462 118.683 267.759 119.16 265.986C119.843 263.394 120.17 260.721 120.131 258.042C120.228 246.042 120.326 234.04 120.424 222.036C120.602 200.086 120.781 178.135 120.96 156.185C119.209 156.186 117.488 156.64 115.964 157.501C114.44 158.363 113.164 159.603 112.26 161.103C110.219 164.281 109.175 169.415 109.124 176.431C108.996 194.225 108.867 212.019 108.738 229.814C108.624 232.394 108.925 234.975 109.629 237.46C110.081 238.878 110.782 240.205 111.7 241.377C112.052 241.843 112.496 242.234 113.003 242.524C113.51 242.815 114.071 243 114.652 243.069C108.723 249.905 103.235 251.785 98.1649 247.954C93.1389 254.776 87.695 256.634 81.814 252.774C83.0635 251.766 84.0999 250.519 84.8629 249.107C85.7872 247.392 86.4988 245.571 86.982 243.684C87.6888 240.858 88.0213 237.951 87.9709 235.039L88.2639 178.423C88.2999 171.371 87.43 166.175 85.653 162.761C83.876 159.347 80.8839 157.683 76.6859 157.861C76.5399 196.309 76.3943 234.759 76.249 273.209C76.1404 275.999 76.432 278.792 77.115 281.5C77.524 282.967 78.2108 284.342 79.138 285.551C79.8787 286.51 80.9538 287.155 82.149 287.358C76.128 295.496 70.676 298.213 65.754 294.61C60.965 302.682 55.618 305.521 49.679 302.291C50.8654 300.802 51.8723 299.18 52.679 297.456C53.5835 295.45 54.2779 293.356 54.7509 291.207C55.4352 288.039 55.7517 284.802 55.694 281.562C55.73 243.538 55.7653 205.513 55.8 167.489C55.8939 164.381 55.5765 161.274 54.856 158.25C54.4055 156.443 53.6947 154.712 52.746 153.111C51.9471 151.822 50.9054 150.702 49.679 149.811C52.7438 146.684 56.757 144.66 61.093 144.053C65.9326 143.23 70.8895 143.407 75.658 144.574C80.533 145.719 85.1709 147.706 89.3629 150.446C93.4505 153.033 96.6968 156.755 98.706 161.156Z" fill="#212020"/>
<path d="M185.893 257.09C181.921 257.947 179.936 258.39 175.969 259.331C174.562 259.724 173.087 259.807 171.645 259.574C170.259 259.229 168.943 258.644 167.759 257.845C162.72 263.737 157.233 265.332 151.303 262.153C152.501 261.228 153.546 260.12 154.398 258.87C155.305 257.506 156.03 256.03 156.554 254.478C157.283 252.162 157.629 249.742 157.576 247.315L158.416 160.774C158.52 158.424 158.22 156.075 157.529 153.827C157.074 152.399 156.37 151.063 155.451 149.88C154.652 148.882 153.598 148.118 152.401 147.668C158.591 142.634 164.07 142.768 168.838 147.518C171.057 145.376 174.005 144.155 177.088 144.101L194.936 144.082C200.032 143.946 205.066 145.232 209.472 147.796C213.52 150.254 215.522 154.375 215.472 160.224C215.367 162.352 215.674 164.48 216.378 166.491C216.885 167.767 217.592 168.955 218.47 170.011C219.253 170.942 220.336 171.572 221.533 171.793C215.509 176.445 210.012 176.793 205.062 172.499C200.142 177.262 194.649 177.673 188.597 173.35C189.808 172.928 190.881 172.181 191.697 171.192C192.609 170.038 193.323 168.74 193.81 167.352C194.513 165.24 194.843 163.023 194.784 160.798L194.794 159.809C194.892 157.625 194.12 155.491 192.648 153.874C191.956 153.11 191.105 152.507 190.155 152.108C189.204 151.709 188.178 151.523 187.148 151.565H186.899C181.917 151.641 179.399 154.457 179.345 160.013L179.021 193.513C177.367 194.51 175.872 195.748 174.583 197.186C173.311 198.692 172.311 200.408 171.627 202.258C174.654 198.38 178.247 196.175 182.408 195.566C186.569 194.957 190.592 194.483 194.477 194.132C196.505 194.013 198.49 193.491 200.314 192.596C201.582 191.931 202.74 191.076 203.748 190.061C204.687 189.118 205.407 187.981 205.857 186.73C207.026 188.069 207.905 189.635 208.439 191.33C209.058 193.123 209.199 195.046 208.85 196.91C208.524 198.727 207.735 200.429 206.559 201.853C205.88 202.608 205.057 203.219 204.137 203.651C203.218 204.082 202.222 204.325 201.207 204.365C199.84 204.542 198.451 204.428 197.131 204.033C195.961 203.647 194.824 203.168 193.731 202.601C192.637 202.033 191.5 201.55 190.331 201.158C188.991 200.726 187.567 200.615 186.176 200.835C184.286 201.191 182.534 202.072 181.123 203.379C180.364 204.091 179.77 204.959 179.38 205.924C178.99 206.888 178.815 207.926 178.866 208.965C178.756 220.318 178.646 231.671 178.537 243.023C178.486 248.268 180.793 250.372 185.464 249.429L185.964 249.329L186.214 249.279C188.414 248.847 190.388 247.647 191.785 245.894C193.248 244.159 194.05 241.963 194.05 239.694C194.075 237.034 194.087 235.703 194.112 233.043C194.204 230.986 193.913 228.929 193.252 226.979C192.82 225.716 192.121 224.561 191.202 223.592C190.33 222.746 189.285 222.098 188.14 221.692C194.126 216.398 199.625 215.792 204.65 219.462C209.861 214.527 215.365 214.007 221.181 217.611C219.974 218.235 218.914 219.11 218.073 220.177C217.17 221.326 216.442 222.604 215.914 223.967C215.205 225.923 214.863 227.993 214.904 230.074C214.89 232.919 214.63 235.757 214.126 238.557C213.668 241.163 212.681 243.647 211.226 245.857C209.578 248.216 207.421 250.174 204.913 251.585C201.485 253.471 197.764 254.768 193.906 255.42C190.699 256.069 189.093 256.401 185.893 257.09Z" fill="#212020"/>
<path d="M272.64 173.812L272.49 231.712C272.394 233.701 272.703 235.69 273.398 237.557C273.927 238.734 274.664 239.807 275.573 240.724C276.41 241.606 277.445 242.276 278.593 242.679C272.593 246.905 266.957 247.207 261.712 243.454C256.659 247.847 251.112 248.317 245.094 244.754C246.269 244.161 247.325 243.357 248.209 242.382C249.113 241.349 249.841 240.176 250.365 238.908C251.096 236.982 251.434 234.93 251.359 232.873C251.481 208.125 251.603 183.377 251.726 158.629C251.787 157.619 251.633 156.607 251.272 155.662C250.911 154.716 250.353 153.859 249.634 153.147C248.425 151.909 246.802 151.162 245.076 151.047C243.39 150.991 241.748 151.591 240.497 152.723C239.077 153.915 238.359 155.778 238.343 158.313V158.566C238.343 159.039 238.343 159.276 238.336 159.748C238.372 162.079 238.837 164.384 239.708 166.548C240.037 167.628 240.635 168.607 241.445 169.394C242.255 170.181 243.252 170.75 244.341 171.048C242.386 172.342 240.228 173.302 237.956 173.886C236.051 174.438 234.05 174.579 232.086 174.3C229.173 173.732 227.453 172.225 227.164 170.126C226.855 167.662 226.721 165.181 226.764 162.699C226.776 161.125 226.781 160.338 226.793 158.764C226.886 156.675 226.577 154.588 225.883 152.617C225.409 151.33 224.7 150.143 223.791 149.117C222.955 148.213 221.903 147.538 220.733 147.157C223.372 145.206 226.529 144.079 229.806 143.918C232.968 143.878 236.033 145.003 238.419 147.079C240.719 145.123 243.638 144.045 246.657 144.037H251.803C255.425 143.999 258.986 144.972 262.087 146.845C265.324 144.99 268.992 144.019 272.723 144.03H277.87C280.867 144.033 283.77 145.075 286.085 146.978C288.481 144.939 291.54 143.847 294.685 143.906C297.921 144.042 301.05 145.109 303.695 146.979C302.544 147.319 301.51 147.971 300.706 148.862C299.788 149.839 299.057 150.976 298.549 152.218C297.871 154.106 297.562 156.107 297.638 158.113C297.638 159.619 297.638 160.373 297.638 161.879C297.663 164.262 297.496 166.644 297.138 169.002C296.806 171.022 295.09 172.529 292.224 173.177C290.26 173.52 288.247 173.456 286.309 172.988C284.042 172.517 281.873 171.657 279.899 170.446C281.035 170.177 282.082 169.617 282.938 168.822C283.793 168.026 284.427 167.023 284.777 165.909C285.587 163.785 286.026 161.539 286.077 159.268C286.077 158.809 286.077 158.579 286.077 158.12V157.874C286.077 155.417 285.373 153.617 283.964 152.474C282.701 151.379 281.066 150.81 279.396 150.884C277.667 151.011 276.042 151.76 274.821 152.991C274.101 153.694 273.538 154.542 273.17 155.479C272.803 156.416 272.639 157.421 272.689 158.427L272.664 168.214L272.64 173.812Z" fill="#212020"/>
<path d="M307.033 164.457C306.976 161.749 307.488 159.059 308.536 156.562C309.584 154.064 311.144 151.814 313.116 149.957C315.05 148.038 317.349 146.526 319.878 145.511C322.406 144.495 325.113 143.997 327.837 144.045L343.61 144.051C346.359 143.993 349.089 144.51 351.626 145.568C354.164 146.626 356.453 148.202 358.346 150.195C362.339 154.28 364.611 159.742 364.69 165.454L364.712 168.375L365.171 229.368C365.206 232.029 364.674 234.668 363.611 237.107C362.547 239.547 360.975 241.731 359.001 243.516C355.009 247.116 350.072 248.544 344.201 247.961C337.824 247.329 334.633 247.061 328.25 246.632C322.615 246.333 317.294 243.944 313.325 239.932C311.355 238.077 309.789 235.836 308.723 233.349C307.657 230.862 307.115 228.182 307.131 225.476L307.033 164.457ZM336.612 240.435C337.59 240.555 338.582 240.455 339.517 240.142C340.451 239.83 341.304 239.312 342.012 238.627C342.717 237.933 343.269 237.099 343.632 236.178C343.995 235.257 344.161 234.271 344.119 233.282L343.696 158.725C343.747 156.648 342.974 154.634 341.545 153.125C340.858 152.395 340.024 151.816 339.099 151.428C338.174 151.04 337.178 150.851 336.175 150.872H335.427C334.42 150.831 333.416 151.003 332.48 151.376C331.544 151.75 330.698 152.317 329.996 153.04C329.296 153.768 328.749 154.63 328.388 155.573C328.028 156.516 327.86 157.523 327.896 158.532C327.994 183.066 328.092 207.602 328.191 232.141C328.17 234.215 328.944 236.219 330.353 237.741C331.051 238.521 331.897 239.155 332.84 239.607C333.784 240.059 334.808 240.321 335.853 240.377L336.612 240.435Z" fill="#212020"/>
<path d="M377.605 159.125C377.664 156.975 377.321 154.834 376.596 152.81C376.105 151.49 375.377 150.27 374.449 149.21C373.607 148.285 372.544 147.59 371.36 147.19C377.47 142.829 382.971 142.746 387.883 147.29C392.825 142.99 398.356 142.895 404.488 147.406C403.312 147.783 402.277 148.506 401.519 149.482C400.632 150.596 399.929 151.845 399.437 153.182C398.746 155.281 398.443 157.488 398.544 159.696C398.799 186.729 399.053 213.762 399.308 240.796C399.358 246.119 401.887 249.252 406.89 250.302L407.139 250.355C408.092 250.619 409.094 250.65 410.062 250.446C411.029 250.243 411.934 249.81 412.699 249.184C413.463 248.488 414.057 247.627 414.437 246.667C414.816 245.706 414.972 244.671 414.89 243.642L414.82 236.442C414.865 234.099 414.519 231.765 413.796 229.536C413.296 228.038 412.568 226.626 411.637 225.351C410.783 224.231 409.733 223.277 408.537 222.535C410.62 220.943 413.213 220.166 415.828 220.351C418.322 220.488 420.748 221.215 422.906 222.473C424.889 223.571 426.549 225.171 427.721 227.112C428.775 228.979 429.51 231.009 429.895 233.119C430.312 235.415 430.487 237.75 430.418 240.083C430.359 242.549 430.341 244.943 430.363 247.263C430.311 249.689 430.657 252.108 431.387 254.423C431.935 255.963 432.658 257.435 433.541 258.811C434.349 260.097 435.402 261.212 436.641 262.091C430.71 265.074 425.306 263.612 420.441 258.135C418.779 258.585 417.089 258.927 415.383 259.159C413.517 259.366 411.629 259.236 409.81 258.774C404.742 257.603 402.205 257.05 397.128 256.008C393.918 255.268 391.018 253.548 388.828 251.087C383.798 254.55 378.244 253.497 372.183 248.313C373.33 248 374.386 247.417 375.262 246.613C376.167 245.726 376.882 244.664 377.362 243.492C378.084 241.539 378.394 239.459 378.272 237.381L377.605 159.125Z" fill="#212020"/>
<path d="M444.462 161.39C444.518 158.937 444.172 156.491 443.439 154.15C442.96 152.66 442.232 151.263 441.285 150.017C440.48 148.98 439.412 148.177 438.193 147.69C444.288 142.749 449.793 142.599 454.71 147.862C459.645 142.914 465.182 142.755 471.31 148.054C470.091 148.525 469.051 149.37 468.341 150.468C467.441 151.794 466.741 153.244 466.262 154.774C465.568 157.238 465.268 159.796 465.371 162.354C465.631 193.846 465.891 225.338 466.152 256.83C466.203 263.03 468.707 266.916 473.652 268.594L473.899 268.678C474.804 269.076 475.804 269.204 476.78 269.047C477.756 268.889 478.666 268.453 479.399 267.79C480.868 266.436 481.593 264.315 481.573 261.45L481.513 252.965C481.559 250.198 481.221 247.438 480.507 244.765C480.024 242.989 479.306 241.286 478.373 239.7C477.558 238.362 476.517 237.175 475.298 236.191C476.284 235.345 477.44 234.719 478.687 234.355C479.935 233.991 481.246 233.898 482.532 234.081C485.086 234.425 487.504 235.434 489.546 237.006C491.583 238.514 493.218 240.5 494.307 242.789C495.355 245.1 496.074 247.546 496.443 250.057C496.849 252.808 497.016 255.589 496.943 258.369C496.876 261.297 496.851 264.14 496.867 266.9C496.809 269.794 497.142 272.683 497.857 275.489C498.388 277.348 499.095 279.152 499.97 280.877C500.731 282.43 501.761 283.835 503.014 285.027C497.15 288.127 491.827 285.89 487.029 278.998C485.386 279.386 483.714 279.64 482.029 279.756C480.148 279.823 478.274 279.492 476.529 278.785C471.523 276.932 469.016 276.037 463.996 274.313C461.025 273.292 458.287 271.091 455.782 267.769C450.81 271.253 445.316 269.388 439.297 262.826C440.444 262.589 441.5 262.032 442.342 261.218C443.264 260.263 443.972 259.122 444.419 257.872C445.14 255.647 445.441 253.307 445.306 250.972L444.462 161.39Z" fill="#212020"/>
<path d="M511.612 164.963C511.681 162.031 511.349 159.104 510.626 156.263C510.171 154.508 509.452 152.833 508.493 151.295C507.744 150.099 506.677 149.134 505.412 148.508C511.468 142.608 516.956 142.396 521.838 148.755C526.854 142.799 532.425 142.576 538.51 149.024C537.19 149.628 536.11 150.656 535.442 151.945C534.519 153.585 533.81 155.336 533.332 157.156C532.619 160.161 532.301 163.247 532.387 166.335C532.423 204.487 532.458 242.639 532.493 280.791C532.423 284.01 532.74 287.227 533.437 290.371C533.953 292.443 534.646 294.467 535.509 296.42C536.238 298.144 537.252 299.733 538.509 301.12C532.677 304.685 527.248 301.804 522.188 293.384C517.318 297.274 511.947 294.606 506.034 286.297C507.2 286.084 508.261 285.485 509.046 284.597C509.992 283.465 510.695 282.15 511.11 280.735C511.838 278.059 512.144 275.287 512.017 272.517L511.612 164.963Z" fill="#212020"/>
<path d="M5.06595 230.541L0.230957 230.104V224.497H30.745C31.026 227.342 32.899 230.916 26.8549 230.392C26.8549 246.648 26.8079 262.592 26.9059 278.527C26.9811 281.018 27.353 283.492 28.0139 285.895C31.2729 298.818 39.0139 308.27 51.1219 313.645C68.4139 321.323 85.963 328.423 103.339 335.915C114.169 340.585 124.797 345.73 135.67 350.293C150.721 356.609 165.98 362.431 181.039 368.728C213.249 382.199 245.387 395.841 277.557 409.408C282.744 411.708 288.354 412.899 294.028 412.904C299.702 412.909 305.315 411.728 310.506 409.437C343.258 395.57 376.012 381.706 408.767 367.845C430.884 358.474 452.967 349.021 475.099 339.693C494.712 331.428 514.399 323.332 534.013 315.074C552.198 307.417 561.457 293.674 561.561 273.909C561.636 259.603 561.576 245.295 561.576 230.76L556.894 229.954V224.335H587.253V229.972L583.108 230.672C583.108 245.96 583.53 261.272 583.015 276.557C582.129 302.821 569.757 322.162 545.889 333.313C531.206 340.172 515.945 345.789 501.009 352.119C484.081 359.29 467.257 366.709 450.332 373.89C406.879 392.327 363.407 410.721 319.917 429.073C302.458 436.441 285.054 436.191 267.576 428.773C208.976 403.91 150.346 379.117 91.685 354.392C76.457 347.957 61.2236 341.533 45.985 335.12C19.275 323.809 5.04095 302.212 5.06195 273.12C5.07495 259.13 5.06595 245.141 5.06595 230.541Z" fill="#212020"/>
<path d="M583.113 203.922L587.313 204.56V210.472H557.005V204.612L560.996 203.977C561.204 203.556 561.468 203.272 561.467 202.988C561.431 187.328 561.886 171.645 561.176 156.014C560.411 139.167 551.351 127.233 536.114 120.494C516.863 111.979 497.335 104.095 477.942 95.8945C453.628 85.6185 429.322 75.3242 405.023 65.0115C373.517 51.6962 342.005 38.3962 310.487 25.1115C305.37 22.8484 299.839 21.669 294.244 21.6475C288.649 21.626 283.11 22.7628 277.975 24.9865C260.329 32.3355 242.761 39.8745 225.131 47.2645C194.584 60.0645 163.977 72.7315 133.466 85.6195C106.81 96.8775 80.249 108.361 53.648 119.749C36.486 127.096 27.214 140.089 26.699 158.75C26.291 173.567 26.617 188.404 26.617 203.61C30.584 203.829 32.148 205.87 30.717 210.079H0.264984C0.187984 208.509 0.102 206.771 0 204.714L4.64999 204.014C4.85352 203.275 4.98743 202.517 5.04999 201.753C5.07499 187.587 4.806 173.416 5.121 159.253C5.721 132.1 18.237 112.286 43.007 100.946C56.407 94.8085 70.377 89.9215 83.951 84.1455C126.875 65.8715 169.721 47.4155 212.622 29.0865C231.415 21.0565 250.241 13.1028 269.099 5.22551C285.739 -1.72449 302.499 -1.76551 319.104 5.24449C394.604 37.1165 470.187 68.7765 545.462 101.165C570.085 111.759 582.34 131.934 583.039 158.717C583.433 173.689 583.113 188.678 583.113 203.922Z" fill="#212020"/>
<path d="M145.755 316.896L145.881 317.259C142.896 318.285 139.924 319.344 136.965 320.436L136.831 320.076C137.064 319.989 137.277 319.855 137.457 319.683C137.636 319.51 137.777 319.302 137.872 319.072C137.967 318.842 138.014 318.595 138.009 318.346C138.004 318.097 137.947 317.852 137.843 317.626C137.11 315.632 136.372 313.64 135.631 311.65C132.818 312.674 130.018 313.725 127.231 314.804C128.01 316.78 128.785 318.757 129.558 320.735C129.63 320.973 129.751 321.194 129.912 321.385C130.073 321.575 130.272 321.73 130.495 321.84C130.719 321.95 130.963 322.013 131.212 322.026C131.461 322.038 131.71 321.999 131.943 321.911L132.081 322.269C129.137 323.393 126.207 324.548 123.292 325.736C123.244 325.617 123.192 325.499 123.147 325.381C123.377 325.286 123.585 325.145 123.759 324.966C123.932 324.787 124.066 324.575 124.153 324.342C124.24 324.109 124.278 323.86 124.265 323.612C124.251 323.363 124.187 323.12 124.075 322.898C121.906 317.549 119.714 312.206 117.498 306.868C117.413 306.627 117.28 306.406 117.107 306.219C116.934 306.032 116.725 305.882 116.491 305.779C116.258 305.676 116.006 305.622 115.751 305.62C115.496 305.618 115.244 305.668 115.009 305.768L114.859 305.413C117.916 304.167 120.988 302.954 124.074 301.774L124.215 302.131C123.977 302.217 123.759 302.352 123.576 302.528C123.393 302.703 123.248 302.915 123.152 303.149C123.055 303.383 123.009 303.635 123.015 303.889C123.021 304.142 123.081 304.391 123.189 304.621C124.01 306.673 124.827 308.727 125.642 310.783C128.456 309.693 131.282 308.631 134.121 307.599C133.347 305.527 132.57 303.458 131.79 301.39C131.713 301.146 131.587 300.921 131.42 300.728C131.253 300.535 131.048 300.379 130.817 300.268C130.587 300.157 130.337 300.095 130.082 300.084C129.827 300.074 129.572 300.116 129.334 300.208L129.196 299.849C132.299 298.704 135.416 297.592 138.547 296.513C138.59 296.634 138.634 296.754 138.677 296.875C138.436 296.953 138.213 297.08 138.024 297.249C137.835 297.418 137.683 297.625 137.578 297.856C137.473 298.087 137.418 298.338 137.416 298.592C137.414 298.845 137.464 299.097 137.565 299.33C139.533 304.762 141.48 310.2 143.406 315.644C143.471 315.884 143.585 316.109 143.74 316.304C143.896 316.499 144.09 316.661 144.31 316.778C144.53 316.895 144.772 316.966 145.02 316.986C145.269 317.007 145.519 316.976 145.755 316.896Z" fill="#26499F"/>
<path d="M166.241 303.961L167.462 310.106C167.462 310.238 167.552 310.413 167.488 310.432C161.584 312.134 155.723 313.954 149.904 315.894L149.781 315.531C150.017 315.452 150.234 315.325 150.419 315.158C150.604 314.991 150.752 314.787 150.854 314.56C150.956 314.333 151.01 314.087 151.013 313.838C151.015 313.589 150.966 313.342 150.869 313.112C149.037 307.638 147.185 302.167 145.314 296.699C145.244 296.453 145.125 296.224 144.964 296.026C144.802 295.828 144.602 295.665 144.375 295.548C144.148 295.43 143.899 295.36 143.644 295.342C143.389 295.324 143.133 295.359 142.892 295.443C142.851 295.321 142.808 295.2 142.766 295.079C148.651 293.115 154.58 291.266 160.555 289.533C160.621 289.515 160.644 289.708 160.714 289.821C161.505 291.759 162.292 293.699 163.073 295.641L162.812 295.717C161.045 294.661 158.638 295.291 155.035 296.396C154.018 296.708 153.003 297.024 151.988 297.343C152.388 298.573 152.788 299.801 153.188 301.029C154.814 300.519 156.444 300.016 158.079 299.521C159.722 299.021 160.644 298.352 160.457 297.74L160.748 297.654C161.325 299.544 161.9 301.434 162.473 303.322L162.185 303.407C161.991 302.764 160.854 302.698 159.222 303.19C157.59 303.682 155.986 304.179 154.372 304.69C154.812 306.051 155.251 307.413 155.689 308.775C156.677 308.465 157.666 308.157 158.657 307.852C162.802 306.584 165.102 305.861 165.986 304.038L166.241 303.961Z" fill="#26499F"/>
<path d="M180.959 306.383C180.991 306.507 181.024 306.631 181.059 306.755C177.987 307.535 174.925 308.349 171.874 309.195L171.769 308.824C172.009 308.758 172.233 308.643 172.426 308.485C172.62 308.328 172.779 308.132 172.893 307.911C173.007 307.689 173.074 307.447 173.09 307.198C173.105 306.949 173.069 306.7 172.984 306.466C171.433 300.904 169.867 295.345 168.284 289.789C168.227 289.54 168.119 289.305 167.967 289.099C167.816 288.893 167.624 288.72 167.403 288.591C167.182 288.462 166.937 288.379 166.683 288.349C166.429 288.318 166.171 288.339 165.926 288.411C165.891 288.288 165.855 288.165 165.819 288.042C169.019 287.154 172.232 286.3 175.459 285.479C175.491 285.603 175.524 285.728 175.559 285.852C175.311 285.909 175.078 286.017 174.875 286.17C174.672 286.323 174.502 286.516 174.378 286.738C174.254 286.959 174.177 287.205 174.153 287.458C174.129 287.711 174.158 287.966 174.238 288.208C175.748 293.783 177.242 299.361 178.719 304.943C178.765 305.189 178.86 305.422 179 305.628C179.139 305.835 179.319 306.012 179.529 306.146C179.738 306.281 179.973 306.372 180.219 306.413C180.465 306.453 180.717 306.443 180.959 306.383Z" fill="#26499F"/>
<path d="M199.002 280.454C196.683 286.592 194.486 292.742 192.412 298.906L193.968 298.56C198.217 297.627 200.577 297.09 201.61 295.344L201.871 295.291C202.109 297.367 202.348 299.441 202.589 301.514C202.583 301.646 202.654 301.828 202.589 301.841C196.6 303.053 190.643 304.387 184.716 305.841L184.638 305.53C186.558 299.334 188.598 293.148 190.757 286.972L189.925 287.158C185.569 288.136 183.164 288.79 182.18 290.574L181.916 290.638C181.592 288.575 181.268 286.512 180.945 284.448C180.945 284.315 180.866 284.137 180.933 284.121C186.902 282.678 192.902 281.351 198.933 280.14C198.958 280.245 198.981 280.349 199.002 280.454Z" fill="#26499F"/>
<path d="M217.793 276.75C221.091 276.226 224.395 275.737 227.706 275.282C227.726 275.408 227.743 275.535 227.762 275.662C227.509 275.691 227.264 275.772 227.043 275.901C226.823 276.029 226.632 276.202 226.482 276.408C226.332 276.615 226.227 276.85 226.173 277.099C226.119 277.349 226.118 277.606 226.169 277.856C226.731 281.623 227.289 285.39 227.843 289.156C228.843 296.122 223.227 298.572 218.701 299.332C214.168 300.072 208.711 299.432 207.348 292.527C206.62 288.787 205.887 285.049 205.148 281.311C205.111 281.058 205.022 280.815 204.888 280.597C204.753 280.379 204.575 280.191 204.365 280.045C204.155 279.898 203.917 279.796 203.666 279.745C203.415 279.694 203.157 279.695 202.906 279.748C202.881 279.622 202.856 279.498 202.83 279.372C206.106 278.743 209.39 278.148 212.681 277.588C212.703 277.714 212.726 277.84 212.748 277.967C212.496 278.004 212.254 278.094 212.039 278.229C211.823 278.365 211.638 278.544 211.495 278.755C211.353 278.966 211.256 279.204 211.21 279.455C211.164 279.705 211.172 279.963 211.231 280.21C211.919 283.958 212.602 287.706 213.279 291.454C213.679 293.66 215.648 294.838 218.431 294.381C221.214 293.924 222.231 292.255 221.874 290.04C221.269 286.28 220.66 282.52 220.047 278.76C220.018 278.506 219.938 278.26 219.81 278.038C219.683 277.815 219.511 277.622 219.306 277.469C219.101 277.315 218.866 277.206 218.617 277.147C218.368 277.088 218.109 277.081 217.857 277.126C217.835 277.003 217.814 276.877 217.793 276.75Z" fill="#26499F"/>
<path d="M259.362 293.661C259.371 293.788 259.381 293.916 259.391 294.044C256.213 294.276 253.039 294.543 249.868 294.844C249.855 294.716 249.842 294.59 249.83 294.462C250.299 294.417 250.733 294.192 251.039 293.834C251.345 293.476 251.501 293.013 251.472 292.542C248.133 289.075 244.718 285.645 241.227 282.25C241.652 285.917 242.073 289.583 242.492 293.25C242.502 293.5 242.564 293.746 242.673 293.971C242.782 294.197 242.936 294.397 243.125 294.561C243.315 294.724 243.536 294.847 243.775 294.922C244.014 294.997 244.266 295.022 244.515 294.995C244.53 295.122 244.543 295.249 244.557 295.376C241.391 295.713 238.229 296.083 235.072 296.486C235.055 296.359 235.039 296.233 235.021 296.106C235.269 296.075 235.508 295.993 235.723 295.865C235.937 295.737 236.123 295.566 236.269 295.363C236.415 295.16 236.517 294.929 236.569 294.685C236.622 294.441 236.623 294.188 236.573 293.943C235.84 288.218 235.1 282.493 234.355 276.77C234.334 276.515 234.261 276.267 234.141 276.041C234.02 275.815 233.854 275.616 233.654 275.456C233.453 275.297 233.222 275.181 232.975 275.114C232.728 275.048 232.469 275.033 232.216 275.07C232.198 274.943 232.182 274.817 232.165 274.69C234.852 274.346 237.542 274.025 240.235 273.728C243.803 277.231 247.292 280.772 250.702 284.352C250.411 281.273 250.117 278.194 249.822 275.113C249.81 274.857 249.746 274.607 249.633 274.377C249.52 274.147 249.361 273.943 249.166 273.777C248.971 273.611 248.744 273.487 248.499 273.413C248.254 273.338 247.996 273.315 247.742 273.344C247.73 273.218 247.717 273.089 247.704 272.962C251.037 272.647 254.371 272.367 257.704 272.122C257.714 272.25 257.723 272.377 257.733 272.505C257.478 272.518 257.228 272.583 257 272.698C256.772 272.812 256.569 272.972 256.406 273.169C256.243 273.365 256.122 273.593 256.052 273.838C255.981 274.084 255.962 274.341 255.996 274.594C256.467 280.346 256.934 286.098 257.396 291.85C257.398 292.101 257.451 292.348 257.553 292.577C257.654 292.806 257.802 293.012 257.986 293.182C258.17 293.352 258.388 293.482 258.624 293.564C258.861 293.647 259.112 293.68 259.362 293.661Z" fill="#26499F"/>
<path d="M284.684 291.069C284.652 291.409 284.754 291.748 284.968 292.013C285.183 292.279 285.493 292.45 285.832 292.49L285.838 292.874C284.365 292.897 282.893 292.927 281.42 292.963C281.22 292.807 281.02 292.653 280.813 292.498C279.144 293.207 277.352 293.581 275.538 293.598C268.98 293.841 263.132 290.165 262.594 282.698C262.027 274.843 268.164 271.007 274.632 270.771C276.746 270.774 278.858 270.911 280.955 271.182C281.171 271.206 281.389 271.168 281.584 271.073C281.778 270.977 281.942 270.828 282.055 270.643L282.47 270.634C282.75 272.762 283.026 274.89 283.299 277.018L282.992 277.024C280.528 275.928 277.83 275.467 275.142 275.683C272.087 275.794 268.703 277.439 268.974 282.329C269.168 285.817 271.395 288.763 275.646 288.601C276.765 288.567 277.878 288.412 278.964 288.138C278.923 286.826 278.882 285.514 278.841 284.204C278.811 283.212 277.952 282.724 276.296 282.718C276.283 282.334 276.267 281.951 276.253 281.567C279.511 281.451 282.77 281.37 286.031 281.324C286.037 281.708 286.042 282.092 286.048 282.475C285.645 282.504 285.268 282.685 284.992 282.98C284.716 283.275 284.561 283.664 284.559 284.068L284.684 291.069Z" fill="#26499F"/>
<path d="M314.523 287.189C314.723 283.11 301.723 284.406 301.856 276.877C301.941 271.917 307.039 270.602 312.138 270.813C314.14 270.989 316.129 271.286 318.095 271.701C319.028 271.751 319.385 271.578 319.577 271.268L319.992 271.291C320.094 273.433 320.194 275.576 320.292 277.719L319.986 277.701C317.586 276.468 314.936 275.8 312.238 275.75C309.223 275.628 308.554 276.095 308.521 277.05C308.421 279.875 321.59 279.25 321.056 287.188C320.764 291.599 317.484 293.907 311.769 293.663C307.628 293.49 304.33 292.163 303.437 292.144C303.231 292.112 303.019 292.141 302.829 292.228C302.639 292.315 302.479 292.455 302.368 292.632L302.039 292.625C302.34 290.292 302.646 287.962 302.957 285.635L303.257 285.642C304.557 287.62 308.522 288.595 311.148 288.706C313.708 288.812 314.478 288.089 314.523 287.189Z" fill="#26499F"/>
<path d="M347.209 294.308C347.304 294.728 347.528 295.109 347.85 295.397C348.171 295.684 348.574 295.865 349.003 295.914L348.954 296.294C346.002 295.928 343.046 295.59 340.087 295.281C340.1 295.155 340.114 295.027 340.128 294.9C340.718 294.961 341.412 294.681 341.281 293.766C341.02 292.505 340.757 291.244 340.491 289.982C337.86 289.709 335.227 289.458 332.591 289.23C332.082 290.416 331.577 291.604 331.076 292.794C331.009 292.941 330.981 293.104 330.995 293.265C331.009 293.427 331.065 293.582 331.157 293.715C331.248 293.849 331.373 293.957 331.518 294.028C331.664 294.1 331.825 294.133 331.987 294.124C331.976 294.252 331.965 294.379 331.953 294.506C329.009 294.252 326.062 294.027 323.113 293.831C323.122 293.703 323.13 293.576 323.139 293.448C323.571 293.481 324.002 293.38 324.374 293.159C324.745 292.937 325.039 292.606 325.215 292.211C325.496 291.535 325.779 290.861 326.064 290.187C328.406 284.751 330.825 279.335 333.32 273.939C333.386 273.842 333.426 273.73 333.435 273.613C333.443 273.497 333.421 273.38 333.371 273.275C333.32 273.169 333.242 273.079 333.146 273.014C333.049 272.948 332.937 272.909 332.82 272.901C332.832 272.773 332.843 272.646 332.854 272.518C336.441 272.819 340.023 273.161 343.602 273.544C343.588 273.671 343.574 273.798 343.559 273.925C343.443 273.911 343.325 273.929 343.218 273.975C343.11 274.021 343.017 274.095 342.947 274.188C342.877 274.282 342.832 274.392 342.818 274.508C342.804 274.624 342.82 274.742 342.865 274.85C344.234 280.615 345.534 286.385 346.765 292.161C346.917 292.877 347.065 293.592 347.209 294.308ZM334.421 285.054C336.119 285.207 337.817 285.369 339.515 285.54C338.938 282.873 338.347 280.21 337.741 277.552C336.618 280.049 335.512 282.55 334.421 285.054Z" fill="#26499F"/>
<path d="M376.723 300.231L376.651 300.608C373.527 300.022 370.397 299.469 367.26 298.949C367.282 298.822 367.303 298.696 367.325 298.57C367.791 298.646 368.268 298.539 368.658 298.272C369.047 298.005 369.318 297.598 369.415 297.136C367.108 292.936 364.725 288.751 362.266 284.583C361.695 288.23 361.128 291.878 360.566 295.527C360.51 295.77 360.504 296.022 360.55 296.268C360.596 296.513 360.692 296.746 360.832 296.953C360.972 297.159 361.154 297.335 361.365 297.468C361.576 297.601 361.812 297.689 362.059 297.727C362.04 297.854 362.02 297.981 362 298.106C358.855 297.622 355.706 297.172 352.551 296.755L352.602 296.374C352.85 296.407 353.103 296.388 353.344 296.32C353.584 296.251 353.809 296.134 354.003 295.976C354.196 295.817 354.356 295.62 354.47 295.398C354.585 295.175 354.653 294.932 354.67 294.682C355.475 288.967 356.288 283.253 357.11 277.539C357.16 277.289 357.157 277.031 357.102 276.783C357.047 276.534 356.941 276.3 356.79 276.094C356.64 275.889 356.448 275.717 356.228 275.589C356.008 275.461 355.763 275.381 355.51 275.353C355.528 275.226 355.545 275.1 355.563 274.972C358.248 275.328 360.929 275.706 363.607 276.108C366.101 280.398 368.514 284.706 370.847 289.033C371.386 285.985 371.928 282.938 372.474 279.893C372.532 279.645 372.538 279.387 372.492 279.136C372.445 278.886 372.347 278.648 372.203 278.437C372.059 278.226 371.873 278.048 371.657 277.914C371.44 277.779 371.198 277.691 370.946 277.655C370.968 277.53 370.99 277.403 371.012 277.277C374.307 277.823 377.593 278.405 380.872 279.021C380.847 279.147 380.823 279.272 380.798 279.398C380.547 279.346 380.288 279.346 380.038 279.398C379.787 279.45 379.549 279.553 379.34 279.7C379.13 279.847 378.953 280.036 378.82 280.254C378.686 280.473 378.598 280.716 378.562 280.97C377.468 286.636 376.385 292.307 375.312 297.981C375.247 298.221 375.233 298.473 375.269 298.72C375.306 298.966 375.394 299.203 375.526 299.414C375.659 299.625 375.833 299.807 376.039 299.947C376.245 300.088 376.478 300.184 376.723 300.231Z" fill="#26499F"/>
<path d="M390.258 302.99C390.231 303.115 390.202 303.24 390.174 303.365C387.074 302.685 383.966 302.037 380.849 301.421C380.874 301.296 380.9 301.17 380.925 301.044C381.171 301.092 381.423 301.09 381.668 301.036C381.913 300.983 382.144 300.88 382.347 300.734C382.55 300.588 382.721 300.402 382.85 300.188C382.979 299.973 383.062 299.734 383.095 299.486C384.268 293.834 385.453 288.183 386.649 282.534C386.716 282.288 386.73 282.031 386.692 281.78C386.653 281.528 386.563 281.287 386.426 281.072C386.289 280.858 386.109 280.674 385.898 280.532C385.686 280.391 385.447 280.296 385.196 280.252C385.221 280.127 385.247 280.001 385.274 279.876C388.546 280.522 391.809 281.203 395.064 281.918C395.035 282.043 395.007 282.168 394.978 282.293C394.729 282.234 394.471 282.226 394.219 282.27C393.967 282.314 393.726 282.409 393.513 282.55C393.299 282.69 393.116 282.873 392.975 283.087C392.835 283.301 392.739 283.541 392.695 283.793C391.421 289.426 390.16 295.06 388.913 300.693C388.84 300.932 388.817 301.184 388.846 301.432C388.875 301.681 388.955 301.921 389.082 302.136C389.208 302.352 389.378 302.54 389.58 302.687C389.783 302.833 390.014 302.937 390.258 302.99Z" fill="#26499F"/>
<path d="M417.928 287.177C417.855 289.226 417.777 291.275 417.696 293.323C417.609 293.299 417.521 293.276 417.434 293.251C416.815 292.551 415.973 292.087 415.05 291.938C413.616 291.551 412.179 291.171 410.74 290.799C409.416 295.707 408.104 300.616 406.803 305.526C406.754 305.708 406.744 305.899 406.773 306.086C406.801 306.272 406.868 306.451 406.969 306.611C407.07 306.77 407.203 306.907 407.36 307.013C407.516 307.119 407.693 307.191 407.879 307.225L407.779 307.596C404.926 306.848 402.064 306.127 399.193 305.435C399.224 305.311 399.254 305.185 399.285 305.061C399.466 305.113 399.655 305.129 399.842 305.108C400.03 305.086 400.21 305.028 400.375 304.936C400.539 304.845 400.684 304.722 400.801 304.574C400.918 304.426 401.004 304.257 401.055 304.076C402.29 299.148 403.537 294.222 404.796 289.298C403.352 288.945 401.906 288.598 400.457 288.258C399.568 287.953 398.602 287.961 397.718 288.281L397.453 288.221C398.391 286.389 399.337 284.558 400.291 282.729L400.491 282.776C400.869 283.148 401.357 283.388 401.883 283.461C406.666 284.587 411.428 285.787 416.169 287.061C416.669 287.245 417.214 287.265 417.726 287.118L417.928 287.177Z" fill="#26499F"/>
<path d="M437.817 314.76C437.821 315.19 437.959 315.607 438.212 315.954C438.465 316.301 438.82 316.56 439.228 316.694C439.187 316.815 439.144 316.935 439.102 317.057C436.311 316.101 433.508 315.172 430.695 314.27L430.814 313.905C430.96 313.975 431.121 314.006 431.283 313.996C431.444 313.985 431.601 313.934 431.736 313.846C431.872 313.758 431.983 313.637 432.059 313.494C432.135 313.351 432.173 313.191 432.169 313.029C432.177 311.742 432.183 310.455 432.187 309.167C429.688 308.367 427.18 307.589 424.664 306.831C423.922 307.889 423.184 308.95 422.449 310.012C422.353 310.142 422.292 310.295 422.272 310.455C422.252 310.615 422.274 310.778 422.336 310.927C422.397 311.077 422.496 311.208 422.623 311.308C422.75 311.408 422.9 311.473 423.06 311.498C423.022 311.62 422.985 311.743 422.947 311.865C420.137 311.021 417.317 310.205 414.488 309.415L414.593 309.045C415.008 309.165 415.449 309.153 415.856 309.012C416.264 308.87 416.618 308.606 416.869 308.255C417.283 307.655 417.699 307.052 418.116 306.446C421.526 301.604 425.017 296.797 428.588 292.024C428.673 291.945 428.735 291.845 428.769 291.733C428.803 291.622 428.807 291.504 428.78 291.391C428.754 291.278 428.698 291.174 428.618 291.089C428.538 291.004 428.437 290.942 428.326 290.909C428.365 290.787 428.402 290.664 428.441 290.542C431.864 291.563 435.273 292.622 438.667 293.72C438.627 293.841 438.586 293.964 438.544 294.085C438.433 294.049 438.315 294.043 438.201 294.067C438.086 294.09 437.98 294.143 437.893 294.22C437.805 294.297 437.739 294.395 437.7 294.505C437.662 294.615 437.653 294.734 437.674 294.848C437.782 300.762 437.836 306.67 437.837 312.57C437.83 313.3 437.823 314.03 437.817 314.76ZM429.004 286.76C429.122 286.429 429.305 286.125 429.541 285.864C429.778 285.604 430.063 285.392 430.381 285.242C430.699 285.092 431.043 285.006 431.395 284.989C431.746 284.973 432.097 285.025 432.428 285.144C432.757 285.234 433.064 285.388 433.332 285.598C433.6 285.808 433.823 286.07 433.989 286.367C434.154 286.665 434.259 286.992 434.296 287.331C434.333 287.669 434.302 288.012 434.205 288.338C433.968 288.979 433.492 289.504 432.877 289.802C432.262 290.101 431.555 290.149 430.905 289.938C430.57 289.857 430.255 289.711 429.978 289.507C429.7 289.303 429.466 289.046 429.289 288.75C429.112 288.455 428.996 288.127 428.947 287.786C428.898 287.446 428.917 287.098 429.004 286.765V286.76ZM427.316 303.112C428.935 303.606 430.551 304.108 432.165 304.618C432.165 301.896 432.151 299.173 432.122 296.447C430.503 298.666 428.901 300.889 427.316 303.117V303.112ZM435.23 288.656C435.353 288.327 435.539 288.025 435.779 287.768C436.018 287.511 436.306 287.303 436.626 287.157C436.946 287.012 437.291 286.93 437.643 286.918C437.994 286.906 438.344 286.964 438.673 287.087C439 287.181 439.305 287.34 439.57 287.553C439.835 287.767 440.055 288.031 440.216 288.331C440.377 288.631 440.477 288.96 440.509 289.299C440.542 289.637 440.506 289.979 440.404 290.304C440.158 290.943 439.675 291.462 439.055 291.752C438.435 292.042 437.727 292.08 437.079 291.859C436.746 291.773 436.434 291.622 436.16 291.414C435.886 291.206 435.657 290.945 435.484 290.648C435.312 290.35 435.201 290.021 435.158 289.68C435.114 289.339 435.139 288.993 435.23 288.661V288.656Z" fill="#26499F"/>
<path d="M461.763 323.728C461.9 324.784 463.202 325.728 463.834 325.99L463.67 326.303C460.648 325.061 457.611 323.852 454.559 322.677C454.611 322.572 454.664 322.467 454.716 322.361C455.202 322.548 455.716 322.404 455.61 321.505C455.261 319.071 454.897 316.636 454.518 314.199C453.845 313.946 453.172 313.694 452.499 313.443C451.841 315.18 451.185 316.917 450.531 318.656C450.425 318.882 450.368 319.127 450.361 319.376C450.355 319.625 450.4 319.872 450.494 320.103C450.588 320.334 450.728 320.543 450.907 320.716C451.085 320.89 451.298 321.025 451.531 321.113C451.485 321.233 451.441 321.352 451.395 321.472C448.445 320.362 445.481 319.283 442.502 318.236L442.631 317.874C442.867 317.956 443.117 317.989 443.365 317.97C443.614 317.952 443.857 317.882 444.078 317.766C444.298 317.65 444.493 317.49 444.65 317.296C444.806 317.102 444.922 316.878 444.988 316.637C446.951 311.207 448.934 305.782 450.938 300.361C451.04 300.129 451.092 299.877 451.091 299.623C451.09 299.369 451.036 299.119 450.933 298.887C450.829 298.655 450.678 298.447 450.49 298.277C450.301 298.107 450.079 297.978 449.838 297.899C449.881 297.778 449.925 297.658 449.97 297.538C453.641 298.831 457.293 300.169 460.926 301.553C466.878 303.827 469.07 307.242 467.404 311.225C466.879 312.575 465.95 313.731 464.744 314.534C463.538 315.336 462.113 315.747 460.665 315.709C461.049 318.384 461.415 321.057 461.763 323.728ZM455.739 304.942C455.15 306.475 454.563 308.011 453.978 309.55C455.119 309.974 456.257 310.403 457.393 310.836C460.329 311.958 461.56 311.315 462.124 309.916C462.724 308.432 461.973 307.304 459.096 306.205C457.979 305.78 456.86 305.359 455.739 304.942Z" fill="#26499F"/>
<path d="M254.093 366.796H334.093L324.681 319.489H263.505L254.093 366.796ZM327.263 360.271H308.18L307.053 345.589H324.341L327.263 360.271ZM320.447 326.013L323.368 340.695H306.678L305.552 326.013H320.447ZM286.66 326.013H301.502L302.628 340.695H285.533L286.66 326.013ZM285.16 345.589H303.003L304.129 360.271H284.029L285.16 345.589ZM267.743 326.013H282.612L281.487 340.695H264.819L267.743 326.013ZM281.108 345.589L279.982 360.271H260.925L263.846 345.589H281.108Z" fill="#212020"/>
<path d="M257.231 376.692H330.954L334.093 369.079H254.093L257.231 376.692Z" fill="#212020"/>
<path d="M298.153 379.781H290.033L289.597 388.403L281.404 393.329V399.488H306.782V393.329L298.589 388.403L298.153 379.781Z" fill="#212020"/>
<path d="M166.839 107.206H167.031L166.623 111.886C166.599 111.982 166.623 112.126 166.575 112.126H153.063V111.838C153.543 111.79 154.383 111.55 154.383 110.374V97.39C154.383 96.214 153.543 95.974 153.063 95.926V95.638H166.095C166.143 95.638 166.119 95.782 166.143 95.878L166.551 100.558H166.359C165.375 99.43 163.623 99.382 160.959 99.382H158.703V102.286H162.351C163.575 102.286 164.343 101.998 164.343 101.518H164.559V105.958H164.343C164.343 105.454 163.575 105.166 162.351 105.166H158.703V108.382H160.959C164.103 108.382 165.855 108.334 166.839 107.206ZM175.463 108.766C177.311 108.766 177.839 108.19 177.839 107.518C177.839 104.494 168.599 105.79 168.599 100.102C168.599 96.382 172.103 95.326 175.631 95.326C177.671 95.326 179.135 95.782 179.783 95.782C180.431 95.782 180.671 95.638 180.791 95.398H181.079L181.559 100.198H181.343C179.351 99.19 177.287 99.022 175.847 99.022C173.735 99.022 173.279 99.382 173.279 100.102C173.279 102.262 182.519 101.326 182.519 107.254C182.519 110.566 180.239 112.462 176.063 112.462C173.039 112.462 170.615 111.526 169.967 111.526C169.559 111.526 169.319 111.67 169.199 111.91H168.959L169.511 106.654H169.727C170.687 108.118 173.567 108.766 175.463 108.766ZM197.409 95.374H197.553L198.585 99.862H198.393C197.913 99.502 197.433 99.382 196.521 99.382H193.377V110.806C193.377 111.574 193.977 111.814 194.457 111.838V112.126H187.977V111.838C188.457 111.79 189.057 111.55 189.057 110.806V99.382H185.913C185.001 99.382 184.521 99.502 184.041 99.862H183.849L184.881 95.374H185.025C185.145 95.47 185.433 95.638 186.081 95.638H196.353C197.001 95.638 197.289 95.47 197.409 95.374ZM202.288 112.678C201.208 112.678 200.392 111.862 200.392 110.83C200.392 109.774 201.208 108.958 202.288 108.958C203.296 108.958 204.112 109.774 204.112 110.83C204.112 111.862 203.296 112.678 202.288 112.678Z" fill="#231F20"/>
<path d="M377.508 107.206H377.7L377.292 111.886C377.268 111.982 377.292 112.126 377.244 112.126H365.22C365.22 105.286 372.492 103.222 372.492 100.222C372.492 99.382 371.916 99.022 370.644 99.022C369.492 99.022 367.836 99.142 365.844 100.15H365.628L366.108 95.35H366.396C366.516 95.59 366.756 95.734 367.164 95.734C367.812 95.734 369.588 95.278 371.628 95.278C375.3 95.278 377.052 97.054 377.052 99.862C377.052 104.23 372.78 106.054 370.884 108.382H371.628C374.772 108.382 376.524 108.334 377.508 107.206ZM385.872 112.462C381.504 112.462 378.672 109.198 378.672 103.798C378.672 98.398 381.504 95.278 385.872 95.278C390.24 95.278 393.096 98.398 393.096 103.798C393.096 109.198 390.24 112.462 385.872 112.462ZM385.872 108.718C387.672 108.718 388.536 106.726 388.536 103.798C388.536 100.846 387.672 99.022 385.872 99.022C384.096 99.022 383.232 100.846 383.232 103.798C383.232 106.726 384.096 108.718 385.872 108.718ZM405.914 107.206H406.106L405.698 111.886C405.674 111.982 405.698 112.126 405.65 112.126H393.626C393.626 105.286 400.898 103.222 400.898 100.222C400.898 99.382 400.322 99.022 399.05 99.022C397.898 99.022 396.242 99.142 394.25 100.15H394.034L394.514 95.35H394.802C394.922 95.59 395.162 95.734 395.57 95.734C396.218 95.734 397.994 95.278 400.034 95.278C403.706 95.278 405.458 97.054 405.458 99.862C405.458 104.23 401.186 106.054 399.29 108.382H400.034C403.178 108.382 404.93 108.334 405.914 107.206ZM415.79 101.686C418.79 101.686 420.758 103.486 420.758 106.606C420.758 110.134 417.998 112.462 413.918 112.462C410.606 112.462 407.078 110.182 407.078 104.422C407.078 96.934 411.326 95.278 414.59 95.278C416.414 95.278 417.182 95.734 417.83 95.734C418.238 95.734 418.478 95.59 418.598 95.35H418.886L419.366 100.15H419.15C417.326 99.214 416.342 99.022 414.95 99.022C412.67 99.022 411.638 100.99 411.446 103.246C412.478 102.286 413.894 101.686 415.79 101.686ZM414.23 108.718C416.03 108.718 416.918 107.83 416.918 106.366C416.918 105.238 416.102 104.71 414.758 104.71C413.606 104.71 412.478 105.406 411.686 106.558C412.07 107.878 412.838 108.718 414.23 108.718Z" fill="#231F20"/>
<path fill-rule="evenodd" clip-rule="evenodd" d="M259.093 97.8174C259.093 117.38 274.538 133.236 293.571 133.236C312.604 133.236 329.093 117.38 329.093 97.8174C329.093 78.2544 293.571 33.2363 293.571 33.2363C293.571 33.2363 259.093 78.2614 259.093 97.8174Z" fill="#26499F"/>
<path d="M300.018 92.8294V80.9394C299.798 81.1464 299.643 81.2864 299.495 81.4334C296.781 84.1447 294.067 86.8561 291.352 89.5674C291.2 89.781 290.999 89.9552 290.766 90.0754C290.533 90.1956 290.275 90.2583 290.012 90.2583C289.75 90.2583 289.492 90.1956 289.259 90.0754C289.026 89.9552 288.825 89.781 288.673 89.5674C286.016 86.9161 283.362 84.2624 280.712 81.6064C280.499 81.3934 280.304 81.1624 279.976 80.8064V81.6134C279.976 87.8134 279.976 94.0134 279.976 100.213C279.989 100.557 279.894 100.896 279.704 101.183C279.515 101.469 279.241 101.69 278.92 101.813C278.598 101.934 278.244 101.946 277.915 101.846C277.585 101.747 277.297 101.542 277.096 101.262C276.888 100.959 276.768 100.604 276.75 100.236C276.731 92.5031 276.726 84.7674 276.736 77.0294C276.715 76.696 276.8 76.3644 276.98 76.0829C277.16 75.8013 277.424 75.5843 277.736 75.4634C278.062 75.3231 278.425 75.2934 278.77 75.3788C279.115 75.4642 279.422 75.66 279.645 75.9364C282.867 79.1657 286.091 82.3927 289.317 85.6174C289.537 85.8374 289.746 86.0674 290.027 86.3644C291.374 85.0004 292.69 83.6644 294.016 82.3274C296.108 80.2274 298.216 78.1364 300.299 76.0274C300.522 75.7244 300.84 75.5041 301.202 75.4009C301.564 75.2977 301.95 75.3176 302.299 75.4574C302.644 75.6065 302.93 75.8643 303.115 76.1915C303.299 76.5187 303.372 76.8972 303.321 77.2694C303.314 82.2261 303.314 87.1827 303.321 92.1394C303.321 92.3394 303.321 92.5464 303.321 92.8624C304.188 92.8624 305.01 92.8194 305.821 92.8704C306.842 92.9694 307.813 93.3656 308.611 94.01C309.41 94.6544 310.003 95.5187 310.315 96.4961C310.628 97.4736 310.648 98.5213 310.372 99.5098C310.096 100.498 309.536 101.384 308.762 102.058C307.987 102.732 307.033 103.164 306.016 103.301C304.999 103.438 303.964 103.274 303.039 102.829C302.114 102.384 301.34 101.678 300.812 100.798C300.284 99.9183 300.025 98.9028 300.068 97.8774C300.075 97.3024 300.068 96.7274 300.068 96.1214C299.856 96.1094 299.695 96.0934 299.535 96.0934C296.382 96.0934 293.229 96.0934 290.078 96.0934C289.034 96.0756 288.021 96.4461 287.235 97.1331C286.449 97.8201 285.946 98.7746 285.824 99.8114C285.718 100.864 286.007 101.918 286.636 102.768C287.264 103.618 288.187 104.204 289.224 104.411C289.531 104.461 289.842 104.478 290.153 104.464C294.011 104.464 297.868 104.451 301.726 104.477C303.703 104.473 305.601 105.254 307.002 106.649C308.403 108.044 309.193 109.939 309.197 111.916C309.202 113.893 308.421 115.791 307.026 117.192C305.631 118.593 303.736 119.383 301.759 119.387C295.973 119.395 290.187 119.395 284.4 119.387C284.172 119.413 283.941 119.391 283.722 119.321C283.503 119.252 283.301 119.137 283.13 118.984C282.959 118.831 282.822 118.644 282.728 118.434C282.634 118.225 282.585 117.998 282.585 117.768C282.585 117.538 282.634 117.311 282.728 117.102C282.822 116.892 282.959 116.705 283.13 116.552C283.301 116.399 283.503 116.284 283.722 116.214C283.941 116.145 284.172 116.122 284.4 116.148C290.165 116.148 295.93 116.165 301.7 116.137C302.505 116.166 303.3 115.948 303.978 115.513C304.656 115.077 305.185 114.445 305.494 113.701C305.859 112.974 305.994 112.152 305.881 111.346C305.769 110.54 305.414 109.786 304.864 109.186C304.446 108.696 303.92 108.308 303.328 108.053C302.736 107.798 302.094 107.682 301.45 107.714C297.65 107.714 293.859 107.721 290.064 107.714C288.565 107.726 287.098 107.285 285.855 106.447C284.612 105.61 283.651 104.417 283.098 103.024C282.545 101.631 282.426 100.103 282.757 98.6418C283.088 97.1801 283.853 95.8525 284.952 94.8334C286.31 93.526 288.129 92.8073 290.014 92.8334C293.187 92.8334 296.36 92.8334 299.533 92.8334L300.018 92.8294ZM303.294 96.1124C303.332 96.674 303.326 97.2378 303.275 97.7984C303.238 98.0712 303.26 98.3487 303.341 98.612C303.421 98.8753 303.556 99.1183 303.739 99.3244C304.01 99.6804 304.392 99.9352 304.825 100.048C305.258 100.161 305.717 100.126 306.127 99.9474C306.523 99.7683 306.854 99.4693 307.071 99.0926C307.289 98.7158 307.383 98.2803 307.34 97.8474C307.289 97.4243 307.103 97.0288 306.81 96.7193C306.516 96.4098 306.132 96.2026 305.712 96.1284C304.936 96.0614 304.151 96.1124 303.294 96.1124Z" fill="white"/>
</svg>
