<svg width="668" height="130" viewBox="0 0 668 130" fill="none" xmlns="http://www.w3.org/2000/svg">
<path d="M133.982 72.7318C133.982 84.4968 133.969 91.9988 133.969 101.818C133.969 110.334 128.609 116.079 120.764 116.079C120.485 116.079 120.203 116.071 119.916 116.056C111.335 115.614 105.255 108.593 107.459 99.9596C109.445 92.1784 120.493 79.246 133.982 72.7318ZM148.639 50.0367L127.339 60.3218C111.184 68.1231 96.5128 83.7531 93.2138 96.6788C92.1438 100.52 91.9958 104.541 92.7818 108.444C93.5678 112.347 95.2668 116.032 97.7548 119.227C100.242 122.423 103.453 125.046 107.152 126.903C110.85 128.761 114.941 129.805 119.121 129.958C119.675 129.987 120.222 130.001 120.763 130C136.647 130 148.625 117.885 148.625 101.818C148.625 97.1338 148.625 92.9772 148.631 88.6325C148.631 83.8709 148.638 78.8841 148.638 72.7318V50.0367H148.639Z" fill="#00357E"/>
<path d="M97.1358 27.1678C86.7538 35.2116 77.9188 44.9048 71.0248 55.8167C58.2538 42.8691 45.6158 29.9414 32.8248 17.1496C27.8038 12.1277 22.9168 6.78095 17.0528 2.80102C13.7138 0.534645 8.16983 -0.599498 4.30683 0.331368C2.11283 0.860442 0.083823 2.38022 0.0648229 5.77218C-0.116177 38.5035 0.121821 75.4361 0.290821 108.167C0.363821 122.235 7.59082 129.34 22.2608 129.498C37.3238 129.659 52.3898 129.533 67.9018 129.533V113.137C54.9108 113.137 41.9568 113.137 29.0408 113.137C18.4068 113.145 18.0408 112.794 18.0478 102.651C18.0568 78.5982 18.0478 54.5467 18.0478 28.984C42.4738 47.2081 60.3928 68.315 69.5378 98.1473C77.6558 75.1321 88.2888 55.3826 105.883 41.0606" fill="#00357E"/>
<path d="M149.697 1.76184C149.697 -0.00110722 147.372 0.0976941 147.372 0.0976941C144.372 0.0976941 137.741 -0.178728 134.794 0.198368C134.508 0.206965 134.227 0.273891 133.97 0.394584C133.713 0.515278 133.487 0.686937 133.306 0.897953C133.125 1.10897 132.994 1.35442 132.922 1.61768C132.85 1.88095 132.838 2.15589 132.887 2.42391C133.187 9.77491 126.614 9.90219 122.125 12.0042C113.215 16.1389 104.831 21.2264 97.1358 27.1678L105.888 41.0615C113.512 34.8933 122.119 29.915 131.388 26.313C131.388 30.1219 131.534 34.422 131.534 36.1526C131.534 42.7865 134.16 42.5024 142.203 42.5024C147.603 42.5024 149.756 40.6977 149.756 35.5447C149.752 26.691 149.697 13.296 149.697 1.76184Z" fill="#CC121B"/>
<path d="M197.38 123.092V13.892H210.172L259.156 96.416H252.292L300.652 13.892H313.444L313.6 123.092H298.624L298.468 37.448H302.056L259 109.832H251.824L208.456 37.448H212.356V123.092H197.38Z" fill="#041731"/>
<path d="M374.764 124.028C365.924 124.028 358.124 122.208 351.364 118.568C344.708 114.928 339.508 109.936 335.764 103.592C332.124 97.248 330.304 89.968 330.304 81.752C330.304 73.536 332.072 66.256 335.608 59.912C339.248 53.568 344.188 48.628 350.428 45.092C356.772 41.452 363.896 39.632 371.8 39.632C379.808 39.632 386.88 41.4 393.016 44.936C399.152 48.472 403.936 53.464 407.368 59.912C410.904 66.256 412.672 73.692 412.672 82.22C412.672 82.844 412.62 83.572 412.516 84.404C412.516 85.236 412.464 86.016 412.36 86.744H342.004V75.98H404.56L398.476 79.724C398.58 74.42 397.488 69.688 395.2 65.528C392.912 61.368 389.74 58.144 385.684 55.856C381.732 53.464 377.104 52.268 371.8 52.268C366.6 52.268 361.972 53.464 357.916 55.856C353.86 58.144 350.688 61.42 348.4 65.684C346.112 69.844 344.968 74.628 344.968 80.036V82.532C344.968 88.044 346.216 92.984 348.712 97.352C351.312 101.616 354.9 104.944 359.476 107.336C364.052 109.728 369.304 110.924 375.232 110.924C380.12 110.924 384.54 110.092 388.492 108.428C392.548 106.764 396.084 104.268 399.1 100.94L407.368 110.612C403.624 114.98 398.944 118.308 393.328 120.596C387.816 122.884 381.628 124.028 374.764 124.028Z" fill="#041731"/>
<path d="M455.62 124.028C447.3 124.028 440.852 121.792 436.276 117.32C431.7 112.848 429.412 106.452 429.412 98.132V22.316H444.388V97.508C444.388 101.98 445.48 105.412 447.664 107.804C449.952 110.196 453.176 111.392 457.336 111.392C462.016 111.392 465.916 110.092 469.036 107.492L473.716 118.256C471.428 120.232 468.672 121.688 465.448 122.624C462.328 123.56 459.052 124.028 455.62 124.028ZM415.372 52.736V40.412H468.1V52.736H415.372Z" fill="#041731"/>
<path d="M518.251 124.028C509.931 124.028 502.547 122.208 496.099 118.568C489.651 114.928 484.555 109.936 480.811 103.592C477.067 97.144 475.195 89.864 475.195 81.752C475.195 73.536 477.067 66.256 480.811 59.912C484.555 53.568 489.651 48.628 496.099 45.092C502.547 41.452 509.931 39.632 518.251 39.632C526.467 39.632 533.799 41.452 540.247 45.092C546.799 48.628 551.895 53.568 555.535 59.912C559.279 66.152 561.151 73.432 561.151 81.752C561.151 89.968 559.279 97.248 555.535 103.592C551.895 109.936 546.799 114.928 540.247 118.568C533.799 122.208 526.467 124.028 518.251 124.028ZM518.251 110.924C523.555 110.924 528.287 109.728 532.447 107.336C536.711 104.944 540.039 101.564 542.431 97.196C544.823 92.724 546.019 87.576 546.019 81.752C546.019 75.824 544.823 70.728 542.431 66.464C540.039 62.096 536.711 58.716 532.447 56.324C528.287 53.932 523.555 52.736 518.251 52.736C512.947 52.736 508.215 53.932 504.055 56.324C499.895 58.716 496.567 62.096 494.071 66.464C491.575 70.728 490.327 75.824 490.327 81.752C490.327 87.576 491.575 92.724 494.071 97.196C496.567 101.564 499.895 104.944 504.055 107.336C508.215 109.728 512.947 110.924 518.251 110.924Z" fill="#041731"/>
<path d="M575.623 123.092V7.33997H590.599V123.092H575.623Z" fill="#041731"/>
<path d="M612.953 123.092V7.33997H627.929V123.092H612.953Z" fill="#041731"/>
<path d="M650.283 123.092V40.412H665.259V123.092H650.283ZM657.771 24.5C654.859 24.5 652.415 23.564 650.439 21.692C648.567 19.82 647.631 17.532 647.631 14.828C647.631 12.02 648.567 9.68 650.439 7.808C652.415 5.936 654.859 5 657.771 5C660.683 5 663.075 5.936 664.947 7.808C666.923 9.576 667.911 11.812 667.911 14.516C667.911 17.324 666.975 19.716 665.103 21.692C663.231 23.564 660.787 24.5 657.771 24.5Z" fill="#041731"/>
</svg>
