<svg width="203" height="56" viewBox="0 0 203 56" fill="none" xmlns="http://www.w3.org/2000/svg">
<path d="M0 54.7965V7.78761H13.9463L25.9714 38.9381L27.4657 48.4956H27.8214L29.0311 38.8673L40.7716 7.78761H54.5755V54.7965H46.037V25.2035L46.8197 10.5487H46.3928L43.4754 20.6018L30.1695 54.7965H24.1214L10.6732 20.7434L7.75585 10.4779H7.25776L8.25393 24.9204V54.7965H0Z" fill="#111111"/>
<path d="M72.8606 38.1593L66.8124 36.3186V37.3097C66.8124 43.6106 70.0856 48.9204 77.9837 48.9204C82.6799 48.9204 85.7396 46.8673 87.305 44.3186L93.9223 49.2035C90.7204 53.2389 85.2415 56 77.6991 56C66.0298 56 58.7008 48.9912 58.7008 36.3894C58.7008 30.2301 60.5508 24.8496 64.1086 21.3097C67.4528 17.9115 72.4337 16.1416 77.9126 16.1416C83.4626 16.1416 88.0165 17.8407 91.1473 20.885C94.5627 24.2832 95.8435 29.1681 95.8435 35.469V38.1593H72.8606ZM77.6279 22.9381C73.5721 22.9381 71.224 23.8584 69.5163 25.6991C67.8086 27.469 67.0259 30.0885 66.8836 33.0619H87.5896C87.5184 30.0885 86.6646 27.5398 84.9569 25.7699C83.4626 24.1416 81.6126 22.9381 77.6279 22.9381Z" fill="#111111"/>
<path d="M121.407 24.708H113.154L109.098 23.3628L110.023 26.3363V44.3186C110.023 47.1504 111.802 47.8584 114.079 47.9292H120.696V54.3717C118.205 55.5752 115.075 56 111.944 56C104.615 55.646 102.338 51.8938 102.125 43.8938V23.4336L99.6342 24.708H94.4399V17.2743H101.2L103.832 4.60177H110.45V12.7434L108.102 17.2743H121.407V24.708Z" fill="#111111"/>
<path d="M140.153 56C127.345 56 121.083 47.5752 121.083 36.1062C121.083 24.2832 127.985 16.1416 140.295 16.1416C152.747 16.1416 159.507 24.1416 159.507 36.1062C159.507 47.7876 152.534 56 140.153 56ZM140.01 48.8496C143.568 48.8496 146.557 47.8584 148.336 46.0177C150.043 43.8938 150.755 40.354 150.755 36.177V35.7522C150.755 31.5044 149.759 28.6018 147.98 26.4779C146.343 24.5664 143.853 23.2212 140.153 23.2212C136.666 23.2212 134.033 24.4248 132.326 26.3363C130.689 28.3894 129.907 31.4336 129.907 35.7522V36.177C129.907 40.4248 130.832 43.3274 132.539 45.3805C134.247 47.292 136.809 48.8496 140.01 48.8496Z" fill="#111111"/>
<path d="M163.037 54.7965V1.34513H172.074V54.7965H163.037Z" fill="#111111"/>
<path d="M178.177 54.7965V1.34513H187.214V54.7965H178.177Z" fill="#111111"/>
<path d="M193.602 9.84071C193.388 8.35398 192.748 2.97345 192.748 0H202.994C203.065 3.39823 202.496 8.77876 202.14 9.84071H193.602ZM193.317 54.7965V17.2743H202.282V54.7965H193.317Z" fill="#111111"/>
</svg>
