<svg xmlns="http://www.w3.org/2000/svg" viewBox="0 0 3000 2000"><defs><style>.cls-1{isolation:isolate;}.cls-2{fill:#fff;}.cls-3{fill:#aad2d7;}.cls-4{fill:#5ba08e;}.cls-5{fill:#72b5a2;}.cls-6{fill:#bbf5ff;}.cls-7{mix-blend-mode:multiply;opacity:0.5;}.cls-8{fill:#3d847a;}.cls-9{fill:#27665b;}.cls-10{fill:#154f44;}.cls-11{fill:#b2b2b2;}.cls-12{fill:#ea2f4a;}.cls-13{fill:#cc1d3e;}.cls-14{fill:#910f37;}.cls-15{fill:#e25252;}</style></defs><g class="cls-1"><g id="Ñëîé_1" data-name="Ñëîé 1"><rect class="cls-2" width="3000" height="2000"/><path class="cls-3" d="M1348.679,1738.029c-19.281.146-38.133,6.753-53.567,17.558a97.139,97.139,0,0,0-20.349,19.064,86.011,86.011,0,0,0-13.374,23.48,14.563,14.563,0,1,1-27.3-10.143,14.791,14.791,0,0,1,.642-1.477l.122-.239a113.475,113.475,0,0,1,20.862-28.795,121.079,121.079,0,0,1,27.785-20.845,119.611,119.611,0,0,1,32.075-11.989,108.736,108.736,0,0,1,33.892-1.987,7.707,7.707,0,0,1-.684,15.373Z"/><path class="cls-3" d="M1331.709,1711.194a160.62,160.62,0,0,0-78.2,19.322c-23.726,12.708-44.123,31.158-58.16,53.162a14.548,14.548,0,0,1-24.53-15.649c.206-.324.424-.636.651-.938l.09-.118a177.637,177.637,0,0,1,32.785-33.043,186.791,186.791,0,0,1,83.1-36.448,172.794,172.794,0,0,1,45.171-1.654,7.7,7.7,0,0,1-.847,15.368Z"/><path class="cls-3" d="M1331.655,1689.982a160.038,160.038,0,0,0-55.687,6.594,14.646,14.646,0,1,1-5.32-28.621l.36-.021a182.413,182.413,0,0,1,63.351,6.895,7.743,7.743,0,0,1-2.62,15.16Z"/><path class="cls-3" d="M1327.848,1729.338a160.041,160.041,0,0,0-49.531,26.291A14.646,14.646,0,1,1,1263,1730.871l.329-.15a182.377,182.377,0,0,1,61.554-16.488,7.743,7.743,0,0,1,3.042,15.081Z"/><path class="cls-3" d="M1250.386,1752.811a161.583,161.583,0,0,0-48.043,78.006,9.7,9.7,0,1,1-18.747-5q.117-.441.272-.861l.025-.065a176.385,176.385,0,0,1,60.023-80.043,5.136,5.136,0,0,1,6.5,7.94Z"/><path class="cls-3" d="M1291.52,1781.177a81.52,81.52,0,0,0-3.16,55.923,9.723,9.723,0,1,1-18.559,5.8,9.961,9.961,0,0,1-.322-1.365l-.032-.217a96.338,96.338,0,0,1,13-64.932,5.143,5.143,0,0,1,9.1,4.745Z"/><path class="cls-3" d="M1178.858,1735.312a128.29,128.29,0,0,0-48.76,59.2,9.707,9.707,0,1,1-17.57-8.189l.043-.078a143.091,143.091,0,0,1,61.188-59.837,5.138,5.138,0,0,1,5.14,8.879Z"/><path class="cls-3" d="M1161.046,1804.773A56.45,56.45,0,0,0,1149.5,1832.8a9.805,9.805,0,1,1-18.856-4.723l.172-.42a71.366,71.366,0,0,1,23.114-30.273,5.17,5.17,0,0,1,7.191,7.3Z"/><path class="cls-3" d="M1174.444,1832.9a56.07,56.07,0,0,0-1.788,19.474,9.975,9.975,0,1,1-19.365-2.4l.224-.629a71.137,71.137,0,0,1,11.875-21.28,5.228,5.228,0,0,1,9.1,4.663Z"/><path class="cls-3" d="M1226.31,1679.686a118.475,118.475,0,0,0-60.415,32.33,9.711,9.711,0,1,1-13.79-13.677,9.92,9.92,0,0,1,.863-.773l.119-.092a133.28,133.28,0,0,1,71.86-27.959,5.14,5.14,0,0,1,1.39,10.166Z"/><rect class="cls-4" x="1340.164" y="1635.415" width="290.681" height="116.272"/><polygon class="cls-4" points="1921.525 1751.687 1572.708 1751.687 1572.708 1316.092 1688.98 1316.092 1688.98 1635.415 1921.525 1635.415 1921.525 1751.687"/><rect class="cls-5" x="1340.164" y="1664.483" width="290.681" height="58.136"/><polygon class="cls-5" points="1921.525 1722.619 1601.776 1722.619 1601.776 1316.092 1659.912 1316.092 1659.912 1664.483 1921.525 1664.483 1921.525 1722.619"/><polygon class="cls-6" points="1606.621 1669.328 1340.164 1669.328 1340.164 1659.638 1596.932 1659.638 1596.932 1316.092 1606.621 1316.092 1606.621 1669.328"/><g class="cls-7"><rect class="cls-8" x="1572.709" y="1291.673" width="116.272" height="60.035"/></g><rect class="cls-9" x="1557.768" y="1294.943" width="146.151" height="42.299"/><rect class="cls-4" x="1590.226" y="1294.943" width="25.149" height="42.299"/><rect class="cls-6" x="1557.768" y="1292.035" width="146.151" height="5.814"/><rect class="cls-10" x="1557.77" y="1331.53" width="146.15" height="5.814"/><g class="cls-7"><path class="cls-8" d="M1572.709,1594.477a111.506,111.506,0,0,0,116.272,0V1528.4H1572.709Z"/></g><circle class="cls-2" cx="1630.844" cy="1486.691" r="96.894"/><path class="cls-4" d="M1630.845,1593.274a106.583,106.583,0,1,1,106.582-106.583A106.7,106.7,0,0,1,1630.845,1593.274Zm0-193.787a87.2,87.2,0,1,0,87.2,87.2A87.3,87.3,0,0,0,1630.845,1399.487Z"/><path class="cls-10" d="M1630.844,1592.842a105.475,105.475,0,0,1-75.093-31.058l4.11-4.11a100.385,100.385,0,0,0,141.966-141.966l4.111-4.11a106.151,106.151,0,0,1-75.094,181.244Z"/><path class="cls-10" d="M1564.813,1552.722a93.382,93.382,0,0,1,132.063-132.062l-4.111,4.11a87.57,87.57,0,0,0-123.842,123.842Z"/><path class="cls-11" d="M1580.411,1537.124q-.793-.795-1.559-1.608l14.124-13.27q.558.6,1.138,1.175Z"/><path class="cls-12" d="M1682.689,1535.672l-14.08-13.316q.564-.6,1.105-1.2l14.49,12.867Q1683.462,1534.855,1682.689,1535.672Z"/><path class="cls-11" d="M1577.346,1533.864q-.75-.848-1.467-1.716l14.936-12.347q.516.624,1.055,1.234Z"/><path class="cls-12" d="M1685.663,1532.325l-14.88-12.415q.525-.63,1.027-1.271l15.257,11.948Q1686.38,1531.465,1685.663,1532.325Z"/><path class="cls-11" d="M1574.485,1530.412q-.7-.9-1.36-1.808l15.679-11.389q.476.654.974,1.3Z"/><path class="cls-12" d="M1688.421,1528.8l-15.627-11.459q.478-.654.936-1.321l15.991,10.945Q1689.09,1527.891,1688.421,1528.8Z"/><path class="cls-11" d="M1571.843,1526.784q-.641-.941-1.247-1.9l16.37-10.372q.43.679.887,1.348Z"/><path class="cls-12" d="M1690.953,1525.106l-16.316-10.454q.438-.686.851-1.38l16.648,9.921Q1691.561,1524.155,1690.953,1525.106Z"/><path class="cls-11" d="M1569.429,1522.986c-.384-.651-.757-1.3-1.119-1.963l16.991-9.319q.389.709.8,1.409Z"/><path class="cls-12" d="M1693.253,1521.251l-16.951-9.39q.4-.716.768-1.439l17.238,8.853Q1693.8,1520.271,1693.253,1521.251Z"/><path class="cls-11" d="M1567.266,1519.051q-.512-1-.988-2.018l17.535-8.248q.347.735.718,1.464Z"/><path class="cls-12" d="M1695.292,1517.28l-17.494-8.336q.346-.727.667-1.466l17.765,7.744C1695.929,1515.912,1695.618,1516.6,1695.292,1517.28Z"/><path class="cls-11" d="M1565.354,1514.978q-.447-1.032-.858-2.076l18.028-7.109c.2.505.407,1.007.622,1.507Z"/><path class="cls-12" d="M1697.094,1513.152l-18-7.177q.3-.757.579-1.521l18.22,6.6Q1697.511,1512.107,1697.094,1513.152Z"/><path class="cls-11" d="M1563.706,1510.806q-.379-1.057-.725-2.125l18.438-5.966q.25.775.526,1.544Z"/><path class="cls-12" d="M1698.626,1508.93l-18.424-6.013q.258-.783.489-1.573l18.593,5.459C1699.076,1507.515,1698.855,1508.224,1698.626,1508.93Z"/><path class="cls-11" d="M1562.327,1506.538q-.315-1.084-.591-2.177l18.781-4.774q.2.784.425,1.563Z"/><path class="cls-12" d="M1699.883,1504.632l-18.762-4.85q.206-.793.385-1.589l18.9,4.263Q1700.164,1503.547,1699.883,1504.632Z"/><path class="cls-11" d="M1561.217,1502.187q-.243-1.093-.451-2.195l19.04-3.606q.151.8.329,1.6Z"/><path class="cls-12" d="M1700.867,1500.272l-19.025-3.688q.154-.8.283-1.6l19.135,3.069Q1701.082,1499.167,1700.867,1500.272Z"/><path class="cls-11" d="M1560.384,1497.781q-.175-1.111-.313-2.228l19.231-2.387q.1.806.226,1.609Z"/><path class="cls-12" d="M1701.58,1495.838l-19.22-2.469q.1-.813.183-1.628l19.288,1.875Q1701.723,1494.729,1701.58,1495.838Z"/><path class="cls-11" d="M1559.828,1493.327q-.1-1.114-.173-2.23l19.343-1.192c.033.545.076,1.09.126,1.634Z"/><path class="cls-12" d="M1702.013,1491.386l-19.337-1.277q.054-.811.081-1.623l19.368.653Q1702.086,1490.262,1702.013,1491.386Z"/><path class="cls-11" d="M1559.554,1488.859q-.033-1.083-.033-2.168l19.379-.064c0,.591.007,1.118.023,1.645Z"/><path class="cls-12" d="M1702.166,1486.875h-19.378v-.183c0-.5-.008-.992-.021-1.488l19.371-.533q.028,1.011.028,2.021Z"/><path class="cls-11" d="M1578.927,1485l-19.369-.625q.036-1.117.107-2.233l19.341,1.221Q1578.954,1484.184,1578.927,1485Z"/><path class="cls-12" d="M1682.7,1483.584q-.049-.819-.124-1.635l19.3-1.76q.1,1.114.168,2.23Z"/><path class="cls-11" d="M1579.133,1481.747l-19.289-1.847q.106-1.113.247-2.223l19.223,2.442Q1579.212,1480.932,1579.133,1481.747Z"/><path class="cls-12" d="M1682.4,1480.32c-.067-.541-.142-1.083-.225-1.622l19.153-2.952q.171,1.107.307,2.216Z"/><path class="cls-11" d="M1579.545,1478.5l-19.138-3.04q.174-1.106.386-2.2l19.034,3.634Q1579.674,1477.693,1579.545,1478.5Z"/><path class="cls-12" d="M1681.9,1477.087q-.147-.8-.322-1.591l18.924-4.168q.243,1.1.45,2.208Z"/><path class="cls-11" d="M1580.158,1475.292l-18.911-4.234q.247-1.1.528-2.192l18.762,4.853Q1580.333,1474.5,1580.158,1475.292Z"/><path class="cls-12" d="M1681.2,1473.9q-.2-.792-.426-1.579l18.631-5.331q.309,1.079.583,2.163Z"/><path class="cls-11" d="M1580.972,1472.126l-18.611-5.4q.313-1.074.66-2.143l18.431,5.988Q1581.2,1471.343,1580.972,1472.126Z"/><path class="cls-12" d="M1680.3,1470.767q-.252-.783-.527-1.558l18.258-6.493q.375,1.053.716,2.115Z"/><path class="cls-11" d="M1581.98,1469.026l-18.231-6.569q.379-1.056.794-2.1l18.013,7.148Q1582.255,1468.262,1581.98,1469.026Z"/><path class="cls-12" d="M1679.207,1467.7q-.3-.764-.624-1.519l17.806-7.649q.441,1.029.849,2.069Z"/><path class="cls-11" d="M1583.182,1466l-17.779-7.709q.447-1.031.929-2.051l17.518,8.284Q1583.5,1465.254,1583.182,1466Z"/><path class="cls-12" d="M1677.916,1464.69q-.346-.743-.717-1.475l17.29-8.752q.505,1,.98,2.012Z"/><path class="cls-11" d="M1584.57,1463.054l-17.251-8.825q.505-.992,1.043-1.967l16.98,9.341Q1584.945,1462.325,1584.57,1463.054Z"/><path class="cls-12" d="M1676.444,1461.78q-.391-.715-.807-1.421l16.691-9.845q.573.969,1.11,1.953Z"/><path class="cls-11" d="M1586.148,1460.2l-16.667-9.886q.573-.967,1.183-1.921l16.33,10.433Q1586.558,1459.5,1586.148,1460.2Z"/><path class="cls-12" d="M1674.785,1458.964q-.437-.691-.9-1.373l16.047-10.866q.629.929,1.226,1.873Z"/><path class="cls-11" d="M1587.9,1457.449l-16.008-10.92q.63-.924,1.294-1.834l15.651,11.426Q1588.355,1456.779,1587.9,1457.449Z"/><path class="cls-12" d="M1672.947,1456.252q-.475-.657-.975-1.3l15.318-11.87q.695.9,1.353,1.806Z"/><path class="cls-11" d="M1589.816,1454.823l-15.281-11.917q.687-.88,1.4-1.744l14.9,12.391Q1590.316,1454.182,1589.816,1454.823Z"/><path class="cls-12" d="M1670.937,1453.658q-.513-.624-1.053-1.236l14.551-12.8q.749.851,1.464,1.719Z"/><path class="cls-11" d="M1591.905,1452.309l-14.512-12.844q.739-.835,1.51-1.653l14.106,13.287Q1592.445,1451.7,1591.905,1452.309Z"/><path class="cls-12" d="M1668.784,1451.212q-.56-.6-1.142-1.184l13.738-13.667q.789.792,1.549,1.6Z"/><path class="cls-11" d="M1594.15,1449.925l-13.688-13.717q.791-.789,1.6-1.547l13.276,14.116Q1594.737,1449.341,1594.15,1449.925Z"/><path class="cls-12" d="M1666.473,1448.889q-.6-.564-1.209-1.1l12.859-14.5q.834.739,1.65,1.509Z"/><path class="cls-11" d="M1596.533,1447.687l-12.806-14.544q.841-.739,1.7-1.45l12.363,14.922Q1597.155,1447.14,1596.533,1447.687Z"/><path class="cls-12" d="M1664.027,1446.722q-.633-.525-1.275-1.028l11.93-15.27q.876.684,1.736,1.4Z"/><path class="cls-11" d="M1599.057,1445.6l-11.869-15.317q.883-.685,1.784-1.341l11.4,15.669Q1599.71,1445.093,1599.057,1445.6Z"/><path class="cls-12" d="M1661.457,1444.715q-.661-.484-1.334-.945l10.946-15.991q.919.63,1.824,1.291Z"/><path class="cls-11" d="M1601.705,1443.676l-10.886-16.032q.932-.633,1.879-1.233l10.372,16.369Q1602.382,1443.217,1601.705,1443.676Z"/><path class="cls-12" d="M1658.771,1442.876q-.69-.439-1.39-.857l9.908-16.654q.96.572,1.9,1.175Z"/><path class="cls-11" d="M1604.46,1441.929l-9.845-16.692q.969-.572,1.95-1.109l9.318,16.991Q1605.168,1441.512,1604.46,1441.929Z"/><path class="cls-12" d="M1655.962,1441.206q-.711-.394-1.432-.764l8.835-17.247q1,.512,1.984,1.056Z"/><path class="cls-11" d="M1607.328,1440.355l-8.779-17.276q1.006-.511,2.029-.989l8.209,17.553C1608.3,1439.872,1607.812,1440.109,1607.328,1440.355Z"/><path class="cls-12" d="M1653.066,1439.721q-.738-.348-1.483-.673l7.731-17.769q1.026.446,2.042.927Z"/><path class="cls-11" d="M1610.284,1438.971l-7.666-17.8q1.032-.444,2.077-.855l7.1,18.031Q1611.036,1438.648,1610.284,1438.971Z"/><path class="cls-12" d="M1650.076,1438.42q-.755-.3-1.516-.575l6.582-18.226q1.057.381,2.1.8Z"/><path class="cls-11" d="M1613.318,1437.777l-6.518-18.25q1.056-.378,2.123-.721l5.945,18.445Q1614.09,1437.5,1613.318,1437.777Z"/><path class="cls-12" d="M1647.015,1437.314q-.779-.254-1.563-.483l5.434-18.6q1.071.313,2.138.661Z"/><path class="cls-11" d="M1616.428,1436.775l-5.358-18.623q1.08-.311,2.167-.587l4.767,18.784Q1617.212,1436.55,1616.428,1436.775Z"/><path class="cls-12" d="M1643.886,1436.4q-.8-.2-1.592-.384l4.25-18.907q1.09.245,2.175.524Z"/><path class="cls-11" d="M1619.592,1435.972l-4.171-18.925q1.1-.242,2.2-.448l3.571,19.046Q1620.389,1435.795,1619.592,1435.972Z"/><path class="cls-12" d="M1640.694,1435.683c-.535-.1-1.069-.2-1.606-.283l3.053-19.136q1.109.176,2.211.388Z"/><path class="cls-11" d="M1622.805,1435.368l-2.978-19.148q1.11-.172,2.224-.31l2.37,19.233C1623.88,1435.209,1623.343,1435.285,1622.805,1435.368Z"/><path class="cls-12" d="M1637.474,1435.168q-.813-.1-1.626-.182l1.847-19.291q1.115.108,2.228.249Z"/><path class="cls-11" d="M1626.049,1434.967l-1.773-19.3q1.117-.1,2.237-.17l1.164,19.344Q1626.863,1434.891,1626.049,1434.967Z"/><path class="cls-12" d="M1634.216,1434.855q-.814-.054-1.63-.08l.639-19.368q1.12.036,2.24.11Z"/><path class="cls-11" d="M1629.311,1434.769l-.56-19.37q1.042-.032,2.085-.031h.132v19.378h-.124C1630.338,1434.747,1629.825,1434.754,1629.311,1434.769Z"/><polygon class="cls-12" points="1637.29 1487.947 1629.298 1492.562 1601.604 1438.781 1604.562 1437.073 1637.29 1487.947"/><rect class="cls-6" x="1659.912" y="1659.638" width="261.612" height="9.689"/><g class="cls-7"><rect class="cls-8" x="1863.389" y="1663.534" width="116.272" height="60.035" transform="translate(3615.076 -227.974) rotate(90)"/></g><rect class="cls-9" x="1909.244" y="1620.475" width="42.299" height="146.151"/><rect class="cls-4" x="1909.244" y="1652.933" width="42.299" height="25.149"/><rect class="cls-6" x="1906.337" y="1620.475" width="5.814" height="146.151"/><rect class="cls-10" x="1945.831" y="1620.476" width="5.814" height="146.151"/><g class="cls-7"><rect class="cls-8" x="1282.028" y="1663.534" width="116.272" height="60.035" transform="translate(3033.715 353.387) rotate(90)"/></g><rect class="cls-9" x="1310.147" y="1620.475" width="42.299" height="146.151"/><rect class="cls-4" x="1310.147" y="1652.933" width="42.299" height="25.149"/><rect class="cls-6" x="1307.24" y="1620.475" width="5.814" height="146.151"/><rect class="cls-10" x="1346.734" y="1620.476" width="5.814" height="146.151"/><path class="cls-4" d="M1693.825,991.693H1485.5V875.421h178.209L1982.1,691.6c7.284-4.2,17.259-9.965,32.837-9.965h193.787V797.906H2030.518C1980.791,826.615,1693.825,991.693,1693.825,991.693Z"/><path class="cls-5" d="M1687.043,962.625H1485.5V904.489h186l325.134-187.717c6.105-3.524,10.516-6.07,18.3-6.07h193.787v58.136h-186C1981.81,792.462,1687.043,962.625,1687.043,962.625Z"/><path class="cls-5" d="M1687.043,962.625H1485.5V904.489h186l325.134-187.717c6.105-3.524,10.516-6.07,18.3-6.07h193.787v58.136h-186C1981.81,792.462,1687.043,962.625,1687.043,962.625Z"/><path class="cls-6" d="M1672.8,909.334H1485.5v-9.69h184.7l324.01-187.068c6.247-3.606,11.64-6.719,20.726-6.719h193.787v9.689H2014.94c-6.49,0-10.024,2.041-15.881,5.421Z"/><g class="cls-7"><rect class="cls-8" x="2125.302" y="709.752" width="116.272" height="60.035" transform="translate(2923.206 -1443.669) rotate(90)"/></g><rect class="cls-9" x="2171.157" y="666.693" width="42.299" height="146.151"/><rect class="cls-4" x="2171.157" y="699.151" width="42.299" height="25.149"/><rect class="cls-6" x="2168.25" y="666.693" width="5.814" height="146.151"/><rect class="cls-10" x="2207.744" y="666.694" width="5.814" height="146.151"/><g class="cls-7"><rect class="cls-8" x="1457.386" y="903.54" width="116.272" height="60.035" transform="translate(2449.079 -581.964) rotate(90)"/></g><rect class="cls-9" x="1485.504" y="860.48" width="42.299" height="146.151"/><rect class="cls-4" x="1485.504" y="892.939" width="42.299" height="25.149"/><rect class="cls-6" x="1482.597" y="860.481" width="5.814" height="146.151"/><rect class="cls-10" x="1522.091" y="860.482" width="5.814" height="146.151"/><g class="cls-7"><rect class="cls-8" x="1788.98" y="776.629" width="116.272" height="120.07" transform="translate(1648.13 -1181.317) rotate(60)"/></g><rect class="cls-9" x="1804.816" y="763.587" width="84.597" height="146.151" transform="translate(-170.865 1035.647) rotate(-30)"/><rect class="cls-4" x="1790.795" y="799.802" width="84.597" height="25.149" transform="translate(-160.6 1025.385) rotate(-30)"/><rect class="cls-6" x="1880.84" y="742.438" width="5.813" height="146.151" transform="translate(-155.383 1051.125) rotate(-30)"/><rect class="cls-10" x="1807.577" y="784.738" width="5.813" height="146.151" transform="translate(-186.347 1020.174) rotate(-30)"/><rect class="cls-6" x="1841.78" y="764.991" width="5.813" height="146.15" transform="translate(-171.892 1034.621) rotate(-30)"/><rect class="cls-10" x="1846.639" y="762.186" width="5.813" height="146.151" transform="translate(-169.838 1036.684) rotate(-30)"/><rect class="cls-4" x="2015.938" y="1470.638" width="555.903" height="116.272"/><rect class="cls-4" x="2507.245" y="1358.754" width="258.383" height="116.273" transform="translate(91.16 2991.675) rotate(-60)"/><rect class="cls-4" x="2578.301" y="1511.465" width="116.273" height="258.383" transform="matrix(0.866, -0.5, 0.5, 0.866, -467.113, 1538.028)"/><rect class="cls-5" x="2015.938" y="1499.706" width="555.903" height="58.136"/><rect class="cls-5" x="2507.245" y="1387.823" width="258.383" height="58.136" transform="translate(91.147 2991.653) rotate(-60)"/><rect class="cls-5" x="2607.369" y="1511.465" width="58.136" height="258.383" transform="translate(-467.113 1538.03) rotate(-30)"/><polygon class="cls-6" points="2557.856 1504.55 2015.938 1504.55 2015.938 1494.861 2552.262 1494.861 2671.664 1288.051 2680.055 1292.896 2557.856 1504.55"/><rect class="cls-6" x="2610.615" y="1541.657" width="9.689" height="241.601" transform="translate(-480.824 1530.463) rotate(-30)"/><g class="cls-7"><rect class="cls-8" x="2638.461" y="1714.842" width="116.272" height="60.035" transform="translate(5904.349 1907.653) rotate(150)"/></g><rect class="cls-9" x="2627.957" y="1731.39" width="146.151" height="42.299" transform="translate(-514.4 1585.314) rotate(-30)"/><rect class="cls-4" x="2712.744" y="1717.369" width="25.149" height="42.299" transform="translate(-504.136 1595.583) rotate(-30)"/><rect class="cls-6" x="2617.382" y="1731.317" width="146.15" height="5.813" transform="translate(-506.67 1577.798) rotate(-30.004)"/><rect class="cls-10" x="2637.128" y="1765.52" width="146.15" height="5.813" transform="translate(-521.128 1592.255) rotate(-30.004)"/><g class="cls-7"><rect class="cls-8" x="2640.098" y="1279.839" width="116.272" height="60.035" transform="translate(1016.424 -1173.63) rotate(30)"/></g><rect class="cls-9" x="2679.883" y="1231.932" width="42.299" height="146.151" transform="translate(220.345 2991.665) rotate(-60)"/><rect class="cls-4" x="2655.597" y="1278.412" width="42.299" height="25.149" transform="translate(220.349 2963.627) rotate(-60)"/><rect class="cls-6" x="2708.701" y="1213.617" width="5.813" height="146.15" transform="translate(241.497 2991.67) rotate(-60)"/><rect class="cls-10" x="2688.955" y="1247.82" width="5.813" height="146.15" transform="translate(202.004 2991.672) rotate(-60)"/><g class="cls-7"><rect class="cls-8" x="1966.67" y="1498.757" width="116.272" height="60.035" transform="translate(3553.581 -496.031) rotate(90)"/></g><rect class="cls-9" x="1994.789" y="1455.698" width="42.299" height="146.151"/><rect class="cls-4" x="1994.789" y="1488.156" width="42.299" height="25.149"/><rect class="cls-6" x="1991.881" y="1455.698" width="5.814" height="146.151"/><rect class="cls-10" x="2031.376" y="1455.699" width="5.814" height="146.151"/><g class="cls-7"><rect class="cls-8" x="2244.807" y="1480.808" width="116.272" height="95.935" transform="translate(3831.718 -774.167) rotate(90)"/></g><rect class="cls-9" x="2270.485" y="1460.756" width="64.916" height="136.036"/><rect class="cls-4" x="2270.485" y="1490.968" width="64.916" height="23.408"/><rect class="cls-6" x="2267.577" y="1460.756" width="5.814" height="136.036"/><rect class="cls-10" x="2332.494" y="1460.757" width="5.814" height="136.036"/><rect class="cls-13" x="2288.409" y="1431.881" width="29.068" height="193.787"/><rect class="cls-14" x="2311.793" y="1440.652" width="5.814" height="182.082"/><polygon class="cls-13" points="2399.836 1543.308 2399.789 1514.24 2399.836 1543.308 2206.049 1543.308 2206.049 1514.24 2399.836 1514.24 2399.836 1543.308"/><rect class="cls-14" x="2214.197" y="1537.507" width="182.082" height="5.814"/><path class="cls-13" d="M2302.943,1640.2a111.428,111.428,0,1,1,111.427-111.428A111.554,111.554,0,0,1,2302.943,1640.2Zm0-193.787a82.36,82.36,0,1,0,82.359,82.359A82.453,82.453,0,0,0,2302.943,1446.415Z"/><circle class="cls-13" cx="2302.942" cy="1528.774" r="40.848" transform="translate(9.242 3071.38) rotate(-67.5)"/><path class="cls-15" d="M2208.956,1528.774h-5.814a99.914,99.914,0,0,1,99.8-99.8v5.814A94.093,94.093,0,0,0,2208.956,1528.774Z"/><path class="cls-15" d="M2302.943,1628.575a99.084,99.084,0,0,1-71.031-29.7l4.136-4.084a93.321,93.321,0,0,0,66.9,27.966Z"/><path class="cls-14" d="M2302.943,1640.2a111.132,111.132,0,0,1-78.828-32.6l4.111-4.11a105.665,105.665,0,0,0,149.433-149.433l4.111-4.11a111.426,111.426,0,0,1-78.827,190.252Z"/><path class="cls-14" d="M2240.567,1591.15A88.213,88.213,0,0,1,2365.319,1466.4l-4.11,4.11a82.4,82.4,0,0,0-116.532,116.531Z"/><path class="cls-14" d="M2302.943,1569.565a40.525,40.525,0,0,1-28.844-11.947l4.11-4.112a34.977,34.977,0,1,0,49.466-49.465l4.111-4.11a40.791,40.791,0,0,1-28.843,69.634Z"/><circle class="cls-5" cx="2302.942" cy="1528.774" r="16.956" transform="translate(285.958 3418.871) rotate(-76.718)"/><path class="cls-4" d="M589.862,1546.558H533.13a251.925,251.925,0,0,1-251.922-251.923V1234.6H397.48v60.034c0,74.8,60.852,135.652,135.65,135.652h56.732Z"/><path class="cls-5" d="M589.862,1517.49H533.13a222.854,222.854,0,0,1-222.854-222.855V1234.6h58.136v60.034c0,90.827,73.892,164.72,164.718,164.72h56.732Z"/><path class="cls-6" d="M372.123,1455.643a226.21,226.21,0,0,1-66.692-161.008V1234.6h9.69v60.036a216.586,216.586,0,0,0,63.853,154.157Z"/><g class="cls-7"><rect class="cls-8" x="281.208" y="1234.599" width="116.272" height="60.035"/></g><path class="cls-4" d="M397.48,1192.276H281.208v-60.035A251.923,251.923,0,0,1,533.13,880.318h56.732V996.59H533.13c-74.8,0-135.65,60.853-135.65,135.651Z"/><path class="cls-5" d="M368.412,1192.276H310.276v-60.035A222.853,222.853,0,0,1,533.13,909.386h56.732v58.136H533.131c-90.826,0-164.719,73.892-164.719,164.719Z"/><path class="cls-6" d="M315.121,1192.276h-9.69v-60.035a227.7,227.7,0,0,1,227.7-227.7h56.732v9.689H533.13a218.009,218.009,0,0,0-218.009,218.011Z"/><g class="cls-7"><rect class="cls-8" x="504.513" y="908.436" width="116.272" height="60.035" transform="translate(1501.103 375.805) rotate(90)"/></g><rect class="cls-9" x="550.368" y="865.377" width="42.299" height="146.151"/><rect class="cls-4" x="550.368" y="897.835" width="42.299" height="25.149"/><rect class="cls-6" x="547.461" y="865.377" width="5.814" height="146.151"/><rect class="cls-10" x="586.955" y="865.379" width="5.814" height="146.151"/><g class="cls-7"><rect class="cls-8" x="281.208" y="1132.241" width="116.272" height="60.035"/></g><rect class="cls-9" x="266.268" y="1149.977" width="146.151" height="42.299"/><rect class="cls-4" x="298.726" y="1149.977" width="25.149" height="42.299"/><rect class="cls-6" x="266.268" y="1147.07" width="146.151" height="5.814"/><rect class="cls-10" x="266.269" y="1186.564" width="146.151" height="5.814"/><g class="cls-7"><rect class="cls-8" x="504.513" y="1458.404" width="116.272" height="60.035" transform="translate(2051.071 925.773) rotate(90)"/></g><rect class="cls-9" x="550.368" y="1415.345" width="42.299" height="146.151"/><rect class="cls-4" x="550.368" y="1447.803" width="42.299" height="25.149"/><rect class="cls-6" x="547.461" y="1415.346" width="5.814" height="146.15"/><rect class="cls-10" x="586.955" y="1415.347" width="5.814" height="146.151"/><rect class="cls-9" x="266.268" y="1234.599" width="146.151" height="42.299"/><rect class="cls-4" x="298.726" y="1234.599" width="25.149" height="42.299"/><rect class="cls-10" x="266.269" y="1273.991" width="146.151" height="5.814"/><rect class="cls-6" x="266.269" y="1234.497" width="146.151" height="5.814"/><rect class="cls-9" x="266.269" y="1192.276" width="146.15" height="42.299"/><rect class="cls-4" x="298.726" y="1192.276" width="25.149" height="42.299"/><rect class="cls-10" x="266.27" y="1228.761" width="146.15" height="5.814"/><rect class="cls-6" x="266.27" y="1192.276" width="146.15" height="5.814"/><path class="cls-5" d="M181.951,1228.761H266.27V1198.09H181.951C177.3,1209.125,177.3,1217.726,181.951,1228.761Z"/><path class="cls-4" d="M266.27,1228.761v-15.336H178.461a38.947,38.947,0,0,0,3.49,15.336Z"/><rect class="cls-13" x="212.751" y="1220.681" width="19.534" height="87.872" transform="translate(222.985 -19.427) rotate(10)"/><rect class="cls-13" x="212.751" y="1119.983" width="19.534" height="87.872" transform="translate(-198.732 56.322) rotate(-10)"/><path class="cls-12" d="M190.594,1118.954V1307.9a16.957,16.957,0,0,0,16.956,16.956h0a16.957,16.957,0,0,0,16.957-16.956V1118.954A16.957,16.957,0,0,0,207.55,1102h0A16.957,16.957,0,0,0,190.594,1118.954Z"/><path class="cls-13" d="M224.507,1307.9V1118.954A16.956,16.956,0,0,0,207.55,1102v222.855A16.957,16.957,0,0,0,224.507,1307.9Z"/><rect class="cls-13" x="222.18" y="1192.276" width="23.409" height="42.214"/><rect class="cls-14" x="219.662" y="1151.702" width="5.814" height="123.447"/><path class="cls-4" d="M1146.377,797.906H952.59V681.633h193.787c74.8,0,135.651-60.852,135.651-135.65A251.925,251.925,0,0,1,1533.951,294.06h193.788V410.332H1533.952c-74.8,0-135.651,60.853-135.651,135.651a251.925,251.925,0,0,1-251.924,251.923Z"/><path class="cls-5" d="M1146.377,768.838H952.59V710.7h193.787c90.827,0,164.719-73.893,164.719-164.719a222.854,222.854,0,0,1,222.855-222.855h193.788v58.136H1533.952c-90.827,0-164.719,73.892-164.719,164.719a222.856,222.856,0,0,1-222.856,222.855Z"/><path class="cls-6" d="M1146.377,715.546H952.59v-9.689h193.787c88.156,0,159.875-71.719,159.875-159.874a227.7,227.7,0,0,1,227.7-227.7h193.788v9.69H1533.951a218.009,218.009,0,0,0-218.01,218.01C1315.941,639.48,1239.875,715.546,1146.377,715.546Z"/><g class="cls-7"><rect class="cls-8" x="1028.206" y="679.735" width="116.272" height="120.07" transform="translate(1826.113 -346.572) rotate(90)"/></g><rect class="cls-9" x="1044.044" y="666.694" width="84.597" height="146.151"/><rect class="cls-4" x="1044.044" y="699.152" width="84.597" height="25.149"/><rect class="cls-6" x="1041.137" y="666.694" width="5.814" height="146.151"/><rect class="cls-10" x="1125.735" y="666.695" width="5.814" height="146.151"/><rect class="cls-6" x="1086.24" y="666.695" width="5.814" height="146.151"/><rect class="cls-10" x="1080.631" y="666.695" width="5.814" height="146.151"/><g class="cls-7"><rect class="cls-8" x="1535.851" y="292.18" width="116.272" height="120.07" transform="translate(1946.202 -1241.772) rotate(90)"/></g><rect class="cls-9" x="1551.688" y="279.138" width="84.598" height="146.151"/><rect class="cls-4" x="1551.688" y="311.596" width="84.598" height="25.149"/><rect class="cls-6" x="1548.781" y="279.138" width="5.814" height="146.151"/><rect class="cls-10" x="1633.378" y="279.139" width="5.814" height="146.151"/><rect class="cls-6" x="1593.885" y="279.139" width="5.814" height="146.151"/><rect class="cls-10" x="1588.275" y="279.139" width="5.814" height="146.151"/><rect class="cls-4" x="952.589" y="487.847" width="775.149" height="116.272"/><rect class="cls-5" x="952.589" y="516.915" width="775.149" height="58.136"/><rect class="cls-6" x="952.589" y="512.071" width="775.149" height="9.689"/><g class="cls-7"><rect class="cls-8" x="922.771" y="515.967" width="116.272" height="60.035" transform="translate(1526.891 -434.922) rotate(90)"/></g><rect class="cls-9" x="950.889" y="472.908" width="42.299" height="146.151"/><rect class="cls-4" x="950.889" y="505.366" width="42.299" height="25.149"/><rect class="cls-6" x="947.982" y="472.908" width="5.814" height="146.151"/><rect class="cls-10" x="987.476" y="472.909" width="5.814" height="146.151"/><g class="cls-7"><rect class="cls-8" x="1639.584" y="515.966" width="116.272" height="60.035" transform="translate(2243.704 -1151.736) rotate(90)"/></g><rect class="cls-9" x="1685.439" y="472.907" width="42.299" height="146.151"/><rect class="cls-4" x="1685.439" y="505.365" width="42.299" height="25.149"/><rect class="cls-6" x="1682.532" y="472.907" width="5.814" height="146.151"/><rect class="cls-10" x="1722.025" y="472.909" width="5.814" height="146.151"/><g class="cls-7"><rect class="cls-8" x="1111.922" y="485.949" width="116.272" height="120.07" transform="translate(1716.041 -624.074) rotate(90)"/></g><rect class="cls-9" x="1127.759" y="472.907" width="84.598" height="146.151"/><rect class="cls-4" x="1127.759" y="505.365" width="84.598" height="25.149"/><rect class="cls-6" x="1124.852" y="472.907" width="5.814" height="146.151"/><rect class="cls-10" x="1209.45" y="472.908" width="5.814" height="146.151"/><rect class="cls-6" x="1169.956" y="472.908" width="5.814" height="146.151"/><rect class="cls-10" x="1164.346" y="472.908" width="5.814" height="146.151"/><g class="cls-7"><rect class="cls-8" x="1490.158" y="498.018" width="116.272" height="95.935" transform="translate(2094.279 -1002.308) rotate(90)"/></g><rect class="cls-9" x="1515.836" y="477.966" width="64.916" height="136.036"/><rect class="cls-4" x="1515.836" y="508.178" width="64.916" height="23.408"/><rect class="cls-6" x="1512.929" y="477.966" width="5.814" height="136.035"/><rect class="cls-10" x="1577.844" y="477.967" width="5.814" height="136.036"/><rect class="cls-13" x="1533.76" y="449.091" width="29.068" height="193.787"/><rect class="cls-14" x="1557.144" y="457.862" width="5.814" height="182.082"/><polygon class="cls-13" points="1645.187 560.518 1645.14 531.45 1645.187 560.518 1451.4 560.518 1451.4 531.45 1645.187 531.45 1645.187 560.518"/><rect class="cls-14" x="1459.548" y="554.716" width="182.082" height="5.814"/><path class="cls-13" d="M1548.294,657.412a111.428,111.428,0,1,1,111.427-111.428A111.554,111.554,0,0,1,1548.294,657.412Zm0-193.787a82.36,82.36,0,1,0,82.359,82.359A82.453,82.453,0,0,0,1548.294,463.625Z"/><circle class="cls-13" cx="1548.293" cy="545.984" r="40.848" transform="translate(67.416 1254.724) rotate(-45)"/><path class="cls-12" d="M1454.307,545.984h-5.814a99.914,99.914,0,0,1,99.8-99.8V452A94.094,94.094,0,0,0,1454.307,545.984Z"/><path class="cls-12" d="M1548.294,645.784a99.091,99.091,0,0,1-71.032-29.695l4.137-4.084a93.321,93.321,0,0,0,66.9,27.966Z"/><path class="cls-14" d="M1548.294,657.41a111.132,111.132,0,0,1-78.828-32.6l4.111-4.111a105.665,105.665,0,0,0,149.434-149.432l4.11-4.111a111.426,111.426,0,0,1-78.827,190.253Z"/><path class="cls-14" d="M1485.917,608.36A88.213,88.213,0,0,1,1610.67,483.609l-4.111,4.11a82.4,82.4,0,0,0-116.531,116.53Z"/><path class="cls-14" d="M1548.294,586.774a40.524,40.524,0,0,1-28.844-11.946l4.11-4.112a34.977,34.977,0,1,0,49.466-49.465l4.111-4.11a40.79,40.79,0,0,1-28.843,69.633Z"/><circle class="cls-5" cx="1548.293" cy="545.984" r="16.956" transform="translate(67.416 1254.724) rotate(-45)"/><g class="cls-7"><path class="cls-8" d="M983.821,798a111.506,111.506,0,0,0,0-116.272H917.74V798Z"/></g><circle class="cls-2" cx="878.101" cy="739.863" r="96.893"/><path class="cls-4" d="M878.1,846.446A106.583,106.583,0,1,1,984.684,739.863,106.7,106.7,0,0,1,878.1,846.446Zm0-193.787a87.2,87.2,0,1,0,87.2,87.2A87.3,87.3,0,0,0,878.1,652.659Z"/><path class="cls-10" d="M878.1,846.012a105.868,105.868,0,0,1-75.093-31.055l4.11-4.111A100.385,100.385,0,0,0,949.085,668.88l4.11-4.111A106.149,106.149,0,0,1,878.1,846.012Z"/><path class="cls-10" d="M812.07,805.9A93.383,93.383,0,0,1,944.133,673.831l-4.11,4.111A87.57,87.57,0,0,0,816.18,801.784Z"/><path class="cls-11" d="M827.667,790.3q-.793-.8-1.558-1.608l14.123-13.27q.558.6,1.139,1.175Z"/><path class="cls-12" d="M929.946,788.843l-14.08-13.315q.564-.6,1.1-1.2l14.491,12.866Q930.719,788.027,929.946,788.843Z"/><path class="cls-11" d="M824.6,787.036q-.75-.849-1.467-1.716l14.935-12.347q.518.624,1.056,1.234Z"/><path class="cls-12" d="M932.92,785.5l-14.88-12.415q.525-.63,1.027-1.272l15.257,11.949Q933.637,784.637,932.92,785.5Z"/><path class="cls-11" d="M821.741,783.583q-.7-.894-1.36-1.807l15.679-11.389q.476.654.974,1.3Z"/><path class="cls-12" d="M935.678,781.972,920.05,770.513q.48-.655.937-1.322l15.991,10.946Q936.345,781.063,935.678,781.972Z"/><path class="cls-11" d="M819.1,779.956q-.639-.941-1.246-1.895l16.37-10.372q.431.68.886,1.348Z"/><path class="cls-12" d="M938.21,778.278l-16.317-10.454q.439-.685.852-1.38l16.648,9.921Q938.819,777.326,938.21,778.278Z"/><path class="cls-11" d="M816.686,776.157q-.577-.975-1.119-1.962l16.99-9.319q.39.71.8,1.409Z"/><path class="cls-12" d="M940.509,774.423l-16.95-9.39q.4-.715.767-1.44l17.239,8.854Q941.054,773.442,940.509,774.423Z"/><path class="cls-11" d="M814.522,772.223q-.51-1-.987-2.018l17.535-8.249q.346.736.717,1.465Z"/><path class="cls-12" d="M942.549,770.452l-17.494-8.336q.346-.727.667-1.466l17.764,7.744Q943.035,769.428,942.549,770.452Z"/><path class="cls-11" d="M812.61,768.15q-.446-1.032-.857-2.076l18.027-7.109q.3.758.623,1.507Z"/><path class="cls-12" d="M944.35,766.324l-18-7.177q.3-.758.579-1.521l18.221,6.6Q944.767,765.279,944.35,766.324Z"/><path class="cls-11" d="M810.963,763.978q-.379-1.057-.725-2.125l18.438-5.966q.25.776.526,1.544Z"/><path class="cls-12" d="M945.882,762.1l-18.423-6.013q.257-.783.488-1.573l18.594,5.459Q946.229,761.042,945.882,762.1Z"/><path class="cls-11" d="M809.584,759.71q-.315-1.085-.591-2.177l18.78-4.774q.2.784.425,1.563Z"/><path class="cls-12" d="M947.14,757.8l-18.762-4.85q.2-.793.385-1.59l18.9,4.264Q947.421,756.719,947.14,757.8Z"/><path class="cls-11" d="M808.473,755.358q-.243-1.093-.45-2.194l19.04-3.606q.152.8.329,1.6Z"/><path class="cls-12" d="M948.124,753.444,929.1,749.756q.154-.8.283-1.6l19.134,3.069Q948.338,752.339,948.124,753.444Z"/><path class="cls-11" d="M807.641,750.953q-.175-1.113-.314-2.229l19.231-2.386q.1.806.227,1.609Z"/><path class="cls-12" d="M948.836,749.01l-19.219-2.469q.1-.813.183-1.628l19.288,1.875Q948.98,747.9,948.836,749.01Z"/><path class="cls-11" d="M807.085,746.5q-.1-1.113-.173-2.229l19.343-1.193c.033.546.075,1.09.126,1.635Z"/><path class="cls-12" d="M949.27,744.558l-19.337-1.278q.054-.811.081-1.622l19.367.652Q949.344,743.435,949.27,744.558Z"/><path class="cls-11" d="M806.811,742.03q-.033-1.083-.033-2.167l19.378-.064c0,.591.008,1.118.024,1.645Z"/><path class="cls-12" d="M949.423,740.047H930.044v-.183q0-.744-.021-1.488l19.372-.533q.029,1.011.028,2.021Z"/><path class="cls-11" d="M826.184,738.174l-19.37-.624q.038-1.118.107-2.234l19.341,1.222Q826.209,737.355,826.184,738.174Z"/><path class="cls-12" d="M929.952,736.756c-.033-.546-.073-1.091-.123-1.635l19.3-1.76q.1,1.115.167,2.23Z"/><path class="cls-11" d="M826.39,734.918l-19.29-1.847q.106-1.111.247-2.222l19.224,2.442Q826.469,734.1,826.39,734.918Z"/><path class="cls-12" d="M929.655,733.492q-.1-.813-.225-1.623l19.154-2.951q.17,1.107.306,2.216Z"/><path class="cls-11" d="M826.8,731.672l-19.139-3.04q.175-1.106.386-2.2l19.035,3.633Q826.93,730.866,826.8,731.672Z"/><path class="cls-12" d="M929.154,730.259q-.149-.8-.323-1.591l18.925-4.168q.242,1.1.449,2.208Z"/><path class="cls-11" d="M827.415,728.464,808.5,724.23q.247-1.1.529-2.192l18.761,4.853Q827.591,727.674,827.415,728.464Z"/><path class="cls-12" d="M928.455,727.071q-.2-.792-.426-1.579l18.631-5.331q.308,1.077.583,2.163Z"/><path class="cls-11" d="M828.229,725.3l-18.611-5.4q.312-1.074.66-2.143l18.43,5.988Q828.456,724.515,828.229,725.3Z"/><path class="cls-12" d="M927.558,723.939q-.252-.783-.527-1.558l18.258-6.493q.375,1.053.716,2.115Z"/><path class="cls-11" d="M829.237,722.2l-18.232-6.57q.381-1.055.795-2.1l18.012,7.148Q829.512,721.434,829.237,722.2Z"/><path class="cls-12" d="M926.464,720.868c-.2-.509-.408-1.015-.625-1.519l17.806-7.649q.443,1.029.85,2.069Z"/><path class="cls-11" d="M830.439,719.168l-17.78-7.709q.447-1.032.93-2.051l17.518,8.284Q830.761,718.426,830.439,719.168Z"/><path class="cls-12" d="M925.173,717.861q-.346-.741-.717-1.474l17.289-8.752q.507,1,.981,2.012Z"/><path class="cls-11" d="M831.827,716.226,814.575,707.4q.505-.99,1.044-1.966l16.979,9.341Q832.2,715.5,831.827,716.226Z"/><path class="cls-12" d="M923.7,714.952q-.391-.716-.807-1.421l16.691-9.846q.572.971,1.11,1.953Z"/><path class="cls-11" d="M833.4,713.367l-16.666-9.886q.573-.967,1.182-1.921l16.33,10.433Q833.815,712.676,833.4,713.367Z"/><path class="cls-12" d="M922.042,712.136q-.437-.693-.9-1.373L937.189,699.9q.628.93,1.227,1.874Z"/><path class="cls-11" d="M835.155,710.62,819.147,699.7q.63-.926,1.294-1.834l15.651,11.426Q835.612,709.951,835.155,710.62Z"/><path class="cls-12" d="M920.2,709.423q-.477-.656-.975-1.3l15.317-11.87q.694.894,1.353,1.806Z"/><path class="cls-11" d="M837.073,708l-15.282-11.917q.687-.88,1.4-1.744l14.9,12.391Q837.573,707.353,837.073,708Z"/><path class="cls-12" d="M918.194,706.83q-.514-.624-1.053-1.236l14.551-12.8q.747.851,1.463,1.719Z"/><path class="cls-11" d="M839.161,705.48,824.65,692.636q.74-.834,1.509-1.652l14.106,13.287Q839.7,704.87,839.161,705.48Z"/><path class="cls-12" d="M916.041,704.384q-.561-.6-1.142-1.184l13.737-13.667q.789.792,1.549,1.6Z"/><path class="cls-11" d="M841.407,703.1,827.718,689.38q.791-.789,1.6-1.548l13.275,14.117C842.194,702.324,841.8,702.707,841.407,703.1Z"/><path class="cls-12" d="M913.729,702.061q-.6-.564-1.209-1.105l12.859-14.5q.836.741,1.651,1.51Z"/><path class="cls-11" d="M843.79,700.859l-12.806-14.544q.84-.74,1.7-1.45l12.364,14.922Q844.412,700.312,843.79,700.859Z"/><path class="cls-12" d="M911.283,699.894c-.422-.351-.845-.693-1.274-1.028l11.93-15.27q.876.684,1.736,1.4Z"/><path class="cls-11" d="M846.314,698.771l-11.87-15.317q.885-.687,1.785-1.341l11.4,15.669Q846.967,698.265,846.314,698.771Z"/><path class="cls-12" d="M908.714,697.887q-.662-.485-1.335-.945l10.946-15.991q.919.63,1.825,1.291Z"/><path class="cls-11" d="M848.961,696.848l-10.885-16.032q.931-.633,1.878-1.233l10.373,16.369C849.868,696.243,849.414,696.541,848.961,696.848Z"/><path class="cls-12" d="M906.027,696.048q-.69-.439-1.389-.857l9.907-16.654q.962.57,1.906,1.174Z"/><path class="cls-11" d="M851.717,695.1l-9.845-16.691q.968-.571,1.949-1.109l9.319,16.99Q852.425,694.683,851.717,695.1Z"/><path class="cls-12" d="M903.219,694.378q-.711-.394-1.433-.764l8.836-17.247q1,.512,1.983,1.056Z"/><path class="cls-11" d="M854.585,693.527l-8.779-17.276q1-.513,2.028-.99l8.21,17.554Q855.309,693.159,854.585,693.527Z"/><path class="cls-12" d="M900.322,692.893q-.738-.35-1.482-.673l7.73-17.77q1.026.447,2.043.928Z"/><path class="cls-11" d="M857.541,692.142l-7.667-17.8q1.032-.446,2.077-.855l7.1,18.031Q858.293,691.82,857.541,692.142Z"/><path class="cls-12" d="M897.332,691.592q-.753-.3-1.516-.576L902.4,672.79q1.057.382,2.105.8Z"/><path class="cls-11" d="M860.574,690.949l-6.517-18.25q1.056-.378,2.123-.721l5.944,18.445Q861.347,690.674,860.574,690.949Z"/><path class="cls-12" d="M894.272,690.486q-.779-.255-1.563-.483l5.433-18.6q1.072.314,2.139.661Z"/><path class="cls-11" d="M863.685,689.947l-5.358-18.623q1.08-.31,2.167-.587l4.767,18.784Q864.469,689.721,863.685,689.947Z"/><path class="cls-12" d="M891.142,689.572q-.8-.206-1.591-.385l4.25-18.906q1.09.245,2.174.524Z"/><path class="cls-11" d="M866.849,689.143l-4.171-18.924q1.1-.242,2.2-.449l3.571,19.047Q867.645,688.967,866.849,689.143Z"/><path class="cls-12" d="M887.951,688.854q-.8-.153-1.606-.282l3.052-19.137q1.108.177,2.212.389Z"/><path class="cls-11" d="M870.062,688.54l-2.979-19.149q1.11-.173,2.225-.309l2.369,19.233C871.137,688.381,870.6,688.456,870.062,688.54Z"/><path class="cls-12" d="M884.73,688.34c-.542-.069-1.083-.131-1.625-.182l1.847-19.291q1.115.108,2.227.249Z"/><path class="cls-11" d="M873.306,688.139l-1.774-19.3q1.117-.1,2.237-.17l1.164,19.344Q874.12,688.063,873.306,688.139Z"/><path class="cls-12" d="M881.473,688.026q-.816-.052-1.631-.079l.64-19.368q1.121.036,2.24.109Z"/><path class="cls-11" d="M876.567,687.941l-.56-19.37q1.044-.032,2.086-.032h.131v19.379H878.1C877.6,687.919,877.081,687.926,876.567,687.941Z"/><polygon class="cls-12" points="884.547 741.119 876.554 745.734 848.861 691.953 851.818 690.245 884.547 741.119"/><polygon class="cls-4" points="1586.661 1213.293 1237.845 1213.293 1237.845 864.476 1354.117 864.476 1354.117 1097.021 1586.661 1097.021 1586.661 1213.293"/><polygon class="cls-4" points="1354.117 1445.838 1237.845 1445.838 1237.845 1213.293 1005.3 1213.293 1005.3 1097.021 1354.117 1097.021 1354.117 1445.838"/><polygon class="cls-5" points="1586.661 1184.225 1266.913 1184.225 1266.913 864.476 1325.049 864.476 1325.049 1126.089 1586.661 1126.089 1586.661 1184.225"/><polygon class="cls-5" points="1325.049 1445.838 1266.913 1445.838 1266.913 1184.225 1005.3 1184.225 1005.3 1126.089 1325.049 1126.089 1325.049 1445.838"/><rect class="cls-6" x="1262.068" y="1184.225" width="9.689" height="261.613"/><rect class="cls-6" x="1325.049" y="1121.245" width="261.613" height="9.689"/><polygon class="cls-6" points="1271.757 1130.934 1005.3 1130.934 1005.3 1121.245 1262.068 1121.245 1262.068 864.476 1271.757 864.476 1271.757 1130.934"/><g class="cls-7"><rect class="cls-8" x="1237.845" y="1415.82" width="116.272" height="60.035" transform="translate(2591.961 2891.675) rotate(180)"/></g><rect class="cls-9" x="1222.906" y="1433.556" width="146.151" height="42.299"/><rect class="cls-4" x="1311.451" y="1433.556" width="25.149" height="42.299"/><rect class="cls-6" x="1222.906" y="1430.65" width="146.151" height="5.814"/><rect class="cls-10" x="1222.905" y="1470.144" width="146.151" height="5.814"/><g class="cls-7"><rect class="cls-8" x="1237.845" y="834.459" width="116.272" height="60.035"/></g><rect class="cls-9" x="1222.904" y="837.729" width="146.151" height="42.299"/><rect class="cls-4" x="1255.362" y="837.729" width="25.149" height="42.299"/><rect class="cls-6" x="1222.904" y="834.822" width="146.151" height="5.814"/><rect class="cls-10" x="1222.905" y="874.316" width="146.151" height="5.814"/><g class="cls-7"><rect class="cls-8" x="1528.525" y="1125.14" width="116.272" height="60.035" transform="translate(2741.818 -431.504) rotate(90)"/></g><rect class="cls-9" x="1574.38" y="1082.08" width="42.299" height="146.151"/><rect class="cls-4" x="1574.38" y="1114.538" width="42.299" height="25.149"/><rect class="cls-6" x="1571.473" y="1082.08" width="5.814" height="146.151"/><rect class="cls-10" x="1610.967" y="1082.082" width="5.814" height="146.15"/><g class="cls-7"><rect class="cls-8" x="947.164" y="1125.14" width="116.272" height="60.035" transform="translate(2160.457 149.857) rotate(90)"/></g><g class="cls-7"><rect class="cls-8" x="989.504" y="1125.14" width="116.272" height="60.035" transform="translate(2202.798 107.517) rotate(90)"/></g><rect class="cls-9" x="975.283" y="1082.08" width="42.299" height="146.151"/><rect class="cls-4" x="975.283" y="1114.538" width="42.299" height="25.149"/><rect class="cls-6" x="972.376" y="1082.08" width="5.814" height="146.151"/><rect class="cls-10" x="1011.869" y="1082.082" width="5.814" height="146.15"/><rect class="cls-9" x="1017.581" y="1082.079" width="42.299" height="146.15"/><rect class="cls-4" x="1017.581" y="1114.536" width="42.299" height="25.149"/><rect class="cls-10" x="1054.067" y="1082.08" width="5.814" height="146.15"/><rect class="cls-6" x="1017.581" y="1082.08" width="5.814" height="146.15"/><path class="cls-5" d="M1054.067,997.761v84.319H1023.4V997.761C1034.431,993.109,1043.031,993.109,1054.067,997.761Z"/><path class="cls-4" d="M1054.067,1082.08h-15.336V994.272a38.952,38.952,0,0,1,15.336,3.489Z"/><rect class="cls-13" x="1080.155" y="994.392" width="19.534" height="87.872" transform="translate(1923.219 -215.335) rotate(80)"/><rect class="cls-13" x="979.457" y="994.392" width="19.534" height="87.872" transform="translate(2183.554 244.436) rotate(100)"/><rect class="cls-12" x="927.303" y="1006.404" width="222.855" height="33.913" rx="16.956"/><path class="cls-13" d="M1133.2,1040.317H944.26a16.957,16.957,0,0,1-16.957-16.956h222.855A16.956,16.956,0,0,1,1133.2,1040.317Z"/><rect class="cls-13" x="1026.983" y="1028.588" width="23.41" height="42.214" transform="translate(2088.383 11.007) rotate(90)"/><rect class="cls-14" x="977.007" y="1035.472" width="123.447" height="5.814"/><path class="cls-4" d="M1366.679,966.865h-141.4a21.149,21.149,0,0,0-21.149,21.149h0a21.15,21.15,0,0,0,21.149,21.15h141.4a21.149,21.149,0,0,0,21.149-21.149h0A21.149,21.149,0,0,0,1366.679,966.865Z"/><rect class="cls-6" x="1237.845" y="966.865" width="29.068" height="42.299"/><rect class="cls-9" x="1325.048" y="966.865" width="29.068" height="42.299"/><rect class="cls-5" x="1255.362" y="966.865" width="25.149" height="42.299"/><rect class="cls-10" x="1237.845" y="1007.711" width="116.272" height="2.907"/><rect class="cls-6" x="1237.845" y="965.412" width="116.272" height="2.907"/><path class="cls-9" d="M1231.491,988.014a6.211,6.211,0,1,1-6.211-6.211A6.211,6.211,0,0,1,1231.491,988.014Z"/><path class="cls-9" d="M1372.89,988.014a6.211,6.211,0,1,1-6.211-6.211A6.211,6.211,0,0,1,1372.89,988.014Z"/><path class="cls-4" d="M1138.322,1450.516H931.675a239.063,239.063,0,0,1-239.063-239.062V1004.806H808.884v206.648a122.93,122.93,0,0,0,122.791,122.79h206.647Z"/><path class="cls-5" d="M1138.322,1421.448H931.675A209.995,209.995,0,0,1,721.68,1211.454V1004.806h58.136v206.648c0,83.734,68.124,151.858,151.859,151.858h206.647Z"/><path class="cls-6" d="M779.76,1363.368a213.432,213.432,0,0,1-62.925-151.915V1004.806h9.69v206.647a203.808,203.808,0,0,0,60.087,145.064Z"/><path class="cls-6" d="M1138.322,1368.157H931.675a155.569,155.569,0,0,1-111.421-46.616l6.892-6.811a145.946,145.946,0,0,0,104.529,43.737h206.647Z"/><g class="cls-7"><rect class="cls-8" x="692.612" y="980.387" width="116.272" height="60.035"/></g><rect class="cls-9" x="677.672" y="983.657" width="146.151" height="42.299"/><rect class="cls-4" x="710.13" y="983.657" width="25.149" height="42.299"/><rect class="cls-6" x="677.672" y="980.75" width="146.151" height="5.814"/><rect class="cls-10" x="677.673" y="1020.244" width="146.151" height="5.814"/><g class="cls-7"><rect class="cls-8" x="1071.318" y="1362.364" width="116.272" height="60.035" transform="translate(2521.834 262.926) rotate(90)"/></g><rect class="cls-9" x="1117.173" y="1319.305" width="42.299" height="146.151"/><rect class="cls-4" x="1117.173" y="1351.763" width="42.299" height="25.149"/><rect class="cls-6" x="1114.266" y="1319.305" width="5.814" height="146.151"/><rect class="cls-10" x="1153.76" y="1319.306" width="5.814" height="146.151"/><path class="cls-4" d="M821.393,1084.356h-141.4a21.149,21.149,0,0,0-21.149,21.149h0a21.149,21.149,0,0,0,21.149,21.149h141.4a21.149,21.149,0,0,0,21.149-21.149h0A21.149,21.149,0,0,0,821.393,1084.356Z"/><rect class="cls-6" x="692.559" y="1084.356" width="29.068" height="42.299"/><rect class="cls-9" x="779.763" y="1084.356" width="29.068" height="42.299"/><rect class="cls-5" x="710.076" y="1084.356" width="25.149" height="42.299"/><rect class="cls-10" x="692.559" y="1125.201" width="116.272" height="2.907"/><rect class="cls-6" x="692.559" y="1082.903" width="116.272" height="2.907"/><path class="cls-9" d="M686.205,1105.505a6.211,6.211,0,1,1-6.211-6.211A6.211,6.211,0,0,1,686.205,1105.505Z"/><circle class="cls-9" cx="821.393" cy="1105.505" r="6.211"/><rect class="cls-4" x="1016.473" y="1300.586" width="42.299" height="183.697" rx="21.149"/><rect class="cls-6" x="1023.089" y="1327.684" width="29.068" height="42.299" transform="translate(2386.456 311.211) rotate(90)"/><rect class="cls-9" x="1023.089" y="1414.888" width="29.068" height="42.299" transform="translate(2473.66 398.415) rotate(90)"/><rect class="cls-5" x="1016.473" y="1351.817" width="42.299" height="25.149"/><rect class="cls-10" x="1057.319" y="1334.3" width="2.907" height="116.272"/><rect class="cls-6" x="1015.02" y="1334.3" width="2.907" height="116.272"/><path class="cls-9" d="M1037.623,1327.946a6.211,6.211,0,1,0-6.211-6.211A6.211,6.211,0,0,0,1037.623,1327.946Z"/><path class="cls-9" d="M1037.623,1469.344a6.211,6.211,0,1,0-6.211-6.211A6.211,6.211,0,0,0,1037.623,1469.344Z"/><rect class="cls-4" x="2197.151" y="1009.816" width="116.272" height="290.681"/><rect class="cls-4" x="1700.306" y="1097.021" width="1002.679" height="116.272"/><rect class="cls-5" x="1700.306" y="1126.089" width="1002.679" height="58.136"/><rect class="cls-5" x="2226.219" y="1009.816" width="58.136" height="290.681"/><rect class="cls-6" x="2221.374" y="1184.225" width="9.689" height="116.271"/><g class="cls-7"><rect class="cls-8" x="2197.15" y="1282.805" width="116.272" height="60.035" transform="translate(4510.572 2625.645) rotate(180)"/></g><rect class="cls-9" x="2182.212" y="1300.541" width="146.151" height="42.299"/><rect class="cls-4" x="2270.756" y="1300.541" width="25.149" height="42.299"/><rect class="cls-6" x="2182.212" y="1297.634" width="146.15" height="5.814"/><rect class="cls-10" x="2182.21" y="1337.129" width="146.151" height="5.814"/><polygon class="cls-6" points="2231.064 1130.934 1709.174 1130.934 1709.174 1121.245 2221.374 1121.245 2221.374 1009.816 2231.064 1009.816 2231.064 1130.934"/><rect class="cls-6" x="2284.355" y="1121.245" width="418.63" height="9.689"/><g class="cls-7"><rect class="cls-8" x="1651.038" y="1125.139" width="116.272" height="60.035" transform="translate(2864.331 -554.017) rotate(90)"/></g><rect class="cls-9" x="1679.157" y="1082.08" width="42.299" height="146.151"/><rect class="cls-4" x="1679.157" y="1114.538" width="42.299" height="25.149"/><rect class="cls-6" x="1676.25" y="1082.08" width="5.814" height="146.151"/><rect class="cls-10" x="1715.744" y="1082.082" width="5.814" height="146.15"/><g class="cls-7"><rect class="cls-8" x="1961.194" y="1095.122" width="116.272" height="120.07" transform="translate(3174.487 -864.174) rotate(90)"/></g><rect class="cls-9" x="1977.032" y="1082.081" width="42.298" height="146.151"/><rect class="cls-4" x="1977.032" y="1114.539" width="42.299" height="25.149"/><rect class="cls-6" x="1974.125" y="1082.081" width="5.814" height="146.15"/><rect class="cls-10" x="2013.619" y="1082.082" width="5.814" height="146.151"/><g class="cls-7"><rect class="cls-8" x="2614.831" y="1125.141" width="116.272" height="60.035" transform="translate(3828.126 -1517.809) rotate(90)"/></g><rect class="cls-9" x="2660.686" y="1082.081" width="42.299" height="146.151"/><rect class="cls-4" x="2660.686" y="1114.539" width="42.299" height="25.149"/><rect class="cls-6" x="2657.779" y="1082.082" width="5.814" height="146.15"/><rect class="cls-10" x="2697.274" y="1082.083" width="5.814" height="146.151"/><g class="cls-7"><path class="cls-8" d="M2197.151,1071.052a111.509,111.509,0,0,0,116.272,0v-66.081H2197.151Z"/></g><circle class="cls-2" cx="2255.287" cy="963.266" r="96.893"/><path class="cls-4" d="M2255.287,1069.85A106.583,106.583,0,1,1,2361.87,963.267,106.7,106.7,0,0,1,2255.287,1069.85Zm0-193.788a87.2,87.2,0,1,0,87.2,87.205A87.3,87.3,0,0,0,2255.287,876.062Z"/><path class="cls-10" d="M2255.287,1069.417a105.472,105.472,0,0,1-75.093-31.057l4.11-4.11A100.385,100.385,0,0,0,2326.27,892.284l4.11-4.111a106.151,106.151,0,0,1-75.093,181.244Z"/><path class="cls-10" d="M2189.255,1029.3a93.383,93.383,0,0,1,132.063-132.063l-4.11,4.111a87.57,87.57,0,0,0-123.842,123.842Z"/><path class="cls-11" d="M2204.853,1013.7q-.793-.8-1.558-1.608l14.123-13.27q.558.594,1.139,1.174Z"/><path class="cls-12" d="M2307.132,1012.247l-14.08-13.315q.563-.6,1.1-1.205l14.491,12.867Q2307.9,1011.43,2307.132,1012.247Z"/><path class="cls-11" d="M2201.788,1010.44q-.748-.849-1.466-1.717l14.935-12.346q.517.623,1.056,1.234Z"/><path class="cls-12" d="M2310.106,1008.9l-14.881-12.414q.525-.63,1.028-1.272l15.257,11.949Q2310.823,1008.041,2310.106,1008.9Z"/><path class="cls-11" d="M2198.927,1006.987q-.7-.894-1.36-1.807l15.679-11.39q.476.656.974,1.3Z"/><path class="cls-12" d="M2312.864,1005.376l-15.628-11.459q.48-.655.937-1.322l15.991,10.946Q2313.531,1004.467,2312.864,1005.376Z"/><path class="cls-11" d="M2196.285,1003.359q-.639-.939-1.246-1.894l16.37-10.373c.286.454.583.9.886,1.348Z"/><path class="cls-12" d="M2315.4,1001.682l-16.317-10.454q.439-.685.852-1.38l16.648,9.92Q2316,1000.731,2315.4,1001.682Z"/><path class="cls-11" d="M2193.871,999.561q-.576-.975-1.118-1.962l16.99-9.319q.39.71.8,1.409Z"/><path class="cls-12" d="M2317.7,997.827l-16.95-9.391q.4-.714.767-1.439l17.238,8.854Q2318.24,996.846,2317.7,997.827Z"/><path class="cls-11" d="M2191.708,995.627q-.51-1-.988-2.019l17.536-8.248q.347.736.717,1.465Z"/><path class="cls-12" d="M2319.735,993.856l-17.494-8.336q.345-.729.667-1.466l17.764,7.744Q2320.221,992.832,2319.735,993.856Z"/><path class="cls-11" d="M2189.8,991.553q-.446-1.032-.857-2.076l18.027-7.108q.3.756.623,1.507Z"/><path class="cls-12" d="M2321.536,989.727l-18-7.177q.3-.757.579-1.521l18.221,6.6Q2321.953,988.684,2321.536,989.727Z"/><path class="cls-11" d="M2188.148,987.382q-.378-1.057-.724-2.126l18.438-5.965c.167.516.341,1.031.526,1.544Z"/><path class="cls-12" d="M2323.068,985.506l-18.423-6.013q.256-.785.488-1.573l18.594,5.459Q2323.414,984.446,2323.068,985.506Z"/><path class="cls-11" d="M2186.77,983.114q-.315-1.086-.592-2.178l18.781-4.773q.2.783.425,1.563Z"/><path class="cls-12" d="M2324.326,981.208l-18.762-4.851q.2-.792.385-1.589l18.9,4.264Q2324.607,980.123,2324.326,981.208Z"/><path class="cls-11" d="M2185.659,978.762q-.243-1.093-.45-2.194l19.04-3.606q.151.8.329,1.6Z"/><path class="cls-12" d="M2325.31,976.848l-19.025-3.689q.155-.8.283-1.6l19.134,3.068Q2325.524,975.742,2325.31,976.848Z"/><path class="cls-11" d="M2184.826,974.357q-.174-1.113-.313-2.229l19.231-2.386q.1.806.226,1.609Z"/><path class="cls-12" d="M2326.022,972.414l-19.22-2.47q.1-.813.184-1.627l19.288,1.874Q2326.166,971.3,2326.022,972.414Z"/><path class="cls-11" d="M2184.271,969.9q-.1-1.113-.173-2.23l19.343-1.192q.05.817.125,1.635Z"/><path class="cls-12" d="M2326.456,967.961l-19.338-1.277q.054-.811.082-1.623l19.367.653Q2326.529,966.837,2326.456,967.961Z"/><path class="cls-11" d="M2184,965.434q-.033-1.083-.034-2.167l19.379-.064c0,.591.008,1.117.024,1.644Z"/><path class="cls-12" d="M2326.609,963.451H2307.23v-.184c0-.5-.008-.992-.021-1.487l19.372-.533q.027,1.011.028,2.02Z"/><path class="cls-11" d="M2203.37,961.578l-19.37-.624q.038-1.118.107-2.234l19.341,1.221Q2203.4,960.758,2203.37,961.578Z"/><path class="cls-12" d="M2307.138,960.159c-.033-.545-.073-1.09-.124-1.634l19.3-1.76q.1,1.113.167,2.229Z"/><path class="cls-11" d="M2203.576,958.322l-19.29-1.847q.106-1.113.247-2.223l19.223,2.443Q2203.654,957.507,2203.576,958.322Z"/><path class="cls-12" d="M2306.841,956.9q-.1-.813-.225-1.623l19.154-2.951q.169,1.106.306,2.216Z"/><path class="cls-11" d="M2203.987,955.076l-19.138-3.041q.175-1.1.386-2.2l19.034,3.633Q2204.116,954.268,2203.987,955.076Z"/><path class="cls-12" d="M2306.34,953.662q-.149-.8-.323-1.59l18.925-4.168q.242,1.1.449,2.207Z"/><path class="cls-11" d="M2204.6,951.868l-18.912-4.235q.247-1.1.528-2.192l18.762,4.853Q2204.777,951.079,2204.6,951.868Z"/><path class="cls-12" d="M2305.64,950.475q-.2-.792-.425-1.58l18.631-5.331q.307,1.079.583,2.163Z"/><path class="cls-11" d="M2205.414,948.7l-18.61-5.4q.312-1.075.659-2.143l18.431,5.987Q2205.642,947.918,2205.414,948.7Z"/><path class="cls-12" d="M2304.744,947.342q-.252-.781-.528-1.557l18.259-6.493q.375,1.053.716,2.114Z"/><path class="cls-11" d="M2206.423,945.6l-18.232-6.569q.381-1.056.8-2.1L2207,944.079Q2206.7,944.838,2206.423,945.6Z"/><path class="cls-12" d="M2303.65,944.271c-.2-.509-.408-1.015-.625-1.518l17.806-7.649q.443,1.029.85,2.068Z"/><path class="cls-11" d="M2207.625,942.572l-17.78-7.709q.447-1.032.929-2.052l17.519,8.285Q2207.947,941.83,2207.625,942.572Z"/><path class="cls-12" d="M2302.359,941.265q-.346-.741-.717-1.475l17.289-8.751q.507,1,.981,2.012Z"/><path class="cls-11" d="M2209.013,939.629l-17.252-8.825q.505-.99,1.044-1.967l16.979,9.341Q2209.386,938.9,2209.013,939.629Z"/><path class="cls-12" d="M2300.887,938.356q-.392-.717-.808-1.421l16.692-9.846q.571.969,1.11,1.953Z"/><path class="cls-11" d="M2210.59,936.771l-16.667-9.886q.575-.969,1.183-1.922l16.33,10.433Q2211,936.079,2210.59,936.771Z"/><path class="cls-12" d="M2299.228,935.539q-.438-.692-.9-1.373l16.046-10.866q.628.928,1.226,1.873Z"/><path class="cls-11" d="M2212.341,934.024l-16.008-10.919q.63-.925,1.294-1.835l15.651,11.427Q2212.8,933.354,2212.341,934.024Z"/><path class="cls-12" d="M2297.389,932.827q-.476-.657-.974-1.3l15.317-11.87q.695.894,1.353,1.806Z"/><path class="cls-11" d="M2214.259,931.4l-15.282-11.917q.687-.88,1.4-1.743l14.9,12.39Q2214.757,930.757,2214.259,931.4Z"/><path class="cls-12" d="M2295.38,930.234q-.515-.624-1.054-1.236l14.552-12.8q.747.851,1.463,1.719Z"/><path class="cls-11" d="M2216.347,928.884l-14.511-12.844q.74-.836,1.509-1.653l14.106,13.287Q2216.889,928.274,2216.347,928.884Z"/><path class="cls-12" d="M2293.227,927.787q-.561-.6-1.142-1.183l13.737-13.668q.789.793,1.549,1.6Z"/><path class="cls-11" d="M2218.593,926.5,2204.9,912.784q.791-.791,1.6-1.548l13.275,14.117C2219.38,925.728,2218.983,926.11,2218.593,926.5Z"/><path class="cls-12" d="M2290.915,925.465q-.6-.564-1.209-1.106l12.859-14.5q.835.74,1.65,1.51Z"/><path class="cls-11" d="M2220.976,924.262l-12.806-14.543q.84-.741,1.7-1.45l12.364,14.922Q2221.6,923.716,2220.976,924.262Z"/><path class="cls-12" d="M2288.469,923.3q-.633-.526-1.274-1.029l11.93-15.27q.876.684,1.736,1.4Z"/><path class="cls-11" d="M2223.5,922.175l-11.869-15.318q.885-.686,1.785-1.341l11.4,15.669Q2224.153,921.668,2223.5,922.175Z"/><path class="cls-12" d="M2285.9,921.29q-.661-.485-1.334-.944l10.946-15.991q.919.629,1.824,1.29Z"/><path class="cls-11" d="M2226.147,920.251l-10.885-16.032q.93-.633,1.878-1.233l10.373,16.369Q2226.825,919.791,2226.147,920.251Z"/><path class="cls-12" d="M2283.213,919.452q-.69-.441-1.389-.857l9.907-16.655q.961.572,1.906,1.175Z"/><path class="cls-11" d="M2228.9,918.5l-9.845-16.691q.967-.571,1.949-1.11l9.319,16.991Q2229.611,918.087,2228.9,918.5Z"/><path class="cls-12" d="M2280.405,917.781q-.711-.394-1.433-.764l8.836-17.246q1,.512,1.983,1.056Z"/><path class="cls-11" d="M2231.771,916.93l-8.78-17.276q1.006-.512,2.029-.989l8.21,17.553C2232.739,916.448,2232.254,916.685,2231.771,916.93Z"/><path class="cls-12" d="M2277.508,916.3q-.738-.35-1.483-.674l7.731-17.769q1.026.447,2.043.927Z"/><path class="cls-11" d="M2234.727,915.546l-7.667-17.8q1.032-.444,2.077-.855l7.1,18.031Q2235.477,915.223,2234.727,915.546Z"/><path class="cls-12" d="M2274.518,915q-.753-.3-1.516-.576l6.582-18.226q1.058.381,2.105.8Z"/><path class="cls-11" d="M2237.76,914.352l-6.517-18.249q1.056-.378,2.123-.721l5.944,18.444Q2238.532,914.077,2237.76,914.352Z"/><path class="cls-12" d="M2271.458,913.889q-.779-.253-1.563-.483l5.433-18.6q1.073.315,2.139.661Z"/><path class="cls-11" d="M2240.87,913.351l-5.357-18.624q1.08-.309,2.167-.586l4.767,18.783Q2241.655,913.125,2240.87,913.351Z"/><path class="cls-12" d="M2268.328,912.975q-.8-.2-1.592-.384l4.251-18.906q1.09.245,2.174.524Z"/><path class="cls-11" d="M2244.035,912.547l-4.171-18.924q1.095-.242,2.2-.449l3.571,19.047Q2244.831,912.371,2244.035,912.547Z"/><path class="cls-12" d="M2265.136,912.258q-.8-.155-1.605-.282l3.052-19.137q1.108.177,2.211.388Z"/><path class="cls-11" d="M2247.248,911.944l-2.979-19.149q1.11-.173,2.225-.31l2.369,19.233Q2248.053,911.819,2247.248,911.944Z"/><path class="cls-12" d="M2261.916,911.743q-.813-.1-1.625-.182l1.847-19.29q1.114.107,2.227.249Z"/><path class="cls-11" d="M2250.492,911.542l-1.774-19.3q1.118-.1,2.237-.171l1.164,19.344Q2251.306,911.468,2250.492,911.542Z"/><path class="cls-12" d="M2258.658,911.43q-.814-.052-1.63-.079l.64-19.369c.746.025,1.494.062,2.24.11Z"/><path class="cls-11" d="M2253.753,911.344l-.56-19.37q1.044-.03,2.086-.031h.131v19.379h-.124C2254.781,911.322,2254.267,911.33,2253.753,911.344Z"/><polygon class="cls-12" points="2261.733 964.523 2253.74 969.137 2226.046 915.356 2229.004 913.649 2261.733 964.523"/><path class="cls-4" d="M2540.947,1225.858v-141.4a21.15,21.15,0,0,1,21.15-21.149h0a21.149,21.149,0,0,1,21.149,21.149v141.4a21.149,21.149,0,0,1-21.149,21.149h0A21.15,21.15,0,0,1,2540.947,1225.858Z"/><rect class="cls-6" x="2547.563" y="1090.408" width="29.068" height="42.299" transform="translate(3673.654 -1450.539) rotate(90)"/><rect class="cls-9" x="2547.563" y="1177.612" width="29.068" height="42.299" transform="translate(3760.858 -1363.335) rotate(90)"/><rect class="cls-5" x="2540.947" y="1114.541" width="42.299" height="25.149"/><rect class="cls-10" x="2581.792" y="1097.023" width="2.907" height="116.272"/><rect class="cls-6" x="2539.494" y="1097.023" width="2.907" height="116.272"/><path class="cls-9" d="M2562.1,1090.67a6.211,6.211,0,1,0-6.211-6.211A6.211,6.211,0,0,0,2562.1,1090.67Z"/><path class="cls-9" d="M2562.1,1232.068a6.211,6.211,0,1,0-6.211-6.21A6.21,6.21,0,0,0,2562.1,1232.068Z"/><rect class="cls-4" x="1798.896" y="1063.31" width="42.299" height="183.697" rx="21.149"/><rect class="cls-6" x="1805.511" y="1090.408" width="29.068" height="42.299" transform="translate(2931.603 -708.488) rotate(90)"/><rect class="cls-9" x="1805.511" y="1177.612" width="29.068" height="42.299" transform="translate(3018.807 -621.284) rotate(90)"/><rect class="cls-5" x="1798.896" y="1114.541" width="42.299" height="25.149"/><rect class="cls-10" x="1839.741" y="1097.023" width="2.907" height="116.272"/><rect class="cls-6" x="1797.443" y="1097.023" width="2.907" height="116.272"/><path class="cls-9" d="M1820.045,1090.67a6.211,6.211,0,1,0-6.211-6.211A6.211,6.211,0,0,0,1820.045,1090.67Z"/><path class="cls-9" d="M1820.045,1232.068a6.211,6.211,0,1,0-6.211-6.21A6.21,6.21,0,0,0,1820.045,1232.068Z"/><rect class="cls-9" x="2019.331" y="1082.082" width="42.299" height="146.151"/><rect class="cls-4" x="2019.331" y="1114.54" width="42.299" height="25.149"/><rect class="cls-10" x="2058.723" y="1082.082" width="5.814" height="146.151"/><rect class="cls-6" x="2019.229" y="1082.082" width="5.814" height="146.151"/><path class="cls-3" d="M2603.451,818.13a108.734,108.734,0,0,1,33.892,1.986,119.555,119.555,0,0,1,32.075,11.99,121.079,121.079,0,0,1,27.785,20.845,113.463,113.463,0,0,1,20.862,28.794l.115.227a14.563,14.563,0,1,1-26,13.123,15.218,15.218,0,0,1-.651-1.49,86.008,86.008,0,0,0-13.373-23.48,97.138,97.138,0,0,0-20.349-19.064c-15.434-10.805-34.287-17.412-53.567-17.558h-.062a7.706,7.706,0,0,1-.724-15.372Z"/><path class="cls-3" d="M2620.3,791.3a172.8,172.8,0,0,1,45.172,1.654,186.751,186.751,0,0,1,83.1,36.448,177.631,177.631,0,0,1,32.785,33.042l.071.094a14.548,14.548,0,1,1-23.189,17.574c-.232-.306-.466-.645-.67-.963-14.037-22-34.434-40.453-58.16-53.161a160.627,160.627,0,0,0-78.2-19.322h-.027a7.7,7.7,0,0,1-.878-15.366Z"/><path class="cls-3" d="M2618.557,770.3a182.38,182.38,0,0,1,63.35-6.894l.284.019a14.646,14.646,0,1,1-1.946,29.227,15.483,15.483,0,0,1-3.3-.6,160.038,160.038,0,0,0-55.687-6.594l-.079,0a7.742,7.742,0,0,1-2.624-15.159Z"/><path class="cls-3" d="M2628.029,809.707a182.389,182.389,0,0,1,61.555,16.488l.257.12a14.646,14.646,0,0,1-12.386,26.544,15.4,15.4,0,0,1-2.856-1.756,160.052,160.052,0,0,0-49.531-26.291l-.075-.024a7.742,7.742,0,0,1,3.036-15.081Z"/><path class="cls-3" d="M2709,840.32a176.378,176.378,0,0,1,60.022,80.043l.019.05a9.7,9.7,0,1,1-18.189,6.754c-.106-.286-.2-.588-.279-.876a161.59,161.59,0,0,0-48.043-78.006l-.012-.01A5.136,5.136,0,0,1,2709,840.32Z"/><path class="cls-3" d="M2670.472,871.863a96.324,96.324,0,0,1,13,64.932l-.025.162a9.722,9.722,0,1,1-19.217-2.963,10.591,10.591,0,0,1,.329-1.42,81.523,81.523,0,0,0-3.16-55.924l-.018-.041a5.143,5.143,0,0,1,9.1-4.746Z"/><path class="cls-3" d="M2779.157,821.88a143.1,143.1,0,0,1,61.187,59.837l.038.07a9.707,9.707,0,1,1-17.564,8.2,128.29,128.29,0,0,0-48.761-59.2l-.019-.013a5.138,5.138,0,0,1,5.119-8.893Z"/><path class="cls-3" d="M2798.988,892.855a71.361,71.361,0,0,1,23.113,30.272l.152.376a9.805,9.805,0,0,1-18.184,7.342,10.16,10.16,0,0,1-.651-2.574,56.459,56.459,0,0,0-11.549-28.025l-.068-.088a5.169,5.169,0,0,1,7.187-7.3Z"/><path class="cls-3" d="M2787.526,923.539a71.137,71.137,0,0,1,11.875,21.28l.205.583a9.974,9.974,0,1,1-18.818,6.621,10.144,10.144,0,0,1-.528-4.178,56.077,56.077,0,0,0-1.788-19.475l-.045-.164a5.227,5.227,0,0,1,9.1-4.667Z"/><path class="cls-4" d="M2636.437,860.066H2504.243a190.327,190.327,0,0,1-190.331-190.328c0-104.949,85.382-190.331,190.331-190.331a74.058,74.058,0,0,0,0-148.116h-132.2V215.017h132.2c104.948,0,190.33,85.382,190.33,190.33s-85.382,190.33-190.33,190.33a74.059,74.059,0,1,0,0,148.117h132.194Z"/><path class="cls-5" d="M2636.437,831H2504.243A161.262,161.262,0,0,1,2342.98,669.737c0-88.921,72.342-161.263,161.263-161.263a103.126,103.126,0,1,0,0-206.252h-132.2V244.085h132.2c88.92,0,161.262,72.342,161.262,161.262S2593.163,566.61,2504.243,566.61a103.127,103.127,0,1,0,0,206.253h132.194Z"/><path class="cls-6" d="M2386.788,787.192a165.019,165.019,0,0,1-48.652-117.455c0-91.592,74.515-166.107,166.107-166.107a98.235,98.235,0,0,0,80-155.311l7.882-5.635a107.923,107.923,0,0,1-87.881,170.635c-86.25,0-156.418,70.169-156.418,156.418a155.393,155.393,0,0,0,45.813,110.6Z"/><path class="cls-6" d="M2504.243,777.708a108.308,108.308,0,0,1-79.183-34.641l7.106-6.586a98.6,98.6,0,0,0,72.077,31.537h132.194v9.689Z"/><path class="cls-6" d="M2626.273,307.6a155.814,155.814,0,0,0-122.03-58.67h-132.2v-9.69h132.2a165.458,165.458,0,0,1,129.586,62.295Z"/><g class="cls-7"><rect class="cls-8" x="2549.233" y="771.914" width="116.272" height="60.035" transform="translate(3409.3 -1805.438) rotate(90)"/></g><rect class="cls-9" x="2595.088" y="728.854" width="42.299" height="146.151"/><rect class="cls-4" x="2595.088" y="761.313" width="42.299" height="25.149"/><rect class="cls-6" x="2592.181" y="728.855" width="5.814" height="146.151"/><rect class="cls-10" x="2631.675" y="728.856" width="5.814" height="146.151"/><g class="cls-7"><rect class="cls-8" x="2342.961" y="243.039" width="116.272" height="60.035" transform="translate(2674.154 -2128.041) rotate(90)"/></g><rect class="cls-9" x="2371.08" y="199.98" width="42.299" height="146.151"/><rect class="cls-4" x="2371.08" y="232.438" width="42.299" height="25.149"/><rect class="cls-6" x="2368.174" y="199.98" width="5.814" height="146.151"/><rect class="cls-10" x="2407.667" y="199.981" width="5.814" height="146.151"/><rect class="cls-10" x="2573.107" y="426.975" width="120.69" height="2.907"/><rect class="cls-6" x="2573.107" y="384.676" width="120.69" height="2.907"/><path class="cls-4" d="M2707.138,386.13H2557.987a21.149,21.149,0,0,0-21.149,21.149h0a21.149,21.149,0,0,0,21.149,21.149h149.151a21.149,21.149,0,0,0,21.149-21.149h0A21.149,21.149,0,0,0,2707.138,386.13Z"/><rect class="cls-6" x="2573.107" y="386.13" width="34.265" height="42.299"/><rect class="cls-9" x="2665.507" y="386.13" width="28.29" height="42.299"/><rect class="cls-5" x="2595.821" y="386.13" width="25.149" height="42.299"/><path class="cls-9" d="M2564.2,407.279a6.212,6.212,0,1,1-6.212-6.211A6.212,6.212,0,0,1,2564.2,407.279Z"/><path class="cls-9" d="M2713.349,407.279a6.212,6.212,0,1,1-6.211-6.211A6.211,6.211,0,0,1,2713.349,407.279Z"/><rect class="cls-10" x="2313.562" y="689.432" width="120.69" height="2.907"/><rect class="cls-6" x="2313.562" y="647.134" width="120.69" height="2.907"/><path class="cls-4" d="M2447.593,648.587h-149.15a21.15,21.15,0,0,0-21.15,21.149h0a21.15,21.15,0,0,0,21.15,21.15h149.15a21.15,21.15,0,0,0,21.149-21.15h0A21.149,21.149,0,0,0,2447.593,648.587Z"/><rect class="cls-6" x="2313.562" y="648.587" width="34.265" height="42.299"/><rect class="cls-9" x="2405.963" y="648.587" width="28.29" height="42.299"/><rect class="cls-5" x="2336.276" y="648.587" width="25.149" height="42.299"/><path class="cls-9" d="M2304.654,669.736a6.211,6.211,0,1,1-6.211-6.211A6.211,6.211,0,0,1,2304.654,669.736Z"/><path class="cls-9" d="M2453.8,669.736a6.211,6.211,0,1,1-6.211-6.211A6.211,6.211,0,0,1,2453.8,669.736Z"/><path class="cls-3" d="M2727.969,764.989a133.275,133.275,0,0,1,71.859,27.958l.076.059a9.712,9.712,0,0,1-11.977,15.291,10.983,10.983,0,0,1-.907-.807,118.459,118.459,0,0,0-60.415-32.33l-.026-.006a5.139,5.139,0,0,1,1.39-10.165Z"/><path class="cls-4" d="M2186.243,561.292H1992.456c-85.484,0-155.03-69.546-155.03-155.03s69.546-155.029,155.03-155.029h193.787V367.505H1992.456a38.758,38.758,0,1,0,0,77.515h193.787Z"/><path class="cls-5" d="M2186.243,532.224H1992.456a125.962,125.962,0,1,1,0-251.923h193.787v58.136H1992.456a67.826,67.826,0,1,0,0,135.651h193.787Z"/><path class="cls-6" d="M2186.243,478.933H1992.456a72.374,72.374,0,0,1-56.751-27.325l7.564-6.055a62.733,62.733,0,0,0,49.187,23.69h193.787Z"/><path class="cls-6" d="M1891.833,489.756a130.891,130.891,0,0,1-30.184-83.494c0-72.127,58.68-130.806,130.807-130.806h193.787v9.69H1992.456a121.054,121.054,0,0,0-93.171,198.417Z"/><g class="cls-7"><rect class="cls-8" x="2098.089" y="279.352" width="116.272" height="60.035" transform="translate(2465.594 -1846.856) rotate(90)"/></g><rect class="cls-9" x="2143.944" y="236.292" width="42.299" height="146.151"/><rect class="cls-4" x="2143.944" y="268.75" width="42.299" height="25.149"/><rect class="cls-6" x="2141.037" y="236.293" width="5.814" height="146.151"/><rect class="cls-10" x="2180.531" y="236.294" width="5.814" height="146.151"/><g class="cls-7"><rect class="cls-8" x="2098.089" y="473.139" width="116.272" height="60.035" transform="translate(2659.382 -1653.069) rotate(90)"/></g><rect class="cls-9" x="2143.944" y="430.08" width="42.299" height="146.151"/><rect class="cls-4" x="2143.944" y="462.538" width="42.299" height="25.149"/><rect class="cls-6" x="2141.037" y="430.08" width="5.814" height="146.151"/><rect class="cls-10" x="2180.531" y="430.081" width="5.814" height="146.151"/><rect class="cls-5" x="2035.804" y="208.776" width="34.882" height="173.668"/><rect class="cls-4" x="2053.245" y="208.776" width="17.441" height="173.669"/><polygon class="cls-12" points="2053.245 223.618 1980.282 223.618 1980.282 166.03 2053.245 181.559 2053.245 223.618"/><polygon class="cls-13" points="2053.245 223.618 2126.208 223.618 2126.208 166.03 2053.245 181.559 2053.245 223.618"/><rect class="cls-14" x="1980.283" y="220.711" width="145.925" height="5.814"/><path class="cls-12" d="M2053.245,159.084h0a25.93,25.93,0,0,1,25.93,25.93v51.28a0,0,0,0,1,0,0h-51.86a0,0,0,0,1,0,0v-51.28A25.93,25.93,0,0,1,2053.245,159.084Z"/><path class="cls-13" d="M2053.245,159.084h0v77.21h25.93V185.015A25.931,25.931,0,0,0,2053.245,159.084Z"/><path class="cls-9" d="M1904.734,509.9a1.453,1.453,0,0,1-.778-2.681c9.765-6.175,22.8-13.828,37.075-18.232,14.61-4.509,28.885-5.059,41.283-1.587a1.453,1.453,0,1,1-.783,2.8c-11.856-3.32-25.564-2.779-39.642,1.565-13.944,4.3-26.766,11.833-36.379,17.911A1.442,1.442,0,0,1,1904.734,509.9Z"/><path class="cls-9" d="M1947.325,489.934h-.045a1.454,1.454,0,0,1-1.409-1.5,70.741,70.741,0,0,1,18.107-44.81,1.453,1.453,0,1,1,2.15,1.956,67.8,67.8,0,0,0-17.352,42.942A1.453,1.453,0,0,1,1947.325,489.934Z"/><path class="cls-9" d="M1961.959,533.835a1.453,1.453,0,0,1-.151-2.9,34.235,34.235,0,0,0,28.171-46.75,1.453,1.453,0,0,1,2.7-1.079,37.14,37.14,0,0,1-30.564,50.719A1.353,1.353,0,0,1,1961.959,533.835Z"/><path class="cls-9" d="M2076.748,520.3a1.445,1.445,0,0,1-.951-.356,100.341,100.341,0,0,0-81.23-23,1.453,1.453,0,1,1-.473-2.868,103.273,103.273,0,0,1,83.608,23.669,1.453,1.453,0,0,1-.954,2.551Z"/><path class="cls-9" d="M1985.253,554.963a1.454,1.454,0,0,1-1.288-2.126,51.571,51.571,0,0,0,3.825-37.629,1.453,1.453,0,0,1,2.8-.8,54.5,54.5,0,0,1-4.042,39.771A1.455,1.455,0,0,1,1985.253,554.963Z"/><path class="cls-9" d="M1955.68,510.012a1.454,1.454,0,0,1-.94-2.563,257.263,257.263,0,0,1,98.124-51.572,1.454,1.454,0,0,1,.763,2.806,254.315,254.315,0,0,0-97.009,50.985A1.449,1.449,0,0,1,1955.68,510.012Z"/><path class="cls-3" d="M1940.641,514.576a124.249,124.249,0,0,0-35.779,69.818,14.591,14.591,0,1,1-28.378-6.428l.105-.325a146.48,146.48,0,0,1,54.224-74.911,7.718,7.718,0,0,1,9.882,11.795Z"/><path class="cls-3" d="M1967.889,501.226a261.842,261.842,0,0,0-25.491,64.2,9.711,9.711,0,0,1-18.841-4.713,9.593,9.593,0,0,1,.358-1.134l.037-.093a276.684,276.684,0,0,1,35.327-63.841,5.141,5.141,0,0,1,8.617,5.572Z"/><path class="cls-3" d="M1880.35,540.262a68.125,68.125,0,0,0-13.975,23.336,9.833,9.833,0,1,1-17.186-9.094l.258-.34a83.08,83.08,0,0,1,24.532-21.947,5.183,5.183,0,0,1,6.448,7.963Z"/><path class="cls-3" d="M1974.942,520.261A329.784,329.784,0,0,0,1958.2,613.9a14.572,14.572,0,1,1-29.13-.911,14.786,14.786,0,0,1,.188-1.932l.031-.167a352,352,0,0,1,31.435-96.518,7.714,7.714,0,0,1,14.232,5.861Z"/><path class="cls-3" d="M1923.383,595.422a460.608,460.608,0,0,0-5.572,73.2,9.708,9.708,0,1,1-19.355-1.051l.01-.08a475.222,475.222,0,0,1,14.9-74.279,5.141,5.141,0,0,1,10.022,2.206Z"/><path class="cls-3" d="M1978.969,593.42a277.006,277.006,0,0,0,5.919,31.52,9.79,9.79,0,1,1-19.289,2.072l.007-.138a292.008,292.008,0,0,1,3.1-33.593,5.18,5.18,0,0,1,10.258.108Z"/><path class="cls-3" d="M1887.2,562.352a125.91,125.91,0,0,0-10.784,41.717,9.745,9.745,0,1,1-19.429-1.545,9.861,9.861,0,0,1,.333-1.869l.055-.187a140.788,140.788,0,0,1,20.96-43.286,5.155,5.155,0,0,1,8.883,5.132Z"/><path class="cls-3" d="M1874.709,632.881a74.554,74.554,0,0,0,.187,24.265,9.871,9.871,0,1,1-19.452.029l.078-.428a89.535,89.535,0,0,1,9.5-27.261,5.2,5.2,0,0,1,9.7,3.277Z"/><rect class="cls-4" x="202.911" y="1619.889" width="895.397" height="116.272"/><rect class="cls-5" x="202.911" y="1648.957" width="895.397" height="58.136"/><rect class="cls-6" x="202.911" y="1644.113" width="895.397" height="9.689"/><g class="cls-7"><rect class="cls-8" x="1010.154" y="1648.009" width="116.272" height="60.035" transform="translate(2746.317 609.736) rotate(90)"/></g><rect class="cls-9" x="1056.009" y="1604.95" width="42.299" height="146.151"/><rect class="cls-4" x="1056.009" y="1637.408" width="42.299" height="25.149"/><rect class="cls-6" x="1053.102" y="1604.95" width="5.814" height="146.151"/><rect class="cls-10" x="1092.596" y="1604.951" width="5.814" height="146.151"/><g class="cls-7"><rect class="cls-8" x="174.793" y="1648.01" width="116.272" height="60.035" transform="translate(1910.957 1445.098) rotate(90)"/></g><rect class="cls-9" x="202.912" y="1604.951" width="42.299" height="146.151"/><rect class="cls-4" x="202.912" y="1637.409" width="42.299" height="25.149"/><rect class="cls-6" x="200.005" y="1604.951" width="5.814" height="146.15"/><rect class="cls-10" x="239.499" y="1604.952" width="5.814" height="146.151"/><g class="cls-7"><rect class="cls-8" x="592.474" y="1617.991" width="116.272" height="120.07" transform="translate(2328.636 1027.416) rotate(90)"/></g><rect class="cls-9" x="608.311" y="1604.949" width="84.597" height="146.151"/><rect class="cls-4" x="608.311" y="1637.407" width="84.597" height="25.149"/><rect class="cls-6" x="605.404" y="1604.949" width="5.814" height="146.151"/><rect class="cls-10" x="690.002" y="1604.95" width="5.814" height="146.151"/><rect class="cls-6" x="650.508" y="1604.95" width="5.814" height="146.151"/><rect class="cls-10" x="644.898" y="1604.95" width="5.814" height="146.151"/><rect class="cls-4" x="382.887" y="1586.177" width="42.299" height="183.697" rx="21.149"/><rect class="cls-6" x="389.503" y="1613.275" width="29.068" height="42.299" transform="translate(2038.462 1230.388) rotate(90)"/><rect class="cls-9" x="389.503" y="1700.479" width="29.068" height="42.299" transform="translate(2125.665 1317.592) rotate(90)"/><rect class="cls-5" x="382.887" y="1637.408" width="42.299" height="25.149"/><rect class="cls-10" x="423.733" y="1619.89" width="2.907" height="116.272"/><rect class="cls-6" x="381.434" y="1619.89" width="2.907" height="116.272"/><path class="cls-9" d="M404.037,1613.537a6.211,6.211,0,1,0-6.211-6.211A6.211,6.211,0,0,0,404.037,1613.537Z"/><path class="cls-9" d="M404.037,1754.936a6.211,6.211,0,1,0-6.211-6.211A6.211,6.211,0,0,0,404.037,1754.936Z"/><path class="cls-3" d="M734.354,1542.738a154.594,154.594,0,0,1,85.2,33.017,5.138,5.138,0,0,1-5.954,8.356l-.037-.024a139.777,139.777,0,0,0-79.61-21.974,9.7,9.7,0,1,1,.32-19.381Z"/><path class="cls-3" d="M924.871,1612.91a78.178,78.178,0,0,1,40.808,24.144l.2.219a9.76,9.76,0,1,1-14.549,13.015,10.342,10.342,0,0,1-1.221-1.7,63.318,63.318,0,0,0-28.447-25.931l-.074-.034a5.155,5.155,0,0,1,3.288-9.711Z"/><path class="cls-3" d="M912.52,1607.5a176.3,176.3,0,0,1,93.062,21.911l.049.028a9.7,9.7,0,0,1-9.406,16.973c-.28-.155-.56-.33-.817-.508a161.488,161.488,0,0,0-82.9-28.142h-.016a5.137,5.137,0,0,1,.032-10.261Z"/><path class="cls-3" d="M836.87,1614.932a114.887,114.887,0,0,0-58.731,36.375,9.711,9.711,0,1,1-13.991-13.423l.114-.1a129.692,129.692,0,0,1,70.721-32.936,5.14,5.14,0,0,1,1.914,10.081Z"/><path class="cls-3" d="M695.515,1570.916a164.48,164.48,0,0,1,59.457.268,5.147,5.147,0,0,1-1.1,10.2l-.028,0a149.623,149.623,0,0,0-53.494,8.3,9.725,9.725,0,1,1-6.438-18.353,9.829,9.829,0,0,1,1.454-.388Z"/><rect class="cls-5" x="857.018" y="1581.504" width="34.882" height="173.668"/><rect class="cls-4" x="874.459" y="1581.504" width="17.441" height="173.669"/><polygon class="cls-12" points="874.459 1596.347 801.496 1596.347 801.496 1538.758 874.459 1554.288 874.459 1596.347"/><polygon class="cls-13" points="874.459 1596.347 947.421 1596.347 947.421 1538.758 874.459 1554.288 874.459 1596.347"/><rect class="cls-14" x="801.496" y="1593.44" width="145.925" height="5.814"/><path class="cls-12" d="M900.389,1609.022h-51.86v-51.279a25.93,25.93,0,0,1,25.93-25.93h0a25.93,25.93,0,0,1,25.93,25.93Z"/><path class="cls-13" d="M874.459,1531.813h0v77.209h25.93v-51.279A25.93,25.93,0,0,0,874.459,1531.813Z"/><path class="cls-3" d="M963.726,1599.685a58.671,58.671,0,0,1,33.167,1.326l.222.074a7.328,7.328,0,1,1-4.684,13.888,7.681,7.681,0,0,1-1.523-.718,47.518,47.518,0,0,0-26.058-6.956h-.065a3.869,3.869,0,0,1-1.059-7.615Z"/><path class="cls-3" d="M747.4,1586.192a49.138,49.138,0,0,1,24.063-.39,3.889,3.889,0,0,1-.57,7.657l-.115.009a37.927,37.927,0,0,0-17.744,6.121,7.4,7.4,0,1,1-6.051-13.288Z"/><rect class="cls-4" x="367.198" y="420.858" width="116.272" height="394.563"/><rect class="cls-5" x="396.267" y="420.858" width="58.136" height="394.563"/><rect class="cls-6" x="391.422" y="420.858" width="9.689" height="394.563"/><path class="cls-4" d="M619.974,680.4H224.558V564.124H619.974c74.328,0,134.8-60.852,134.8-135.65S693.92,292.823,619.122,292.823s-135.651,60.852-135.651,135.65H367.2A252.225,252.225,0,1,1,619.974,680.4Z"/><path class="cls-5" d="M619.974,651.329H224.558V593.192H619.974c90.357,0,163.866-73.893,163.866-164.719S709.948,263.755,619.122,263.755,454.4,337.647,454.4,428.473H396.267A223.155,223.155,0,1,1,619.974,651.329Z"/><path class="cls-6" d="M619.974,598.037H224.558v-9.69H619.974C707.659,588.348,779,516.629,779,428.474A159.085,159.085,0,0,0,734.64,318.062l7-6.7a168.737,168.737,0,0,1,47.042,117.109C788.685,521.971,713,598.037,619.974,598.037Z"/><path class="cls-6" d="M401.111,428.473h-9.689A227.7,227.7,0,0,1,780.13,267.465l-6.852,6.852A218.011,218.011,0,0,0,401.111,428.473Z"/><g class="cls-7"><rect class="cls-8" x="501.803" y="562.226" width="116.272" height="120.07" transform="translate(1182.199 62.321) rotate(90)"/></g><rect class="cls-9" x="517.64" y="549.184" width="84.597" height="146.151"/><rect class="cls-4" x="517.64" y="581.642" width="84.597" height="25.149"/><rect class="cls-6" x="514.733" y="549.185" width="5.814" height="146.151"/><rect class="cls-10" x="599.331" y="549.185" width="5.814" height="146.151"/><rect class="cls-6" x="559.837" y="549.185" width="5.814" height="146.151"/><rect class="cls-10" x="554.227" y="549.185" width="5.814" height="146.151"/><g class="cls-7"><rect class="cls-8" x="367.198" y="755.386" width="116.272" height="60.035" transform="translate(850.668 1570.807) rotate(180)"/></g><rect class="cls-9" x="352.26" y="773.122" width="146.151" height="42.299"/><rect class="cls-4" x="440.804" y="773.122" width="25.149" height="42.299"/><rect class="cls-6" x="352.259" y="770.216" width="146.151" height="5.814"/><rect class="cls-10" x="352.258" y="809.709" width="146.151" height="5.814"/><g class="cls-7"><rect class="cls-8" x="196.44" y="592.244" width="116.272" height="60.035" transform="translate(876.837 367.685) rotate(90)"/></g><rect class="cls-9" x="224.558" y="549.185" width="42.299" height="146.151"/><rect class="cls-4" x="224.558" y="581.643" width="42.299" height="25.149"/><rect class="cls-6" x="221.651" y="549.185" width="5.814" height="146.151"/><rect class="cls-10" x="261.146" y="549.186" width="5.814" height="146.151"/><g class="cls-7"><rect class="cls-8" x="367.199" y="428.473" width="116.272" height="120.07"/></g><rect class="cls-9" x="352.258" y="446.21" width="146.151" height="84.597"/><rect class="cls-4" x="384.716" y="446.21" width="25.149" height="84.597"/><rect class="cls-6" x="352.258" y="443.303" width="146.151" height="5.814"/><rect class="cls-10" x="352.259" y="527.901" width="146.151" height="5.814"/><rect class="cls-6" x="352.259" y="488.407" width="146.151" height="5.814"/><rect class="cls-10" x="352.259" y="482.797" width="146.151" height="5.814"/><path class="cls-3" d="M811.381,285.771q3.138,25.284,3.868,51.005v.032a9.73,9.73,0,1,1-19.453.546,10.5,10.5,0,0,1,.109-1.755q3.774-24.489,5.219-49.48v-.009a5.151,5.151,0,0,1,10.255-.339Z"/><path class="cls-3" d="M817.884,256.03a331.959,331.959,0,0,1,17.869,146.539v.018a9.695,9.695,0,0,1-19.286-2c.02-.194.051-.414.082-.6a317.169,317.169,0,0,0-8.417-140.765l0-.006a5.133,5.133,0,0,1,9.755-3.185Z"/><path class="cls-3" d="M874.4,352.383a41.855,41.855,0,0,1,7.549,11.339l.346.762a7.72,7.72,0,1,1-14.638,1.878,30.508,30.508,0,0,0-.045-10.351l-.039-.225a3.982,3.982,0,0,1,3.243-4.6A4.022,4.022,0,0,1,874.4,352.383Z"/><path class="cls-3" d="M811.628,393.933a130.4,130.4,0,0,1-.337,17.3l-.015.171a7.444,7.444,0,0,1-14.834-1.274,7.58,7.58,0,0,1,.889-2.941,119.142,119.142,0,0,0,6.692-14.439l.017-.044a3.927,3.927,0,0,1,7.588,1.225Z"/><path class="cls-3" d="M851.282,394.821a277.864,277.864,0,0,1-.608,44.936l0,.03a7.29,7.29,0,1,1-14.515-1.373,7.963,7.963,0,0,1,.193-1.115,266.572,266.572,0,0,0,7.236-42.546v-.009a3.86,3.86,0,0,1,7.7.077Z"/><path class="cls-3" d="M850.566,283.71a277.8,277.8,0,0,1,25.932,36.7l.015.026a7.29,7.29,0,0,1-12.548,7.424,7.944,7.944,0,0,1-.5-1.015A266.622,266.622,0,0,0,844.3,288.18l0-.007a3.859,3.859,0,0,1,6.269-4.463Z"/><rect class="cls-5" x="750.15" y="193.171" width="34.882" height="173.668" transform="translate(422.817 -460.758) rotate(45)"/><rect class="cls-4" x="765.036" y="199.337" width="17.441" height="173.669" transform="translate(428.982 -463.311) rotate(45)"/><polygon class="cls-12" points="818.496 229.099 766.904 177.507 807.625 136.786 848.236 199.359 818.496 229.099"/><polygon class="cls-13" points="818.496 229.099 870.088 280.692 910.809 239.971 848.236 199.359 818.496 229.099"/><rect class="cls-14" x="815.59" y="156.136" width="5.813" height="145.926" transform="translate(77.734 645.865) rotate(-45)"/><path class="cls-12" d="M827.868,256.4,791.2,219.727l36.26-36.26a25.93,25.93,0,0,1,36.67,0h0a25.929,25.929,0,0,1,0,36.671Z"/><path class="cls-13" d="M864.128,183.467h0l-54.6,54.6L827.868,256.4l36.26-36.26A25.929,25.929,0,0,0,864.128,183.467Z"/></g></g></svg>