<svg width="82" height="83" viewBox="0 0 82 83" fill="none" xmlns="http://www.w3.org/2000/svg">
<g clip-path="url(#clip0_111_145)">
<path d="M23.306 64.7573H15.3463C15.2241 64.7574 15.1032 64.7333 14.9903 64.6864C14.8774 64.6396 14.7749 64.5709 14.6885 64.4843C14.6021 64.3977 14.5336 64.2949 14.4868 64.1818C14.4401 64.0686 14.416 63.9473 14.416 63.8249C14.416 63.7024 14.4401 63.5811 14.4868 63.468C14.5336 63.3548 14.6021 63.252 14.6885 63.1654C14.7749 63.0788 14.8774 63.0101 14.9903 62.9633C15.1032 62.9164 15.2241 62.8923 15.3463 62.8924H23.306C23.5526 62.8925 23.7891 62.9907 23.9635 63.1656C24.1378 63.3405 24.2358 63.5776 24.2358 63.8249C24.2358 64.0721 24.1378 64.3093 23.9635 64.4841C23.7891 64.659 23.5526 64.7573 23.306 64.7573ZM54.026 70.8213H40.6234C40.3602 70.8213 40.1078 70.7165 39.9216 70.5299C39.7355 70.3433 39.631 70.0902 39.631 69.8263C39.631 69.5624 39.7355 69.3093 39.9216 69.1227C40.1078 68.9361 40.3602 68.8313 40.6234 68.8313H54.0251C54.2883 68.8313 54.5407 68.9361 54.7268 69.1227C54.9129 69.3093 55.0175 69.5624 55.0175 69.8263C55.0175 70.0902 54.9129 70.3433 54.7268 70.5299C54.5407 70.7165 54.2892 70.8213 54.026 70.8213ZM55.3114 8.79793C55.1016 8.79857 54.897 8.73219 54.7273 8.6084C47.1333 3.04478 37.8476 0.883196 28.593 2.51978C28.3345 2.56396 28.0692 2.50378 27.8548 2.3524C27.6404 2.20102 27.4945 1.97074 27.449 1.71185C27.4034 1.45296 27.4619 1.18651 27.6116 0.970702C27.7613 0.75489 27.9901 0.607257 28.248 0.560049C33.0518 -0.295339 37.9787 -0.165758 42.7312 0.94097C47.4836 2.0477 51.9632 4.10862 55.8992 6.9993C56.0692 7.12288 56.1957 7.29731 56.2605 7.49751C56.3253 7.69771 56.3252 7.91337 56.2601 8.11348C56.1949 8.31359 56.0682 8.48783 55.8981 8.61116C55.7279 8.73449 55.5232 8.80054 55.3133 8.79983L55.3114 8.79793ZM23.4289 12.0076C23.2003 12.0079 22.9786 11.9289 22.8013 11.7842C22.624 11.6395 22.502 11.4378 22.4558 11.2133C22.4097 10.9888 22.4423 10.7552 22.5482 10.552C22.654 10.3488 22.8266 10.1885 23.0367 10.0981C28.3154 7.8269 34.1481 7.17943 39.7945 8.23787C39.9226 8.26214 40.0446 8.31147 40.1537 8.38303C40.2628 8.4546 40.3567 8.54701 40.4302 8.65498C40.5037 8.76295 40.5552 8.88438 40.5818 9.01231C40.6085 9.14025 40.6098 9.27221 40.5856 9.40063C40.5614 9.52906 40.5122 9.65145 40.4408 9.76082C40.3694 9.87019 40.2772 9.96439 40.1696 10.038C40.0619 10.1117 39.9408 10.1634 39.8132 10.1901C39.6856 10.2168 39.554 10.2181 39.4259 10.1938C34.1676 9.20887 28.736 9.81212 23.8202 11.9271C23.6966 11.9803 23.5634 12.0077 23.4289 12.0076ZM16.7261 6.83631C16.5081 6.83657 16.2961 6.76484 16.1228 6.63219C15.9495 6.49955 15.8246 6.31337 15.7674 6.10242C15.7101 5.89148 15.7238 5.66751 15.8062 5.46513C15.8886 5.26274 16.0352 5.0932 16.2233 4.98271C18.2365 3.80016 20.3595 2.81631 22.5622 2.04501C22.6853 2.00195 22.8156 1.98362 22.9457 1.99106C23.0759 1.99849 23.2032 2.03156 23.3206 2.08836C23.438 2.14516 23.5431 2.22459 23.6298 2.32211C23.7166 2.41963 23.7834 2.53333 23.8263 2.65671C23.8693 2.7801 23.8875 2.91077 23.8801 3.04124C23.8727 3.17171 23.8397 3.29944 23.7831 3.41714C23.7264 3.53484 23.6472 3.64019 23.55 3.72719C23.4527 3.81419 23.3393 3.88113 23.2162 3.92419C21.135 4.65293 19.1292 5.58251 17.2271 6.69984C17.0752 6.7893 16.9023 6.83641 16.7261 6.83631Z" fill="black"/>
<mask id="path-2-inside-1_111_145" fill="white">
<path d="M2.13992 2.34969C2.51534 2.15087 2.94474 2.07887 3.36453 2.14266C3.78429 2.20646 4.17312 2.40276 4.47292 2.70418L28.9563 27.3155C30.0237 26.6849 31.1951 26.2343 32.4231 25.9893C34.4726 25.5807 36.593 25.7623 38.5413 26.5079L46.5423 12.8565C46.7749 12.4599 47.1379 12.1559 47.5686 11.9971C47.9993 11.8385 48.4721 11.8343 48.9055 11.9854L79.5862 22.7169C79.9871 22.8571 80.3332 23.123 80.5725 23.4747C80.8116 23.8263 80.9322 24.2457 80.9163 24.671C80.9003 25.0963 80.7486 25.5054 80.4837 25.838C80.2187 26.1706 79.8539 26.409 79.4436 26.5186L45.5969 35.5684C45.6497 36.008 45.678 36.4516 45.678 36.8975C45.6765 38.2466 45.4284 39.569 44.9632 40.8077L52.3587 57.3917H53.6018C53.8698 57.3917 54.1355 57.4442 54.3831 57.547C54.6308 57.6498 54.8566 57.8012 55.0462 57.9913C55.2355 58.1813 55.386 58.4072 55.4885 58.6554C55.591 58.9036 55.6438 59.1699 55.6438 59.4386V75.585C55.6438 76.1278 55.4288 76.6485 55.0462 77.0323C54.6633 77.4162 54.1433 77.6319 53.6018 77.6319H29.3499L24.6018 81.7364C24.2417 82.048 23.7816 82.2196 23.3059 82.2198C23.0015 82.2197 22.701 82.1489 22.428 82.0138C22.1549 81.8785 21.916 81.682 21.7307 81.4395C21.5457 81.1973 21.4188 80.9156 21.3596 80.6163C21.3005 80.3167 21.3107 80.0069 21.3899 79.712L21.9485 77.6319H15.5716C15.3036 77.6319 15.0379 77.5795 14.7903 77.4766C14.5427 77.3738 14.3177 77.2223 14.1282 77.0323C13.9387 76.8423 13.7884 76.6165 13.6858 76.3682C13.5833 76.1199 13.5305 75.8538 13.5305 75.585V59.4386C13.5305 59.1699 13.5833 58.9036 13.6858 58.6554C13.7884 58.4071 13.9388 58.1813 14.1282 57.9913C14.3177 57.8013 14.5427 57.6498 14.7903 57.547C15.0379 57.4441 15.3036 57.3917 15.5716 57.3917H16.5608L24.304 41.0655C23.9339 40.1475 23.6904 39.1891 23.5745 38.2159L9.12527 38.1085C8.66578 38.1049 8.22125 37.9417 7.86843 37.6466C7.51586 37.3515 7.27648 36.9427 7.1907 36.4903L1.11745 4.48152C1.0382 4.06339 1.09457 3.63069 1.27859 3.24715C1.4627 2.86355 1.7645 2.54851 2.13992 2.34969ZM17.6135 73.5372H23.0481L26.2854 61.4854H17.6135V73.5372ZM38.9348 47.1212C37.5728 47.7045 36.0959 48.017 34.5862 48.0186C34.3956 48.0186 34.2055 48.0118 34.0159 48.002L31.0716 58.9669C31.1078 59.1202 31.1282 59.2784 31.1282 59.4386C31.1281 59.9631 30.9257 60.4652 30.5667 60.8448L27.1585 73.5372H28.0061L45.1292 58.7335C45.1755 58.607 45.2336 58.4854 45.304 58.3702L38.9348 47.1212ZM34.0862 73.5372H51.5608V61.4854H48.0257L34.0862 73.5372ZM20.9553 57.3917H27.3841L30.1507 47.0899C29.5512 46.8277 28.9729 46.5123 28.4241 46.1446C27.871 45.774 27.3552 45.3557 26.8811 44.8966L20.9553 57.3917ZM42.2542 44.92L43.1653 46.5294L42.3899 44.7911C42.3456 44.8351 42.2991 44.8768 42.2542 44.92ZM34.5862 29.7559C33.1777 29.756 31.8003 30.1754 30.6292 30.96C29.4582 31.7447 28.5451 32.8595 28.0061 34.1641C27.4671 35.4691 27.326 36.9058 27.6009 38.2911C27.7067 38.8244 27.8735 39.3405 28.094 39.8311C28.2233 40.0013 28.3257 40.1906 28.3948 40.3936C28.4017 40.4138 28.4062 40.4348 28.4124 40.4552C28.7232 40.9975 29.1042 41.5002 29.5501 41.9473C30.5462 42.9461 31.8159 43.6259 33.1975 43.9014C34.5789 44.1769 36.0105 44.0356 37.3118 43.4952C38.6132 42.9547 39.7264 42.0397 40.5091 40.8653C41.2917 39.6909 41.7092 38.31 41.7093 36.8975C41.707 35.0043 40.9555 33.1894 39.6204 31.8507C38.2852 30.5119 36.4745 29.7582 34.5862 29.7559ZM10.7835 34.1407L23.8177 34.2374C24.2055 32.659 24.9317 31.187 25.9446 29.9249L6.2239 10.1007L10.7835 34.1407ZM41.9368 28.5684C42.6467 29.1982 43.2766 29.9201 43.8089 30.7188C44.0329 31.0551 44.237 31.4026 44.4221 31.7589L72.179 24.3409L49.135 16.2862L41.9368 28.5684Z"/>
</mask>
<path d="M2.13992 2.34969C2.51534 2.15087 2.94474 2.07887 3.36453 2.14266C3.78429 2.20646 4.17312 2.40276 4.47292 2.70418L28.9563 27.3155C30.0237 26.6849 31.1951 26.2343 32.4231 25.9893C34.4726 25.5807 36.593 25.7623 38.5413 26.5079L46.5423 12.8565C46.7749 12.4599 47.1379 12.1559 47.5686 11.9971C47.9993 11.8385 48.4721 11.8343 48.9055 11.9854L79.5862 22.7169C79.9871 22.8571 80.3332 23.123 80.5725 23.4747C80.8116 23.8263 80.9322 24.2457 80.9163 24.671C80.9003 25.0963 80.7486 25.5054 80.4837 25.838C80.2187 26.1706 79.8539 26.409 79.4436 26.5186L45.5969 35.5684C45.6497 36.008 45.678 36.4516 45.678 36.8975C45.6765 38.2466 45.4284 39.569 44.9632 40.8077L52.3587 57.3917H53.6018C53.8698 57.3917 54.1355 57.4442 54.3831 57.547C54.6308 57.6498 54.8566 57.8012 55.0462 57.9913C55.2355 58.1813 55.386 58.4072 55.4885 58.6554C55.591 58.9036 55.6438 59.1699 55.6438 59.4386V75.585C55.6438 76.1278 55.4288 76.6485 55.0462 77.0323C54.6633 77.4162 54.1433 77.6319 53.6018 77.6319H29.3499L24.6018 81.7364C24.2417 82.048 23.7816 82.2196 23.3059 82.2198C23.0015 82.2197 22.701 82.1489 22.428 82.0138C22.1549 81.8785 21.916 81.682 21.7307 81.4395C21.5457 81.1973 21.4188 80.9156 21.3596 80.6163C21.3005 80.3167 21.3107 80.0069 21.3899 79.712L21.9485 77.6319H15.5716C15.3036 77.6319 15.0379 77.5795 14.7903 77.4766C14.5427 77.3738 14.3177 77.2223 14.1282 77.0323C13.9387 76.8423 13.7884 76.6165 13.6858 76.3682C13.5833 76.1199 13.5305 75.8538 13.5305 75.585V59.4386C13.5305 59.1699 13.5833 58.9036 13.6858 58.6554C13.7884 58.4071 13.9388 58.1813 14.1282 57.9913C14.3177 57.8013 14.5427 57.6498 14.7903 57.547C15.0379 57.4441 15.3036 57.3917 15.5716 57.3917H16.5608L24.304 41.0655C23.9339 40.1475 23.6904 39.1891 23.5745 38.2159L9.12527 38.1085C8.66578 38.1049 8.22125 37.9417 7.86843 37.6466C7.51586 37.3515 7.27648 36.9427 7.1907 36.4903L1.11745 4.48152C1.0382 4.06339 1.09457 3.63069 1.27859 3.24715C1.4627 2.86355 1.7645 2.54851 2.13992 2.34969ZM17.6135 73.5372H23.0481L26.2854 61.4854H17.6135V73.5372ZM38.9348 47.1212C37.5728 47.7045 36.0959 48.017 34.5862 48.0186C34.3956 48.0186 34.2055 48.0118 34.0159 48.002L31.0716 58.9669C31.1078 59.1202 31.1282 59.2784 31.1282 59.4386C31.1281 59.9631 30.9257 60.4652 30.5667 60.8448L27.1585 73.5372H28.0061L45.1292 58.7335C45.1755 58.607 45.2336 58.4854 45.304 58.3702L38.9348 47.1212ZM34.0862 73.5372H51.5608V61.4854H48.0257L34.0862 73.5372ZM20.9553 57.3917H27.3841L30.1507 47.0899C29.5512 46.8277 28.9729 46.5123 28.4241 46.1446C27.871 45.774 27.3552 45.3557 26.8811 44.8966L20.9553 57.3917ZM42.2542 44.92L43.1653 46.5294L42.3899 44.7911C42.3456 44.8351 42.2991 44.8768 42.2542 44.92ZM34.5862 29.7559C33.1777 29.756 31.8003 30.1754 30.6292 30.96C29.4582 31.7447 28.5451 32.8595 28.0061 34.1641C27.4671 35.4691 27.326 36.9058 27.6009 38.2911C27.7067 38.8244 27.8735 39.3405 28.094 39.8311C28.2233 40.0013 28.3257 40.1906 28.3948 40.3936C28.4017 40.4138 28.4062 40.4348 28.4124 40.4552C28.7232 40.9975 29.1042 41.5002 29.5501 41.9473C30.5462 42.9461 31.8159 43.6259 33.1975 43.9014C34.5789 44.1769 36.0105 44.0356 37.3118 43.4952C38.6132 42.9547 39.7264 42.0397 40.5091 40.8653C41.2917 39.6909 41.7092 38.31 41.7093 36.8975C41.707 35.0043 40.9555 33.1894 39.6204 31.8507C38.2852 30.5119 36.4745 29.7582 34.5862 29.7559ZM10.7835 34.1407L23.8177 34.2374C24.2055 32.659 24.9317 31.187 25.9446 29.9249L6.2239 10.1007L10.7835 34.1407ZM41.9368 28.5684C42.6467 29.1982 43.2766 29.9201 43.8089 30.7188C44.0329 31.0551 44.237 31.4026 44.4221 31.7589L72.179 24.3409L49.135 16.2862L41.9368 28.5684Z" fill="black"/>
<path d="M2.13992 2.34969L1.67191 1.46596L1.6719 1.46597L2.13992 2.34969ZM3.36453 2.14266L3.51479 1.15401L3.51476 1.15401L3.36453 2.14266ZM4.47292 2.70418L3.76392 3.40938L3.76398 3.40944L4.47292 2.70418ZM28.9563 27.3155L28.2474 28.0208L28.7956 28.5719L29.4649 28.1765L28.9563 27.3155ZM32.4231 25.9893L32.2276 25.0086L32.2275 25.0087L32.4231 25.9893ZM38.5413 26.5079L38.1839 27.4418L38.9755 27.7448L39.404 27.0135L38.5413 26.5079ZM46.5423 12.8565L45.6797 12.3506L45.6795 12.3509L46.5423 12.8565ZM47.5686 11.9971L47.223 11.0588L47.2228 11.0589L47.5686 11.9971ZM48.9055 11.9854L49.2357 11.0415L49.2348 11.0412L48.9055 11.9854ZM79.5862 22.7169L79.9164 21.773L79.9164 21.773L79.5862 22.7169ZM80.5725 23.4747L81.3994 22.9123L81.3993 22.9121L80.5725 23.4747ZM80.9163 24.671L81.9156 24.7086L81.9156 24.7085L80.9163 24.671ZM80.4837 25.838L81.2658 26.4611L81.2659 26.461L80.4837 25.838ZM79.4436 26.5186L79.1855 25.5525L79.1853 25.5526L79.4436 26.5186ZM45.5969 35.5684L45.3386 34.6024L44.5007 34.8264L44.6041 35.6876L45.5969 35.5684ZM45.678 36.8975L46.678 36.8986V36.8975H45.678ZM44.9632 40.8077L44.027 40.4561L43.8827 40.8402L44.0499 41.215L44.9632 40.8077ZM52.3587 57.3917L51.4454 57.799L51.7097 58.3917H52.3587V57.3917ZM53.6018 57.3917V58.3917V57.3917ZM54.3831 57.547L54.7666 56.6234L54.7664 56.6233L54.3831 57.547ZM55.0462 57.9913L55.7544 57.2853L55.7542 57.2851L55.0462 57.9913ZM55.4885 58.6553L56.4129 58.2738L56.4128 58.2735L55.4885 58.6553ZM55.6438 59.4386H54.6438V59.4386H55.6438ZM55.6438 75.585H56.6438H55.6438ZM55.0462 77.0323L55.7542 77.7385L55.7544 77.7383L55.0462 77.0323ZM53.6018 77.6319V76.6319V77.6319ZM29.3499 77.6319V76.6319H28.9776L28.6959 76.8754L29.3499 77.6319ZM24.6018 81.7364L23.9479 80.9799L23.9476 80.9801L24.6018 81.7364ZM23.3059 82.2198L23.3056 83.2198H23.3064L23.3059 82.2198ZM22.428 82.0137L21.9842 82.9099L21.9844 82.91L22.428 82.0137ZM21.7307 81.4395L20.936 82.0465L20.9361 82.0466L21.7307 81.4395ZM21.3596 80.6163L20.3786 80.8099L20.3786 80.8101L21.3596 80.6163ZM21.3899 79.712L20.4241 79.4526V79.4526L21.3899 79.712ZM21.9485 77.6319L22.9143 77.8913L23.2525 76.6319H21.9485V77.6319ZM15.5716 77.6319L15.5714 78.6319H15.5716V77.6319ZM14.7903 77.4766L14.4067 78.4001L14.4067 78.4002L14.7903 77.4766ZM14.1282 77.0323L13.4201 77.7384L13.4201 77.7385L14.1282 77.0323ZM13.6858 76.3682L12.7615 76.75L12.7616 76.7501L13.6858 76.3682ZM13.5305 59.4386H14.5305V59.4386H13.5305ZM13.6858 58.6553L12.7616 58.2735L12.7615 58.2737L13.6858 58.6553ZM14.1282 57.9913L13.4201 57.2851L13.42 57.2853L14.1282 57.9913ZM14.7903 57.547L14.4067 56.6234L14.4067 56.6235L14.7903 57.547ZM15.5716 57.3917V56.3917L15.5714 56.3917L15.5716 57.3917ZM16.5608 57.3917V58.3917H17.1933L17.4643 57.8202L16.5608 57.3917ZM24.304 41.0655L25.2075 41.494L25.3953 41.098L25.2314 40.6916L24.304 41.0655ZM23.5745 38.2159L24.5675 38.0977L24.4633 37.2225L23.5819 37.2159L23.5745 38.2159ZM9.12527 38.1085L9.11758 39.1084H9.11783L9.12527 38.1085ZM7.86843 37.6466L7.2266 38.4134L7.22676 38.4135L7.86843 37.6466ZM7.1907 36.4903L8.17319 36.304L8.17317 36.3039L7.1907 36.4903ZM1.11745 4.48152L0.134948 4.66775L0.134983 4.66793L1.11745 4.48152ZM1.27859 3.24715L0.37705 2.81445L0.376987 2.81458L1.27859 3.24715ZM17.6135 73.5372H16.6135V74.5372H17.6135V73.5372ZM23.0481 73.5372V74.5372H23.815L24.0139 73.7966L23.0481 73.5372ZM26.2854 61.4854L27.2512 61.7449L27.5895 60.4854H26.2854V61.4854ZM17.6135 61.4854V60.4854H16.6135V61.4854H17.6135ZM38.9348 47.1212L39.805 46.6285L39.364 45.8495L38.5411 46.2019L38.9348 47.1212ZM34.5862 48.0186L34.5862 49.0186L34.5873 49.0186L34.5862 48.0186ZM34.0159 48.002L34.0675 47.0034L33.2598 46.9616L33.0501 47.7427L34.0159 48.002ZM31.0716 58.9669L30.1058 58.7075L30.0403 58.9512L30.0983 59.1968L31.0716 58.9669ZM31.1282 59.4386L32.1282 59.4387V59.4386H31.1282ZM30.5667 60.8448L29.8401 60.1578L29.6664 60.3414L29.6009 60.5855L30.5667 60.8448ZM27.1585 73.5372L26.1927 73.2778L25.8545 74.5372H27.1585V73.5372ZM28.0061 73.5372V74.5372H28.3785L28.6601 74.2937L28.0061 73.5372ZM45.1292 58.7335L45.7832 59.49L45.9791 59.3206L46.0682 59.0774L45.1292 58.7335ZM45.304 58.3702L46.1574 58.8914L46.464 58.3894L46.1742 57.8775L45.304 58.3702ZM34.0862 73.5372L33.4322 72.7807L31.4006 74.5372H34.0862V73.5372ZM51.5608 73.5372V74.5372H52.5608V73.5372H51.5608ZM51.5608 61.4854H52.5608V60.4854H51.5608V61.4854ZM48.0257 61.4854V60.4854H47.6533L47.3716 60.729L48.0257 61.4854ZM20.9553 57.3917L20.0518 56.9632L19.3743 58.3917H20.9553V57.3917ZM27.3841 57.3917V58.3917H28.1509L28.3498 57.651L27.3841 57.3917ZM30.1507 47.0899L31.1164 47.3493L31.3395 46.5186L30.5515 46.1738L30.1507 47.0899ZM28.4241 46.1446L27.8675 46.9754L27.8675 46.9754L28.4241 46.1446ZM26.8811 44.8966L27.5768 44.1782L26.5751 43.2081L25.9776 44.4681L26.8811 44.8966ZM42.2542 44.92L41.5613 44.199L41.0014 44.737L41.384 45.4127L42.2542 44.92ZM43.1653 46.5294L42.2951 47.022L44.0786 46.122L43.1653 46.5294ZM42.3899 44.7911L43.3032 44.3837L42.7128 43.0603L41.685 44.0818L42.3899 44.7911ZM34.5862 29.7559L34.5874 28.7559H34.5861L34.5862 29.7559ZM30.6292 30.96L30.0726 30.1293L30.0725 30.1293L30.6292 30.96ZM28.0061 34.1641L27.0819 33.7823L27.0819 33.7823L28.0061 34.1641ZM27.6009 38.2911L26.62 38.4857L26.62 38.4857L27.6009 38.2911ZM28.094 39.8311L27.1819 40.2411L27.2287 40.3452L27.2977 40.4361L28.094 39.8311ZM28.3948 40.3936L29.3415 40.0716L29.3415 40.0716L28.3948 40.3936ZM28.4124 40.4552L27.4558 40.7467L27.4887 40.8546L27.5448 40.9524L28.4124 40.4552ZM29.5501 41.9473L28.842 42.6535L28.842 42.6535L29.5501 41.9473ZM33.1975 43.9014L33.0019 44.8821L33.002 44.8821L33.1975 43.9014ZM37.3118 43.4952L37.6953 44.4187L37.6953 44.4187L37.3118 43.4952ZM40.5091 40.8653L41.3412 41.4199V41.4198L40.5091 40.8653ZM41.7093 36.8975L42.7093 36.8975V36.8964L41.7093 36.8975ZM39.6204 31.8507L40.3285 31.1445L40.3284 31.1445L39.6204 31.8507ZM10.7835 34.1407L9.80099 34.327L9.95415 35.1346L10.7761 35.1407L10.7835 34.1407ZM23.8176 34.2374L23.8102 35.2374L24.6003 35.2432L24.7888 34.476L23.8176 34.2374ZM25.9446 29.9249L26.7245 30.5508L27.2841 29.8535L26.6536 29.2196L25.9446 29.9249ZM6.2239 10.1007L6.93286 9.39541L4.63401 7.0845L5.24142 10.287L6.2239 10.1007ZM41.9368 28.5684L41.074 28.0628L40.6588 28.7714L41.2731 29.3165L41.9368 28.5684ZM43.8089 30.7188L44.641 30.1643L44.641 30.1643L43.8089 30.7188ZM44.4221 31.7589L43.5348 32.22L43.9049 32.9322L44.6803 32.725L44.4221 31.7589ZM72.179 24.3409L72.4372 25.307L75.5747 24.4685L72.5089 23.3969L72.179 24.3409ZM49.135 16.2862L49.465 15.3422L48.6883 15.0707L48.2723 15.7806L49.135 16.2862ZM2.13992 2.34969L2.60792 3.23341C2.79263 3.1356 3.00514 3.09952 3.21429 3.13131L3.36453 2.14266L3.51476 1.15401C2.88435 1.05821 2.23806 1.16614 1.67191 1.46596L2.13992 2.34969ZM3.36453 2.14266L3.21426 3.1313C3.42348 3.1631 3.61608 3.26075 3.76392 3.40938L4.47292 2.70418L5.18193 1.99898C4.73016 1.54477 4.1451 1.24981 3.51479 1.15401L3.36453 2.14266ZM4.47292 2.70418L3.76398 3.40944L28.2474 28.0208L28.9563 27.3155L29.6653 26.6102L5.18187 1.99892L4.47292 2.70418ZM28.9563 27.3155L29.4649 28.1765C30.4362 27.6027 31.5018 27.1928 32.6187 26.97L32.4231 25.9893L32.2275 25.0087C30.8883 25.2758 29.6113 25.7672 28.4477 26.4545L28.9563 27.3155ZM32.4231 25.9893L32.6187 26.97C34.4825 26.5984 36.4112 26.7635 38.1839 27.4418L38.5413 26.5079L38.8987 25.5739C36.7748 24.7611 34.4627 24.563 32.2276 25.0086L32.4231 25.9893ZM38.5413 26.5079L39.404 27.0135L47.405 13.3622L46.5423 12.8565L45.6795 12.3509L37.6785 26.0022L38.5413 26.5079ZM46.5423 12.8565L47.4048 13.3625C47.5207 13.1649 47.7013 13.014 47.9145 12.9354L47.5686 11.9971L47.2228 11.0589C46.5745 11.2978 46.0291 11.7548 45.6797 12.3506L46.5423 12.8565ZM47.5686 11.9971L47.9143 12.9355C48.1276 12.8569 48.3618 12.8549 48.5763 12.9297L48.9055 11.9854L49.2348 11.0412C48.5824 10.8137 47.8711 10.82 47.223 11.0588L47.5686 11.9971ZM48.9055 11.9854L48.5754 12.9294L79.256 23.6608L79.5862 22.7169L79.9164 21.773L49.2357 11.0415L48.9055 11.9854ZM79.5862 22.7169L79.256 23.6608C79.4546 23.7302 79.6267 23.8623 79.7458 24.0373L80.5725 23.4747L81.3993 22.9121C81.0397 22.3837 80.5197 21.984 79.9164 21.773L79.5862 22.7169ZM80.5725 23.4747L79.7456 24.037C79.8647 24.2122 79.9249 24.4214 79.917 24.6335L80.9163 24.671L81.9156 24.7085C81.9395 24.07 81.7585 23.4404 81.3994 22.9123L80.5725 23.4747ZM80.9163 24.671L79.917 24.6334C79.909 24.8455 79.8333 25.0494 79.7015 25.215L80.4837 25.838L81.2659 26.461C81.6638 25.9614 81.8916 25.3471 81.9156 24.7086L80.9163 24.671ZM80.4837 25.838L79.7015 25.2149C79.5702 25.3797 79.3892 25.4981 79.1855 25.5525L79.4436 26.5186L79.7018 27.4847C80.3186 27.3199 80.8672 26.9615 81.2658 26.4611L80.4837 25.838ZM79.4436 26.5186L79.1853 25.5526L45.3386 34.6024L45.5969 35.5684L45.8553 36.5345L79.7019 27.4847L79.4436 26.5186ZM45.5969 35.5684L44.6041 35.6876C44.6524 36.0901 44.678 36.4939 44.678 36.8975H45.678H46.678C46.678 36.4094 46.647 35.9259 46.5898 35.4492L45.5969 35.5684ZM45.678 36.8975L44.678 36.8964C44.6766 38.1233 44.451 39.3272 44.027 40.4561L44.9632 40.8077L45.8993 41.1593C46.4057 39.8108 46.6764 38.3698 46.678 36.8986L45.678 36.8975ZM44.9632 40.8077L44.0499 41.215L51.4454 57.799L52.3587 57.3917L53.272 56.9844L45.8765 40.4004L44.9632 40.8077ZM52.3587 57.3917V58.3917H53.6018V57.3917V56.3917H52.3587V57.3917ZM53.6018 57.3917V58.3917C53.7393 58.3917 53.8747 58.4187 53.9997 58.4706L54.3831 57.547L54.7664 56.6233C54.3964 56.4698 54.0003 56.3917 53.6018 56.3917V57.3917ZM54.3831 57.547L53.9995 58.4705C54.1255 58.5228 54.2411 58.6002 54.3381 58.6974L55.0462 57.9913L55.7542 57.2851C55.472 57.0022 55.136 56.7768 54.7666 56.6234L54.3831 57.547ZM55.0462 57.9913L54.3379 58.6972C54.4346 58.7943 54.5118 58.91 54.5643 59.0372L55.4885 58.6553L56.4128 58.2735C56.2603 57.9043 56.0364 57.5683 55.7544 57.2853L55.0462 57.9913ZM55.4885 58.6553L54.5642 59.0369C54.6167 59.1641 54.6438 59.3008 54.6438 59.4386H55.6438L56.6438 59.4386C56.6438 59.039 56.5653 58.643 56.4129 58.2738L55.4885 58.6553ZM55.6438 59.4386H54.6438V75.585H55.6438H56.6438V59.4386H55.6438ZM55.6438 75.585H54.6438C54.6438 75.8635 54.5334 76.1302 54.338 76.3263L55.0462 77.0323L55.7544 77.7383C56.3242 77.1667 56.6438 76.392 56.6438 75.585H55.6438ZM55.0462 77.0323L54.3381 76.3261C54.1428 76.522 53.8775 76.6319 53.6018 76.6319V77.6319V78.6319C54.409 78.6319 55.1838 78.3104 55.7542 77.7385L55.0462 77.0323ZM53.6018 77.6319V76.6319H29.3499V77.6319V78.6319H53.6018V77.6319ZM29.3499 77.6319L28.6959 76.8754L23.9479 80.9799L24.6018 81.7364L25.2558 82.4929L30.0039 78.3884L29.3499 77.6319ZM24.6018 81.7364L23.9476 80.9801C23.7688 81.1348 23.5407 81.2197 23.3054 81.2198L23.3059 82.2198L23.3064 83.2198C24.0225 83.2195 24.7145 82.9612 25.2561 82.4927L24.6018 81.7364ZM23.3059 82.2198L23.3063 81.2198C23.1566 81.2197 23.0078 81.1849 22.8716 81.1175L22.428 82.0137L21.9844 82.91C22.3943 83.1129 22.8463 83.2196 23.3056 83.2198L23.3059 82.2198ZM22.428 82.0137L22.8718 81.1176C22.7359 81.0503 22.6171 80.9525 22.5254 80.8324L21.7307 81.4395L20.9361 82.0466C21.2148 82.4114 21.5739 82.7067 21.9842 82.9099L22.428 82.0137ZM21.7307 81.4395L22.5254 80.8325C22.4335 80.7122 22.3702 80.5719 22.3407 80.4225L21.3596 80.6163L20.3786 80.8101C20.4674 81.2593 20.6579 81.6824 20.936 82.0465L21.7307 81.4395ZM21.3596 80.6163L22.3407 80.4227C22.3111 80.2727 22.3164 80.1178 22.3557 79.9713L21.3899 79.712L20.4241 79.4526C20.3051 79.8959 20.2899 80.3607 20.3786 80.8099L21.3596 80.6163ZM21.3899 79.712L22.3557 79.9713L22.9143 77.8913L21.9485 77.6319L20.9827 77.3726L20.4241 79.4526L21.3899 79.712ZM21.9485 77.6319V76.6319H15.5716V77.6319V78.6319H21.9485V77.6319ZM15.5716 77.6319L15.5717 76.6319C15.4338 76.6319 15.2986 76.6049 15.1739 76.5531L14.7903 77.4766L14.4067 78.4002C14.7772 78.554 15.1733 78.6319 15.5714 78.6319L15.5716 77.6319ZM14.7903 77.4766L15.1739 76.5531C15.0492 76.5013 14.9341 76.4243 14.8362 76.3261L14.1282 77.0323L13.4201 77.7385C13.7013 78.0204 14.0362 78.2462 14.4067 78.4001L14.7903 77.4766ZM14.1282 77.0323L14.8363 76.3262C14.7397 76.2293 14.6627 76.1138 14.6101 75.9864L13.6858 76.3682L12.7616 76.7501C12.9141 77.1192 13.1378 77.4552 13.4201 77.7384L14.1282 77.0323ZM13.6858 76.3682L14.6101 75.9865C14.5576 75.8595 14.5305 75.723 14.5305 75.585H13.5305H12.5305C12.5305 75.9846 12.6089 76.3804 12.7615 76.75L13.6858 76.3682ZM13.5305 75.585H14.5305V59.4386H13.5305H12.5305V75.585H13.5305ZM13.5305 59.4386H14.5305C14.5305 59.3007 14.5576 59.1641 14.6101 59.037L13.6858 58.6553L12.7615 58.2737C12.609 58.6431 12.5305 59.039 12.5305 59.4386L13.5305 59.4386ZM13.6858 58.6553L14.6101 59.0372C14.6626 58.9099 14.7397 58.7943 14.8364 58.6973L14.1282 57.9913L13.42 57.2853C13.1378 57.5683 12.9141 57.9043 12.7616 58.2735L13.6858 58.6553ZM14.1282 57.9913L14.8362 58.6974C14.9341 58.5993 15.0492 58.5223 15.174 58.4704L14.7903 57.547L14.4067 56.6235C14.0362 56.7774 13.7013 57.0032 13.4201 57.2851L14.1282 57.9913ZM14.7903 57.547L15.1739 58.4705C15.2986 58.4187 15.4338 58.3917 15.5717 58.3917L15.5716 57.3917L15.5714 56.3917C15.1733 56.3917 14.7772 56.4696 14.4067 56.6234L14.7903 57.547ZM15.5716 57.3917V58.3917H16.5608V57.3917V56.3917H15.5716V57.3917ZM16.5608 57.3917L17.4643 57.8202L25.2075 41.494L24.304 41.0655L23.4004 40.637L15.6573 56.9632L16.5608 57.3917ZM24.304 41.0655L25.2314 40.6916C24.8947 39.8565 24.673 38.9841 24.5675 38.0977L23.5745 38.2159L22.5815 38.3341C22.7077 39.3942 22.973 40.4386 23.3765 41.4394L24.304 41.0655ZM23.5745 38.2159L23.5819 37.2159L9.1327 37.1085L9.12527 38.1085L9.11783 39.1084L23.5671 39.2159L23.5745 38.2159ZM9.12527 38.1085L9.13295 37.1085C8.90532 37.1068 8.68493 37.0258 8.51011 36.8796L7.86843 37.6466L7.22676 38.4135C7.75756 38.8576 8.42624 39.1031 9.11758 39.1084L9.12527 38.1085ZM7.86843 37.6466L8.51026 36.8797C8.33556 36.7335 8.21607 36.5302 8.17319 36.304L7.1907 36.4903L6.2082 36.6766C6.33689 37.3553 6.69617 37.9694 7.2266 38.4134L7.86843 37.6466ZM7.1907 36.4903L8.17317 36.3039L2.09993 4.29511L1.11745 4.48152L0.134983 4.66793L6.20823 36.6767L7.1907 36.4903ZM1.11745 4.48152L2.09996 4.2953C2.06037 4.0864 2.08863 3.87056 2.18019 3.67972L1.27859 3.24715L0.376987 2.81458C0.100519 3.39082 0.0160369 4.04038 0.134948 4.66775L1.11745 4.48152ZM1.27859 3.24715L2.18013 3.67985C2.27229 3.48782 2.42278 3.33146 2.60793 3.23341L2.13992 2.34969L1.6719 1.46597C1.10622 1.76555 0.653104 2.23929 0.37705 2.81445L1.27859 3.24715ZM17.6135 73.5372V74.5372H23.0481V73.5372V72.5372H17.6135V73.5372ZM23.0481 73.5372L24.0139 73.7966L27.2512 61.7449L26.2854 61.4854L25.3197 61.226L22.0824 73.2778L23.0481 73.5372ZM26.2854 61.4854V60.4854H17.6135V61.4854V62.4854H26.2854V61.4854ZM17.6135 61.4854H16.6135V73.5372H17.6135H18.6135V61.4854H17.6135ZM38.9348 47.1212L38.5411 46.2019C37.3008 46.7332 35.9573 47.0171 34.5851 47.0186L34.5862 48.0186L34.5873 49.0186C36.2346 49.0168 37.8448 48.6759 39.3285 48.0404L38.9348 47.1212ZM34.5862 48.0186L34.5862 47.0186C34.4188 47.0186 34.2472 47.0126 34.0675 47.0034L34.0159 48.002L33.9643 49.0007C34.1639 49.011 34.3724 49.0186 34.5862 49.0186L34.5862 48.0186ZM34.0159 48.002L33.0501 47.7427L30.1058 58.7075L31.0716 58.9669L32.0373 59.2262L34.9817 48.2614L34.0159 48.002ZM31.0716 58.9669L30.0983 59.1968C30.1186 59.2825 30.1282 59.3633 30.1282 59.4386H31.1282H32.1282C32.1282 59.1935 32.097 58.958 32.0448 58.7369L31.0716 58.9669ZM31.1282 59.4386L30.1282 59.4384C30.1282 59.7046 30.0255 59.9616 29.8401 60.1578L30.5667 60.8448L31.2933 61.5319C31.8258 60.9687 32.1281 60.2216 32.1282 59.4387L31.1282 59.4386ZM30.5667 60.8448L29.6009 60.5855L26.1927 73.2778L27.1585 73.5372L28.1243 73.7965L31.5325 61.1041L30.5667 60.8448ZM27.1585 73.5372V74.5372H28.0061V73.5372V72.5372H27.1585V73.5372ZM28.0061 73.5372L28.6601 74.2937L45.7832 59.49L45.1292 58.7335L44.4752 57.977L27.3521 72.7807L28.0061 73.5372ZM45.1292 58.7335L46.0682 59.0774C46.0927 59.0103 46.1226 58.9484 46.1574 58.8914L45.304 58.3702L44.4506 57.849C44.3446 58.0224 44.2583 58.2037 44.1902 58.3896L45.1292 58.7335ZM45.304 58.3702L46.1742 57.8775L39.805 46.6285L38.9348 47.1212L38.0646 47.6139L44.4338 58.8629L45.304 58.3702ZM34.0862 73.5372V74.5372H51.5608V73.5372V72.5372H34.0862V73.5372ZM51.5608 73.5372H52.5608V61.4854H51.5608H50.5608V73.5372H51.5608ZM51.5608 61.4854V60.4854H48.0257V61.4854V62.4854H51.5608V61.4854ZM48.0257 61.4854L47.3716 60.729L33.4322 72.7807L34.0862 73.5372L34.7402 74.2937L48.6797 62.2419L48.0257 61.4854ZM20.9553 57.3917V58.3917H27.3841V57.3917V56.3917H20.9553V57.3917ZM27.3841 57.3917L28.3498 57.651L31.1164 47.3493L30.1507 47.0899L29.1849 46.8306L26.4183 57.1323L27.3841 57.3917ZM30.1507 47.0899L30.5515 46.1738C30.0054 45.9348 29.4792 45.6478 28.9807 45.3138L28.4241 46.1446L27.8675 46.9754C28.4665 47.3767 29.0971 47.7205 29.7498 48.0061L30.1507 47.0899ZM28.4241 46.1446L28.9807 45.3138C28.4779 44.977 28.0086 44.5964 27.5768 44.1782L26.8811 44.8966L26.1854 45.6149C26.7019 46.115 27.2641 46.5711 27.8675 46.9754L28.4241 46.1446ZM26.8811 44.8966L25.9776 44.4681L20.0518 56.9632L20.9553 57.3917L21.8589 57.8202L27.7847 45.3251L26.8811 44.8966ZM42.2542 44.92L41.384 45.4127L42.2951 47.022L43.1653 46.5294L44.0355 46.0367L43.1244 44.4273L42.2542 44.92ZM43.1653 46.5294L44.0786 46.122L43.3032 44.3837L42.3899 44.7911L41.4767 45.1985L42.252 46.9368L43.1653 46.5294ZM42.3899 44.7911L41.685 44.0818C41.639 44.1276 41.6494 44.1143 41.5613 44.199L42.2542 44.92L42.9471 45.641C42.9489 45.6393 43.0523 45.5427 43.0949 45.5004L42.3899 44.7911ZM34.5862 29.7559L34.5861 28.7559C32.9791 28.756 31.4081 29.2345 30.0726 30.1293L30.6292 30.96L31.1858 31.7908C32.1926 31.1163 33.3763 30.756 34.5863 30.7559L34.5862 29.7559ZM30.6292 30.96L30.0725 30.1293C28.7373 31.024 27.6964 32.2951 27.0819 33.7823L28.0061 34.1641L28.9304 34.546C29.3939 33.424 30.1791 32.4654 31.1858 31.7908L30.6292 30.96ZM28.0061 34.1641L27.0819 33.7823C26.4674 35.2697 26.3068 36.907 26.62 38.4857L27.6009 38.2911L28.5817 38.0965C28.3453 36.9046 28.4667 35.6684 28.9304 34.546L28.0061 34.1641ZM27.6009 38.2911L26.62 38.4857C26.7409 39.0951 26.9312 39.6833 27.1819 40.2411L28.094 39.8311L29.0061 39.4212C28.8158 38.9977 28.6725 38.5537 28.5817 38.0965L27.6009 38.2911ZM28.094 39.8311L27.2977 40.4361C27.3649 40.5244 27.4151 40.6188 27.4481 40.7157L28.3948 40.3936L29.3415 40.0716C29.2363 39.7623 29.0817 39.4781 28.8903 39.2262L28.094 39.8311ZM28.3948 40.3936L27.4481 40.7156C27.4436 40.7025 27.4406 40.6925 27.4391 40.6873C27.4377 40.6824 27.437 40.6797 27.4379 40.6829C27.4384 40.6852 27.4386 40.6856 27.4397 40.6899C27.4405 40.693 27.4418 40.6976 27.4432 40.7028C27.446 40.713 27.4503 40.7285 27.4558 40.7467L28.4124 40.4552L29.3689 40.1636C29.3702 40.1678 29.3712 40.1711 29.3718 40.1732C29.3724 40.1754 29.3727 40.1767 29.3728 40.1768C29.3728 40.1768 29.3726 40.1763 29.3721 40.1743C29.3718 40.1733 29.3706 40.1687 29.3698 40.1657C29.3665 40.1534 29.3565 40.1155 29.3415 40.0716L28.3948 40.3936ZM28.4124 40.4552L27.5448 40.9524C27.8983 41.5693 28.3325 42.1426 28.842 42.6535L29.5501 41.9473L30.2581 41.2412C29.8759 40.8579 29.5481 40.4258 29.28 39.9579L28.4124 40.4552ZM29.5501 41.9473L28.842 42.6535C29.978 43.7925 31.4262 44.5678 33.0019 44.8821L33.1975 43.9014L33.3931 42.9208C32.2057 42.6839 31.1143 42.0997 30.2581 41.2412L29.5501 41.9473ZM33.1975 43.9014L33.002 44.8821C34.5778 45.1963 36.211 45.0351 37.6953 44.4187L37.3118 43.4952L36.9283 42.5717C35.8101 43.036 34.58 43.1574 33.3931 42.9207L33.1975 43.9014ZM37.3118 43.4952L37.6953 44.4187C39.1794 43.8023 40.4488 42.759 41.3412 41.4199L40.5091 40.8653L39.6769 40.3108C39.0041 41.3204 38.047 42.107 36.9282 42.5717L37.3118 43.4952ZM40.5091 40.8653L41.3412 41.4198C42.2334 40.081 42.7092 38.5071 42.7093 36.8975L41.7093 36.8975L40.7093 36.8975C40.7092 38.1129 40.3499 39.3008 39.6769 40.3108L40.5091 40.8653ZM41.7093 36.8975L42.7093 36.8964C42.7067 34.739 41.8503 32.6706 40.3285 31.1445L39.6204 31.8507L38.9123 32.5568C40.0606 33.7083 40.7073 35.2696 40.7093 36.8987L41.7093 36.8975ZM39.6204 31.8507L40.3284 31.1445C38.8063 29.6183 36.7415 28.7585 34.5874 28.7559L34.5862 29.7559L34.585 30.7559C36.2075 30.7579 37.7641 31.4055 38.9123 32.5568L39.6204 31.8507ZM10.7835 34.1407L10.7761 35.1407L23.8102 35.2374L23.8176 34.2374L23.8251 33.2374L10.7909 33.1407L10.7835 34.1407ZM23.8176 34.2374L24.7888 34.476C25.1419 33.0386 25.8031 31.6989 26.7245 30.5508L25.9446 29.9249L25.1647 29.299C24.0603 30.6752 23.269 32.2794 22.8465 33.9988L23.8176 34.2374ZM25.9446 29.9249L26.6536 29.2196L6.93286 9.39541L6.2239 10.1007L5.51495 10.8059L25.2356 30.6301L25.9446 29.9249ZM6.2239 10.1007L5.24142 10.287L9.80099 34.327L10.7835 34.1407L11.766 33.9544L7.20639 9.91432L6.2239 10.1007ZM41.9368 28.5684L41.2731 29.3165C41.9189 29.8894 42.4922 30.5463 42.9767 31.2734L43.8089 30.7188L44.641 30.1643C44.061 29.294 43.3744 28.5071 42.6004 27.8204L41.9368 28.5684ZM43.8089 30.7188L42.9767 31.2734C43.1798 31.5782 43.3656 31.8944 43.5348 32.22L44.4221 31.7589L45.3095 31.2977C45.1084 30.9108 44.886 30.532 44.641 30.1643L43.8089 30.7188ZM44.4221 31.7589L44.6803 32.725L72.4372 25.307L72.179 24.3409L71.9208 23.3748L44.164 30.7928L44.4221 31.7589ZM72.179 24.3409L72.5089 23.3969L49.465 15.3422L49.135 16.2862L48.8051 17.2302L71.849 25.2849L72.179 24.3409ZM49.135 16.2862L48.2723 15.7806L41.074 28.0628L41.9368 28.5684L42.7995 29.0741L49.9978 16.7918L49.135 16.2862Z" fill="white" mask="url(#path-2-inside-1_111_145)"/>
<path d="M34.6047 41.8357C33.6306 41.8357 32.6784 41.5461 31.8685 41.0035C31.0586 40.4609 30.4273 39.6896 30.0546 38.7873C29.6818 37.8849 29.5843 36.892 29.7743 35.9341C29.9644 34.9762 30.4334 34.0963 31.1222 33.4057C31.811 32.7151 32.6885 32.2448 33.6439 32.0542C34.5992 31.8637 35.5895 31.9615 36.4894 32.3352C37.3893 32.709 38.1585 33.3419 38.6997 34.154C39.2408 34.9661 39.5297 35.9208 39.5297 36.8975C39.5297 37.1614 39.4251 37.4145 39.239 37.6011C39.0529 37.7877 38.8005 37.8925 38.5373 37.8925C38.2741 37.8925 38.0217 37.7877 37.8356 37.6011C37.6495 37.4145 37.5449 37.1614 37.5449 36.8975C37.5449 36.3144 37.3725 35.7444 37.0494 35.2596C36.7263 34.7748 36.2671 34.3969 35.7299 34.1738C35.1926 33.9507 34.6014 33.8923 34.0311 34.006C33.4607 34.1198 32.9368 34.4006 32.5256 34.8129C32.1144 35.2252 31.8344 35.7505 31.7209 36.3224C31.6075 36.8942 31.6657 37.487 31.8882 38.0257C32.1108 38.5644 32.4876 39.0249 32.9712 39.3488C33.4547 39.6727 34.0232 39.8456 34.6047 39.8456C34.8679 39.8456 35.1203 39.9505 35.3064 40.1371C35.4925 40.3237 35.597 40.5768 35.597 40.8407C35.597 41.1046 35.4925 41.3577 35.3064 41.5443C35.1203 41.7309 34.8679 41.8357 34.6047 41.8357Z" fill="black"/>
<path d="M19.8071 29.2822C19.6764 29.2824 19.5469 29.2566 19.4263 29.2064C19.3056 29.1561 19.196 29.0824 19.1039 28.9894L11.0525 20.8747C10.8668 20.6876 10.763 20.4342 10.7637 20.1703C10.7644 19.9064 10.8696 19.6536 11.0562 19.4675C11.2429 19.2814 11.4956 19.1772 11.7588 19.1779C12.022 19.1786 12.2741 19.2842 12.4597 19.4713L20.5112 27.586C20.6493 27.7254 20.7432 27.9027 20.7809 28.0955C20.8187 28.2884 20.7986 28.4881 20.7233 28.6696C20.648 28.851 20.5208 29.006 20.3577 29.115C20.1947 29.2241 20.0031 29.2823 19.8071 29.2822ZM47.3259 27.0344C47.1466 27.0348 46.9704 26.9865 46.8163 26.8945C46.6621 26.8026 46.5357 26.6704 46.4504 26.5121C46.3652 26.3539 46.3244 26.1754 46.3323 25.9957C46.3401 25.816 46.3964 25.6418 46.4952 25.4917L50.0989 19.9432C50.2437 19.7221 50.4701 19.5678 50.7283 19.5141C50.9866 19.4605 51.2555 19.5119 51.4759 19.657C51.6964 19.8022 51.8503 20.0292 51.9038 20.2881C51.9574 20.547 51.9061 20.8167 51.7614 21.0377L48.1586 26.5824C48.0684 26.7214 47.945 26.8356 47.7996 26.9145C47.6541 26.9935 47.4913 27.0347 47.3259 27.0344ZM34.1416 65.5771C33.9394 65.577 33.742 65.515 33.5759 65.3994C33.4098 65.2837 33.2828 65.12 33.2121 64.93C33.1414 64.7401 33.1302 64.533 33.1801 64.3365C33.23 64.14 33.3386 63.9634 33.4914 63.8305L40.4313 57.7959C40.6317 57.6419 40.8832 57.5703 41.1344 57.5957C41.3857 57.621 41.6178 57.7415 41.7836 57.9324C41.9493 58.1234 42.0363 58.3706 42.0267 58.6236C42.017 58.8766 41.9116 59.1164 41.7318 59.2942L34.7918 65.3288C34.6123 65.4878 34.3812 65.576 34.1416 65.5771Z" fill="black"/>
<path d="M52.9948 64.8189H47.9157C47.6525 64.8189 47.4001 64.7141 47.214 64.5275C47.0279 64.3409 46.9233 64.0878 46.9233 63.8239C46.9233 63.56 47.0279 63.3069 47.214 63.1203C47.4001 62.9337 47.6525 62.8289 47.9157 62.8289H52.9948C53.2579 62.8289 53.5104 62.9337 53.6965 63.1203C53.8826 63.3069 53.9871 63.56 53.9871 63.8239C53.9871 64.0878 53.8826 64.3409 53.6965 64.5275C53.5104 64.7141 53.2579 64.8189 52.9948 64.8189Z" fill="black"/>
<path d="M33.6938 36.8975C33.6938 37.0175 33.7174 37.1363 33.7631 37.2472C33.8089 37.3581 33.876 37.4588 33.9606 37.5437C34.0452 37.6285 34.1457 37.6958 34.2562 37.7418C34.3668 37.7877 34.4853 37.8113 34.6049 37.8113C34.7246 37.8113 34.8431 37.7877 34.9537 37.7418C35.0642 37.6958 35.1647 37.6285 35.2493 37.5437C35.3339 37.4588 35.401 37.3581 35.4468 37.2472C35.4925 37.1363 35.5161 37.0175 35.516 36.8975C35.5161 36.7775 35.4925 36.6587 35.4468 36.5478C35.401 36.437 35.3339 36.3362 35.2493 36.2514C35.1647 36.1665 35.0642 36.0992 34.9537 36.0533C34.8431 36.0074 34.7246 35.9837 34.6049 35.9837C34.4853 35.9837 34.3668 36.0074 34.2562 36.0533C34.1457 36.0992 34.0452 36.1665 33.9606 36.2514C33.876 36.3362 33.8089 36.437 33.7631 36.5478C33.7174 36.6587 33.6938 36.7775 33.6938 36.8975Z" fill="black"/>
</g>
<defs>
<clipPath id="clip0_111_145">
<rect width="82" height="82.2196" fill="white"/>
</clipPath>
</defs>
</svg>
