<svg width="82" height="83" viewBox="0 0 82 83" fill="none" xmlns="http://www.w3.org/2000/svg">
<path d="M71.718 13.5521L78.3151 2.56937H65.1849L62.3917 6.17161C58.1675 3.89387 53.5255 2.56937 48.9027 2.56937C44.2941 2.57065 39.7072 3.88745 35.5816 6.85635L35.5316 6.85506C32.7641 6.85506 29.1728 9.06343 27.2407 10.4085C26.7576 10.7027 26.2925 11.0277 25.8697 11.417L25.8633 11.4221V11.4234C25.5589 11.7028 25.2762 12.0052 25.0177 12.3278C22.7255 15.2004 22.8165 19.1803 23.7685 22.5783C23.8761 22.9611 23.9978 23.3401 24.1234 23.7165L2.66372 37.0104V38.3028L24.5244 24.8265C24.7128 25.3198 24.9152 25.8067 25.1317 26.2872L2.66372 41.5761V42.9058L25.666 27.4061C25.88 27.8326 26.1042 28.254 26.3387 28.6715L2.66372 46.2254V47.8467L26.9934 29.7905C27.0767 29.9254 27.1587 30.0641 27.2445 30.1977L2.66372 50.9813V52.2737L27.8352 31.1009C28.012 31.3642 28.1901 31.6276 28.3746 31.8871L2.66372 56.9448V58.2372L28.9511 32.6772C29.1484 32.9418 29.3522 33.2013 29.5559 33.4608L2.66372 61.7701V63.0599L30.1132 34.1648C31.4292 35.7642 32.838 37.2845 34.3324 38.7177L2.66372 65.7449V67.5344L35.301 39.635C35.5739 39.8868 35.8468 40.1399 36.1223 40.3852L2.66372 72.0244V73.8139L37.0909 41.237L37.1037 41.2486C37.3612 41.4708 37.6342 41.6815 37.8943 41.8999L2.5625 79.6502H4.21019L38.8718 42.7028C39.064 42.857 39.2485 43.0201 39.4433 43.173L10.0847 79.6502H11.7324L40.4708 43.9412C40.7796 44.1738 41.0871 44.4089 41.401 44.6363L16.6908 79.6502H18.3385L42.4568 45.3839C42.8271 45.6409 43.205 45.8927 43.583 46.1419L22.8011 79.6502H24.2605L44.6657 46.8536C46.8591 48.2356 49.149 49.457 51.5178 50.5085L27.994 79.6502H29.3611L52.6632 51.016C52.9707 51.1432 53.2833 51.2498 53.5934 51.3693L33.4291 79.6502H34.7949L54.7773 51.8202L54.8836 51.86L38.6246 79.6502H39.9904L56.0778 52.2583C56.293 52.3276 56.507 52.3893 56.7209 52.4535L43.7047 79.6502H45.0718L57.933 52.8235C58.0227 52.8479 58.1124 52.8813 58.2021 52.9045C58.5057 52.9854 58.8248 53.0638 59.1476 53.1408L47.8803 79.6502H49.1795L60.3827 53.4068C60.8581 53.4993 61.3463 53.5815 61.8434 53.6534L52.3749 79.6502H53.6562L63.1708 53.8179C68.1625 54.3189 73.6706 53.5211 75.973 48.8898C77.1287 46.9513 78.6354 43.6149 78.2203 40.0294C81.3863 30.4174 78.0794 20.6885 71.718 13.5521ZM66.4367 5.13873H73.7833C73.7833 5.13873 72.0267 7.3304 69.6539 8.98892C68.9505 9.48095 68.0446 9.48609 67.1708 9.29467C66.3443 8.64643 65.4884 8.03684 64.6057 7.46786L66.4367 5.13873ZM27.1945 24.883C27.0273 24.4132 26.8781 23.9371 26.7474 23.4557L37.0627 17.0978C37.1434 17.2314 37.228 17.3612 37.3164 17.4742C37.4023 17.5847 37.5035 17.6939 37.5996 17.8018L27.1945 24.883ZM28.1977 27.2931C28.0068 26.8884 27.8253 26.4793 27.6532 26.0662L38.5669 18.7114C38.7642 18.8668 38.9679 19.0133 39.1819 19.1482L28.1977 27.2931ZM28.9473 28.7602C28.8935 28.6612 28.8371 28.5636 28.7846 28.4634L31.9979 26.079L32.0312 26.1535L28.9473 28.7602ZM29.9018 30.3956C29.7609 30.1695 29.6199 29.9408 29.4841 29.7134L32.636 27.0618C32.7411 27.18 32.85 27.2956 32.9678 27.41L29.9018 30.3956ZM30.4412 31.2293L33.7263 28.0369C33.9262 28.1769 34.1351 28.3041 34.3516 28.4146L30.9563 31.9886C30.7795 31.7381 30.6116 31.4824 30.4412 31.2293ZM37.424 39.152C37.1716 38.9246 36.9179 38.6972 36.6694 38.4646L45.4267 30.9775C45.3829 31.1796 45.3803 31.3885 45.419 31.5916L37.424 39.152ZM39.1063 40.6036C38.8667 40.4071 38.6322 40.2028 38.3939 40.0011L45.9559 32.8467C45.9918 32.8968 46.0251 32.9546 46.0609 33.0022L46.1378 33.0895L39.1063 40.6036ZM49.127 31.142C48.3505 30.6024 47.4575 30.2273 46.5824 30.2324C46.4479 30.2324 46.3492 30.262 46.2416 30.2825L51.8509 25.4868C51.8868 25.5395 51.9201 25.5998 51.9585 25.6487C52.2045 25.9647 52.4954 26.273 52.8093 26.5659L49.127 31.142ZM53.8138 27.3599C54.152 27.5847 54.5031 27.7851 54.8683 27.9457L51.2 33.8603C51.0972 33.3606 50.8806 32.8915 50.5671 32.4896C50.4229 32.3083 50.2689 32.1351 50.1058 31.9706L53.8138 27.3599ZM47.961 34.6337C48.0802 34.7018 48.1993 34.7686 48.3211 34.8264L45.1538 39.3151C45.132 39.2881 45.1103 39.256 45.0898 39.2329C44.9437 39.0727 44.7875 38.9221 44.6221 38.782L47.961 34.6337ZM43.5189 38.1075C43.4382 38.0754 43.3626 38.0266 43.2806 38.0009L45.56 35.5703L43.5189 38.1075ZM40.5695 41.774C40.4093 41.6494 40.2492 41.5299 40.0916 41.404L42.0237 39.3434C42.0903 39.4718 42.1634 39.5913 42.2441 39.6941L40.5695 41.774ZM42.435 43.1692L42.3645 43.1203C42.107 42.9341 41.8482 42.7413 41.5894 42.5499L43.1832 40.5702C43.428 40.7475 43.6881 40.894 43.961 41.0057L42.435 43.1692ZM44.535 44.608C44.1852 44.3768 43.8367 44.1468 43.4933 43.9117L45.5254 41.025C45.5548 40.9968 45.5753 40.9608 45.5958 40.9261L49.6138 35.2183C49.7509 35.2362 49.888 35.2542 50.0251 35.2542C50.1584 35.2542 50.2558 35.2273 50.3659 35.208L44.535 44.608ZM54.7337 49.7686C54.4602 49.6747 54.1881 49.5766 53.9176 49.4744L57.0874 45.5779C57.2001 45.709 57.3206 45.8361 57.45 45.9608L54.7337 49.7686ZM57.6012 50.6177C57.4384 50.5779 57.2744 50.5394 57.113 50.497L59.1143 47.09C59.1643 47.1118 59.2117 47.1298 59.2617 47.1491L57.6012 50.6177ZM60.015 51.1021C59.6276 51.0426 59.2414 50.9749 58.8568 50.8991L60.5365 47.3983C61.9792 47.3713 61.6602 45.8914 60.9875 45.0332C60.8621 44.8757 60.7287 44.7247 60.5877 44.581L63.6525 39.3639C63.9472 39.6748 64.2803 39.969 64.6391 40.2298L60.015 51.1021ZM62.68 51.359C62.2201 51.3397 61.7588 51.3076 61.2988 51.2626L65.7294 40.8837C65.9485 40.9865 66.174 41.0751 66.3982 41.1458L62.68 51.359ZM72.8903 47.0283C71.2618 50.082 67.8358 51.2113 64.6519 51.3641C64.4584 51.3731 64.2637 51.368 64.0715 51.3718L67.7704 41.3333C69.4976 41.2408 69.1439 39.4243 68.3098 38.3452C67.2977 37.0374 65.559 35.8439 63.887 35.8362C62.2713 35.8272 62.2931 37.1684 62.8453 38.2591L59.6153 43.7781C58.9465 43.3336 58.1867 43.0266 57.441 43.015C56.3993 42.9996 56.2328 43.6959 56.4378 44.4166L52.7273 49.0119C50.2532 47.9906 47.8675 46.711 45.6292 45.3081L56.1867 28.3401C56.3942 28.3709 56.6043 28.3927 56.8119 28.3915C58.9606 28.3812 58.4519 26.1754 57.5192 24.9665C56.4096 23.5289 54.4852 22.189 52.6402 22.2109C51.1911 22.2288 50.9745 23.2399 51.2667 24.2663L35.7097 37.5435C34.183 36.0436 32.7726 34.4292 31.4906 32.7144L35.2562 28.7512C35.4945 28.809 35.7341 28.8488 35.9737 28.8475C37.5509 28.8398 37.014 27.1607 36.3657 26.3411C35.7994 25.623 34.9474 24.9254 34.0313 24.5695L40.4977 19.7725C40.9001 19.8984 41.3113 19.9691 41.7188 19.9627C43.6945 19.9331 43.0872 17.8481 42.2595 16.7908C41.2498 15.4958 39.5048 14.2484 37.8276 14.2895C36.6168 14.3165 36.399 15.1271 36.5989 15.9879L26.4745 22.2597C26.0248 19.928 26.0978 17.4922 27.3034 15.4239C29.0562 12.4126 32.5771 11.4041 35.784 11.3142C43.5215 11.0984 51.2974 15.0128 57.514 19.4411C63.5782 23.7615 69.4309 29.5502 72.4124 36.6211C73.7603 39.8174 74.611 43.8051 72.8903 47.0283ZM76.7046 35.1386C75.9146 33.4407 74.998 31.805 73.9627 30.2453C71.8141 26.9809 69.1055 23.8591 66.051 21.0187C62.9889 18.1736 59.6474 15.6466 56.0778 13.4763C52.5671 11.3412 48.9489 9.64025 45.4395 8.49303C43.68 7.91227 41.8771 7.47281 40.048 7.1788C42.8044 5.82656 45.8342 5.12852 48.9027 5.13873C58.8171 5.13873 69.4912 12.1544 74.283 21.8203C75.7539 24.7905 77.3939 29.5657 76.7046 35.1386Z" fill="black"/>
</svg>
