<svg width="82" height="83" viewBox="0 0 82 83" fill="none" xmlns="http://www.w3.org/2000/svg">
<g clip-path="url(#clip0_111_6)">
<path d="M67.5883 27.7941C71.5377 27.7941 74.7513 24.5719 74.7513 20.6113C74.7513 16.6514 71.5378 13.4291 67.5883 13.4291C63.6388 13.4291 60.4254 16.6514 60.4254 20.6113C60.4254 24.5712 63.6389 27.7941 67.5883 27.7941ZM67.5883 14.776C70.7966 14.776 73.408 17.3942 73.408 20.6114C73.408 23.8293 70.7966 26.4474 67.5883 26.4474C64.3787 26.4474 61.7685 23.8293 61.7685 20.6114C61.7685 17.3936 64.3787 14.776 67.5883 14.776ZM56.5389 17.1083C56.535 17.0646 56.5402 17.0195 56.5547 16.9758C56.6109 16.7986 56.8006 16.7022 56.9769 16.7594L58.8126 17.3575C58.9891 17.4154 59.0853 17.6054 59.0277 17.7816C58.9818 17.9244 58.8505 18.0147 58.7089 18.0147C58.7089 18.0147 58.7089 18.0147 58.7075 18.0147C58.6728 18.0147 58.6374 18.0095 58.6039 17.9986L56.7688 17.4005C56.6373 17.3575 56.55 17.2389 56.5389 17.1083ZM60.6772 11.6244C60.5684 11.4745 60.601 11.2637 60.7519 11.1546C60.9013 11.0454 61.1125 11.0777 61.2208 11.2286L62.3553 12.7943C62.4642 12.9449 62.4314 13.155 62.2807 13.264C62.2216 13.3071 62.1528 13.3288 62.0839 13.3288C61.9811 13.3288 61.8779 13.2808 61.813 13.19L61.8117 13.1895L60.6772 11.6244ZM72.8506 13.2332C72.7012 13.1234 72.6689 12.9126 72.7772 12.7627L73.9111 11.197C74.0199 11.0454 74.2311 11.0139 74.3807 11.1228C74.5297 11.232 74.5624 11.4428 74.4535 11.593L73.3203 13.1586C73.2542 13.2494 73.1526 13.2974 73.0489 13.2974C72.9792 13.2967 72.911 13.2763 72.8506 13.2332ZM76.1311 17.7308C76.0735 17.5535 76.1711 17.3636 76.3462 17.3062L78.1813 16.7073C78.3583 16.6491 78.5472 16.7477 78.605 16.9233C78.6613 17.1005 78.5649 17.2902 78.3886 17.3474L76.5535 17.9468C76.5193 17.9583 76.4839 17.9628 76.4506 17.9628C76.3083 17.9635 76.177 17.8728 76.1311 17.7308ZM78.6214 24.1081C78.5761 24.2501 78.4429 24.3412 78.3013 24.3412C78.2673 24.3412 78.2312 24.3355 78.1977 24.3251L76.3634 23.727C76.1856 23.6698 76.0906 23.4798 76.1469 23.3029C76.2047 23.1263 76.3961 23.0287 76.5706 23.0865L78.4057 23.6846C78.5826 23.7411 78.6776 23.9311 78.6214 24.1081ZM73.3629 27.8945L74.4975 29.4594C74.6063 29.6093 74.5735 29.8201 74.4227 29.9292C74.3637 29.9723 74.2949 29.994 74.226 29.994C74.1224 29.994 74.02 29.9459 73.9545 29.8552L72.8205 28.2902C72.7117 28.1396 72.7445 27.9295 72.894 27.8204C73.0434 27.7113 73.254 27.7427 73.3629 27.8945ZM67.7457 29.5837C67.8663 29.635 67.9503 29.755 67.9503 29.8945V31.8288C67.9503 32.0149 67.8008 32.1655 67.6144 32.1655C67.4295 32.1655 67.2786 32.0149 67.2786 31.8288V29.8944C67.2786 29.7082 67.4281 29.5576 67.6144 29.5576C67.6605 29.5578 67.7051 29.5662 67.7457 29.5837ZM62.3246 27.8514C62.3994 27.9059 62.4452 27.9862 62.4584 28.0716C62.4715 28.1564 62.4525 28.2471 62.3973 28.3221L61.2641 29.8868C61.1985 29.9778 61.0963 30.0256 60.9926 30.0256C60.9231 30.0256 60.8549 30.0054 60.7945 29.9617C60.7204 29.9065 60.6739 29.8269 60.6607 29.7415C60.6543 29.6991 60.6555 29.6554 60.6666 29.613C60.6758 29.5706 60.6942 29.5287 60.7219 29.491L61.855 27.9253C61.9652 27.774 62.1746 27.7415 62.3246 27.8514ZM59.0454 23.3532C59.1019 23.5304 59.0055 23.7201 58.829 23.7776V23.7783L56.9941 24.376C56.9599 24.3875 56.9245 24.3922 56.8911 24.3922C56.7494 24.3922 56.6171 24.302 56.5704 24.16C56.5566 24.1157 56.5527 24.0706 56.5566 24.0265C56.567 23.8966 56.6543 23.7783 56.7875 23.7353L58.6226 23.1365C58.799 23.0793 58.9892 23.1769 59.0454 23.3532ZM67.2249 11.1907V11.1894V9.2549C67.2249 9.06919 67.3744 8.91815 67.5608 8.91815C67.7471 8.91815 67.8966 9.06905 67.8966 9.2549V11.1908C67.8966 11.377 67.7472 11.5276 67.5608 11.5276C67.3751 11.5274 67.2249 11.3775 67.2249 11.1907ZM81.9037 53.1392C81.72 52.8268 81.3239 52.7126 81.0032 52.8776C79.2266 53.7878 77.2427 54.1507 75.2359 54.3559C74.1007 53.4076 72.8763 52.475 71.5607 51.544C71.6788 50.7792 71.8532 50.0493 72.113 49.376C72.2435 49.034 72.0854 48.6493 71.751 48.5013C71.4151 48.352 71.0242 48.4941 70.8616 48.8228C70.6137 49.3193 70.1967 49.7947 69.6812 50.2602C69.4498 50.1078 69.23 49.9566 68.9927 49.8026L66.8861 48.3375L59.0671 30.0339C58.909 29.664 58.5457 29.4242 58.1424 29.4242L11.525 24.3471C11.5197 24.3471 11.5159 24.3483 11.5115 24.3483C11.437 24.3496 11.3607 24.3592 11.2872 24.3774C11.2678 24.3823 11.2479 24.3909 11.2295 24.3964C11.1757 24.4124 11.1248 24.4325 11.0738 24.4581C11.0489 24.4702 11.027 24.4844 11.0034 24.4985C10.9827 24.5121 10.9604 24.5209 10.9387 24.5357L9.21553 25.77C8.87968 26.0097 8.74632 26.4243 8.83541 26.8149C7.73752 26.7261 6.42321 26.6613 5.07589 26.7685C2.09978 27.002 0.464385 27.8674 0.0761226 29.4139C-1.10735 34.1202 11.8984 42.5732 12.0305 42.6586C13.5208 43.6193 15.0421 44.5591 16.5967 45.4784L23.6756 62.4323C23.8367 62.7965 24.1974 63.0305 24.5951 63.0305H27.3194H27.7283H44.8204L45.8042 66.3645L38.4091 71.3083C38.1477 71.4832 38.0419 71.8153 38.1533 72.1092C38.2539 72.3722 38.5058 72.5419 38.7802 72.5419C38.8121 72.5419 38.8448 72.5399 38.8763 72.5353L53.6196 70.4232L56.0501 69.922C56.1446 69.8313 56.2468 69.7458 56.3374 69.6518C56.4475 69.5354 56.5642 69.4197 56.6862 69.2999C56.8724 69.1158 57.0732 68.9199 57.2687 68.6897L57.5303 68.3965C57.582 68.3379 57.6373 68.2703 57.6897 68.2111L54.1561 68.9397V67.6851L57.9887 67.8666C58.0701 67.7712 58.15 67.6851 58.2315 67.5851C57.9699 67.2176 57.7358 66.8552 57.5187 66.4961L54.1555 66.337V63.0319H56.0994C56.0456 62.7689 56.0154 62.5085 55.9865 62.2487C56.3294 62.3493 56.6692 62.4545 57.0136 62.5539C57.1002 64.3615 57.9658 66.2935 59.654 68.4175C59.4723 68.6555 59.2919 68.8856 59.1064 69.1025C58.7392 69.5715 58.3574 69.981 58.0124 70.3718C57.6728 70.7716 57.3239 71.0826 57.0288 71.3916C56.7369 71.6982 56.4588 71.9552 56.2221 72.1558C55.7578 72.5701 55.5008 72.8166 55.5008 72.8166L56.9002 73.3012L59.8541 69.7969C60.0738 69.5786 60.3014 69.355 60.5336 69.1262C60.6006 69.0551 60.6661 68.9749 60.7317 68.9001C62.0131 69.1257 63.1831 69.2458 64.205 69.2458C64.9368 69.2458 65.5992 69.1829 66.2118 69.0697L66.213 69.0703C67.261 69.4597 68.2068 69.6353 69.0659 69.6353C71.7365 69.6353 73.5616 67.9307 75.0104 65.6569C78.2416 65.6228 80.1337 64.7685 80.775 63.039C81.3404 61.5167 80.7187 59.7859 78.9072 57.7633C79.7315 56.1575 80.611 54.8081 81.7025 54.0605C81.9995 53.8521 82.0886 53.451 81.9037 53.1392ZM73.3064 54.523C73.1385 54.5348 72.9706 54.5466 72.8041 54.559C72.3115 54.594 71.8217 54.6307 71.3351 54.6702C71.3402 54.131 71.3587 53.5984 71.3941 53.0757C72.0585 53.5561 72.6953 54.0388 73.3064 54.523ZM65.7166 50.7325C66.1297 50.4898 66.5299 50.2446 66.9207 50.0014L68.2474 50.9233C68.3615 50.9968 68.4657 51.0693 68.5784 51.143C67.5908 51.8452 66.4103 52.5331 65.1931 53.2414C61.7073 55.268 57.7567 57.5644 57.0917 61.1686C56.1788 60.9021 55.2685 60.6333 54.3655 60.3571C52.4609 59.7731 50.5826 59.1649 48.7293 58.5369L47.8912 56.5484L48.8251 55.3607L56.8262 55.6534L57.9037 56.3583C58.3222 55.8619 58.785 55.391 59.2894 54.949L57.9765 54.035L56.4864 50.4974L57.2833 49.484L65.3571 49.8912L65.7166 50.7325ZM51.9495 61.0086H49.7708L49.4245 60.1859C50.2613 60.4648 51.1021 60.7383 51.9495 61.0086ZM21.7329 46.8423L19.0769 40.5226L27.5541 41.073L29.1108 42.0919L31.0086 46.5859L30.2122 47.4434L22.0776 47.0331C21.9604 46.9698 21.8477 46.9042 21.7329 46.8423ZM53.7923 48.6336L45.542 48.2173L43.8945 47.0693L42.2221 43.1034L43.0289 42.0777L51.3368 42.6182L52.853 43.6098L54.6028 47.7618L53.7923 48.6336ZM55.7166 50.4037L57.2538 54.0521L56.4059 54.9648L48.0874 54.661L46.6812 53.6826L45.0941 49.916L45.8864 48.9087L54.0638 49.3217L55.7166 50.4037ZM43.2086 47.1739L42.3868 48.0588L33.077 47.588L31.7788 46.6831L29.9179 42.2747L30.7023 41.2766L39.7865 41.8671L41.4237 42.9389L43.2086 47.1739ZM50.8897 41.9124L42.5567 41.3719L41.0499 40.3214L39.3205 36.2194L40.0115 35.3407L48.6113 36.0153L50.0515 36.9566L51.7487 40.9873L50.8897 41.9124ZM40.3373 40.3638L39.5805 41.1792L30.3202 40.5773L28.7332 39.4708L26.9536 35.2564L27.6514 34.371L37.238 35.123L38.4684 35.9278L40.3373 40.3638ZM28.0308 39.5356L27.2479 40.378L18.7846 39.8293L16.1092 33.4657L24.5275 34.1257L26.2116 35.2288L28.0308 39.5356ZM30.3645 48.1246L32.1536 49.2963L33.5685 52.6487C30.0898 51.1127 26.726 49.4877 23.4843 47.7775L30.3645 48.1246ZM34.4651 53.0447L32.8908 49.3175L33.6961 48.293L42.8426 48.7552L44.2683 49.6883L46.0049 53.8055L45.3032 54.5603L37.3512 54.2702C36.3798 53.8679 35.4179 53.4589 34.4651 53.0447ZM45.4305 55.2376L47.0569 56.3024L47.8753 58.2423C44.9103 57.221 42.0126 56.1433 39.1834 55.0103L45.4305 55.2376ZM65.0633 49.2024L56.7691 48.7835L55.346 47.7904L53.6317 43.724L54.3504 42.8125L62.5614 43.3452L65.0633 49.2024ZM62.2656 42.6509L54.0979 42.1208L52.4819 40.9953L50.8661 37.1584L51.5822 36.2483L59.8076 36.8941L62.2656 42.6509ZM57.4807 31.4437L59.5091 36.1951L51.4314 35.5614L49.6778 34.34L48.0303 30.4309L57.4807 31.4437ZM47.2669 30.3489L48.9813 34.4166L48.1561 35.3035L40.0472 34.6679L38.0915 33.3057L36.3523 29.1786L47.2669 30.3489ZM35.5873 29.0972L37.4327 33.474L36.5765 34.3959L27.3547 33.672L25.8367 32.6155L23.8181 27.8353L35.5873 29.0972ZM23.0544 27.753L25.0705 32.5251L24.2327 33.4273L15.8158 32.766L13.2673 26.7032L23.0544 27.753ZM12.7565 41.5251C8.89106 39.0312 0.65985 32.602 1.37834 29.7415C1.66037 28.6171 3.60182 28.2337 5.18086 28.11C6.34916 28.017 7.62482 28.0473 9.31361 28.2054L9.3271 28.0673L15.7178 43.3743C14.7192 42.7653 13.7278 42.1511 12.7565 41.5251ZM22.5602 48.8105C25.9796 50.6235 29.5329 52.3423 33.2147 53.9626L33.0743 54.1138L24.6601 53.8066L22.5602 48.8105ZM27.6878 61.0086L24.9491 54.4913L33.3437 54.7977L34.9098 55.8216L37.1003 61.0081H27.6878V61.0086ZM37.8275 61.0086L35.7262 56.03L36.3073 55.2903C40.2606 56.9388 44.3523 58.479 48.5751 59.9046L49.0408 61.0086H37.8275ZM41.6159 70.7804L46.6517 67.4149L51.0995 69.4224L41.6159 70.7804ZM52.8126 68.7202L50.085 67.4879L52.8126 67.618V68.7202ZM52.8126 66.2699L47.0977 65.9977L46.2208 63.0287H52.8119V66.2699H52.8126ZM61.7711 67.6719C62.0092 67.3695 62.2433 67.059 62.4795 66.7433C62.873 66.1582 63.2927 65.5728 63.6619 64.9587C64.037 64.3491 64.3788 63.7211 64.7186 63.1069C65.0555 62.4915 65.3508 61.8653 65.638 61.2656C66.2119 60.0617 66.6839 58.9181 67.075 57.9304C67.4699 56.9473 67.778 56.1193 67.9971 55.5381C68.2201 54.962 68.3381 54.622 68.3381 54.622C68.3395 54.622 67.445 55.7446 66.37 57.5819C65.8211 58.4893 65.2171 59.5664 64.5678 60.7087C64.2426 61.2773 63.9068 61.8653 63.5643 62.4623C63.2195 63.0555 62.8704 63.6571 62.4966 64.2418C62.1517 64.8455 61.7609 65.4155 61.3935 65.991C61.0793 66.417 60.7987 66.8556 60.5015 67.272C58.8056 65.0526 58.1235 63.1331 58.4371 61.4233C58.9865 58.438 62.49 56.4009 65.8794 54.4307C67.2973 53.6066 68.6587 52.8037 69.7848 51.9469C69.8925 52.0186 70 52.0922 70.1055 52.1646C69.9127 53.967 69.9599 55.8733 70.0177 57.7474C70.1278 61.3227 70.2294 64.6995 68.5243 66.463C67.2761 67.7534 65.0561 68.1428 61.7711 67.6719ZM68.5217 68.2152C68.8849 67.9876 69.2129 67.7233 69.5073 67.4195C70.9507 65.9254 71.3542 63.7391 71.427 61.2645C71.4545 61.2475 71.486 61.2387 71.5121 61.2172L71.5246 61.2073L76.2242 57.2316L71.4347 59.7184C71.4268 59.0589 71.4059 58.3855 71.3855 57.7043C71.3698 57.1532 71.3539 56.5981 71.3428 56.0465C71.8603 56.0025 72.3777 55.9649 72.8998 55.9274C74.8745 55.7881 76.8962 55.6447 78.8414 55.1395C77.8866 56.5547 77.0943 58.3178 76.272 60.1426C74.3315 64.459 72.4859 68.5656 68.5217 68.2152ZM79.5151 62.5652C79.1413 63.5738 77.9052 64.1498 75.8098 64.2814C76.4276 63.1293 76.9838 61.901 77.5215 60.7075C77.7721 60.1506 78.02 59.6047 78.2691 59.0695C79.4312 60.4806 79.8529 61.6551 79.5151 62.5652Z" fill="black"/>
</g>
<defs>
<clipPath id="clip0_111_6">
<rect width="82" height="82.2196" fill="white"/>
</clipPath>
</defs>
</svg>
