<svg width="82" height="83" viewBox="0 0 82 83" fill="none" xmlns="http://www.w3.org/2000/svg">
<path d="M70.9997 57.7823C70.5926 11.9557 71.4801 13.7233 70.0865 12.8193C70.0608 12.7825 70.0241 12.7678 69.9838 12.7421V12.7311C50.9023 1.81041 51.2432 1.42754 50.7625 1.97503C50.37 1.61859 48.287 -0.108448 47.9202 0.00537758C47.7662 0.0678462 47.7662 0.0568232 47.007 1.78388C46.8677 1.72141 46.7026 1.72141 46.5743 1.7949C29.5208 11.6723 30.5254 11.0366 30.4118 11.1763C29.5353 10.5038 28.6111 9.79092 28.3947 10.1841C28.3837 10.2209 27.7089 11.6209 26.9864 13.348C26.528 13.1716 27.2542 13.0687 13.4246 20.9619C12.053 21.7483 10.9747 23.6076 11.0005 25.1841C11.0775 53.4674 11.1031 63.7644 11.1141 67.0343V68.3829C11.1141 70.7457 11.5322 69.478 32.2132 81.9977H32.2242C32.2352 82.0088 32.2498 82.0088 32.2608 82.0235C33.4931 82.7106 34.8244 81.4502 36.7021 80.436V80.9578C36.7021 81.6303 37.3366 82.0529 37.9564 81.6817C39.3646 80.8035 39.7314 80.8182 40.1018 80.1935L41.6495 77.5625H41.6605L62.7482 65.3699L64.1198 66.0828C64.6919 66.3988 65.0587 65.9542 66.555 65.1164C67.648 64.4917 67.2665 63.1579 67.3289 62.7132C67.5746 62.4854 70.9997 61.163 70.9997 57.7823ZM48.1111 0.653102C54.4411 4.61799 54.4044 9.60083 51.9547 11.2172C52.9192 8.72588 49.5965 5.7016 49.2921 5.78983C49.0391 5.82658 48.3276 7.66024 47.8325 9.18522C47.4401 10.3942 47.0697 11.243 47.6565 11.7538C46.2372 11.3459 45.3093 10.1774 45.3093 9.82095C44.5942 8.07547 47.3116 2.33245 48.1111 0.653102ZM51.4485 12.1184C51.8813 11.9421 52.259 11.7106 52.6038 11.4056C54.0634 12.4602 54.8996 12.6146 54.8886 13.276L54.7492 16.2745C54.7382 16.3112 54.7236 16.3516 54.7236 16.3627C53.9241 16.7706 53.9607 16.844 53.836 16.7706C53.2786 16.4031 53.66 15.5616 53.6453 13.6801C53.6673 13.3898 53.3995 13.4156 51.4485 12.1184ZM44.9132 17.6231L44.077 17.1527C44.077 12.3096 43.5196 14.3196 46.8826 12.0303C47.3521 12.2471 47.8728 12.3978 48.4046 12.4749C48.2286 12.7285 48.3166 12.5631 45.2727 14.3674C45.1663 16.5317 45.5733 17.2189 44.9132 17.6231ZM45.0636 10.52C45.1773 10.7221 45.3313 10.9132 45.5073 11.0932L44.7702 11.5269C44.4438 11.2696 44.6858 10.7846 45.0636 10.52ZM48.9731 12.5263C49.1014 12.5263 49.8239 12.6035 50.7738 12.3353L53.0843 13.8235C53.0843 13.9521 53.0476 14.8671 53.0476 14.7384C51.2836 16.0724 48.1992 16.0466 46.5379 14.2681C48.2616 13.1767 48.643 13.2907 48.9731 12.5263ZM28.7622 10.6964C34.8538 14.5107 35.1949 19.5449 32.6204 21.2605C33.5336 18.8573 30.3502 15.7192 29.9578 15.8331C29.5398 15.8956 28.0178 20.4484 28.0031 21.1614C28.0031 21.4039 28.1168 21.6207 28.3075 21.7971C26.8479 21.3635 25.9714 20.184 25.9714 19.8642C25.2342 18.082 27.926 12.4639 28.7622 10.6964ZM32.0996 22.1617C32.5067 21.9964 32.8991 21.7538 33.2401 21.4488L35.2059 22.7203C35.789 23.0878 35.3819 23.9145 35.3819 26.3178C35.3819 26.3692 35.3709 26.4059 35.3709 26.4059C34.5714 26.8138 34.5971 26.8873 34.4687 26.8138C33.9113 26.4464 34.2927 25.6048 34.278 23.7234C34.2927 23.6389 34.0543 23.4589 32.0996 22.1617ZM25.5532 27.6664L24.717 27.196C24.717 22.2242 24.1852 24.4253 27.5226 22.0736C28.003 22.2904 28.5238 22.441 29.0446 22.5182C28.8686 22.7718 28.9822 22.6064 25.9236 24.4106C25.8173 26.575 26.1986 27.2621 25.5532 27.6664ZM29.613 22.5696C29.7414 22.5696 30.4748 22.6468 31.4284 22.3785L33.7242 23.8667L33.6875 24.7707V24.7817C31.9235 26.1156 28.8539 26.0899 27.1925 24.3114C28.9015 23.22 29.294 23.3339 29.613 22.5696ZM25.6925 20.5486C25.8209 20.7507 25.9602 20.9418 26.1363 21.1218L25.3624 21.5812C25.0214 21.3129 25.2854 20.8794 25.6925 20.5486ZM31.212 43.5592L11.94 32.3225C12.3214 28.0893 10.8104 23.5401 13.8947 21.7979L26.5073 14.5147C25.7225 16.5247 24.9597 18.3547 25.3778 19.854C24.0832 19.854 23.7678 22.485 25.4035 22.485C25.6565 22.485 26.7348 21.8604 26.8631 21.7097C26.8998 21.7354 26.9255 21.7611 26.9658 21.7722L24.7727 23.0436C23.7972 23.6279 24.329 24.8221 24.1749 27.1224C24.1749 27.365 24.2776 27.5671 24.4537 27.6553C25.4292 28.2138 25.3815 28.2138 25.5466 28.2138C26.9035 28.2138 26.4084 25.7077 26.4854 25.1492C27.9818 27.2731 31.4475 27.6553 33.6406 26.3067H33.6516C33.6883 26.8028 34.0697 27.387 34.5538 27.387C34.7958 27.387 34.8325 27.2988 35.6687 26.8799C36.1271 26.5859 35.8851 26.0017 36.0868 23.3339C36.1124 22.2278 34.8068 21.9339 33.6626 21.0593C33.8643 20.8315 34.0551 20.5779 34.2091 20.2582L35.4523 19.5453C35.489 20.0414 35.2873 20.9049 35.72 21.1328C36.4059 21.526 36.6845 21.8567 37.165 21.5921C38.1553 21.0189 37.6088 19.6997 37.7482 17.5133C37.7482 17.2598 37.6455 17.0687 37.4804 16.9658C37.4694 16.9658 37.4694 16.9548 37.4548 16.9548C35.8924 15.8745 36.3252 16.6865 34.6272 17.3369C34.3852 15.1395 32.8375 13.2691 31.1651 11.8066L46.5024 2.93234C45.6515 4.92767 44.2176 7.80125 44.764 9.79659C43.8141 9.84803 43.0879 11.678 44.3716 12.3137C44.6246 12.4423 44.9804 12.4791 45.1968 12.3137C46.1466 11.7405 46.1246 11.8066 46.2383 11.678C46.264 11.689 46.2897 11.7148 46.3153 11.7295C44.9438 12.6812 43.5097 12.9237 43.5355 14.0556C43.6125 16.8152 43.3338 17.359 43.8142 17.6163C44.7898 18.1749 44.7421 18.1749 44.9071 18.1749C45.3876 18.1749 45.846 17.5392 45.846 17.0173V15.1102C47.3423 17.2342 50.8081 17.6164 53.0011 16.2678C53.0378 16.6352 53.2542 17.0431 53.5476 17.2342C54.0684 17.5649 54.3728 17.1055 55.0329 16.841C55.4913 16.547 55.2492 15.9627 55.451 13.295C55.4766 12.1889 54.1564 11.8949 53.0268 11.0203C53.2175 10.7925 53.4082 10.539 53.5733 10.2193L54.8055 9.5064C54.8422 10.0025 54.6515 10.866 55.0842 11.0938C55.7187 11.476 56.0341 11.8177 56.5182 11.5532C57.5084 10.9799 56.9766 9.66075 57.1159 7.47435C57.1159 7.22081 57.0133 7.02972 56.8372 6.92683C55.3152 6.1772 56.3935 6.07432 53.995 7.29429C53.8666 6.19922 53.4742 5.01966 52.231 3.49468L68.1804 12.7878C67.9383 12.9165 69.7537 11.8728 33.6584 32.7449C29.9176 34.8872 31.5934 39.9876 31.212 43.5592ZM36.8819 21.1074C36.8452 21.1331 36.8195 21.1331 36.8195 21.1441V21.1331C36.7828 21.0963 36.7315 21.0706 36.6655 21.0559L36.0053 20.6885C35.9797 18.2596 36.2327 18.5535 34.509 19.4428C34.6227 19.0092 34.685 18.5131 34.663 17.9435L36.3243 16.9918C36.35 16.966 36.3757 16.966 36.3757 16.955C36.438 16.9918 37.1385 17.4144 37.1862 17.4364C37.1972 17.4364 37.1972 17.4621 37.1972 17.5136C37.1092 19.8507 37.4393 20.7767 36.8819 21.1074ZM56.2421 11.0644C56.2054 11.0901 56.1798 11.0901 56.1798 11.1011L56.1688 11.0901C56.1321 11.0534 56.0808 11.0276 56.0294 11.0129L55.3693 10.6455C55.3436 8.29371 55.5857 8.48477 53.8729 9.39979C53.9866 8.96618 54.049 8.47011 54.0269 7.90049L55.6773 6.94878C55.7139 6.92306 55.7396 6.92306 55.7396 6.91203C56.3631 7.27949 56.4254 7.34564 56.5501 7.39341C56.5501 7.39341 56.5611 7.41913 56.5611 7.47058C56.4584 9.80767 56.8142 10.7337 56.2421 11.0644ZM33.3686 34.1889C33.7354 33.781 68.4107 13.5046 69.3496 13.5046C70.4901 13.9639 69.5513 15.5256 69.9474 21.7174L68.5647 22.5185C69.0965 21.971 68.8067 21.4234 68.8801 20.2292C69.5769 18.2192 68.4473 17.7488 68.4107 17.6239C68.3997 17.6239 68.3997 17.6129 68.385 17.6129C67.9779 17.4732 67.3691 16.6465 66.1259 17.3703C64.3509 18.3882 62.9536 21.7175 65.4658 22.7353C66.0746 23.077 66.7604 22.8382 67.3325 22.4193C67.4352 22.4707 67.7396 22.6471 67.8276 22.7132C67.8276 22.7243 67.8386 22.7132 67.8386 22.7132C67.9156 22.75 68.055 22.7757 68.2054 22.7243L63.3717 25.5207C63.6871 25.0393 63.5111 24.7821 63.5624 23.4115C63.7018 23.0183 63.7641 22.6251 63.7641 22.2687C63.7641 21.1736 63.2067 20.9459 63.0783 20.8062L63.0673 20.8025L62.4072 20.4203C60.3754 19.2261 56.8363 24.5911 60.137 25.925C60.7458 26.2667 61.4426 26.0132 62.0038 25.609C62.1064 25.6604 62.4108 25.8368 62.4988 25.9029H62.5098C62.5722 25.9286 62.5099 25.9029 62.6639 25.9397L32.1875 43.5591C32.3525 37.5328 31.5533 36.107 33.3686 34.1889ZM67.3066 18.0679C67.9667 17.7887 68.4729 18.0569 68.5756 18.8066L67.3066 18.0679ZM66.2137 21.4523C66.2137 21.9227 66.5951 21.9594 66.8481 22.1505C65.0071 23.2566 64.7174 20.677 66.2137 18.9095C66.188 19.1263 66.2137 20.2323 66.2137 21.4523ZM63.2467 21.9852L61.9667 21.2466C62.6379 20.982 63.133 21.2355 63.2467 21.9852ZM60.8995 24.6419C60.8995 25.1123 61.2919 25.149 61.534 25.3291C59.6673 26.4462 59.4546 23.8151 60.9105 22.088C60.8739 22.3159 60.8995 23.4072 60.8995 24.6419ZM66.6208 62.0275L62.484 64.4049C62.473 64.4049 62.4583 64.416 62.4583 64.4307C58.6295 66.6428 38.1765 78.4792 36.9072 79.2139C34.7874 80.3456 32.2752 82.5431 32.2752 80.1656L32.1872 44.6464L69.9322 22.8078L70.0349 57.7796C70.0459 60.6936 66.8884 61.7887 66.6208 62.0275Z" fill="black"/>
<path d="M65.8108 36.7415C65.8108 35.6244 64.8829 35.1394 63.9587 35.6869C38.708 50.9038 36.2219 50.3704 36.2622 53.296C36.4896 70.637 35.4517 74.6896 38.1656 73.0508L64.4903 57.8227C66.9658 56.3969 65.3524 53.6998 65.8108 36.7415Z" fill="black"/>
<path d="M46.7909 33.0707C46.7909 33.6293 47.1577 33.9343 47.5648 33.9343C48.0342 33.9343 47.9205 33.8314 55.0647 29.7379C56.3593 28.9735 55.6624 27.3236 55.8385 24.461C55.8385 23.7114 55.1784 23.3807 54.5695 23.7371L47.5648 27.7939C46.2592 28.5583 46.967 30.2339 46.7909 33.0707Z" fill="black"/>
<path d="M36.5405 39.3989C36.6689 39.4099 37.252 39.9317 38.4183 39.0829L38.8987 39.3622V39.3732C38.9354 39.3989 38.9757 39.4099 39.0271 39.4099C39.1554 39.4467 39.2544 39.4467 39.4451 39.3475C40.296 38.8661 39.8889 37.7196 39.9659 36.8928C40.6517 34.8828 39.5221 34.4124 39.4965 34.2875C39.4965 34.2875 39.4855 34.2765 39.4708 34.2765C39.0637 34.1368 38.455 33.3101 37.2117 34.0229C36.0712 34.6844 35.1689 36.2351 35.1689 37.5579C35.2056 39.0314 36.1848 39.0939 36.5405 39.3989ZM37.3254 35.5626C37.2997 35.7904 37.3254 36.9627 37.3144 38.1164C37.3144 38.5868 37.7068 38.6382 37.9488 38.8146C36.0711 39.9097 35.8547 37.2897 37.3254 35.5626Z" fill="black"/>
<path d="M41.8697 36.2091C41.998 36.2201 42.5811 36.7419 43.7474 35.8931L44.2278 36.1723V36.1834C44.7229 36.4369 45.295 35.7902 45.295 35.2426V33.692C45.9808 31.682 44.8513 31.2116 44.8256 31.0867C44.8146 31.0867 44.8146 31.0757 44.7999 31.0757C44.3928 30.936 43.7841 30.1093 42.5408 30.8221C41.4003 31.4836 40.498 33.0343 40.498 34.3571C40.5347 35.8416 41.5139 35.904 41.8697 36.2091ZM42.6435 32.3838C42.6178 32.6116 42.6435 33.7177 42.6325 34.9376C42.6325 35.408 43.0249 35.4594 43.2669 35.6358C41.4625 36.7051 41.1215 34.177 42.6435 32.3838Z" fill="black"/>
</svg>
